<?xml version="1.0" encoding="UTF-8"?><svg id="Layer_2" xmlns="http://www.w3.org/2000/svg" viewBox="0 0 289.23 422.18"><defs><style>.cls-1{fill:#fcd9ca;}.cls-1,.cls-2,.cls-3,.cls-4,.cls-5,.cls-6,.cls-7,.cls-8,.cls-9,.cls-10,.cls-11,.cls-12{stroke:#000;stroke-miterlimit:10;stroke-width:.75px;}.cls-13,.cls-10{fill:#1e4237;}.cls-2{fill:#427f6b;}.cls-3{fill:#4e70ce;}.cls-4{fill:#4a2b30;}.cls-5{fill:#30594c;}.cls-6{fill:#8c8c8c;}.cls-7{fill:#fff;}.cls-14{fill:#f4d7a4;}.cls-8{fill:#f4c464;}.cls-9{fill:#293931;}.cls-15{fill:#f2c0aa;}.cls-16{fill:#2f2fc9;}.cls-17{fill:#ffe2ae;}.cls-11{fill:#f3c095;}.cls-12{fill:#e2991a;}.cls-18{fill:#7f7f7f;}.cls-19{fill:#d69c36;}.cls-20{fill:#b77b1c;}</style></defs><g id="objects"><g><path class="cls-6" d="M288.86,364.33v-50.91c-79.52-9.56-172.39-64.36-211.15-78.45-30.71-11.17-60.41-5.38-72.93-1.94-3.39,.93-5.26,4.56-4.02,7.86,8.22,21.97,20.38,50.96,34.79,57.45,12.7,5.72,47.23,90.68,60.17,123.47h193.14v-57.48Z"/><g><path class="cls-18" d="M114.91,354.6c-.29-.64-.59-1.24-.93-1.83-3.71-6.5-36.39-63.78-41.89-74.65-5.77-11.4-11.18-40.5-11.23-40.8-.1-.54-.62-.9-1.16-.8-.54,.1-.9,.62-.8,1.16,.22,1.21,5.52,29.68,11.41,41.34,5.41,10.69,35.88,64.13,41.94,74.74,.31,.54,.58,1.08,.85,1.66l26.97,59.94c.17,.37,.53,.59,.91,.59,.14,0,.28-.03,.41-.09,.5-.23,.73-.82,.5-1.32l-26.97-59.94Z"/><path class="cls-18" d="M150.34,421.81h-2.16l-25.88-61.74c-.21-.51,.03-1.09,.54-1.31,.51-.21,1.09,.03,1.31,.54l26.19,62.51Z"/><path class="cls-18" d="M76.65,354.6l25.95,67.21h-2.14l-25.68-66.48c-.2-.52,.06-1.1,.57-1.3,.52-.2,1.1,.06,1.3,.57Z"/><path class="cls-18" d="M92.4,380.51l15.95,41.3h-2.14l-15.67-40.58c-.2-.51,.05-1.09,.57-1.29,.51-.2,1.09,.06,1.29,.57Z"/><path class="cls-18" d="M105.91,403.51l7.07,18.3h-2.14l-6.79-17.58c-.2-.52,.06-1.09,.57-1.29s1.09,.05,1.29,.57Z"/><path class="cls-18" d="M43.24,297.07c-.28-.48-.89-.64-1.37-.36-.48,.28-.64,.89-.36,1.37l6.75,11.6c.19,.32,.52,.5,.87,.5,.17,0,.34-.04,.5-.14,.48-.28,.64-.89,.36-1.37l-6.75-11.6Z"/><path class="cls-18" d="M46.61,295.28c-.28-.48-.89-.64-1.37-.36-.48,.28-.64,.89-.36,1.37l4.43,7.59c.19,.32,.52,.5,.87,.5,.17,0,.34-.04,.5-.14,.48-.28,.64-.89,.36-1.37l-4.43-7.59Z"/><path class="cls-18" d="M155.82,314.9c-.06-.14-.14-.27-.26-.37-.04-.04-4.27-3.85-8.85-8.85-3.69-4.03-9.67-26.07-11.66-34.22-.13-.54-.67-.87-1.21-.73-.54,.13-.87,.67-.73,1.21,.3,1.22,7.34,29.87,12.13,35.1,4.12,4.5,7.97,8.06,8.82,8.83l7.99,19.76c.16,.39,.53,.62,.93,.62,.12,0,.25-.02,.37-.07,.51-.21,.76-.79,.55-1.3l-8.07-19.97Z"/><path class="cls-18" d="M157.01,329.63c-.2-.52-.78-.77-1.29-.57-.51,.2-.77,.78-.57,1.29l5.21,13.34c.15,.4,.53,.64,.93,.64,.12,0,.24-.02,.36-.07,.51-.2,.77-.78,.57-1.29l-5.2-13.34Z"/><path class="cls-18" d="M172.65,332.96c-.16-.53-.71-.83-1.25-.67-.53,.16-.83,.72-.67,1.25,.11,.36,7.97,26.36,17.93,48.58-13.74-23.31-26.28-65.9-26.42-66.39-.03-.1-.08-.2-.14-.29-.09-.14-2.38-3.38-7.27-8.27-4.62-4.62-9.44-25.65-9.49-25.87-.12-.54-.66-.88-1.2-.75-.54,.12-.88,.66-.75,1.2,.2,.89,5,21.81,10.03,26.84,4.22,4.22,6.48,7.23,6.95,7.87,1.18,4,16.91,56.84,32.76,75.66,.13,.15,.29,.24,.47,.29,2.36,4.56,4.79,8.69,7.21,12.05,.2,.27,.5,.42,.81,.42,.2,0,.41-.06,.58-.19,.45-.32,.55-.95,.23-1.4-14.7-20.41-29.63-69.83-29.78-70.33Z"/><path class="cls-18" d="M194.81,377.42c-.22-.51-.81-.74-1.32-.52-.51,.22-.74,.81-.52,1.32,.3,.69,7.48,17.07,12.35,24.86,.19,.3,.52,.47,.85,.47,.18,0,.36-.05,.53-.15,.47-.29,.61-.91,.32-1.38-4.78-7.66-12.14-24.43-12.21-24.6Z"/><path class="cls-18" d="M202.54,384.7c-.22-.51-.8-.75-1.31-.53-.51,.22-.75,.8-.53,1.31,.04,.1,4.19,9.8,9.05,17.58,.19,.3,.52,.47,.85,.47,.18,0,.36-.05,.53-.15,.47-.29,.61-.91,.32-1.38-4.78-7.65-8.87-17.21-8.91-17.31Z"/><path class="cls-18" d="M210.06,391.26c-.18-.52-.75-.79-1.27-.61-.52,.18-.8,.75-.61,1.27,.05,.13,1.19,3.33,6.07,11.15,.19,.3,.52,.47,.85,.47,.18,0,.36-.05,.53-.15,.47-.29,.61-.91,.32-1.38-4.71-7.53-5.86-10.68-5.88-10.75Z"/><path class="cls-18" d="M285.77,373.74c.9,1.22,1.73,2.39,2.5,3.57v3.87c-1.19-2.17-2.54-4.13-4.1-6.25-4.66-6.29-6.33-18.82-8.09-32.08-.39-2.88-.79-5.86-1.21-8.71-2.09-14.02-6.86-14.76-6.91-14.77-.53-.06-.94-.54-.89-1.08s.54-.93,1.04-.91c.65,.04,6.41,.82,8.74,16.47,.42,2.86,.82,5.85,1.21,8.74,1.66,12.42,3.37,25.27,7.71,31.15Z"/><path class="cls-18" d="M288.27,364.33c-1.51-4.45-1.99-8.93-2.58-14.37-.45-4.17-.96-8.89-2.01-14.63-3.17-17.2-5.98-20.02-6.51-20.41-.45-.33-1.1-.25-1.42,.19-.33,.45-.26,1.05,.19,1.38,.11,.1,2.73,2.68,5.77,19.2,1.04,5.66,1.55,10.35,1.99,14.48,.8,7.42,1.41,13.09,4.57,19.37v-5.21Z"/></g></g><g><path class="cls-1" d="M137.26,16.8s9.87-8.37,18.23-9.87c8.37-1.5,5.79,2.68,5.79,2.68,0,0-1.93,4.26-5.58,6.64-3.65,2.37-8.26,3.98-12.66,3.12l-2.68,3.22s-2.36-4.83-5.26-5.04l2.15-.75Z"/><path class="cls-15" d="M151.75,14.27c-.16,0-.31-.07-.41-.21-.16-.23-.1-.54,.12-.7,.64-.45,6.28-4.35,8.79-3.89,.46,.08,.81,.3,1.04,.64,.15,.23,.09,.54-.13,.69-.23,.15-.54,.1-.69-.13-.05-.07-.14-.18-.4-.22-1.78-.33-6.4,2.58-8.04,3.72-.09,.06-.19,.09-.29,.09Z"/><path class="cls-7" d="M134.12,18.5c-.57-.9-.48-2.09,.29-2.83,.92-.89,2.44-1.77,4.6-1.22,2.57,.65,7.28,4.92,2.99,8.15-3.18,2.4-6.41-1.77-7.88-4.1Z"/><path class="cls-11" d="M156.89,9.08s-1.5,13.51-5.36,18.88c-3.86,5.36,1.5,5.36,1.5,5.36,0,0,.27,9.49,2.79,10.4,2.36,.86,8.37,0,8.37,0v6.65l17.05-2.68s-1.5-6.86-.86-9.12c.64-2.25,11.37-6.01,9.44-23.7-1.93-17.7-30.35-15.34-32.93-5.79Z"/><ellipse cx="158.41" cy="22.09" rx="1.03" ry="2.24"/><path d="M155.46,38.31c-.25,0-.47-.19-.5-.44-.03-.27,.17-.52,.44-.55,.04,0,2.14-.3,3.99-2.67,.17-.22,.49-.26,.7-.09,.22,.17,.26,.48,.09,.7-2.14,2.74-4.56,3.04-4.67,3.05-.02,0-.04,0-.06,0Z"/><path class="cls-4" d="M186.46,4.97s2.73-2.83-5.26-4.25c-7.99-1.42-19.22,2.1-21.75,1-2.53-1.1-7.42-.88-6.48,4.89,.95,5.77,6.56,10.7,8.7,11.92s1.14,6.82,3.41,7.3c0,0-1.77-6.07,0-5.98s2.66-1.01,3.32,5.31c.66,6.32,2.59,8.93,4.1,11.22,1.52,2.29,2.02,5.93,2.02,5.93,0,0,3.47,.1,5.83,0,.74-.03,1.53-.32,2.27-.7,1.8-.93,3.23-2.44,4.16-4.23,3.62-6.96,13.82-29-.33-32.41Z"/><path class="cls-3" d="M206.76,157.91c-.24,2.24-.72,4.39-1.55,6.23,0,0,0,14.59-2.73,25.08-2.72,10.49-3.4,22.49-2.59,25.21,.82,2.73,6.68,21.81,4.5,37.07-2.18,15.26-2.18,20.19-2.18,20.19,0,0,2.18,4.47,.14,5.7-2.05,1.23-9.41,3.14-9.41,3.14l-5.18-4.91s.55-5.59,2.05-6.27-2.18-17.85-3.27-25.21-7.63-27.12-7.36-31.34c.27-4.23-1.91-21.67-1.91-21.67l-1.36-18.4s-16.08,17.44-20.44,20.44-1.91,4.5-5.18,5.18c0,0,3.41,.95,5.59,11.65s4.49,37.95,8.04,45.59c3.54,7.63-3.68,7.9-3.68,7.9l-6.41,2.18-1.91-6.68s-3.27-1.36-1.63-3.95c0,0-4.5-10.9-8.31-22.08-3.82-11.17-11.45-32.84-11.86-34.88-.41-2.05,0-3.95,3.27-10.5,3.27-6.54,14.72-28.75,24.26-44.56l.54-6.4,47.02,2.86s.12,.49,.3,1.36c.64,3,1.97,10.45,1.25,17.07Z"/><g><path class="cls-16" d="M175.91,173.23c-.12,0-.23-.04-.33-.12-.21-.18-.23-.5-.05-.71,.04-.04,3.74-4.3,12.8-11.9,8.8-7.37,5.92-21.42,5.89-21.56-.06-.27,.12-.54,.38-.59,.27-.06,.54,.11,.59,.38,.03,.15,3.04,14.77-6.22,22.54-9,7.55-12.65,11.74-12.69,11.78-.1,.11-.24,.17-.38,.17Z"/><path class="cls-16" d="M201.4,164.88s-.06,0-.09,0c-4.7-.9-15.21-1.22-15.32-1.22-.21,0-.39-.14-.46-.33-.07-.19-.01-.41,.14-.55,2.29-2.01,10.69-1.78,11.63-1.75,.28,0,.49,.24,.48,.52,0,.28-.27,.51-.52,.48-1.92-.07-6.44-.02-9.16,.7,3.35,.14,9.85,.49,13.38,1.16,.27,.05,.45,.31,.4,.59-.05,.24-.25,.41-.49,.41Z"/><path class="cls-16" d="M182.58,157.42c-1.29,0-2.93-.19-6.21-1.16-5.44-1.6-2.01-15.92-1.6-17.55,.06-.25,.3-.41,.55-.37l13.11,1.85c.15-.18,.34-.2,.46-.18,.57,.07,.72,.09,.33,7.89-.43,8.68-1.37,9.42-4.16,9.44h-.33c-.35,0-.66,.03-.97,.04-.39,.02-.77,.04-1.18,.04Zm-6.95-18.02c-1.06,4.45-2.69,14.81,1.02,15.91,4.18,1.23,5.58,1.16,7.06,1.08,.32-.02,.65-.03,1.01-.04h.33c1.94-.02,2.75-.03,3.17-8.49,.21-4.17,.22-5.92,.2-6.65l-12.8-1.8Z"/><path class="cls-16" d="M205.65,158.41c-1.39,0-3.03-.21-5.31-.68-5.56-1.15-3.32-15.71-3.04-17.36,.04-.25,.26-.43,.52-.42l6.72,.39c.22,.01,.41,.17,.46,.39,.62,2.92,1.99,10.46,1.26,17.23-.03,.25-.24,.44-.49,.45-.04,0-.08,0-.11,0Zm.11-.5h0Zm-7.55-16.93c-.69,4.52-1.46,14.99,2.33,15.77,1.99,.41,3.53,.62,4.77,.66,.59-6.24-.58-13.06-1.21-16.09l-5.89-.34Z"/><path class="cls-16" d="M156.32,265.32c-.21,0-.4-.13-.47-.33-.86-2.42-3.23-8.91-3.86-9.9-.81-1.27-1.16-5.45-1.21-6.21-2.04-5.4-18.73-49.73-18.27-53.16,.49-3.66,27.27-47.61,29-49.81,1.29-1.64,1.02-5.61,.81-7-.04-.27,.15-.53,.42-.57,.28-.04,.53,.15,.57,.42,.03,.22,.81,5.45-1.01,7.77-1.96,2.48-28.35,46.06-28.79,49.32-.32,2.42,10.73,32.87,18.24,52.75,.02,.04,.03,.09,.03,.14,.09,1.3,.47,4.88,1.07,5.82,.82,1.29,3.83,9.74,3.95,10.1,.09,.26-.04,.55-.3,.64-.05,.02-.11,.03-.17,.03Z"/><path class="cls-16" d="M148.87,198.68s-.08,0-.13-.02c-5.47-1.42-9.25-.03-9.29-.02-.26,.1-.55-.03-.64-.29-.1-.26,.03-.55,.29-.64,.17-.06,4.1-1.52,9.9-.02,.27,.07,.43,.34,.36,.61-.06,.22-.26,.37-.48,.37Z"/><path class="cls-16" d="M150.29,198.85c-.18,0-.36-.1-.45-.27-2.6-5.14-10.4-3.91-10.48-3.9-.27,.05-.53-.14-.58-.41-.04-.27,.14-.53,.41-.58,.35-.06,8.6-1.37,11.54,4.43,.12,.25,.03,.55-.22,.67-.07,.04-.15,.05-.23,.05Z"/><path class="cls-16" d="M192.94,281.03c-.22,0-.42-.15-.48-.37-1.1-3.98-1.02-6.93-.81-10.11,.14-2.1-1.77-14.38-3.31-24.25-.93-5.97-1.73-11.12-1.94-13.12-.35-3.26-1.27-9.44-2.02-14.41-.48-3.21-.86-5.74-.95-6.6-.23-2.15-4.34-42.69-4.39-43.1-.03-.27,.17-.52,.45-.55,.27-.02,.52,.17,.55,.45,.04,.41,4.16,40.95,4.39,43.1,.09,.84,.49,3.49,.95,6.55,.75,4.98,1.67,11.18,2.02,14.46,.21,1.98,1.01,7.12,1.94,13.07,1.62,10.43,3.46,22.26,3.32,24.47-.21,3.2-.29,5.95,.77,9.78,.07,.27-.08,.54-.35,.62-.04,.01-.09,.02-.13,.02Z"/><path class="cls-16" d="M194.89,273.82c-.19,0-.37-.11-.45-.29-.12-.25,0-.55,.24-.66,.17-.08,3.81-1.75,6.62-1.75-.13-.13-.29-.26-.5-.37-.71-.37-2.1-.6-4.7,.41-.26,.1-.55-.03-.65-.29-.1-.26,.03-.55,.29-.65,2.39-.93,4.26-1.04,5.56-.35,1.15,.62,1.39,1.66,1.4,1.7,.04,.16-.01,.33-.13,.45-.12,.12-.29,.17-.45,.15-2.53-.46-6.97,1.58-7.02,1.6-.07,.03-.14,.05-.21,.05Z"/><path class="cls-16" d="M198.89,214.93c-.1,0-.2-.03-.28-.09-3.85-2.63-6.98-8.3-7.11-8.54-.13-.24-.04-.55,.2-.68,.24-.13,.55-.04,.68,.2,.03,.06,3.14,5.7,6.79,8.19,.23,.16,.29,.47,.13,.7-.1,.14-.25,.22-.41,.22Z"/></g><path class="cls-9" d="M166.39,275.19s2.67-9.4-2.56-14.27c-.47-.44-1.17-.51-1.73-.2l-3.92,2.23c-1.79,1.02-4.08,.34-5.02-1.5l-1.26-2.46s-1.64-1.99-4.55,2.94l-7.54,1.18,26.57,12.08Z"/><path class="cls-9" d="M176.17,279.2l7.56-2.6c.68-.32,1.25-.84,1.62-1.5,.53-.93,1.4-2.3,2.31-3.03,.38-.3,.96-.12,1.13,.34l1.44,3.78c.61,1.62,2.27,2.59,3.98,2.35l7.05-1.87c.62-.16,1.26,.14,1.53,.72,1,2.17,3.5,7.81,.79,13.13l-27.42-11.33Z"/><g><path class="cls-8" d="M191.18,146.67c5.87,.19,12.93-.34,16.75-.68,1.75-13.88-.24-61.12-5.03-77.09-5.46-18.21-13.03-21.86-30.54-22.56-17.51-.7-22.23,13.03-22.23,13.03-10.3,15.3-3.27,47.78-3.27,47.78-2.8,8.97,0,22.98,0,22.98-1.07,1.19-1.46,3.25-1.57,5.06,2.16,.64,8.38,2.51,13.2,4.06,5.92,1.91,24.17,7.15,32.68,7.42Z"/><path class="cls-12" d="M191.18,146.67c-8.51-.27-26.76-5.52-32.68-7.42-4.82-1.55-11.05-3.42-13.2-4.06-.08,1.35,0,2.57,.07,3.2,.05,.4,.31,.74,.69,.88,3.24,1.22,19.26,7.09,35.34,9.68,18,2.9,25.58,.74,25.58,.74,.4-.45,.72-1.75,.97-3.7-3.82,.34-10.89,.87-16.75,.68Z"/></g><g><path class="cls-20" d="M161.99,132.31c-7.55,0-12.14-1.36-12.33-1.42-.26-.08-.41-.36-.33-.62,.08-.26,.36-.41,.62-.33,.05,.01,4.65,1.38,12.04,1.38,.28,0,.5,.22,.5,.5s-.22,.5-.5,.5Z"/><path class="cls-20" d="M161.99,108.52c-7.55,0-12.14-1.36-12.33-1.42-.26-.08-.41-.36-.33-.62,.08-.26,.36-.41,.62-.33,.05,.01,4.65,1.38,12.04,1.38,.28,0,.5,.22,.5,.5s-.22,.5-.5,.5Z"/></g><path class="cls-10" d="M158.41,49.15s11.21,4.18,13.05,18.24h10.26s-1.14-15.82-23.3-18.24Z"/><path class="cls-10" d="M183.68,47.56s11.21,5.77,13.05,19.82h10.26s-1.14-17.41-23.3-19.82Z"/><path class="cls-13" d="M146.13,103.16s2.6,13.71,23.96,7.64v9.5s-6.35,6.06-15.49,2.29c-15.05-6.2-8.47-19.44-8.47-19.44Z"/><path class="cls-5" d="M213.85,84.18c-3.11,2.98-8.28,6.64-15,6.64-11.34,0-18.14-6.5-18.14-6.5,.62-14.69-4.22-18.3-6.09-19.14,2-1.04,4.27-1.62,6.68-1.62h17.79c7.87,0,14.32,6.25,14.56,14.12l.2,6.5Z"/><path class="cls-5" d="M214.83,116.09c.25,8.22-6.34,15.02-14.56,15.02h-17.79c-2.45,0-4.75-.6-6.78-1.67,0,0,7.85-1.62,5.83-20.88-.07-.66,.44-1.24,1.11-1.24h31.92l.27,8.77Z"/><path class="cls-2" d="M181.53,108.56c2.02,19.26-5.83,20.88-5.83,20.88-.7-.37-1.37-.8-2-1.28-3.4-2.56-5.64-6.6-5.78-11.17l-1.18-38.41c0-.16,0-.32,0-.48,0-4.85,2.4-9.15,6.06-11.79,.58-.42,1.19-.8,1.82-1.13h.01c1.78,.8,6.25,4.11,6.14,17.08-.01,1.4,.66,2.72,1.81,3.53,2.75,1.91,8.43,5.03,16.28,5.03,6.72,0,11.89-3.66,15-6.64l.71,23.14h-31.92c-.67,0-1.18,.58-1.11,1.24Z"/><path class="cls-5" d="M177.38,116.09c.1,4.91-1.36,9.32-3.68,12.07-3.4-2.56-5.64-6.6-5.78-11.17l-1.18-38.41c0-.16,0-.32,0-.48,0-4.85,2.4-9.15,6.06-11.79,2.26,2.56,3.74,6.67,3.84,11.37l.75,38.41Z"/><path class="cls-8" d="M201.42,85.95c0,.85-.69,1.54-1.54,1.54s-1.54-.69-1.54-1.54,.69-1.54,1.54-1.54,1.54,.69,1.54,1.54Z"/><path class="cls-7" d="M159.44,49.05s8.17,3.6,11.24,8.1c3.08,4.51,20.34,10.88,23.52,1.76,3.19-9.12-1.43-11.43-1.43-11.43,0,0,0-5.13-7.8-5.13-7.8,0-19.63-.74-25.53,6.7Z"/><path class="cls-14" d="M181.96,53.46c-4.88,0-7.77-1.46-10.57-2.87-2.49-1.26-4.84-2.44-8.49-2.53-.28,0-.49-.24-.49-.51,0-.28,.26-.49,.51-.49,3.88,.09,6.44,1.38,8.92,2.63,2.86,1.44,5.83,2.94,11.03,2.75,5.05-.19,7.08-1.44,7.88-2.46,.71-.9,.56-1.7,.55-1.74-.05-.27,.12-.53,.39-.59,.27-.06,.53,.11,.59,.38,.01,.05,.27,1.26-.71,2.53-1.35,1.75-4.26,2.72-8.66,2.88-.32,.01-.64,.02-.95,.02Z"/><path class="cls-8" d="M146.94,70.79s6.68,3.85,11.47,2.09c4.8-1.76,18.95-17.25,0-25.31-14.65-6.24-22.36-7.89-22.36-7.89,0,0,1.32-1.54,0-2.97,0,0,6.82-8.01,5.94-14.12-.88-6.11-7.15-6.66-11.65-3.91-4.51,2.75-18.69,17.57-14.29,26.54,4.4,8.97,24.73,21.83,30.89,25.57Z"/><path class="cls-17" d="M146.63,43.37s-5.73,.98-4.52,7,9.31,4.79,11.83,3.49c2.76-1.43,5.04-5.13,2.76-6.91"/><path class="cls-19" d="M165.07,59.85c-.25,0-.47-.19-.5-.44-.03-.22-.7-5.03-8.38-7.02-.27-.07-.43-.34-.36-.61,.07-.27,.34-.43,.61-.36,8.4,2.18,9.1,7.65,9.12,7.88,.03,.27-.17,.52-.44,.55-.02,0-.04,0-.06,0Z"/><path class="cls-19" d="M142.73,46.41s-.09,0-.14-.02c-2.23-.63-13.38-3.83-14.42-5.33-1.04-1.5-.78-3.64,.55-4.9-.07-1.52,.63-4.11,3.86-4.57,1.79-.26,2.14-2.82,2.55-5.8,.34-2.46,.72-5.24,2.04-7.28,.15-.23,.46-.3,.69-.15,.23,.15,.3,.46,.15,.69-1.2,1.86-1.56,4.52-1.89,6.88-.44,3.23-.86,6.29-3.4,6.65-3.31,.47-3,3.6-2.98,3.73,.02,.17-.05,.34-.18,.44-.97,.79-1.43,2.48-.56,3.73,.55,.8,7.49,3.14,13.87,4.93,.27,.07,.42,.35,.35,.62-.06,.22-.26,.36-.48,.36Z"/><g><path class="cls-20" d="M136.06,40.18c-.09,0-.18-.02-.26-.08-5.03-3.14-10.66-1.82-10.72-1.81-.27,.07-.54-.1-.6-.37-.07-.27,.1-.54,.37-.6,.25-.06,6.09-1.44,11.49,1.93,.23,.15,.31,.45,.16,.69-.09,.15-.26,.23-.42,.23Z"/><path class="cls-20" d="M136.06,37.21c-.22,0-.41-.14-.48-.36-1.76-5.89-7.55-6.79-7.61-6.79-.27-.04-.46-.29-.42-.57,.04-.27,.3-.47,.57-.42,.07,0,6.49,1,8.43,7.5,.08,.26-.07,.54-.34,.62-.05,.01-.1,.02-.14,.02Z"/></g><path class="cls-20" d="M136.06,33.25c-.21,0-.41-.14-.48-.35-1.1-3.5-4.01-4.14-4.13-4.17-.27-.06-.44-.32-.39-.59,.06-.27,.32-.45,.59-.39,.15,.03,3.6,.76,4.89,4.85,.08,.26-.06,.54-.33,.63-.05,.02-.1,.02-.15,.02Z"/></g></g></svg>