<?xml version="1.0" encoding="UTF-8"?><svg id="Layer_2" xmlns="http://www.w3.org/2000/svg" viewBox="0 0 41.38 19.73"><defs><style>.cls-1{fill:#aed3d0;}.cls-2{fill:#3388b1;}.cls-3{fill:#639db3;stroke:#44618c;stroke-miterlimit:10;}</style></defs><g id="Layer_3"><path class="cls-3" d="M33.35,13.21V4.22c0-2.04-2.08-3.72-4.63-3.72H5.13C2.58,.5,.5,2.17,.5,4.22V15.51c0,2.04,2.08,3.72,4.63,3.72H28.72c2.55,0,4.55-1.24,4.63-2.56h0c3.08,.63,6.21-.77,6.21-.77,0,0-5.24-.7-6.21-2.68Z"/><path class="cls-1" d="M26.7,9.01c.02-.18,.06-.36,.06-.54,0-2.57-2.35-4.65-5.24-4.65-2.59,0-4.73,1.67-5.15,3.86-.29,0-.57,0-.86,.01-.61-1.14-1.73-1.91-3.03-1.91-1.52,0-2.8,1.06-3.3,2.53-3.04,.58-5.02,1.51-5.02,2.55,0,1.76,5.56,3.18,12.43,3.18s12.43-1.43,12.43-3.18c0-.69-.86-1.32-2.31-1.84Z"/><path class="cls-2" d="M19.51,8.06c.64,0,.64-1,0-1s-.64,1,0,1h0Z"/><path class="cls-2" d="M23.03,7.96c.64,0,.64-1,0-1s-.64,1,0,1h0Z"/><path class="cls-2" d="M18.29,9.94c1.61,1.23,3.99,1.29,5.67,.17,.53-.36,.03-1.22-.5-.86-1.41,.94-3.31,.86-4.66-.17-.21-.16-.56-.03-.68,.18-.15,.26-.04,.52,.18,.68h0Z"/></g></svg>