<?xml version="1.0" encoding="UTF-8"?><svg id="Layer_2" xmlns="http://www.w3.org/2000/svg" viewBox="0 0 44.18 26.19"><defs><style>.cls-1{fill:#467246;}.cls-2{fill:#c4d5b5;stroke:#aacca8;stroke-miterlimit:10;}</style></defs><g id="Layer_3"><path class="cls-2" d="M35.97,17.59V5.5c0-2.75-2.25-5-5-5H5.5C2.75,.5,.5,2.75,.5,5.5v15.19c0,2.75,2.25,5,5,5H30.97c2.75,0,4.91-1.67,5-3.45h0c3.33,.84,6.71-1.04,6.71-1.04,0,0-5.65-.94-6.71-3.61Z"/><path class="cls-1" d="M21.48,7.25s-.01,.01-.01,.02c-.01,.02-.02,.05-.03,.07s-.02,.05-.03,.07c-.02,.06-.03,.12-.02,.18h0c0,.06,.01,.11,.02,.15v.03c.02,.06,.05,.11,.08,.16s.07,.1,.11,.14l.02,.02s.08,.06,.12,.09h.02v.02c.05,.02,.1,.04,.14,.05h.04s.1,.03,.14,.03c0,0,.02,0,.02,0,.03,0,.06,0,.08-.01,.02,0,.05,0,.08-.01,.03,0,.06-.02,.08-.03,.03-.01,.06-.02,.08-.04,.02-.01,.04-.03,.06-.05,.02-.01,.04-.03,.06-.04l.02-.02s.06-.07,.08-.11h0c.02-.05,.05-.11,.06-.15s.02-.07,.02-.11,.01-.08,0-.11c0-.05-.01-.1-.02-.15v-.02c-.02-.06-.05-.11-.07-.16v-.02s-.05-.04-.06-.06-.03-.04-.05-.06l-.02-.02s-.04-.03-.06-.05-.04-.03-.06-.05h-.02s-.09-.05-.13-.07h-.01c-.05-.02-.1-.02-.16-.03,0,0-.02,0-.03,0-.07,0-.13,.01-.19,.04-.06,.02-.12,.05-.16,.1-.05,.05-.08,.1-.1,.16-.03,.06-.05,.12-.04,.19l.02,.13c.02,.08,.07,.16,.13,.22l.1,.08c.08,.05,.16,.07,.25,.07,.01,0,.02,0,.03,0l-.13-.02s.03,0,.04,.01l-.12-.05s.02,.01,.03,.02l-.1-.08s.02,.02,.04,.04l-.08-.1s.02,.03,.03,.05l-.05-.12s.01,.04,.02,.06l-.02-.13s0,.04,0,.06l.02-.13s0,.03-.01,.04l.05-.12s-.01,.02-.02,.03l.08-.1s-.01,.02-.02,.02l.1-.08s-.02,.01-.03,.02l.12-.05s-.02,0-.04,.01l.13-.02s-.03,0-.04,0l.13,.02s-.03,0-.05-.01l.12,.05s-.03-.02-.05-.03l.1,.08s-.03-.03-.05-.05l.08,.1s-.02-.03-.03-.05l.05,.12s-.01-.03-.01-.05l.02,.13s0-.03,0-.04l-.02,.13s0-.02,0-.03l-.05,.12s.01-.02,.02-.03c.04-.06,.06-.12,.06-.19,.01-.07,.01-.13,0-.2-.02-.07-.05-.12-.09-.17-.04-.05-.08-.1-.14-.13l-.12-.05c-.09-.02-.18-.02-.27,0l-.12,.05c-.08,.04-.13,.1-.18,.18h0Z"/><path class="cls-1" d="M14.38,7.43s-.01,.01-.01,.02c-.01,.02-.02,.05-.03,.07s-.02,.05-.03,.07c-.02,.06-.03,.12-.02,.18h0c0,.06,.01,.11,.02,.15v.03c.02,.06,.05,.11,.08,.16s.07,.1,.11,.14l.02,.02s.08,.06,.12,.09h.02v.02c.05,.02,.1,.04,.14,.05h.04s.1,.03,.14,.03c0,0,.02,0,.02,0,.03,0,.06,0,.08-.01,.02,0,.05,0,.08-.01,.03,0,.06-.02,.08-.03,.03-.01,.06-.02,.08-.04,.02-.01,.04-.03,.06-.05,.02-.01,.04-.03,.06-.04l.02-.02s.06-.07,.08-.11h0c.02-.05,.05-.11,.06-.15s.02-.07,.02-.11,.01-.08,0-.11c0-.05-.01-.1-.02-.15v-.02c-.02-.06-.05-.11-.07-.16v-.02s-.05-.04-.06-.06-.03-.04-.05-.06l-.02-.02s-.04-.03-.06-.05-.04-.03-.06-.05h-.02s-.09-.05-.13-.07h-.01c-.05-.02-.1-.02-.16-.03,0,0-.02,0-.03,0-.07,0-.13,.01-.19,.04-.06,.02-.12,.05-.16,.1-.05,.05-.08,.1-.1,.16-.03,.06-.05,.12-.04,.19l.02,.13c.02,.08,.07,.16,.13,.22l.1,.08c.08,.05,.16,.07,.25,.07,.01,0,.02,0,.03,0l-.13-.02s.03,0,.04,.01l-.12-.05s.02,.01,.03,.02l-.1-.08s.02,.02,.04,.04l-.08-.1s.02,.03,.03,.05l-.05-.12s.01,.04,.02,.06l-.02-.13s0,.04,0,.06l.02-.13s0,.03-.01,.04l.05-.12s-.01,.02-.02,.03l.08-.1s-.01,.02-.02,.02l.1-.08s-.02,.01-.03,.02l.12-.05s-.02,0-.04,.01l.13-.02s-.03,0-.04,0l.13,.02s-.03,0-.05-.01l.12,.05s-.03-.02-.05-.03l.1,.08s-.03-.03-.05-.05l.08,.1s-.02-.03-.03-.05l.05,.12s-.01-.03-.01-.05l.02,.13s0-.03,0-.04l-.02,.13s0-.02,0-.03l-.05,.12s.01-.02,.02-.03c.04-.06,.06-.12,.06-.19,.01-.07,.01-.13,0-.2-.02-.07-.05-.12-.09-.17-.04-.05-.08-.1-.14-.13l-.12-.05c-.09-.02-.18-.02-.27,0l-.12,.05c-.08,.04-.13,.1-.18,.18h0Z"/><path class="cls-1" d="M10.6,13.81c1.68,2.27,4.25,3.75,7.07,3.98s5.8-.96,7.76-3.06c.44-.47-.27-1.18-.71-.71-1.76,1.88-4.29,2.93-6.87,2.78s-4.91-1.48-6.4-3.49c-.38-.51-1.25-.01-.86,.5h0Z"/></g></svg>