<?xml version="1.0" encoding="UTF-8"?><svg id="Layer_2" xmlns="http://www.w3.org/2000/svg" viewBox="0 0 99.91 104.03"><defs><style>.cls-1{fill:#f86d70;}.cls-2{fill:#fbbebe;}.cls-3{fill:#e3e8f4;}.cls-4{fill:#fed253;}.cls-5{fill:#be6f72;}.cls-6{fill:#e05896;}.cls-7{fill:#3f3d56;}.cls-8,.cls-9,.cls-10,.cls-11,.cls-12,.cls-13{isolation:isolate;}.cls-8,.cls-11{opacity:.1;}.cls-14{fill:none;stroke:#fff;stroke-miterlimit:10;stroke-width:.12px;}.cls-9{opacity:.05;}.cls-10{fill:#453de0;opacity:.08;}.cls-11{fill:#fff;}.cls-12{opacity:.2;}.cls-13{opacity:.25;}</style></defs><g id="idk"><circle class="cls-10" cx="49.96" cy="49.96" r="49.96"/><path class="cls-7" d="M85.66,71.93c-2.65,8.65-3.72,25.15-3.72,25.15H17.88c.21-7.85-4.38-24.11-4.52-25.36-.12-1.04,4.13-6.45,5.53-8.2,.28-.35,.7-.55,1.15-.55h57.9c.3,0,.6,.09,.84,.27,2.81,1.96,5.13,4.56,6.76,7.58,.18,.34,.22,.74,.11,1.12Z"/><rect class="cls-7" x="23.65" y="81.73" width="51.41" height="5.98"/><rect class="cls-11" x="23.65" y="81.73" width="51.41" height="5.98" rx="2.53" ry="2.53"/><path class="cls-7" d="M21.01,68.52s-3.2-9.87,2.08-11.26c5.28-1.39,16.82,.42,16.82,.42,0,0,9.03-4.59,19.45-.97,0,0,14.87-4.45,17.79-.14s-.69,11.95-.69,11.95H21.01Z"/><polygon class="cls-8" points="18.72 71.79 21.36 66.51 23.58 76.79 23.16 80.55 18.72 71.79"/><polygon class="cls-8" points="79.3 71.79 76.66 66.51 74.44 76.79 74.85 80.55 79.3 71.79"/><polygon class="cls-8" points="23.39 76.51 73.6 76.24 74.16 81.79 23.58 81.66 23.39 76.51"/><path class="cls-4" d="M48.3,76.48s-.05,.09-.07,.14c-.05,.15-.11,.29-.16,.44l-.08,.2c-.08,.24-.18,.47-.3,.69-.03,.06-.07,.11-.12,.16-.05,.04-.12,.1-.1,.16,.08,.02,.16,.02,.24,0,.1-.03,.2-.08,.28-.14l1.03-.66c.12-.07,.22-.15,.32-.24,.08-.09,.15-.19,.21-.29,.21-.28,.51-.5,.69-.81,0,0,0-.01,0-.02,0-.02-.03-.03-.05-.02-.52,.05-1.02,.24-1.55,.32-.11,.01-.28-.03-.35,.07Z"/><path class="cls-12" d="M48.4,76.66s-.03,.09,0,.12l.03-.02-.04-.08"/><path class="cls-12" d="M48.52,77.08s-.03,.09,0,.12l.03-.02-.04-.08"/><path class="cls-12" d="M47.84,77.84s-.03,.09,0,.12l.03-.02-.04-.08"/><path class="cls-12" d="M48.08,77.69s-.03,.09,0,.12l.03-.02-.04-.08"/><path class="cls-12" d="M49.36,76.87s-.03,.09,0,.12l.03-.02-.04-.08"/><path class="cls-12" d="M48.94,76.97s-.03,.09,0,.12l.03-.02-.04-.08"/><path class="cls-12" d="M48.79,76.74s-.03,.09,0,.12l.03-.02-.04-.08"/><path class="cls-12" d="M48.16,77.36s-.02,.05,0,.07h.02l-.02-.06"/><path class="cls-12" d="M47.93,77.77s-.02,.05,0,.07h.02l-.02-.06"/><path class="cls-12" d="M48.75,77.25s-.02,.05,0,.07h.02l-.02-.06"/><path class="cls-12" d="M48.38,77.72s-.04-.04-.06-.04v.02h.05"/><path class="cls-12" d="M48.27,77.29s-.04-.04-.06-.04v.02h.05"/><path class="cls-12" d="M49.17,76.82s-.03,.09,0,.12l.03-.02-.04-.08"/><path class="cls-12" d="M49.41,76.67s-.03,.09,0,.12l.03-.02-.04-.08"/><path class="cls-12" d="M49.49,76.35s-.02,.05,0,.07h.02l-.02-.06"/><path class="cls-12" d="M49.26,76.76s-.02,.05,0,.07h.02l-.02-.06"/><path class="cls-12" d="M49.71,76.7s-.04-.04-.06-.04v.02h.05"/><path class="cls-12" d="M49.6,76.28s-.04-.04-.06-.04v.02h.05"/><path class="cls-12" d="M48.74,77s-.04-.04-.06-.04v.02h.05"/><path class="cls-12" d="M49.33,76.62s-.04-.04-.06-.04v.02h.05"/><path class="cls-4" d="M48.72,76.76s-.05,.09-.07,.14c-.05,.15-.11,.29-.16,.44l-.08,.2c-.09,.24-.19,.47-.31,.69-.03,.06-.07,.11-.12,.16-.05,.04-.12,.1-.1,.16,.08,.02,.16,.02,.24,0,.1-.03,.2-.08,.28-.14l1.03-.66c.12-.07,.22-.15,.32-.24,.08-.09,.15-.19,.21-.29,.21-.29,.51-.5,.68-.81,0,0,0-.01,0-.02,0-.02-.03-.03-.05-.03-.53,.05-1.02,.25-1.55,.32-.1,.01-.26-.03-.34,.07Z"/><path class="cls-12" d="M48.82,76.93s-.03,.09,0,.12l.03-.02-.04-.08"/><path class="cls-12" d="M48.93,77.36s-.03,.09,0,.12l.03-.02-.04-.08"/><path class="cls-12" d="M48.26,78.12s-.03,.09,0,.12l.03-.02-.04-.08"/><path class="cls-12" d="M48.49,77.97s-.03,.09,0,.12l.03-.02-.04-.08"/><path class="cls-12" d="M49.78,77.14s-.03,.09,0,.12l.03-.02-.04-.08"/><path class="cls-12" d="M49.35,77.25s-.03,.09,0,.12l.03-.02-.04-.08"/><path class="cls-12" d="M49.21,77.02s-.03,.09,0,.12l.03-.02-.04-.08"/><path class="cls-12" d="M48.58,77.64s-.02,.05,0,.07h.02l-.02-.05"/><path class="cls-12" d="M48.34,78.05s-.02,.05,0,.07h.02l-.02-.06"/><path class="cls-12" d="M49.16,77.53s-.02,.05,0,.07h.02l-.02-.06"/><path class="cls-12" d="M48.8,78s-.04-.04-.06-.04v.02h.05"/><path class="cls-12" d="M48.69,77.57s-.04-.04-.06-.04v.02h.05"/><path class="cls-12" d="M49.59,77.1s-.03,.09,0,.12l.03-.02-.04-.08"/><path class="cls-12" d="M49.82,76.95s-.03,.09,0,.12l.03-.02-.04-.08"/><path class="cls-12" d="M49.91,76.62s-.02,.05,0,.07h.02l-.02-.06"/><path class="cls-12" d="M49.67,77.04s-.02,.05,0,.07h.02l-.02-.05"/><path class="cls-12" d="M50.13,76.98s-.04-.04-.06-.04v.02h.05"/><path class="cls-12" d="M50.02,76.56s-.04-.04-.06-.04v.02h.05"/><path class="cls-12" d="M49.16,77.27s-.04-.04-.06-.04v.02h.05"/><path class="cls-12" d="M49.74,76.9s-.04-.04-.06-.04v.02h.05"/><path class="cls-4" d="M45.94,76.34s-.05,.09-.07,.14c-.05,.15-.11,.29-.16,.44l-.08,.2c-.08,.24-.19,.47-.3,.69-.03,.06-.07,.11-.12,.16-.05,.04-.12,.1-.1,.16,.08,.02,.16,.01,.24,0,.1-.03,.2-.08,.28-.14l1.03-.66c.12-.07,.22-.15,.32-.25,.08-.09,.15-.19,.21-.29,.21-.28,.51-.5,.68-.81,0,0,0-.01,0-.02,0-.02-.03-.03-.05-.02-.53,.05-1.02,.24-1.55,.32-.1,.02-.27-.02-.35,.08Z"/><path class="cls-12" d="M46.04,76.52s-.03,.09,0,.12l.03-.02-.04-.08"/><path class="cls-12" d="M46.15,76.94s-.03,.09,0,.12l.03-.02-.04-.08"/><path class="cls-12" d="M45.48,77.7s-.03,.09,0,.12l.03-.02-.04-.08"/><path class="cls-12" d="M45.71,77.55s-.03,.09,0,.12l.03-.02-.04-.08"/><path class="cls-12" d="M47,76.73s-.03,.09,0,.12l.03-.02-.04-.08"/><path class="cls-12" d="M46.58,76.84s-.03,.09,0,.12l.03-.02-.04-.08"/><path class="cls-12" d="M46.43,76.6s-.03,.09,0,.12l.03-.02-.04-.08"/><path class="cls-12" d="M45.8,77.22s-.02,.05,0,.07h.02l-.02-.06"/><path class="cls-12" d="M45.57,77.63s-.02,.05,0,.07h.02l-.02-.06"/><path class="cls-12" d="M46.38,77.12s-.02,.05,0,.07h.02l-.02-.06"/><path class="cls-12" d="M46.02,77.59s-.04-.04-.06-.04v.02h.05"/><path class="cls-12" d="M45.91,77.16s-.04-.04-.06-.04v.02h.05"/><path class="cls-12" d="M46.81,76.69s-.03,.09,0,.12l.03-.02-.04-.08"/><path class="cls-12" d="M47.04,76.54s-.03,.09,0,.12l.03-.02-.04-.08"/><path class="cls-12" d="M47.13,76.21s-.02,.05,0,.07h.02l-.02-.05"/><path class="cls-12" d="M46.89,76.62s-.02,.05,0,.07h.02l-.02-.06"/><path class="cls-12" d="M47.35,76.56s-.04-.04-.06-.04v.02h.05"/><path class="cls-12" d="M47.24,76.14s-.04-.04-.06-.04v.02h.05"/><path class="cls-12" d="M46.38,76.85s-.04-.04-.06-.04v.02h.05"/><path class="cls-12" d="M46.96,76.48s-.04-.04-.06-.04v.02h.05"/><path class="cls-4" d="M48.02,75.79s-.05,.09-.07,.14c-.05,.15-.11,.29-.16,.44l-.08,.2c-.09,.24-.19,.47-.31,.69-.03,.06-.07,.11-.12,.16-.05,.04-.12,.1-.1,.16,.08,.02,.16,.02,.24,0,.1-.03,.2-.08,.28-.14l1.03-.66c.12-.07,.22-.15,.32-.24,.08-.09,.15-.19,.21-.29,.21-.29,.51-.5,.69-.81,0,0,0-.01,0-.02,0-.02-.03-.03-.05-.03-.53,.05-1.02,.25-1.55,.32-.1,.01-.27-.03-.35,.07Z"/><path class="cls-12" d="M48.13,75.96s-.03,.09,0,.12l.03-.02-.04-.08"/><path class="cls-12" d="M48.23,76.39s-.03,.09,0,.12l.03-.02-.04-.08"/><path class="cls-12" d="M47.56,77.15s-.03,.09,0,.12l.03-.02-.04-.08"/><path class="cls-12" d="M47.8,77s-.03,.09,0,.12l.03-.02-.04-.08"/><path class="cls-12" d="M49.09,76.17s-.03,.09,0,.12l.03-.02-.04-.08"/><path class="cls-12" d="M48.66,76.28s-.03,.09,0,.12l.03-.02-.04-.08"/><path class="cls-12" d="M48.51,76.05s-.03,.09,0,.12l.03-.02-.04-.08"/><path class="cls-12" d="M47.88,76.67s-.02,.05,0,.07h.02l-.02-.05"/><path class="cls-12" d="M47.65,77.08s-.02,.05,0,.07h.02l-.02-.06"/><path class="cls-12" d="M48.47,76.55s-.02,.05,0,.07h.02l-.02-.06"/><path class="cls-12" d="M48.1,77.02s-.04-.04-.06-.04v.02h.05"/><path class="cls-12" d="M47.99,76.6s-.04-.04-.06-.04v.02h.05"/><path class="cls-12" d="M48.89,76.13s-.03,.09,0,.12l.03-.02-.04-.08"/><path class="cls-12" d="M49.13,75.98s-.03,.09,0,.12l.03-.02-.04-.08"/><path class="cls-12" d="M49.21,75.65s-.02,.05,0,.07h.02l-.02-.06"/><path class="cls-12" d="M48.98,76.06s-.02,.05,0,.07h.02l-.02-.05"/><path class="cls-12" d="M49.43,76.01s-.04-.04-.06-.04v.02h.05"/><path class="cls-12" d="M49.32,75.58s-.04-.04-.06-.04v.02h.05"/><path class="cls-12" d="M48.46,76.3s-.04-.04-.06-.04v.02h.05"/><path class="cls-12" d="M49.05,75.93s-.04-.04-.06-.04v.02h.05"/><path class="cls-4" d="M47.61,75.51s-.05,.09-.07,.14c-.05,.15-.11,.29-.17,.44l-.08,.2c-.09,.24-.19,.47-.31,.69-.03,.06-.07,.11-.12,.16-.05,.04-.12,.1-.1,.16,.08,.02,.16,.02,.24,0,.1-.03,.2-.08,.28-.14l1.03-.66c.12-.07,.22-.15,.32-.25,.08-.09,.15-.19,.21-.29,.21-.28,.51-.5,.68-.81,0,0,0-.01,0-.02,0-.02-.03-.03-.05-.02-.53,.05-1.02,.24-1.55,.32-.1,.01-.27-.03-.35,.07Z"/><path class="cls-9" d="M47.61,75.51s-.05,.09-.07,.14c-.05,.15-.11,.29-.17,.44l-.08,.2c-.09,.24-.19,.47-.31,.69-.03,.06-.07,.11-.12,.16-.05,.04-.12,.1-.1,.16,.08,.02,.16,.02,.24,0,.1-.03,.2-.08,.28-.14l1.03-.66c.12-.07,.22-.15,.32-.25,.08-.09,.15-.19,.21-.29,.21-.28,.51-.5,.68-.81,0,0,0-.01,0-.02,0-.02-.03-.03-.05-.02-.53,.05-1.02,.24-1.55,.32-.1,.01-.27-.03-.35,.07Z"/><path class="cls-12" d="M47.71,75.68s-.03,.09,0,.12l.03-.02-.04-.08"/><path class="cls-12" d="M47.82,76.11s-.03,.09,0,.12l.03-.02-.04-.08"/><path class="cls-12" d="M47.15,76.87s-.03,.09,0,.12l.03-.02-.04-.08"/><path class="cls-12" d="M47.38,76.72s-.03,.09,0,.12l.03-.02-.04-.08"/><path class="cls-12" d="M48.67,75.89s-.03,.09,0,.12l.03-.02-.04-.08"/><path class="cls-12" d="M48.24,76s-.03,.09,0,.12l.03-.02-.04-.08"/><path class="cls-12" d="M48.09,75.77s-.03,.09,0,.12l.03-.02-.04-.08"/><path class="cls-12" d="M47.46,76.39s-.02,.05,0,.07h.02l-.03-.05"/><path class="cls-12" d="M47.23,76.8s-.02,.05,0,.07h.02l-.02-.06"/><path class="cls-12" d="M48.05,76.28s-.02,.05,0,.07h.02l-.03-.06"/><path class="cls-12" d="M47.69,76.75s-.04-.04-.06-.04v.02h.05"/><path class="cls-12" d="M47.57,76.32s-.04-.04-.06-.04v.02h.05"/><path class="cls-12" d="M48.48,75.85s-.03,.09,0,.12l.03-.02-.04-.08"/><path class="cls-12" d="M48.71,75.7s-.03,.09,0,.12l.03-.02-.04-.08"/><path class="cls-12" d="M48.79,75.37s-.02,.05,0,.07h.02l-.02-.06"/><path class="cls-12" d="M48.56,75.79s-.02,.05,0,.07h.02l-.02-.06"/><path class="cls-12" d="M49.02,75.73s-.04-.04-.06-.04v.02h.05"/><path class="cls-12" d="M48.91,75.31s-.04-.04-.06-.04v.02h.05"/><path class="cls-12" d="M48.05,76.02s-.04-.04-.06-.04v.02h.05"/><path class="cls-12" d="M48.63,75.65s-.04-.04-.06-.04v.02h.05"/><path class="cls-4" d="M46.77,76.76s-.05,.09-.07,.14c-.05,.15-.11,.29-.17,.44l-.08,.2c-.09,.24-.19,.47-.31,.69-.03,.06-.07,.11-.12,.16-.05,.04-.12,.1-.1,.16,.08,.02,.16,.02,.24,0,.1-.03,.2-.08,.28-.14l1.03-.66c.12-.07,.22-.15,.32-.24,.08-.09,.15-.19,.21-.29,.21-.29,.51-.5,.68-.81,0,0,0-.01,0-.02,0-.02-.03-.03-.05-.03-.53,.05-1.02,.25-1.55,.32-.1,.01-.27-.03-.35,.07Z"/><path class="cls-12" d="M46.88,76.93s-.03,.09,0,.12l.03-.02-.04-.08"/><path class="cls-12" d="M46.98,77.36s-.03,.09,0,.12l.03-.02-.04-.08"/><path class="cls-12" d="M46.31,78.12s-.03,.09,0,.12l.03-.02-.04-.08"/><path class="cls-12" d="M46.55,77.97s-.03,.09,0,.12l.03-.02-.04-.08"/><path class="cls-12" d="M47.84,77.14s-.03,.09,0,.12l.03-.02-.04-.08"/><path class="cls-12" d="M47.41,77.25s-.03,.09,0,.12l.03-.02-.04-.08"/><path class="cls-12" d="M47.26,77.02s-.03,.09,0,.12l.03-.02-.04-.08"/><path class="cls-12" d="M46.63,77.64s-.02,.05,0,.07h.02l-.02-.05"/><path class="cls-12" d="M46.39,78.05s-.02,.05,0,.07h.02l-.02-.06"/><path class="cls-12" d="M47.22,77.53s-.02,.05,0,.07h.02l-.02-.06"/><path class="cls-12" d="M46.85,78s-.04-.04-.06-.04v.02h.05"/><path class="cls-12" d="M46.75,77.57s-.04-.04-.06-.04v.02h.05"/><path class="cls-12" d="M47.64,77.1s-.03,.09,0,.12l.03-.02-.04-.08"/><path class="cls-12" d="M47.88,76.95s-.03,.09,0,.12l.03-.02-.04-.08"/><path class="cls-12" d="M47.96,76.62s-.02,.05,0,.07h.02l-.02-.06"/><path class="cls-12" d="M47.73,77.04s-.02,.05,0,.07h.02l-.02-.05"/><path class="cls-12" d="M48.18,76.98s-.04-.04-.06-.04v.02h.05"/><path class="cls-12" d="M48.07,76.56s-.04-.04-.06-.04v.02h.05"/><path class="cls-12" d="M47.21,77.27s-.04-.04-.06-.04v.02h.05"/><path class="cls-12" d="M47.8,76.9s-.04-.04-.06-.04v.02h.05"/><path class="cls-4" d="M49.14,75.37s-.05,.09-.07,.14c-.05,.15-.11,.29-.16,.44l-.08,.2c-.09,.24-.19,.47-.31,.69-.03,.06-.07,.11-.12,.16-.05,.04-.12,.1-.1,.16,.08,.02,.16,.02,.24,0,.1-.03,.2-.08,.28-.14l1.03-.66c.12-.07,.22-.15,.32-.25,.08-.09,.15-.19,.21-.29,.21-.28,.51-.5,.69-.81,0,0,0-.01,0-.02,0-.02-.03-.03-.05-.02-.52,.05-1.02,.25-1.54,.32-.1,.02-.27-.02-.35,.08Z"/><path class="cls-9" d="M49.14,75.37s-.05,.09-.07,.14c-.05,.15-.11,.29-.16,.44l-.08,.2c-.09,.24-.19,.47-.31,.69-.03,.06-.07,.11-.12,.16-.05,.04-.12,.1-.1,.16,.08,.02,.16,.02,.24,0,.1-.03,.2-.08,.28-.14l1.03-.66c.12-.07,.22-.15,.32-.25,.08-.09,.15-.19,.21-.29,.21-.28,.51-.5,.69-.81,0,0,0-.01,0-.02,0-.02-.03-.03-.05-.02-.52,.05-1.02,.25-1.54,.32-.1,.02-.27-.02-.35,.08Z"/><path class="cls-12" d="M49.24,75.54s-.03,.09,0,.12l.03-.02-.04-.08"/><path class="cls-12" d="M49.34,75.97s-.03,.09,0,.12l.03-.02-.04-.08"/><path class="cls-12" d="M48.68,76.73s-.03,.09,0,.12l.03-.02-.04-.08"/><path class="cls-12" d="M48.91,76.58s-.03,.09,0,.12l.03-.02-.04-.08"/><path class="cls-12" d="M50.2,75.75s-.03,.09,0,.12l.03-.02-.04-.08"/><path class="cls-12" d="M49.77,75.86s-.03,.09,0,.12l.03-.02-.04-.08"/><path class="cls-12" d="M49.62,75.63s-.03,.09,0,.12l.03-.02-.04-.08"/><path class="cls-12" d="M48.99,76.25s-.02,.05,0,.07h.02l-.02-.06"/><path class="cls-12" d="M48.76,76.66s-.02,.05,0,.07h.02l-.02-.06"/><path class="cls-12" d="M49.58,76.14s-.02,.05,0,.07h.02l-.02-.06"/><path class="cls-12" d="M49.21,76.61s-.04-.04-.06-.04v.02h.05"/><path class="cls-12" d="M49.11,76.18s-.04-.04-.06-.04v.02h.05"/><path class="cls-12" d="M50.01,75.71s-.03,.09,0,.12l.03-.02-.04-.08"/><path class="cls-12" d="M50.24,75.56s-.03,.09,0,.12l.03-.02-.04-.08"/><path class="cls-12" d="M50.32,75.23s-.02,.05,0,.07h.02l-.02-.05"/><path class="cls-12" d="M50.09,75.65s-.02,.05,0,.07h.02l-.02-.06"/><path class="cls-12" d="M50.54,75.59s-.04-.04-.06-.04v.02h.05"/><path class="cls-12" d="M50.44,75.17s-.04-.04-.06-.04v.02h.05"/><path class="cls-12" d="M49.58,75.88s-.04-.04-.06-.04v.02h.05"/><path class="cls-12" d="M50.16,75.51s-.04-.04-.06-.04v.02h.05"/><path class="cls-4" d="M50.96,76.48s.05,.09,.07,.14c.05,.15,.11,.29,.16,.44l.08,.2c.09,.24,.19,.47,.31,.69,.03,.06,.07,.11,.12,.16,.05,.04,.12,.1,.1,.16-.08,.02-.16,.02-.24,0-.1-.03-.2-.08-.28-.14l-1.04-.67c-.12-.07-.22-.15-.32-.24-.08-.09-.15-.19-.21-.29-.21-.28-.51-.5-.69-.81,0,0,0-.01,0-.02,0-.02,.03-.03,.05-.02,.52,.05,1.02,.24,1.54,.32,.11,.01,.27-.02,.35,.07Z"/><path class="cls-9" d="M50.96,76.48s.05,.09,.07,.14c.05,.15,.11,.29,.16,.44l.08,.2c.09,.24,.19,.47,.31,.69,.03,.06,.07,.11,.12,.16,.05,.04,.12,.1,.1,.16-.08,.02-.16,.02-.24,0-.1-.03-.2-.08-.28-.14l-1.04-.67c-.12-.07-.22-.15-.32-.24-.08-.09-.15-.19-.21-.29-.21-.28-.51-.5-.69-.81,0,0,0-.01,0-.02,0-.02,.03-.03,.05-.02,.52,.05,1.02,.24,1.54,.32,.11,.01,.27-.02,.35,.07Z"/><path class="cls-12" d="M50.86,76.66s.03,.09,0,.12l-.03-.02,.04-.08"/><path class="cls-12" d="M50.76,77.08s.03,.09,0,.12l-.03-.02,.04-.08"/><path class="cls-12" d="M51.42,77.84s.03,.09,0,.12l-.03-.02,.04-.08"/><path class="cls-12" d="M51.19,77.69s.03,.09,0,.12l-.03-.02,.04-.08"/><path class="cls-12" d="M49.9,76.87s.03,.09,0,.12l-.03-.02,.04-.08"/><path class="cls-12" d="M50.33,76.97s.03,.09,0,.12l-.03-.02,.04-.08"/><path class="cls-12" d="M50.48,76.74s.03,.09,0,.12l-.03-.02,.04-.08"/><path class="cls-12" d="M51.11,77.36s.02,.05,0,.07h-.02l.02-.06"/><path class="cls-12" d="M51.34,77.77s.02,.05,0,.07h-.02l.02-.06"/><path class="cls-12" d="M50.52,77.25s.02,.05,0,.07h-.02l.02-.06"/><path class="cls-12" d="M50.88,77.72s.04-.04,.06-.04v.02h-.05"/><path class="cls-12" d="M50.99,77.29s.04-.04,.06-.04v.02h-.05"/><path class="cls-12" d="M50.09,76.82s.03,.09,0,.12l-.03-.02,.04-.08"/><path class="cls-12" d="M49.86,76.67s.03,.09,0,.12l-.03-.02,.04-.08"/><path class="cls-12" d="M49.77,76.35s.02,.05,0,.07h-.02l.02-.06"/><path class="cls-12" d="M50.01,76.76s.02,.05,0,.07h-.02l.02-.06"/><path class="cls-12" d="M49.55,76.7s.04-.04,.06-.04v.02h-.05"/><path class="cls-12" d="M49.66,76.28s.04-.04,.06-.04v.02h-.05"/><path class="cls-12" d="M50.52,77s.04-.04,.06-.04v.02h-.05"/><path class="cls-12" d="M49.94,76.62s.04-.04,.06-.04v.02h-.05"/><path class="cls-4" d="M50.54,76.76s.05,.09,.07,.14c.05,.15,.11,.29,.17,.44l.08,.2c.09,.24,.19,.47,.31,.69,.03,.06,.07,.11,.12,.16,.05,.04,.12,.1,.1,.16-.08,.02-.16,.02-.24,0-.1-.03-.2-.08-.28-.14l-1.04-.67c-.12-.07-.22-.15-.32-.24-.08-.09-.15-.19-.21-.29-.21-.29-.51-.5-.68-.81,0,0,0-.01,0-.02,0-.02,.03-.03,.05-.03,.53,.05,1.02,.25,1.55,.32,.11,.02,.28-.02,.36,.08Z"/><path class="cls-9" d="M50.54,76.76s.05,.09,.07,.14c.05,.15,.11,.29,.17,.44l.08,.2c.09,.24,.19,.47,.31,.69,.03,.06,.07,.11,.12,.16,.05,.04,.12,.1,.1,.16-.08,.02-.16,.02-.24,0-.1-.03-.2-.08-.28-.14l-1.04-.67c-.12-.07-.22-.15-.32-.24-.08-.09-.15-.19-.21-.29-.21-.29-.51-.5-.68-.81,0,0,0-.01,0-.02,0-.02,.03-.03,.05-.03,.53,.05,1.02,.25,1.55,.32,.11,.02,.28-.02,.36,.08Z"/><path class="cls-12" d="M50.44,76.93s.03,.09,0,.12l-.03-.02,.04-.08"/><path class="cls-12" d="M50.34,77.36s.03,.09,0,.12l-.03-.02,.04-.08"/><path class="cls-12" d="M51,78.12s.03,.09,0,.12l-.03-.02,.04-.08"/><path class="cls-12" d="M50.77,77.97s.03,.09,0,.12l-.03-.02,.04-.08"/><path class="cls-12" d="M49.48,77.14s.03,.09,0,.12l-.03-.02,.04-.08"/><path class="cls-12" d="M49.91,77.25s.03,.09,0,.12l-.03-.02,.04-.08"/><path class="cls-12" d="M50.06,77.02s.03,.09,0,.12l-.03-.02,.04-.08"/><path class="cls-12" d="M50.69,77.64s.02,.05,0,.07h-.02l.02-.05"/><path class="cls-12" d="M50.92,78.05s.02,.05,0,.07h-.02l.02-.06"/><path class="cls-12" d="M50.1,77.53s.02,.05,0,.07h-.02l.02-.06"/><path class="cls-12" d="M50.47,78s.04-.04,.06-.04v.02h-.05"/><path class="cls-12" d="M50.57,77.57s.04-.04,.06-.04v.02h-.05"/><path class="cls-12" d="M49.68,77.1s.03,.09,0,.12l-.03-.02,.04-.08"/><path class="cls-12" d="M49.44,76.95s.03,.09,0,.12l-.03-.02,.04-.08"/><path class="cls-12" d="M49.36,76.62s.02,.05,0,.07h-.02l.02-.06"/><path class="cls-12" d="M49.59,77.04s.02,.05,0,.07h-.02l.02-.05"/><path class="cls-12" d="M49.14,76.98s.04-.04,.06-.04v.02h-.05"/><path class="cls-12" d="M49.25,76.56s.04-.04,.06-.04v.02h-.05"/><path class="cls-12" d="M50.11,77.27s.04-.04,.06-.04v.02h-.05"/><path class="cls-12" d="M49.52,76.9s.04-.04,.06-.04v.02h-.05"/><path class="cls-4" d="M52.07,75.93s.05,.09,.07,.14c.05,.15,.11,.29,.16,.44l.08,.2c.09,.24,.19,.47,.31,.69,.03,.06,.07,.11,.12,.16,.05,.04,.12,.1,.1,.16-.08,.02-.16,.02-.24,0-.1-.03-.2-.08-.28-.14l-1.03-.67c-.12-.07-.22-.15-.32-.25-.08-.09-.15-.19-.21-.29-.21-.29-.51-.5-.69-.81,0,0,0-.01,0-.02,0-.02,.03-.03,.05-.03,.53,.05,1.02,.25,1.55,.32,.1,.02,.27-.02,.35,.08Z"/><path class="cls-9" d="M52.07,75.93s.05,.09,.07,.14c.05,.15,.11,.29,.16,.44l.08,.2c.09,.24,.19,.47,.31,.69,.03,.06,.07,.11,.12,.16,.05,.04,.12,.1,.1,.16-.08,.02-.16,.02-.24,0-.1-.03-.2-.08-.28-.14l-1.03-.67c-.12-.07-.22-.15-.32-.25-.08-.09-.15-.19-.21-.29-.21-.29-.51-.5-.69-.81,0,0,0-.01,0-.02,0-.02,.03-.03,.05-.03,.53,.05,1.02,.25,1.55,.32,.1,.02,.27-.02,.35,.08Z"/><path class="cls-12" d="M51.97,76.1s.03,.09,0,.12l-.03-.02,.04-.08"/><path class="cls-12" d="M51.86,76.53s.03,.09,0,.12l-.03-.02,.04-.08"/><path class="cls-12" d="M52.53,77.28s.03,.09,0,.12l-.03-.02,.04-.08"/><path class="cls-12" d="M52.3,77.13s.03,.09,0,.12l-.03-.02,.04-.08"/><path class="cls-12" d="M51.01,76.31s.03,.09,0,.12l-.03-.02,.04-.08"/><path class="cls-12" d="M51.44,76.42s.03,.09,0,.12l-.03-.02,.04-.08"/><path class="cls-12" d="M51.59,76.18s.03,.09,0,.12l-.03-.02,.04-.08"/><path class="cls-12" d="M52.22,76.81s.02,.05,0,.07h-.02l.02-.06"/><path class="cls-12" d="M52.45,77.22s.02,.05,0,.07h-.02l.02-.06"/><path class="cls-12" d="M51.63,76.69s.02,.05,0,.07h-.02l.02-.06"/><path class="cls-12" d="M51.99,77.16s.04-.04,.06-.04v.02h-.05"/><path class="cls-12" d="M52.1,76.74s.04-.04,.06-.04v.02h-.05"/><path class="cls-12" d="M51.2,76.27s.03,.09,0,.12l-.03-.02,.04-.08"/><path class="cls-12" d="M50.97,76.12s.03,.09,0,.12l-.03-.02,.04-.08"/><path class="cls-12" d="M50.89,75.79s.02,.05,0,.07h-.02l.02-.06"/><path class="cls-12" d="M51.12,76.2s.02,.05,0,.07h-.02l.02-.06"/><path class="cls-12" d="M50.67,76.15s.04-.04,.06-.04v.02h-.05"/><path class="cls-12" d="M50.77,75.72s.04-.04,.06-.04v.02h-.05"/><path class="cls-12" d="M51.64,76.44s.04-.04,.06-.04v.02h-.05"/><path class="cls-12" d="M51.05,76.06s.04-.04,.06-.04v.02h-.05"/><path class="cls-4" d="M46.93,76.07s.05,.09,.07,.14c.05,.15,.11,.29,.17,.44l.08,.2c.09,.24,.19,.47,.31,.69,.03,.06,.07,.11,.12,.16,.05,.04,.12,.1,.1,.16-.08,.02-.16,.01-.24,0-.1-.03-.2-.08-.28-.14l-1.03-.66c-.12-.07-.22-.15-.32-.25-.08-.09-.15-.19-.21-.29-.21-.29-.51-.5-.68-.81v-.02s.02-.03,.04-.03c.53,.05,1.02,.25,1.55,.32,.11,.02,.28-.02,.35,.08Z"/><path class="cls-9" d="M46.93,76.07s.05,.09,.07,.14c.05,.15,.11,.29,.17,.44l.08,.2c.09,.24,.19,.47,.31,.69,.03,.06,.07,.11,.12,.16,.05,.04,.12,.1,.1,.16-.08,.02-.16,.01-.24,0-.1-.03-.2-.08-.28-.14l-1.03-.66c-.12-.07-.22-.15-.32-.25-.08-.09-.15-.19-.21-.29-.21-.29-.51-.5-.68-.81v-.02s.02-.03,.04-.03c.53,.05,1.02,.25,1.55,.32,.11,.02,.28-.02,.35,.08Z"/><path class="cls-12" d="M46.83,76.24s.03,.09,0,.12l-.03-.02,.04-.08"/><path class="cls-12" d="M46.72,76.66s.03,.09,0,.12l-.03-.02,.04-.08"/><path class="cls-12" d="M47.39,77.42s.03,.09,0,.12l-.03-.02,.04-.08"/><path class="cls-12" d="M47.16,77.27s.03,.09,0,.12l-.03-.02,.04-.08"/><path class="cls-12" d="M45.87,76.45s.03,.09,0,.12l-.03-.02,.04-.08"/><path class="cls-12" d="M46.3,76.56s.03,.09,0,.12l-.03-.02,.04-.08"/><path class="cls-12" d="M46.45,76.32s.03,.09,0,.12l-.03-.02,.04-.08"/><path class="cls-12" d="M47.07,76.95s.02,.05,0,.07h-.02l.02-.06"/><path class="cls-12" d="M47.31,77.35s.02,.05,0,.07h-.02l.02-.06"/><path class="cls-12" d="M46.49,76.83s.02,.05,0,.07h-.02l.02-.06"/><path class="cls-12" d="M46.85,77.3s.04-.04,.06-.04v.02h-.05"/><path class="cls-12" d="M46.96,76.88s.04-.04,.06-.04v.02h-.05"/><path class="cls-12" d="M46.06,76.41s.03,.09,0,.12l-.03-.02,.04-.08"/><path class="cls-12" d="M45.83,76.26s.03,.09,0,.12l-.03-.02,.04-.08"/><path class="cls-12" d="M45.75,75.94s.02,.05,0,.07h-.02l.02-.06"/><path class="cls-12" d="M45.98,76.34s.02,.05,0,.07h-.02l.02-.06"/><path class="cls-12" d="M45.52,76.29s.04-.04,.06-.04v.02h-.05"/><path class="cls-12" d="M45.63,75.86s.04-.04,.06-.04v.02h-.05"/><path class="cls-12" d="M46.49,76.58s.04-.04,.06-.04v.02h-.05"/><path class="cls-12" d="M45.91,76.2s.04-.04,.06-.04v.02h-.05"/><path class="cls-4" d="M50.68,75.65s.05,.09,.07,.14c.05,.15,.11,.29,.17,.44l.08,.2c.09,.24,.19,.47,.31,.69,.03,.06,.07,.11,.12,.16,.05,.04,.12,.1,.1,.16-.08,.02-.16,.01-.24,0-.1-.03-.2-.08-.28-.14l-1.03-.66c-.12-.07-.22-.15-.32-.24-.08-.09-.15-.19-.21-.29-.21-.28-.51-.5-.68-.81,0,0,0-.01,0-.02,0-.02,.03-.03,.05-.02,.53,.05,1.02,.24,1.55,.32,.1,.02,.27-.02,.35,.08Z"/><path class="cls-12" d="M50.58,75.82s.03,.09,0,.12l-.03-.02,.04-.08"/><path class="cls-12" d="M50.47,76.25s.03,.09,0,.12l-.03-.02,.04-.08"/><path class="cls-12" d="M51.14,77.01s.03,.09,0,.12l-.03-.02,.04-.08"/><path class="cls-12" d="M50.91,76.86s.03,.09,0,.12l-.03-.02,.04-.08"/><path class="cls-12" d="M49.62,76.03s.03,.09,0,.12l-.03-.02,.04-.08"/><path class="cls-12" d="M50.05,76.14s.03,.09,0,.12l-.03-.02,.04-.08"/><path class="cls-12" d="M50.2,75.91s.03,.09,0,.12l-.03-.02,.04-.08"/><path class="cls-12" d="M50.83,76.53s.02,.05,0,.07h-.02l.02-.06"/><path class="cls-12" d="M51.06,76.94s.02,.05,0,.07h-.02l.02-.06"/><path class="cls-12" d="M50.24,76.41s.02,.05,0,.07h-.02l.02-.05"/><path class="cls-12" d="M50.61,76.89s.04-.04,.06-.04v.02h-.05"/><path class="cls-12" d="M50.71,76.46s.04-.04,.06-.04v.02h-.05"/><path class="cls-12" d="M49.81,75.99s.03,.09,0,.12l-.03-.02,.04-.08"/><path class="cls-12" d="M49.58,75.84s.03,.09,0,.12l-.03-.02,.04-.08"/><path class="cls-12" d="M49.5,75.51s.02,.05,0,.07h-.02l.02-.06"/><path class="cls-12" d="M49.73,75.92s.02,.05,0,.07h-.02l.02-.06"/><path class="cls-12" d="M49.28,75.87s.04-.04,.06-.04v.02h-.05"/><path class="cls-12" d="M49.38,75.44s.04-.04,.06-.04v.02h-.05"/><path class="cls-12" d="M50.25,76.16s.04-.04,.06-.04v.02h-.05"/><path class="cls-12" d="M49.66,75.79s.04-.04,.06-.04v.02h-.05"/><path class="cls-4" d="M53.32,76.34s.05,.09,.07,.14c.05,.15,.11,.29,.17,.44l.08,.2c.09,.24,.19,.47,.31,.69,.03,.06,.07,.11,.12,.16,.05,.04,.12,.1,.1,.16-.08,.02-.16,.01-.24,0-.1-.03-.2-.08-.28-.14l-1.03-.66c-.12-.07-.22-.15-.32-.25-.08-.09-.15-.19-.21-.29-.21-.28-.51-.5-.68-.81,0,0,0-.01,0-.02,0-.02,.03-.03,.05-.02,.53,.05,1.02,.24,1.55,.32,.1,.02,.27-.02,.34,.08Z"/><path class="cls-12" d="M53.22,76.52s.03,.09,0,.12l-.03-.02,.04-.08"/><path class="cls-12" d="M53.11,76.94s.03,.09,0,.12l-.03-.02,.04-.08"/><path class="cls-12" d="M53.78,77.7s.03,.09,0,.12l-.03-.02,.04-.08"/><path class="cls-12" d="M53.55,77.55s.03,.09,0,.12l-.03-.02,.04-.08"/><path class="cls-12" d="M52.26,76.73s.03,.09,0,.12l-.03-.02,.04-.08"/><path class="cls-12" d="M52.69,76.84s.03,.09,0,.12l-.03-.02,.04-.08"/><path class="cls-12" d="M52.84,76.6s.03,.09,0,.12l-.03-.02,.04-.08"/><path class="cls-12" d="M53.47,77.22s.02,.05,0,.07h-.02l.02-.06"/><path class="cls-12" d="M53.7,77.63s.02,.05,0,.07h-.02l.02-.06"/><path class="cls-12" d="M52.88,77.12s.02,.05,0,.07h-.02l.02-.06"/><path class="cls-12" d="M53.25,77.59s.04-.04,.06-.04v.02h-.05"/><path class="cls-12" d="M53.35,77.16s.04-.04,.06-.04v.02h-.05"/><path class="cls-12" d="M52.45,76.69s.03,.09,0,.12l-.03-.02,.04-.08"/><path class="cls-12" d="M52.22,76.54s.03,.09,0,.12l-.03-.02,.04-.08"/><path class="cls-12" d="M52.14,76.21s.02,.05,0,.07h-.02l.02-.05"/><path class="cls-12" d="M52.37,76.62s.02,.05,0,.07h-.02l.02-.06"/><path class="cls-12" d="M51.92,76.56s.04-.04,.06-.04v.02h-.05"/><path class="cls-12" d="M52.02,76.14s.04-.04,.06-.04v.02h-.05"/><path class="cls-12" d="M52.89,76.85s.04-.04,.06-.04v.02h-.05"/><path class="cls-12" d="M52.3,76.48s.04-.04,.06-.04v.02h-.05"/><path class="cls-4" d="M52.49,76.76s.05,.09,.07,.14c.05,.15,.11,.29,.17,.44l.08,.2c.09,.24,.19,.47,.31,.69,.03,.06,.07,.11,.12,.16,.05,.04,.12,.1,.1,.16-.08,.02-.16,.02-.24,0-.1-.03-.2-.08-.28-.14l-1.03-.66c-.12-.07-.22-.15-.32-.24-.08-.09-.15-.19-.22-.3-.21-.29-.51-.5-.68-.81,0,0,0-.01,0-.02,0-.02,.03-.03,.05-.03,.53,.05,1.02,.25,1.55,.32,.11,.02,.28-.02,.35,.08Z"/><path class="cls-12" d="M52.39,76.93s.03,.09,0,.12l-.03-.02,.04-.08"/><path class="cls-12" d="M52.28,77.36s.03,.09,0,.12l-.03-.02,.04-.08"/><path class="cls-12" d="M52.95,78.12s.03,.09,0,.12l-.03-.02,.04-.08"/><path class="cls-12" d="M52.72,77.97s.03,.09,0,.12l-.03-.02,.04-.08"/><path class="cls-12" d="M51.43,77.14s.03,.09,0,.12l-.03-.02,.04-.08"/><path class="cls-12" d="M51.85,77.25s.03,.09,0,.12l-.04-.02,.04-.08"/><path class="cls-12" d="M52,77.02s.03,.09,0,.12l-.03-.02,.04-.08"/><path class="cls-12" d="M52.63,77.64s.02,.05,0,.07h-.02l.02-.05"/><path class="cls-12" d="M52.86,78.05s.02,.05,0,.07h-.02l.02-.06"/><path class="cls-12" d="M52.05,77.53s.02,.05,0,.07h-.02l.02-.06"/><path class="cls-12" d="M52.41,78s.04-.04,.06-.04v.02h-.05"/><path class="cls-12" d="M52.53,77.57s.04-.04,.06-.04v.02h-.06"/><path class="cls-12" d="M51.62,77.1s.03,.09,0,.12l-.03-.02,.04-.08"/><path class="cls-12" d="M51.39,76.95s.03,.09,0,.12l-.03-.02,.04-.08"/><path class="cls-12" d="M51.3,76.62s.02,.05,0,.07h-.02l.02-.06"/><path class="cls-12" d="M51.54,77.04s.02,.05,0,.07h-.02l.02-.05"/><path class="cls-12" d="M51.08,76.98s.04-.04,.06-.04v.02h-.05"/><path class="cls-12" d="M51.19,76.56s.04-.04,.06-.04v.02h-.05"/><path class="cls-12" d="M52.05,77.27s.04-.04,.06-.04v.02h-.05"/><path class="cls-12" d="M51.46,76.9s.04-.04,.06-.04v.02h-.05"/><path class="cls-4" d="M54.78,77.19c-.02,.05-.04,.1-.07,.14-.08,.13-.16,.27-.24,.4l-.11,.19c-.13,.21-.25,.44-.35,.67-.03,.06-.05,.12-.05,.19,0,.07,0,.15-.06,.18-.06-.05-.11-.12-.15-.19-.04-.1-.06-.2-.06-.31l-.12-1.22c-.02-.13-.02-.27,0-.4,.02-.12,.06-.24,.1-.35,.09-.34,.08-.71,.21-1.04,0,0,0-.01,0-.02,.02-.01,.04,0,.05,.02,.28,.45,.44,.96,.71,1.41,.05,.1,.18,.21,.15,.33Z"/><path class="cls-9" d="M54.78,77.19c-.02,.05-.04,.1-.07,.14-.08,.13-.16,.27-.24,.4l-.11,.19c-.13,.21-.25,.44-.35,.67-.03,.06-.05,.12-.05,.19,0,.07,0,.15-.06,.18-.06-.05-.11-.12-.15-.19-.04-.1-.06-.2-.06-.31l-.12-1.22c-.02-.13-.02-.27,0-.4,.02-.12,.06-.24,.1-.35,.09-.34,.08-.71,.21-1.04,0,0,0-.01,0-.02,.02-.01,.04,0,.05,.02,.28,.45,.44,.96,.71,1.41,.05,.1,.18,.21,.15,.33Z"/><path class="cls-12" d="M54.58,77.22s-.05,.08-.09,.08v-.04l.08-.02"/><path class="cls-12" d="M54.18,77.4s-.05,.08-.09,.07v-.04l.08-.02"/><path class="cls-12" d="M54,78.39s-.05,.08-.09,.08v-.04l.08-.02"/><path class="cls-12" d="M53.97,78.12s-.05,.08-.09,.08v-.04l.08-.02"/><path class="cls-12" d="M53.82,76.59s-.05,.08-.09,.08v-.04l.08-.02"/><path class="cls-12" d="M54,77s-.05,.08-.09,.07v-.04l.08-.02"/><path class="cls-12" d="M54.27,76.97s-.05,.08-.09,.08v-.04l.08-.02"/><path class="cls-12" d="M54.18,77.85s-.03,.05-.05,.05v-.02h.05"/><path class="cls-12" d="M54,78.28s-.03,.05-.05,.05v-.02h.05"/><path class="cls-12" d="M53.9,77.32s-.03,.05-.05,.05v-.02h.05"/><path class="cls-12" d="M53.76,77.9s.06,0,.07,.02h-.02l-.03-.02"/><path class="cls-12" d="M54.16,77.72s.06,0,.07,.02h-.02l-.03-.02"/><path class="cls-12" d="M53.97,76.72s-.05,.08-.09,.08v-.04l.08-.02"/><path class="cls-12" d="M53.94,76.44s-.05,.08-.09,.08v-.04l.08-.02"/><path class="cls-12" d="M54.15,76.17s-.03,.05-.05,.05v-.02h.05"/><path class="cls-12" d="M53.97,76.61s-.03,.05-.05,.05v-.02h.05"/><path class="cls-12" d="M53.73,76.22s.06,0,.07,.02h-.02l-.03-.02"/><path class="cls-12" d="M54.13,76.04s.06,0,.07,.02h-.02l-.03-.02"/><path class="cls-12" d="M54.1,77.16s.06,0,.07,.02h-.02l-.03-.02"/><path class="cls-12" d="M54.03,76.47s.06,0,.07,.02h-.02l-.03-.02"/><path class="cls-4" d="M46.16,77.19c-.02,.05-.04,.1-.07,.14-.08,.13-.16,.27-.24,.4l-.11,.19c-.13,.21-.25,.44-.35,.67-.03,.06-.04,.12-.05,.19,0,.07,0,.15-.06,.18-.06-.05-.11-.12-.15-.19-.04-.1-.06-.2-.06-.31l-.12-1.22c-.02-.13-.02-.27,0-.4,.03-.12,.06-.24,.1-.35,.09-.34,.08-.71,.21-1.04,0,0,0-.01,0-.02,.02-.01,.04,0,.05,.02,.28,.45,.44,.96,.71,1.41,.05,.1,.18,.21,.15,.33Z"/><path class="cls-12" d="M45.96,77.22s-.05,.08-.1,.08v-.04l.08-.02"/><path class="cls-12" d="M45.56,77.4s-.05,.08-.1,.07v-.04l.08-.02"/><path class="cls-12" d="M45.38,78.39s-.05,.08-.09,.08v-.04l.08-.02"/><path class="cls-12" d="M45.35,78.12s-.05,.08-.1,.08v-.04l.08-.02"/><path class="cls-12" d="M45.2,76.59s-.05,.08-.1,.08v-.04l.08-.02"/><path class="cls-12" d="M45.38,77s-.05,.08-.09,.07v-.04l.08-.02"/><path class="cls-12" d="M45.66,76.97s-.05,.08-.1,.08v-.04l.08-.02"/><path class="cls-12" d="M45.56,77.85s-.03,.05-.05,.05v-.02h.05"/><path class="cls-12" d="M45.38,78.28s-.03,.05-.05,.05v-.02h.05"/><path class="cls-12" d="M45.28,77.32s-.03,.05-.05,.05v-.02h.05"/><path class="cls-12" d="M45.14,77.9s.06,0,.07,.02h-.02l-.03-.02"/><path class="cls-12" d="M45.54,77.72s.06,0,.07,.02h-.02l-.03-.02"/><path class="cls-12" d="M45.35,76.72s-.05,.08-.1,.08v-.04l.08-.02"/><path class="cls-12" d="M45.33,76.44s-.05,.08-.09,.08v-.04l.08-.02"/><path class="cls-12" d="M45.53,76.17s-.03,.05-.05,.05v-.02h.05"/><path class="cls-12" d="M45.35,76.61s-.03,.05-.05,.05v-.02h.05"/><path class="cls-12" d="M45.12,76.22s.06,0,.07,.02h-.02l-.03-.02"/><path class="cls-12" d="M45.52,76.04s.06,0,.07,.02h-.02l-.03-.02"/><path class="cls-12" d="M45.49,77.16s.06,0,.07,.02h-.02l-.03-.02"/><path class="cls-12" d="M45.42,76.47s.06,0,.07,.02h-.02l-.03-.02"/><path class="cls-4" d="M55.15,77.82s-.07,.08-.12,.11c-.12,.09-.25,.19-.37,.29l-.17,.14c-.2,.15-.39,.32-.57,.5-.05,.05-.09,.1-.12,.16-.03,.06-.06,.14-.12,.14-.04-.07-.06-.15-.07-.24,0-.11,.02-.21,.05-.31l.32-1.18c.03-.13,.08-.26,.14-.38,.07-.1,.14-.2,.21-.29,.21-.28,.32-.64,.56-.89,0,0,0,0,.01-.01,.02,0,.04,.02,.04,.04,.11,.52,.07,1.05,.16,1.57,.01,.12,.1,.26,.03,.36Z"/><path class="cls-12" d="M54.96,77.78s-.08,.06-.12,.04v-.04h.09"/><path class="cls-12" d="M54.52,77.81s-.08,.06-.12,.04v-.04h.09"/><path class="cls-12" d="M53.99,78.67s-.08,.06-.12,.04v-.04h.09"/><path class="cls-12" d="M54.07,78.4s-.08,.06-.12,.04v-.04h.09"/><path class="cls-12" d="M54.47,76.93s-.08,.06-.12,.04v-.04h.09"/><path class="cls-12" d="M54.49,77.37s-.08,.06-.12,.04v-.04h.09"/><path class="cls-12" d="M54.77,77.44s-.08,.06-.12,.04v-.04h.09"/><path class="cls-12" d="M54.36,78.23s-.04,.04-.06,.03v-.02h.05"/><path class="cls-12" d="M54.03,78.57s-.04,.04-.06,.03v-.02h.05"/><path class="cls-12" d="M54.29,77.63s-.04,.04-.06,.03v-.02h.05"/><path class="cls-12" d="M53.95,78.12s.05,.02,.05,.05h-.02l-.02-.04"/><path class="cls-12" d="M54.39,78.1s.05,.02,.05,.04h-.02l-.02-.04"/><path class="cls-12" d="M54.57,77.1s-.08,.06-.12,.04v-.04h.09"/><path class="cls-12" d="M54.64,76.83s-.08,.06-.12,.04v-.04h.09"/><path class="cls-12" d="M54.93,76.65s-.04,.04-.07,.03v-.02h.05"/><path class="cls-12" d="M54.6,77s-.04,.04-.06,.03v-.02h.05"/><path class="cls-12" d="M54.52,76.55s.05,.02,.05,.05h-.02l-.02-.04"/><path class="cls-12" d="M54.96,76.53s.05,.02,.05,.04h-.02l-.02-.04"/><path class="cls-12" d="M54.53,77.56s.05,.02,.05,.04h-.02l-.02-.04"/><path class="cls-12" d="M54.71,76.89s.05,.02,.05,.04h-.02l-.02-.04"/><path class="cls-4" d="M54.02,76.62s.05,.09,.07,.14c.05,.15,.11,.29,.16,.44l.08,.2c.09,.24,.19,.47,.3,.69,.03,.06,.07,.11,.12,.16,.05,.04,.12,.1,.1,.16-.08,.02-.16,.02-.24,0-.1-.03-.2-.08-.28-.14l-1.03-.66c-.12-.07-.22-.15-.32-.24-.08-.09-.15-.19-.21-.29-.21-.28-.51-.5-.68-.81,0,0,0-.01,0-.02,0-.02,.03-.03,.05-.02,.53,.05,1.02,.24,1.55,.32,.1,.02,.27-.02,.35,.08Z"/><path class="cls-9" d="M54.02,76.62s.05,.09,.07,.14c.05,.15,.11,.29,.16,.44l.08,.2c.09,.24,.19,.47,.3,.69,.03,.06,.07,.11,.12,.16,.05,.04,.12,.1,.1,.16-.08,.02-.16,.02-.24,0-.1-.03-.2-.08-.28-.14l-1.03-.66c-.12-.07-.22-.15-.32-.24-.08-.09-.15-.19-.21-.29-.21-.28-.51-.5-.68-.81,0,0,0-.01,0-.02,0-.02,.03-.03,.05-.02,.53,.05,1.02,.24,1.55,.32,.1,.02,.27-.02,.35,.08Z"/><path class="cls-12" d="M53.92,76.79s.03,.09,0,.12l-.03-.02,.04-.08"/><path class="cls-12" d="M53.81,77.22s.03,.09,0,.12l-.03-.02,.04-.08"/><path class="cls-12" d="M54.48,77.98s.03,.09,0,.12l-.03-.02,.04-.08"/><path class="cls-12" d="M54.24,77.83s.03,.09,0,.12l-.03-.02,.04-.08"/><path class="cls-12" d="M52.96,77.01s.03,.09,0,.12l-.03-.02,.04-.08"/><path class="cls-12" d="M53.38,77.12s.03,.09,0,.12l-.03-.02,.04-.08"/><path class="cls-12" d="M53.53,76.88s.03,.09,0,.12l-.03-.02,.04-.08"/><path class="cls-12" d="M54.16,77.5s.02,.05,0,.07h-.02l.02-.06"/><path class="cls-12" d="M54.39,77.91s.02,.05,0,.07h-.02l.02-.06"/><path class="cls-12" d="M53.57,77.39s.02,.05,0,.07h-.02l.02-.06"/><path class="cls-12" d="M53.94,77.86s.04-.04,.06-.04v.02h-.05"/><path class="cls-12" d="M54.05,77.43s.04-.04,.06-.04v.02h-.05"/><path class="cls-12" d="M53.15,76.96s.03,.09,0,.12l-.03-.02,.04-.08"/><path class="cls-12" d="M52.91,76.81s.03,.09,0,.12l-.03-.02,.04-.08"/><path class="cls-12" d="M52.83,76.49s.02,.05,0,.07h-.02l.02-.06"/><path class="cls-12" d="M53.06,76.9s.02,.05,0,.07h-.02l.02-.06"/><path class="cls-12" d="M52.61,76.84s.04-.04,.06-.04v.02h-.05"/><path class="cls-12" d="M52.72,76.42s.04-.04,.06-.04v.03h-.05"/><path class="cls-12" d="M53.58,77.13s.04-.04,.06-.04v.02h-.05"/><path class="cls-12" d="M53,76.76s.04-.04,.06-.04v.02h-.05"/><path class="cls-4" d="M52.07,75.37s.05,.09,.07,.14c.05,.15,.11,.29,.16,.44l.08,.2c.09,.24,.19,.47,.31,.69,.03,.06,.07,.11,.12,.16,.05,.04,.12,.1,.1,.16-.08,.02-.16,.02-.24,0-.1-.03-.2-.08-.28-.14l-1.03-.66c-.12-.07-.22-.15-.32-.25-.08-.09-.15-.19-.21-.29-.21-.28-.51-.5-.69-.81,0,0,0-.01,0-.02,0-.02,.03-.03,.05-.02,.53,.05,1.02,.25,1.55,.32,.1,.02,.27-.02,.35,.08Z"/><path class="cls-12" d="M51.97,75.54s.03,.09,0,.12l-.03-.02,.04-.08"/><path class="cls-12" d="M51.86,75.97s.03,.09,0,.12l-.03-.02,.04-.08"/><path class="cls-12" d="M52.53,76.73s.03,.09,0,.12l-.03-.02,.04-.08"/><path class="cls-12" d="M52.3,76.58s.03,.09,0,.12l-.03-.02,.04-.08"/><path class="cls-12" d="M51.01,75.75s.03,.09,0,.12l-.03-.02,.04-.08"/><path class="cls-12" d="M51.44,75.86s.03,.09,0,.12l-.03-.02,.04-.08"/><path class="cls-12" d="M51.59,75.63s.03,.09,0,.12l-.03-.02,.04-.08"/><path class="cls-12" d="M52.22,76.25s.02,.05,0,.07h-.02l.02-.06"/><path class="cls-12" d="M52.45,76.66s.02,.05,0,.07h-.02l.02-.06"/><path class="cls-12" d="M51.63,76.14s.02,.05,0,.07h-.02l.02-.06"/><path class="cls-12" d="M51.99,76.61s.04-.04,.06-.04v.02h-.05"/><path class="cls-12" d="M52.1,76.18s.04-.04,.06-.04v.02h-.05"/><path class="cls-12" d="M51.2,75.71s.03,.09,0,.12l-.03-.02,.04-.08"/><path class="cls-12" d="M50.97,75.56s.03,.09,0,.12l-.03-.02,.04-.08"/><path class="cls-12" d="M50.89,75.23s.02,.05,0,.07h-.02l.02-.05"/><path class="cls-12" d="M51.12,75.65s.02,.05,0,.07h-.02l.02-.06"/><path class="cls-12" d="M50.67,75.59s.04-.04,.06-.04v.02h-.05"/><path class="cls-12" d="M50.77,75.17s.04-.04,.06-.04v.02h-.05"/><path class="cls-12" d="M51.64,75.88s.04-.04,.06-.04v.02h-.05"/><path class="cls-12" d="M51.05,75.51s.04-.04,.06-.04v.02h-.05"/><path class="cls-7" d="M54.48,79.99h-8.87c-.17,0-.32-.12-.36-.28l-.51-2.04c-.05-.2,.07-.4,.27-.45,.03,0,.06-.01,.09-.01h9.89c.21,0,.37,.17,.37,.37,0,.03,0,.06-.01,.09l-.51,2.04c-.04,.16-.19,.28-.36,.28Z"/><path class="cls-13" d="M54.48,79.99h-8.87c-.17,0-.32-.12-.36-.28l-.51-2.04c-.05-.2,.07-.4,.27-.45,.03,0,.06-.01,.09-.01h9.89c.21,0,.37,.17,.37,.37,0,.03,0,.06-.01,.09l-.51,2.04c-.04,.16-.19,.28-.36,.28Z"/><path class="cls-5" d="M83.79,62.53c.94-.09,1.79-.63,2.57-1.18,1-.69,1.97-1.41,2.92-2.16,.26-.2,.53-.43,.61-.75,.07-.28-.02-.58-.12-.86-.46-1.36-.95-2.72-1.46-4.06-.3-.97-.82-1.85-1.51-2.59-.91-1.07-1.84-2.13-2.78-3.18-.87-.96-1.1-2.38-1.63-3.57-.05-.13-.12-.25-.22-.34-.14-.09-.3-.13-.46-.12-.7-.03-1.41,.08-2.07,.33-.46,.17-.93,.46-1.04,.94-.12,.52,.25,1.01,.59,1.41,.23,.3,.5,.58,.79,.83,.4,.32,.89,.52,1.31,.82,.34,.26,.66,.55,.94,.87,.42,.44,.85,.89,1.14,1.43,.26,.49,.39,1.04,.53,1.58l.74,3.03,.41,1.66c.06,.15-.01,.32-.16,.37h0c-.51,.39-.96,.86-1.33,1.39-.15,.19-.25,.4-.31,.64-.03,.23-.03,.46,.02,.68,.14,.97,.33,1.88,.53,2.84Z"/><path class="cls-5" d="M72.67,57.34c-.03,.19,.05,.38,.2,.5,.29,.3,.63,.56,1,.77,.07,.03,.14,.09,.19,.15,.03,.05,.05,.11,.05,.17,.14,1.03-.28,2.06-.83,2.95-.34,.56-.75,1.07-1.22,1.53-.41,.39-.88,.72-1.38,.99-.84,.44-1.81,.69-2.76,.59s-1.87-.57-2.43-1.34c-.65-.9-.75-2.09-.76-3.2-.01-.66,0-1.36,.31-1.95,.1-.21,.25-.39,.45-.52,.28-.17,.64-.18,.92-.35,.24-.15,.4-.4,.43-.68,.01-.12,0-.24,.09-.32,.06-.05,.13-.08,.21-.08l2.31-.39c.83-.14,1.68-.28,2.53-.22,.28,.02,.69,0,.78,.32s-.07,.76-.08,1.08Z"/><path class="cls-9" d="M72.67,57.34c-.03,.19,.05,.38,.2,.5,.29,.3,.63,.56,1,.77,.07,.03,.14,.09,.19,.15,.03,.05,.05,.11,.05,.17,.14,1.03-.28,2.06-.83,2.95-.34,.56-.75,1.07-1.22,1.53-.41,.39-.88,.72-1.38,.99-.84,.44-1.81,.69-2.76,.59s-1.87-.57-2.43-1.34c-.65-.9-.75-2.09-.76-3.2-.01-.66,0-1.36,.31-1.95,.1-.21,.25-.39,.45-.52,.28-.17,.64-.18,.92-.35,.24-.15,.4-.4,.43-.68,.01-.12,0-.24,.09-.32,.06-.05,.13-.08,.21-.08l2.31-.39c.83-.14,1.68-.28,2.53-.22,.28,.02,.69,0,.78,.32s-.07,.76-.08,1.08Z"/><path class="cls-7" d="M71.26,100.05c.35,.6,.88,1.07,1.25,1.66,.23,.35,.39,.81,.23,1.2-.14,.33-.47,.52-.79,.66-.88,.38-1.84,.53-2.78,.43-.17-.01-.34-.05-.51-.11-.53-.2-.85-.74-1.05-1.26-.07-.2-.16-.4-.27-.58-.24-.33-.61-.51-.94-.73s-.66-.54-.67-.94c.01-.18,.04-.35,.09-.52,.06-.32,.02-.64,.03-.97,0-.37,.07-.73,.19-1.08,.03-.11,.09-.21,.18-.29,.08-.05,.16-.08,.26-.09,1.12-.2,2.26-.13,3.35,.2,.21,.07,.62,.14,.78,.3,.13,.13,.12,.31,.14,.49,.07,.57,.24,1.12,.52,1.62Z"/><path class="cls-7" d="M63.6,98.03c.17,1.23,.34,2.46,.72,3.64,.07,.2,.14,.43,.05,.62-.06,.11-.14,.2-.24,.26-.84,.66-2.02,.68-3.05,.44-.6-.14-1.17-.35-1.71-.64-.06-.03-.12-.07-.16-.12-.05-.07-.09-.15-.1-.23-.38-1.51-.19-3.11,.54-4.49,.11-.22,.25-.42,.43-.58,.26-.22,.6-.3,.93-.38,.75-.18,1.53-.45,2.3-.54,.22,.6,.21,1.38,.3,2.01Z"/><path class="cls-1" d="M68.23,83.44c-1.73,.06-3.44,.5-5.17,.54-.83,.02-1.69-.07-2.36-.54-.55-.38-.9-.97-1.24-1.55-.27-.46-.54-.93-.7-1.44-.27-.9-.15-1.87,0-2.8,.12-.72,.28-1.51,.83-1.99,.33-.29,.77-.43,1.19-.56,2-.59,4.08-.96,6.14-1.32,.61-.11,1.23-.22,1.85-.26,1.52-.12,3.05,.12,4.46,.71,.63,.26,1.26,.61,1.67,1.16,.48,.65,.61,1.51,.51,2.31s-.39,1.57-.69,2.32l-.94,2.44c-.2,.51-.33,1.43-.96,1.55-.6,.11-1.53-.33-2.14-.43-.82-.12-1.64-.17-2.47-.16Z"/><circle class="cls-5" cx="69.5" cy="53.52" r="4.72"/><path class="cls-6" d="M69.16,63.48l2.05-2.34c.18-.22,.38-.42,.58-.61,.29-.26,.63-.48,.81-.83,.28-.54,.08-1.2,.06-1.79-.01-.12,.05-.23,.15-.29,.14-.08,.24,.01,.34,.07,.26,.12,.59,.02,.85,.14,.19,.08,.33,.26,.48,.41s.37,.26,.57,.18c.1-.04,.18-.13,.28-.18,.24-.12,.52,.06,.79,.06,.24,0,.45-.14,.68-.22,.25-.07,.5-.11,.76-.12l2.31-.16c.04,1.72-.31,3.42-.72,5.08-.42,1.7-.85,3.41-1.7,4.94-.37,.67-.82,1.3-.94,2.08-.03,.23-.03,.46,.02,.68,.01,.1,.05,.19,.12,.27,.11,.8-.05,1.67-.53,2.32-.26,.35-.59,.65-.83,1.02s-.35,.86-.13,1.24c-.73,.24-1.49-.16-2.23-.35-1.65-.42-3.38,.17-4.89,.95-.51,.26-1.02,.56-1.59,.59-1.02,.07-1.89-.68-2.86-1.01-1.63-.54-3.38,.14-5.07,.46-.24,.05-.51,.08-.72-.05s-.3-.41-.33-.66c-.1-.94,.42-1.83,.68-2.74,.38-1.34,.24-2.78-.4-4.03-.37-.7-.51-1.5-.38-2.28,0-.05,.02-.09,.02-.14l.59-3.82c.05-.45,.15-.89,.29-1.32,.35-.96,1.16-1.7,2.05-2.19s1.89-.76,2.88-1.02c.82-.24,1.65-.41,2.49-.52,.12-.01,.26-.02,.34,.08,.04,.06,.06,.13,.06,.21,.03,.47-.15,.92-.17,1.39-.03,.67,.27,1.31,.63,1.87,.69,1.07,1.5,1.95,2.6,2.62Z"/><path class="cls-6" d="M79.33,58.31c.26-.29,.67-.39,1.05-.47l1-.21c.19-.05,.38-.07,.58-.08,.14,0,.28,.03,.42,.03,.22-.01,.43-.06,.63-.14l1.77-.57c-.59,.82-.66,1.89-.67,2.89,0,.43,0,.87,.04,1.3,.05,.46,.14,.93,.08,1.39-.08,.53-.35,1.11-.08,1.58,.15,.24,.41,.38,.67,.5-1.77,.37-3.46,1.05-4.99,2.02-.36,.23-.73,.48-1.14,.6-.27,.07-.54,.11-.82,.13l-.88,.08c-.15-2.09,.5-4.15,1.14-6.14,.17-.52,.33-1.04,.54-1.55,.18-.45,.33-.98,.66-1.35Z"/><path class="cls-7" d="M65.88,64.98c-.2,.02-.4,.03-.6,.01-.07,0-.14,.05-.15,.12l-.39,2.89c-.03,.21-.11,.41-.25,.57-.22,.27-.32,.61-.28,.96v4.92s-.02,.66,.48,.66c.6,.08,1.21,.08,1.81,0,0,0,.4-.08,.4-.68v-4.83c.06-.34-.03-.69-.25-.96-.13-.17-.21-.36-.24-.57l-.41-2.97c-.01-.07-.07-.12-.14-.11Z"/><rect class="cls-6" x="64.35" y="69.62" width="2.45" height="4.13" rx="1.04" ry="1.04"/><rect class="cls-13" x="64.35" y="69.62" width="2.45" height="4.13" rx="1.04" ry="1.04"/><path class="cls-5" d="M56.92,72.2c-.1,.57-.16,1.16,0,1.71s.6,1.06,1.17,1.16c.39,.07,.79-.05,1.14-.21s.69-.38,1.06-.51c.79-.29,1.68-.19,2.48,.08,.25,.1,.51,.18,.78,.24,.23,.04,.46,.06,.7,.06,.87,.03,1.76,.07,2.62-.13,.24-.04,.47-.15,.67-.3,.19-.19,.33-.43,.4-.69,.21-.64,.24-1.39-.14-1.95-.27-.41-.72-.68-1.19-.83-.48-.12-.97-.19-1.46-.2-.46-.09-.93,.07-1.23,.42l-.6,.54c-.12,.12-.25,.21-.4,.28-.13,.05-.26,.08-.39,.08-.44,.05-.89,.06-1.33,.05-.04-.27,.12-.54,.1-.81-.03-.28-.18-.52-.42-.66-.24-.14-.5-.23-.77-.26-.6-.11-1.24-.14-1.82,.05-.9,.31-1.2,1-1.36,1.87Z"/><path class="cls-1" d="M68.17,76.34c2.42-.9,5.17-1.24,7.55-.24,.41,.17,.85,.46,.89,.9,.02,.2-.05,.4-.09,.6-.13,.63,.05,1.28,.09,1.93s-.12,1.39-.69,1.7c-.3,2.55-.89,4.96-1.99,7.28-.19,.35-.33,.72-.43,1.1-.08,.39-.07,.79-.08,1.19-.05,1.21-.42,2.38-.79,3.54-.07,.25-.17,.5-.28,.73-.26,.5-.71,.87-1.02,1.33s-.49,1.12-.18,1.58c.19,.27-.47,.44-.8,.45-1.44,.03-2.88-.03-4.32-.18-.24,.02-.45-.16-.47-.4h0c-.14-.51-.28-1.05-.12-1.54,.09-.26,.26-.51,.25-.78,0-.24-.14-.46-.2-.69-.17-.72,.44-1.36,.89-1.95,.94-1.23,1.32-2.8,1.66-4.32,.45-1.98,.88-3.96,1.31-5.95-.37,.29-.33,.77-.68,1.07-.42,.35-1.11,.13-1.41-.32s-.33-1.04-.32-1.58c.04-1.82,.6-3.74,1.23-5.45Z"/><path class="cls-1" d="M64.97,77.01c-.58-1.43-1.95-2.56-3.48-2.69-1.53-.13-3.15,.84-3.61,2.32-.1,.35-.16,.72-.19,1.08-.41,3.66-.41,7.41,.5,10.98,.19,.74,.41,1.47,.48,2.22s-.04,1.56-.48,2.18c-.12,.17-.27,.34-.33,.54-.07,.24,0,.48,.05,.72l.76,2.97c.03,.19,.11,.37,.24,.52,.22,.24,.59,.25,.92,.21,.87-.09,1.71-.33,2.48-.73,.71-.36,1.43-.99,1.39-1.78-.01-.2-.07-.41,0-.59,.07-.13,.17-.25,.28-.35,.41-.46,.51-1.14,.4-1.74s-.41-1.16-.7-1.71,.06-1.26,.16-1.85c.32-2.05-.34-4.21,.24-6.21,.42,.37,1.09,.62,1.52,.26,.39-.32,.34-.91,.26-1.41-.27-1.65-.26-3.39-.89-4.94Z"/><path class="cls-7" d="M65.37,53.99c.15,.16,.2,.45,.39,.54s.43-.1,.54-.33c.18-.38,.22-.83,.24-1.26s.03-.88,.18-1.28,.47-.74,.84-.73c.24,0,.46,.16,.67,.3,.63,.41,1.32,.69,2.06,.84,.21,.04,.43,.07,.63-.03,.21-.12,.31-.38,.24-.61,.51-.12,1.06,.32,1.16,.92,.03,.19,.02,.38,.04,.57,.08,.59,.53,1.08,1.03,1.13,.1,.01,.2,0,.28-.05,.14-.08,.21-.26,.27-.42,.27-.68,.55-1.37,.61-2.12,.02-.43,.02-.86-.03-1.28-.04-.52-.09-1.07-.32-1.52-.35-.69-1.06-.99-1.71-1.23s-1.34-.46-2.01-.66c-.63-.21-1.29-.35-1.95-.41-1.16-.07-2.3,.26-3.26,.92-.41,.27-.76,.62-1.03,1.03-.28,.45-.41,.98-.35,1.51,.05,.41,.24,.78,.33,1.18,.15,.65,.06,1.34-.01,2-.05,.27-.04,.54,.03,.8,.09,.26,.29,.46,.51,.33,.21-.11,.38-.37,.62-.13Z"/><path class="cls-6" d="M57.29,67.18c-.1,.38-.17,.77-.21,1.16-.02,.27-.01,.53-.03,.8-.08,.99-.58,1.93-.53,2.92,.3-.14,.64-.19,.97-.14-.09-.3,.13-.63,.42-.77s.62-.13,.93-.1c.88,.06,1.77,.21,2.58,.58,.03,.02,.08,.03,.12,.02,.05-.02,.05-.1,.05-.15,0-.48,.5-.81,.62-1.28,.09-.34-.04-.69-.13-1.02-.35-1.26-.22-2.59-.32-3.9-.06-.74-.24-1.53-.81-2-.54-.41-1.26-.47-1.86-.17-1.36,.68-1.5,2.78-1.8,4.07Z"/><path class="cls-2" d="M13.66,62.53c-.94-.09-1.79-.63-2.57-1.18-1-.69-1.97-1.41-2.92-2.16-.26-.2-.52-.43-.61-.75-.07-.28,.02-.58,.12-.86,.46-1.36,.95-2.71,1.46-4.06,.18-.51,.4-1.01,.67-1.48,.25-.39,.53-.76,.85-1.11,.91-1.07,1.84-2.13,2.78-3.18,.87-.96,1.1-2.38,1.63-3.57,.05-.13,.12-.25,.22-.34,.14-.09,.3-.13,.46-.12,.7-.03,1.41,.08,2.07,.33,.46,.17,.93,.46,1.04,.94,.12,.52-.25,1.01-.59,1.41-.23,.3-.5,.58-.79,.83-.41,.32-.89,.52-1.31,.82-.34,.26-.66,.55-.94,.87-.42,.44-.85,.89-1.14,1.43-.26,.49-.39,1.04-.53,1.58l-.74,3.03-.41,1.66c-.06,.15,.01,.31,.16,.37,.51,.39,.96,.86,1.33,1.39,.15,.19,.25,.4,.31,.64,.03,.23,.03,.46-.02,.68-.14,.97-.33,1.88-.53,2.84Z"/><path class="cls-2" d="M24.79,57.34c0,.09,0,.19-.03,.28-.04,.09-.1,.16-.17,.23-.29,.3-.63,.56-.99,.77-.07,.03-.14,.09-.19,.15-.03,.05-.05,.11-.05,.17-.14,1.03,.28,2.06,.83,2.95,.34,.56,.75,1.07,1.22,1.52,.41,.39,.88,.72,1.38,.99,.84,.44,1.81,.69,2.76,.59s1.87-.57,2.43-1.34c.65-.9,.75-2.09,.76-3.2,.01-.66,0-1.36-.31-1.95-.1-.21-.25-.39-.45-.52-.28-.17-.64-.18-.92-.35-.24-.15-.4-.4-.43-.68-.01-.12,0-.24-.09-.32-.06-.05-.13-.08-.21-.08l-2.31-.39c-.83-.14-1.68-.28-2.53-.22-.28,.02-.69,0-.78,.32s.07,.76,.08,1.08Z"/><path class="cls-9" d="M24.79,57.34c0,.09,0,.19-.03,.28-.04,.09-.1,.16-.17,.23-.29,.3-.63,.56-.99,.77-.07,.03-.14,.09-.19,.15-.03,.05-.05,.11-.05,.17-.14,1.03,.28,2.06,.83,2.95,.34,.56,.75,1.07,1.22,1.52,.41,.39,.88,.72,1.38,.99,.84,.44,1.81,.69,2.76,.59s1.87-.57,2.43-1.34c.65-.9,.75-2.09,.76-3.2,.01-.66,0-1.36-.31-1.95-.1-.21-.25-.39-.45-.52-.28-.17-.64-.18-.92-.35-.24-.15-.4-.4-.43-.68-.01-.12,0-.24-.09-.32-.06-.05-.13-.08-.21-.08l-2.31-.39c-.83-.14-1.68-.28-2.53-.22-.28,.02-.69,0-.78,.32s.07,.76,.08,1.08Z"/><path class="cls-7" d="M26.2,100.05c-.35,.6-.88,1.07-1.25,1.66-.23,.35-.39,.81-.23,1.2,.14,.33,.47,.52,.79,.66,.87,.38,1.83,.53,2.78,.43,.17-.01,.34-.05,.51-.11,.53-.2,.85-.74,1.05-1.26,.07-.2,.16-.4,.27-.58,.23-.33,.61-.51,.94-.73s.66-.54,.67-.94c-.01-.18-.04-.35-.09-.52-.06-.32-.02-.64-.03-.97,0-.37-.07-.73-.19-1.08-.03-.11-.09-.21-.18-.29-.08-.05-.16-.08-.26-.09-1.12-.2-2.26-.13-3.34,.21-.21,.07-.62,.14-.78,.3-.13,.13-.12,.31-.14,.49-.07,.57-.25,1.12-.52,1.62Z"/><path class="cls-7" d="M33.86,98.03c-.17,1.23-.34,2.46-.72,3.64-.07,.2-.14,.43-.05,.62,.06,.11,.14,.2,.24,.26,.84,.66,2.02,.68,3.05,.44,.6-.14,1.17-.35,1.71-.64,.06-.03,.12-.07,.16-.12,.05-.07,.09-.15,.1-.23,.38-1.51,.19-3.11-.54-4.49-.11-.22-.25-.42-.43-.58-.26-.22-.6-.3-.93-.38-.75-.18-1.53-.45-2.3-.54-.22,.6-.21,1.38-.3,2.01Z"/><path class="cls-3" d="M29.22,83.44c1.73,.06,3.44,.5,5.17,.54,.83,.02,1.69-.07,2.36-.54,.55-.38,.9-.97,1.24-1.55,.27-.46,.55-.93,.7-1.44,.27-.9,.15-1.87,0-2.8-.12-.72-.28-1.51-.83-1.99-.33-.29-.77-.43-1.19-.56-2-.59-4.08-.96-6.14-1.32-.61-.11-1.23-.22-1.85-.26-1.52-.12-3.05,.12-4.46,.71-.63,.26-1.26,.61-1.67,1.16-.48,.65-.61,1.51-.51,2.31s.39,1.57,.69,2.32l.94,2.44c.2,.51,.33,1.43,.96,1.55,.6,.11,1.53-.33,2.14-.43,.82-.12,1.64-.17,2.47-.16Z"/><circle class="cls-2" cx="27.96" cy="53.52" r="4.72"/><path class="cls-6" d="M28.3,63.48l-2.05-2.34c-.18-.22-.38-.42-.58-.61-.29-.26-.63-.48-.81-.83-.28-.54-.09-1.2-.06-1.79,.01-.12-.05-.23-.15-.29-.14-.08-.24,.01-.35,.07-.26,.12-.59,.02-.85,.14-.19,.08-.33,.26-.48,.41s-.38,.26-.57,.18c-.1-.04-.18-.13-.28-.18-.24-.12-.52,.06-.79,.06-.24,0-.45-.14-.68-.22-.25-.07-.5-.11-.76-.12l-2.32-.16c-.04,1.72,.31,3.42,.72,5.08,.42,1.7,.85,3.41,1.7,4.94,.37,.67,.82,1.3,.94,2.08,.03,.23,.03,.46-.02,.68-.01,.1-.05,.19-.12,.27-.11,.8,.05,1.67,.53,2.32,.26,.35,.59,.65,.83,1.02s.35,.86,.13,1.24c.73,.24,1.49-.16,2.23-.35,1.65-.42,3.38,.17,4.89,.95,.51,.26,1.02,.56,1.59,.59,1.02,.07,1.89-.68,2.86-1.01,1.63-.54,3.38,.14,5.07,.46,.24,.05,.51,.08,.72-.05s.3-.41,.33-.66c.1-.94-.42-1.83-.68-2.74-.38-1.34-.24-2.78,.4-4.03,.37-.7,.5-1.5,.38-2.28,0-.05-.02-.09-.02-.14l-.59-3.82c-.05-.45-.15-.89-.29-1.32-.36-.96-1.16-1.7-2.05-2.19s-1.89-.76-2.88-1.02c-.82-.24-1.65-.41-2.49-.52-.12-.01-.26-.02-.34,.08-.04,.06-.06,.13-.06,.21-.03,.47,.15,.92,.17,1.39,.03,.67-.27,1.31-.63,1.87-.69,1.07-1.5,1.95-2.6,2.62Z"/><path class="cls-6" d="M18.13,58.31c-.26-.29-.67-.39-1.05-.47l-1-.21c-.19-.05-.38-.07-.58-.08-.14,0-.28,.03-.42,.03-.22-.01-.43-.06-.63-.14l-1.77-.57c.59,.82,.66,1.89,.67,2.89,0,.43,0,.87-.05,1.3-.05,.46-.14,.93-.08,1.39,.08,.53,.35,1.11,.08,1.58-.15,.24-.41,.38-.67,.5,1.77,.37,3.46,1.06,5,2.02,.36,.23,.73,.48,1.14,.6,.27,.07,.54,.11,.82,.13l.88,.08c.15-2.09-.5-4.15-1.14-6.14-.17-.52-.33-1.04-.54-1.55-.18-.46-.33-.98-.66-1.35Z"/><path class="cls-4" d="M28.71,70.79s-.05,.09-.07,.14c-.05,.15-.11,.29-.16,.44l-.08,.2c-.09,.24-.19,.47-.31,.69-.03,.06-.07,.11-.12,.16-.05,.04-.12,.1-.1,.16,.08,.02,.16,.02,.24,0,.1-.03,.2-.08,.28-.14l1.03-.66c.12-.07,.22-.15,.32-.25,.08-.09,.15-.19,.21-.29,.21-.28,.51-.5,.69-.81,0,0,0-.01,0-.02,0-.02-.03-.03-.05-.02-.52,.05-1.02,.24-1.54,.32-.11,.02-.27-.02-.35,.08Z"/><path class="cls-12" d="M28.81,70.96s-.03,.09,0,.12l.03-.02-.04-.08"/><path class="cls-12" d="M28.92,71.39s-.03,.09,0,.12l.03-.02-.04-.08"/><path class="cls-12" d="M28.25,72.14s-.03,.09,0,.12l.03-.02-.04-.08"/><path class="cls-12" d="M28.48,71.99s-.03,.09,0,.12l.03-.02-.04-.08"/><path class="cls-12" d="M29.77,71.17s-.03,.09,0,.12l.03-.02-.04-.08"/><path class="cls-12" d="M29.35,71.28s-.03,.09,0,.12l.03-.02-.04-.08"/><path class="cls-12" d="M29.2,71.04s-.03,.09,0,.12l.03-.02-.04-.08"/><path class="cls-12" d="M28.57,71.67s-.02,.05,0,.07h.02l-.02-.06"/><path class="cls-12" d="M28.33,72.08s-.02,.05,0,.07h.02l-.02-.06"/><path class="cls-12" d="M29.15,71.55s-.02,.05,0,.07h.02l-.02-.06"/><path class="cls-12" d="M28.79,72.02s-.04-.04-.06-.04v.02h.05"/><path class="cls-12" d="M28.68,71.6s-.04-.04-.06-.04v.02h.05"/><path class="cls-12" d="M29.58,71.13s-.03,.09,0,.12l.03-.02-.04-.08"/><path class="cls-12" d="M29.81,70.98s-.03,.09,0,.12l.03-.02-.04-.08"/><path class="cls-12" d="M29.9,70.65s-.02,.05,0,.07h.02l-.02-.05"/><path class="cls-12" d="M29.66,71.06s-.02,.05,0,.07h.02l-.02-.06"/><path class="cls-12" d="M30.12,71.01s-.04-.04-.06-.04v.02h.05"/><path class="cls-12" d="M30.01,70.58s-.04-.04-.06-.04v.02h.05"/><path class="cls-12" d="M29.15,71.3s-.04-.04-.06-.04v.02h.05"/><path class="cls-12" d="M29.73,70.92s-.04-.04-.06-.04v.02h.05"/><path class="cls-4" d="M29.13,71.06s-.05,.09-.07,.14c-.05,.15-.11,.29-.17,.44l-.08,.2c-.09,.24-.19,.47-.31,.69-.03,.06-.07,.11-.12,.16-.05,.04-.12,.1-.1,.16,.08,.02,.16,.02,.24,0,.1-.03,.2-.08,.28-.14l1.03-.66c.12-.07,.22-.15,.32-.24,.08-.09,.15-.19,.21-.29,.21-.28,.51-.5,.68-.81,0,0,0-.01,0-.02,0-.02-.03-.03-.05-.02-.53,.05-1.02,.24-1.55,.32-.11,.01-.28-.03-.35,.07Z"/><path class="cls-12" d="M29.23,71.24s-.03,.09,0,.12l.03-.02-.04-.08"/><path class="cls-12" d="M29.34,71.66s-.03,.09,0,.12l.03-.02-.04-.08"/><path class="cls-12" d="M28.67,72.42s-.03,.09,0,.12l.03-.02-.04-.08"/><path class="cls-12" d="M28.9,72.27s-.03,.09,0,.12l.03-.02-.04-.08"/><path class="cls-12" d="M30.19,71.45s-.03,.09,0,.12l.03-.02-.04-.08"/><path class="cls-12" d="M29.76,71.55s-.03,.09,0,.12l.03-.02-.04-.08"/><path class="cls-12" d="M29.61,71.32s-.03,.09,0,.12l.03-.02-.04-.08"/><path class="cls-12" d="M28.98,71.94s-.02,.05,0,.07h.02l-.02-.06"/><path class="cls-12" d="M28.75,72.35s-.02,.05,0,.07h.02l-.02-.06"/><path class="cls-12" d="M29.57,71.83s-.02,.05,0,.07h.02l-.02-.06"/><path class="cls-12" d="M29.2,72.3s-.04-.04-.06-.04v.02h.05"/><path class="cls-12" d="M29.1,71.87s-.04-.04-.06-.04v.02h.05"/><path class="cls-12" d="M30,71.41s-.03,.09,0,.12l.03-.02-.04-.08"/><path class="cls-12" d="M30.23,71.26s-.03,.09,0,.12l.03-.02-.04-.08"/><path class="cls-12" d="M30.31,70.93s-.02,.05,0,.07h.02l-.02-.06"/><path class="cls-12" d="M30.08,71.34s-.02,.05,0,.07h.02l-.02-.06"/><path class="cls-12" d="M30.53,71.28s-.04-.04-.06-.04v.02h.05"/><path class="cls-12" d="M30.43,70.86s-.04-.04-.06-.04v.02h.05"/><path class="cls-12" d="M29.57,71.57s-.04-.04-.06-.04v.02h.05"/><path class="cls-12" d="M30.15,71.2s-.04-.04-.06-.04v.02h.05"/><path class="cls-4" d="M26.35,70.65s-.05,.09-.07,.14c-.05,.15-.11,.29-.17,.44l-.08,.2c-.09,.24-.19,.47-.31,.69-.03,.06-.07,.11-.12,.16-.05,.04-.12,.1-.1,.16,.08,.02,.16,.02,.24,0,.1-.03,.2-.08,.28-.14l1.03-.66c.12-.07,.22-.15,.32-.25,.08-.09,.15-.19,.21-.29,.21-.28,.51-.5,.68-.81v-.02s-.02-.03-.04-.03c-.53,.05-1.02,.25-1.55,.32-.12,.01-.28-.03-.35,.07Z"/><path class="cls-12" d="M26.45,70.82s-.03,.09,0,.12l.03-.02-.04-.08"/><path class="cls-12" d="M26.56,71.25s-.03,.09,0,.12l.03-.02-.04-.08"/><path class="cls-12" d="M25.89,72s-.03,.09,0,.12l.03-.02-.04-.08"/><path class="cls-12" d="M26.12,71.85s-.03,.09,0,.12l.03-.02-.04-.08"/><path class="cls-12" d="M27.41,71.03s-.03,.09,0,.12l.03-.02-.04-.08"/><path class="cls-12" d="M26.98,71.14s-.03,.09,0,.12l.03-.02-.04-.08"/><path class="cls-12" d="M26.83,70.9s-.03,.09,0,.12l.03-.02-.04-.08"/><path class="cls-12" d="M26.21,71.53s-.02,.05,0,.07h.02l-.02-.06"/><path class="cls-12" d="M25.97,71.94s-.02,.05,0,.07h.02l-.02-.05"/><path class="cls-12" d="M26.79,71.41s-.02,.05,0,.07h.02l-.02-.06"/><path class="cls-12" d="M26.43,71.88s-.04-.04-.06-.04v.02h.05"/><path class="cls-12" d="M26.32,71.46s-.04-.04-.06-.04v.02h.05"/><path class="cls-12" d="M27.22,70.98s-.03,.09,0,.12l.03-.02-.04-.08"/><path class="cls-12" d="M27.45,70.84s-.03,.09,0,.12l.03-.02-.04-.08"/><path class="cls-12" d="M27.53,70.51s-.02,.05,0,.07h.02l-.02-.06"/><path class="cls-12" d="M27.3,70.92s-.02,.05,0,.07h.02l-.02-.06"/><path class="cls-12" d="M27.76,70.87s-.04-.04-.06-.04v.02h.05"/><path class="cls-12" d="M27.65,70.44s-.04-.04-.06-.04v.02h.05"/><path class="cls-12" d="M26.79,71.16s-.04-.04-.06-.04v.02h.05"/><path class="cls-12" d="M27.37,70.78s-.04-.04-.06-.04v.02h.05"/><path class="cls-4" d="M28.43,70.09s-.05,.09-.07,.14c-.05,.15-.11,.29-.16,.44l-.08,.2c-.09,.24-.19,.47-.3,.69-.03,.06-.07,.11-.12,.16-.05,.04-.12,.1-.1,.16,.08,.02,.16,.02,.24,0,.1-.03,.2-.08,.28-.14l1.03-.66c.12-.07,.22-.15,.32-.24,.08-.09,.15-.19,.21-.29,.21-.28,.51-.5,.68-.81,0,0,0-.01,0-.02,0-.02-.03-.03-.05-.02-.53,.05-1.02,.24-1.55,.32-.11,.01-.28-.03-.35,.07Z"/><path class="cls-12" d="M28.53,70.26s-.03,.09,0,.12l.03-.02-.04-.08"/><path class="cls-12" d="M28.64,70.69s-.03,.09,0,.12l.03-.02-.04-.08"/><path class="cls-12" d="M27.97,71.45s-.03,.09,0,.12l.03-.02-.04-.08"/><path class="cls-12" d="M28.21,71.3s-.03,.09,0,.12l.03-.02-.04-.08"/><path class="cls-12" d="M29.49,70.47s-.03,.09,0,.12l.03-.02-.04-.08"/><path class="cls-12" d="M29.07,70.58s-.03,.09,0,.12l.03-.02-.04-.08"/><path class="cls-12" d="M28.92,70.35s-.03,.09,0,.12l.03-.02-.04-.08"/><path class="cls-12" d="M28.29,70.97s-.02,.05,0,.07h.02l-.02-.06"/><path class="cls-12" d="M28.06,71.38s-.02,.05,0,.07h.02l-.02-.06"/><path class="cls-12" d="M28.88,70.86s-.02,.05,0,.07h.02l-.02-.05"/><path class="cls-12" d="M28.51,71.33s-.04-.04-.06-.04v.02h.05"/><path class="cls-12" d="M28.4,70.9s-.04-.04-.06-.04v.02h.05"/><path class="cls-12" d="M29.3,70.43s-.03,.09,0,.12l.03-.02-.04-.08"/><path class="cls-12" d="M29.53,70.28s-.03,.09,0,.12l.03-.02-.04-.08"/><path class="cls-12" d="M29.62,69.95s-.02,.05,0,.07h.02l-.02-.06"/><path class="cls-12" d="M29.39,70.37s-.02,.05,0,.07h.02l-.02-.06"/><path class="cls-12" d="M29.84,70.31s-.04-.04-.06-.04v.02h.05"/><path class="cls-12" d="M29.73,69.89s-.04-.04-.06-.04v.02h.05"/><path class="cls-12" d="M28.87,70.6s-.04-.04-.06-.04v.02h.05"/><path class="cls-12" d="M29.46,70.23s-.04-.04-.06-.04v.02h.05"/><path class="cls-4" d="M28.02,69.81s-.05,.09-.07,.14c-.05,.15-.11,.29-.17,.44l-.08,.2c-.09,.24-.19,.47-.31,.69-.03,.06-.07,.11-.12,.16-.05,.04-.12,.1-.1,.16,.08,.02,.16,.02,.24,0,.1-.03,.2-.08,.28-.14l1.03-.66c.12-.07,.22-.15,.32-.25,.08-.09,.15-.19,.21-.29,.21-.28,.51-.5,.69-.81,0,0,0-.01,0-.02,0-.02-.03-.03-.05-.02-.53,.05-1.02,.25-1.55,.32-.11,.02-.28-.02-.35,.08Z"/><path class="cls-9" d="M28.02,69.81s-.05,.09-.07,.14c-.05,.15-.11,.29-.17,.44l-.08,.2c-.09,.24-.19,.47-.31,.69-.03,.06-.07,.11-.12,.16-.05,.04-.12,.1-.1,.16,.08,.02,.16,.02,.24,0,.1-.03,.2-.08,.28-.14l1.03-.66c.12-.07,.22-.15,.32-.25,.08-.09,.15-.19,.21-.29,.21-.28,.51-.5,.69-.81,0,0,0-.01,0-.02,0-.02-.03-.03-.05-.02-.53,.05-1.02,.25-1.55,.32-.11,.02-.28-.02-.35,.08Z"/><path class="cls-12" d="M28.12,69.99s-.03,.09,0,.12l.03-.02-.04-.08"/><path class="cls-12" d="M28.23,70.41s-.03,.09,0,.12l.03-.02-.04-.08"/><path class="cls-12" d="M27.56,71.17s-.03,.09,0,.12l.03-.02-.04-.08"/><path class="cls-12" d="M27.79,71.02s-.03,.09,0,.12l.03-.02-.04-.08"/><path class="cls-12" d="M29.08,70.2s-.03,.09,0,.12l.03-.02-.04-.08"/><path class="cls-12" d="M28.65,70.31s-.03,.09,0,.12l.03-.02-.04-.08"/><path class="cls-12" d="M28.5,70.07s-.03,.09,0,.12l.03-.02-.04-.08"/><path class="cls-12" d="M27.87,70.69s-.02,.05,0,.07h.01l-.02-.06"/><path class="cls-12" d="M27.64,71.1s-.02,.05,0,.07h.02l-.02-.06"/><path class="cls-12" d="M28.46,70.58s-.02,.05,0,.07h.02l-.02-.06"/><path class="cls-12" d="M28.09,71.05s-.04-.04-.06-.04v.02h.05"/><path class="cls-12" d="M27.99,70.63s-.04-.04-.06-.04v.02h.05"/><path class="cls-12" d="M28.89,70.16s-.03,.09,0,.12l.03-.02-.04-.08"/><path class="cls-12" d="M29.12,70.01s-.03,.09,0,.12l.03-.02-.04-.08"/><path class="cls-12" d="M29.2,69.68s-.02,.05,0,.07h.02l-.02-.05"/><path class="cls-12" d="M28.97,70.09s-.02,.05,0,.07h.02l-.02-.06"/><path class="cls-12" d="M29.42,70.03s-.04-.04-.06-.04v.02h.05"/><path class="cls-12" d="M29.32,69.61s-.04-.04-.06-.04v.02h.05"/><path class="cls-12" d="M28.45,70.33s-.04-.04-.06-.04v.02h.05"/><path class="cls-12" d="M29.04,69.95s-.04-.04-.06-.04v.02h.05"/><path class="cls-4" d="M28.15,67.87s-.05,.09-.07,.14c-.05,.15-.11,.29-.17,.44l-.08,.2c-.09,.24-.19,.47-.31,.69-.03,.06-.07,.11-.12,.16-.05,.04-.12,.1-.1,.16,.08,.02,.16,.02,.24,0,.1-.03,.2-.08,.28-.14l1.03-.66c.12-.07,.22-.15,.32-.25,.08-.09,.15-.19,.21-.29,.21-.28,.51-.5,.68-.81v-.02s-.02-.03-.04-.03c-.53,.05-1.02,.25-1.55,.32-.11,.02-.28-.02-.35,.08Z"/><path class="cls-9" d="M28.15,67.87s-.05,.09-.07,.14c-.05,.15-.11,.29-.17,.44l-.08,.2c-.09,.24-.19,.47-.31,.69-.03,.06-.07,.11-.12,.16-.05,.04-.12,.1-.1,.16,.08,.02,.16,.02,.24,0,.1-.03,.2-.08,.28-.14l1.03-.66c.12-.07,.22-.15,.32-.25,.08-.09,.15-.19,.21-.29,.21-.28,.51-.5,.68-.81v-.02s-.02-.03-.04-.03c-.53,.05-1.02,.25-1.55,.32-.11,.02-.28-.02-.35,.08Z"/><path class="cls-12" d="M28.26,68.04s-.03,.09,0,.12l.03-.02-.04-.08"/><path class="cls-12" d="M28.36,68.47s-.03,.09,0,.12l.03-.02-.04-.08"/><path class="cls-12" d="M27.69,69.23s-.03,.09,0,.12l.03-.02-.04-.08"/><path class="cls-12" d="M27.93,69.08s-.03,.09,0,.12l.03-.02-.04-.08"/><path class="cls-12" d="M29.22,68.25s-.03,.09,0,.12l.03-.02-.04-.08"/><path class="cls-12" d="M28.79,68.36s-.03,.09,0,.12l.03-.02-.04-.08"/><path class="cls-12" d="M28.64,68.13s-.03,.09,0,.12l.03-.02-.04-.08"/><path class="cls-12" d="M28.01,68.74s-.02,.05,0,.07h.02l-.02-.06"/><path class="cls-12" d="M27.78,69.16s-.02,.05,0,.07h.02l-.02-.05"/><path class="cls-12" d="M28.6,68.63s-.02,.05,0,.07h.02l-.02-.06"/><path class="cls-12" d="M28.24,69.1s-.04-.04-.06-.04v.03h.05"/><path class="cls-12" d="M28.12,68.68s-.04-.04-.06-.04v.02h.05"/><path class="cls-12" d="M29.02,68.21s-.03,.09,0,.12l.03-.02-.04-.08"/><path class="cls-12" d="M29.26,68.06s-.03,.09,0,.12l.03-.02-.04-.08"/><path class="cls-12" d="M29.34,67.73s-.02,.05,0,.07h.02l-.02-.06"/><path class="cls-12" d="M29.11,68.14s-.02,.05,0,.07h.02l-.02-.06"/><path class="cls-12" d="M29.56,68.09s-.04-.04-.06-.04v.02h.05"/><path class="cls-12" d="M29.45,67.66s-.04-.04-.06-.04v.02h.05"/><path class="cls-12" d="M28.59,68.38s-.04-.04-.06-.04v.02h.05"/><path class="cls-12" d="M29.18,68s-.04-.04-.06-.04v.02h.05"/><path class="cls-4" d="M27.18,71.06s-.05,.09-.07,.14c-.05,.15-.11,.29-.17,.44l-.08,.2c-.09,.24-.19,.47-.31,.69-.03,.06-.07,.11-.12,.16-.05,.04-.12,.1-.1,.16,.08,.02,.16,.02,.24,0,.1-.03,.2-.08,.28-.14l1.03-.66c.12-.07,.22-.15,.32-.24,.08-.09,.15-.19,.21-.29,.21-.28,.51-.5,.68-.81,0,0,0-.01,0-.02,0-.02-.03-.03-.05-.02-.53,.05-1.02,.24-1.55,.32-.11,.01-.28-.03-.35,.07Z"/><path class="cls-12" d="M27.28,71.24s-.03,.09,0,.12l.03-.02-.04-.08"/><path class="cls-12" d="M27.39,71.66s-.03,.09,0,.12l.03-.02-.04-.08"/><path class="cls-12" d="M26.72,72.42s-.03,.09,0,.12l.03-.02-.04-.08"/><path class="cls-12" d="M26.96,72.27s-.03,.09,0,.12l.03-.02-.04-.08"/><path class="cls-12" d="M28.24,71.45s-.03,.09,0,.12l.03-.02-.04-.08"/><path class="cls-12" d="M27.82,71.55s-.03,.09,0,.12l.03-.02-.04-.08"/><path class="cls-12" d="M27.67,71.32s-.03,.09,0,.12l.03-.02-.04-.08"/><path class="cls-12" d="M27.04,71.94s-.02,.05,0,.07h.02l-.02-.06"/><path class="cls-12" d="M26.81,72.35s-.02,.05,0,.07h.02l-.02-.06"/><path class="cls-12" d="M27.63,71.83s-.02,.05,0,.07h.02l-.02-.06"/><path class="cls-12" d="M27.26,72.3s-.04-.04-.06-.04v.02h.05"/><path class="cls-12" d="M27.15,71.87s-.04-.04-.06-.04v.02h.05"/><path class="cls-12" d="M28.05,71.41s-.03,.09,0,.12l.03-.02-.04-.08"/><path class="cls-12" d="M28.29,71.26s-.03,.09,0,.12l.03-.02-.04-.08"/><path class="cls-12" d="M28.37,70.93s-.02,.05,0,.07h.02l-.02-.06"/><path class="cls-12" d="M28.14,71.34s-.02,.05,0,.07h.02l-.02-.06"/><path class="cls-12" d="M28.59,71.28s-.04-.04-.06-.04v.02h.05"/><path class="cls-12" d="M28.48,70.86s-.04-.04-.06-.04v.02h.05"/><path class="cls-12" d="M27.62,71.57s-.04-.04-.06-.04v.02h.05"/><path class="cls-12" d="M28.21,71.2s-.04-.04-.06-.04v.02h.05"/><path class="cls-4" d="M29.54,69.67s-.05,.09-.07,.14c-.05,.15-.11,.29-.16,.44l-.08,.2c-.09,.24-.19,.47-.31,.69-.03,.06-.07,.11-.12,.16-.05,.04-.12,.1-.1,.16,.08,.02,.16,.01,.24,0,.1-.03,.2-.08,.28-.14l1.03-.66c.12-.07,.22-.15,.32-.25,.08-.09,.15-.19,.21-.29,.21-.28,.51-.5,.69-.81v-.02s-.02-.03-.04-.03c-.53,.05-1.02,.25-1.55,.32-.11,.02-.28-.02-.35,.08Z"/><path class="cls-9" d="M29.54,69.67s-.05,.09-.07,.14c-.05,.15-.11,.29-.16,.44l-.08,.2c-.09,.24-.19,.47-.31,.69-.03,.06-.07,.11-.12,.16-.05,.04-.12,.1-.1,.16,.08,.02,.16,.01,.24,0,.1-.03,.2-.08,.28-.14l1.03-.66c.12-.07,.22-.15,.32-.25,.08-.09,.15-.19,.21-.29,.21-.28,.51-.5,.69-.81v-.02s-.02-.03-.04-.03c-.53,.05-1.02,.25-1.55,.32-.11,.02-.28-.02-.35,.08Z"/><path class="cls-12" d="M29.65,69.85s-.03,.09,0,.12l.03-.02-.04-.08"/><path class="cls-12" d="M29.75,70.28s-.03,.09,0,.12l.03-.02-.04-.08"/><path class="cls-12" d="M29.08,71.03s-.03,.09,0,.12l.03-.02-.04-.08"/><path class="cls-12" d="M29.32,70.88s-.03,.09,0,.12l.03-.02-.04-.08"/><path class="cls-12" d="M30.61,70.06s-.03,.09,0,.12l.03-.02-.04-.08"/><path class="cls-12" d="M30.18,70.17s-.03,.09,0,.12l.03-.02-.04-.08"/><path class="cls-12" d="M30.03,69.93s-.03,.09,0,.12l.03-.02-.04-.08"/><path class="cls-12" d="M29.4,70.55s-.02,.05,0,.07h.02l-.02-.06"/><path class="cls-12" d="M29.17,70.96s-.02,.05,0,.07h.02l-.02-.05"/><path class="cls-12" d="M29.99,70.44s-.02,.05,0,.07h.02l-.02-.06"/><path class="cls-12" d="M29.62,70.91s-.04-.04-.06-.04v.02h.05"/><path class="cls-12" d="M29.51,70.49s-.04-.04-.06-.04v.02h.05"/><path class="cls-12" d="M30.41,70.02s-.03,.09,0,.12l.03-.02-.04-.08"/><path class="cls-12" d="M30.65,69.87s-.03,.09,0,.12l.03-.02-.04-.08"/><path class="cls-12" d="M30.73,69.54s-.02,.05,0,.07h.02l-.02-.06"/><path class="cls-12" d="M30.5,69.95s-.02,.05,0,.07h.02l-.02-.06"/><path class="cls-12" d="M30.95,69.9s-.04-.04-.06-.04v.02h.05"/><path class="cls-12" d="M30.84,69.47s-.04-.04-.06-.04v.02h.05"/><path class="cls-12" d="M29.98,70.19s-.04-.04-.06-.04v.02h.05"/><path class="cls-12" d="M30.57,69.81s-.04-.04-.06-.04v.02h.05"/><path class="cls-4" d="M31.37,70.79s.05,.09,.07,.14c.05,.15,.11,.29,.16,.44l.08,.2c.09,.24,.19,.47,.31,.69,.03,.06,.07,.11,.12,.16,.05,.04,.12,.1,.1,.16-.08,.02-.16,.02-.24,0-.1-.03-.2-.08-.28-.14l-1.03-.66c-.12-.07-.22-.15-.32-.25-.08-.09-.15-.19-.21-.29-.21-.28-.51-.5-.69-.81,0,0,0-.01,0-.02,0-.02,.03-.03,.05-.02,.53,.05,1.02,.24,1.55,.32,.11,.02,.27-.02,.35,.08Z"/><path class="cls-9" d="M31.37,70.79s.05,.09,.07,.14c.05,.15,.11,.29,.16,.44l.08,.2c.09,.24,.19,.47,.31,.69,.03,.06,.07,.11,.12,.16,.05,.04,.12,.1,.1,.16-.08,.02-.16,.02-.24,0-.1-.03-.2-.08-.28-.14l-1.03-.66c-.12-.07-.22-.15-.32-.25-.08-.09-.15-.19-.21-.29-.21-.28-.51-.5-.69-.81,0,0,0-.01,0-.02,0-.02,.03-.03,.05-.02,.53,.05,1.02,.24,1.55,.32,.11,.02,.27-.02,.35,.08Z"/><path class="cls-12" d="M31.27,70.96s.03,.09,0,.12l-.03-.02,.04-.08"/><path class="cls-12" d="M31.16,71.39s.03,.09,0,.12l-.03-.02,.04-.08"/><path class="cls-12" d="M31.83,72.14s.03,.09,0,.12l-.03-.02,.04-.08"/><path class="cls-12" d="M31.6,71.99s.03,.09,0,.12l-.03-.02,.04-.08"/><path class="cls-12" d="M30.31,71.17s.03,.09,0,.12l-.03-.02,.04-.08"/><path class="cls-12" d="M30.73,71.28s.03,.09,0,.12l-.03-.02,.04-.08"/><path class="cls-12" d="M30.88,71.04s.03,.09,0,.12l-.03-.02,.04-.08"/><path class="cls-12" d="M31.51,71.67s.02,.05,0,.07h-.02l.02-.06"/><path class="cls-12" d="M31.74,72.08s.02,.05,0,.07h-.02l.02-.06"/><path class="cls-12" d="M30.93,71.55s.02,.05,0,.07h-.02l.02-.06"/><path class="cls-12" d="M31.29,72.02s.04-.04,.06-.04v.02h-.05"/><path class="cls-12" d="M31.4,71.6s.04-.04,.06-.04v.02h-.05"/><path class="cls-12" d="M30.5,71.13s.03,.09,0,.12l-.03-.02,.04-.08"/><path class="cls-12" d="M30.27,70.98s.03,.09,0,.12l-.03-.02,.04-.08"/><path class="cls-12" d="M30.18,70.65s.02,.05,0,.07h-.02l.02-.05"/><path class="cls-12" d="M30.41,71.06s.02,.05,0,.07h-.02l.02-.06"/><path class="cls-12" d="M29.96,71.01s.04-.04,.06-.04v.02h-.05"/><path class="cls-12" d="M30.07,70.58s.04-.04,.06-.04v.02h-.05"/><path class="cls-12" d="M30.93,71.3s.04-.04,.06-.04v.02h-.05"/><path class="cls-12" d="M30.35,70.92s.04-.04,.06-.04v.02h-.05"/><path class="cls-4" d="M30.95,71.06s.05,.09,.07,.14c.05,.15,.11,.29,.16,.44l.08,.2c.08,.24,.19,.47,.3,.69,.03,.06,.07,.11,.12,.16,.05,.04,.12,.1,.1,.16-.08,.02-.16,.02-.24,0-.1-.03-.2-.08-.28-.14l-1.03-.67c-.12-.07-.22-.15-.32-.24-.08-.09-.15-.19-.21-.29-.21-.28-.51-.5-.68-.81,0,0,0-.01,0-.02,0-.02,.03-.03,.05-.02,.53,.05,1.02,.24,1.55,.32,.11,.02,.28-.02,.35,.08Z"/><path class="cls-9" d="M30.95,71.06s.05,.09,.07,.14c.05,.15,.11,.29,.16,.44l.08,.2c.08,.24,.19,.47,.3,.69,.03,.06,.07,.11,.12,.16,.05,.04,.12,.1,.1,.16-.08,.02-.16,.02-.24,0-.1-.03-.2-.08-.28-.14l-1.03-.67c-.12-.07-.22-.15-.32-.24-.08-.09-.15-.19-.21-.29-.21-.28-.51-.5-.68-.81,0,0,0-.01,0-.02,0-.02,.03-.03,.05-.02,.53,.05,1.02,.24,1.55,.32,.11,.02,.28-.02,.35,.08Z"/><path class="cls-12" d="M30.85,71.24s.03,.09,0,.12l-.03-.02,.04-.08"/><path class="cls-12" d="M30.74,71.66s.03,.09,0,.12l-.03-.02,.04-.08"/><path class="cls-12" d="M31.41,72.42s.03,.09,0,.12l-.03-.02,.04-.08"/><path class="cls-12" d="M31.18,72.27s.03,.09,0,.12l-.03-.02,.04-.08"/><path class="cls-12" d="M29.89,71.45s.03,.09,0,.12l-.03-.02,.04-.08"/><path class="cls-12" d="M30.32,71.55s.03,.09,0,.12l-.03-.02,.04-.08"/><path class="cls-12" d="M30.47,71.32s.03,.09,0,.12l-.03-.02,.04-.08"/><path class="cls-12" d="M31.09,71.94s.02,.05,0,.07h-.02l.02-.06"/><path class="cls-12" d="M31.33,72.35s.02,.05,0,.07h-.02l.02-.06"/><path class="cls-12" d="M30.51,71.83s.02,.05,0,.07h-.02l.02-.06"/><path class="cls-12" d="M30.87,72.3s.04-.04,.06-.04v.02h-.05"/><path class="cls-12" d="M30.98,71.87s.04-.04,.06-.04v.02h-.05"/><path class="cls-12" d="M30.08,71.41s.03,.09,0,.12l-.03-.02,.04-.08"/><path class="cls-12" d="M29.85,71.26s.03,.09,0,.12l-.03-.02,.04-.08"/><path class="cls-12" d="M29.77,70.93s.02,.05,0,.07h-.02l.02-.06"/><path class="cls-12" d="M30,71.34s.02,.05,0,.07h-.02l.02-.06"/><path class="cls-12" d="M29.54,71.28s.04-.04,.06-.04v.02h-.05"/><path class="cls-12" d="M29.65,70.86s.04-.04,.06-.04v.02h-.05"/><path class="cls-12" d="M30.51,71.57s.04-.04,.06-.04v.02h-.05"/><path class="cls-12" d="M29.93,71.2s.04-.04,.06-.04v.02h-.05"/><path class="cls-4" d="M32.48,70.23s.05,.09,.07,.14c.05,.15,.11,.29,.16,.44l.08,.2c.09,.24,.19,.47,.31,.69,.03,.06,.07,.11,.12,.16,.05,.04,.12,.1,.1,.16-.08,.02-.16,.01-.24,0-.1-.03-.2-.08-.28-.14l-1.04-.66c-.12-.07-.22-.15-.32-.24-.08-.09-.15-.19-.21-.29-.21-.29-.51-.5-.69-.81,0,0,0-.01,0-.02,0-.02,.03-.03,.05-.03,.53,.05,1.02,.25,1.55,.32,.11,.01,.28-.03,.35,.07Z"/><path class="cls-9" d="M32.48,70.23s.05,.09,.07,.14c.05,.15,.11,.29,.16,.44l.08,.2c.09,.24,.19,.47,.31,.69,.03,.06,.07,.11,.12,.16,.05,.04,.12,.1,.1,.16-.08,.02-.16,.01-.24,0-.1-.03-.2-.08-.28-.14l-1.04-.66c-.12-.07-.22-.15-.32-.24-.08-.09-.15-.19-.21-.29-.21-.29-.51-.5-.69-.81,0,0,0-.01,0-.02,0-.02,.03-.03,.05-.03,.53,.05,1.02,.25,1.55,.32,.11,.01,.28-.03,.35,.07Z"/><path class="cls-12" d="M32.38,70.4s.03,.09,0,.12l-.03-.02,.04-.08"/><path class="cls-12" d="M32.27,70.83s.03,.09,0,.12l-.03-.02,.04-.08"/><path class="cls-12" d="M32.94,71.59s.03,.09,0,.12l-.03-.02,.04-.08"/><path class="cls-12" d="M32.71,71.44s.03,.09,0,.12l-.03-.02,.04-.08"/><path class="cls-12" d="M31.42,70.61s.03,.09,0,.12l-.03-.02,.04-.08"/><path class="cls-12" d="M31.85,70.72s.03,.09,0,.12l-.03-.02,.04-.08"/><path class="cls-12" d="M32,70.49s.03,.09,0,.12l-.03-.02,.04-.08"/><path class="cls-12" d="M32.62,71.11s.02,.05,0,.07h-.02l.02-.05"/><path class="cls-12" d="M32.86,71.52s.02,.05,0,.07l-.02-.02,.02-.04"/><path class="cls-12" d="M32.04,71s.02,.05,0,.07h-.02l.02-.06"/><path class="cls-12" d="M32.4,71.47s.04-.04,.06-.04v.02h-.05"/><path class="cls-12" d="M32.51,71.04s.04-.04,.06-.04v.02h-.05"/><path class="cls-12" d="M31.61,70.57s.03,.09,0,.12l-.03-.02,.04-.08"/><path class="cls-12" d="M31.38,70.42s.03,.09,0,.12l-.03-.02,.04-.08"/><path class="cls-12" d="M31.29,70.09s.02,.05,0,.07h-.02l.02-.06"/><path class="cls-12" d="M31.53,70.5s.02,.05,0,.07h-.02l.02-.05"/><path class="cls-12" d="M31.07,70.45s.04-.04,.06-.04v.02h-.05"/><path class="cls-12" d="M31.18,70.03s.04-.04,.06-.04v.02h-.05"/><path class="cls-12" d="M32.04,70.74s.04-.04,.06-.04v.02h-.05"/><path class="cls-12" d="M31.46,70.37s.04-.04,.06-.04v.02h-.05"/><path class="cls-4" d="M27.34,70.37s.06,.09,.07,.14c.05,.15,.11,.29,.17,.44l.08,.2c.09,.24,.19,.47,.31,.69,.03,.06,.07,.11,.12,.16,.05,.04,.12,.1,.1,.16-.08,.02-.16,.02-.24,0-.1-.03-.2-.08-.28-.14l-1.03-.66c-.12-.07-.22-.15-.32-.25-.08-.09-.15-.19-.21-.29-.21-.29-.51-.5-.68-.81,0,0,0-.01,0-.02,0-.02,.03-.03,.05-.03,.53,.05,1.02,.25,1.55,.32,.1,.01,.27-.02,.35,.07Z"/><path class="cls-9" d="M27.34,70.37s.06,.09,.07,.14c.05,.15,.11,.29,.17,.44l.08,.2c.09,.24,.19,.47,.31,.69,.03,.06,.07,.11,.12,.16,.05,.04,.12,.1,.1,.16-.08,.02-.16,.02-.24,0-.1-.03-.2-.08-.28-.14l-1.03-.66c-.12-.07-.22-.15-.32-.25-.08-.09-.15-.19-.21-.29-.21-.29-.51-.5-.68-.81,0,0,0-.01,0-.02,0-.02,.03-.03,.05-.03,.53,.05,1.02,.25,1.55,.32,.1,.01,.27-.02,.35,.07Z"/><path class="cls-12" d="M27.24,70.54s.03,.09,0,.12l-.03-.02,.04-.08"/><path class="cls-12" d="M27.13,70.97s.03,.09,0,.12l-.03-.02,.04-.08"/><path class="cls-12" d="M27.8,71.73s.03,.09,0,.12l-.03-.02,.04-.08"/><path class="cls-12" d="M27.57,71.57s.03,.09,0,.12l-.03-.02,.04-.08"/><path class="cls-12" d="M26.28,70.75s.03,.09,0,.12l-.03-.02,.04-.08"/><path class="cls-12" d="M26.7,70.87s.03,.09,0,.12l-.03-.02,.04-.08"/><path class="cls-12" d="M26.85,70.63s.03,.09,0,.12l-.03-.02,.04-.08"/><path class="cls-12" d="M27.48,71.25s.02,.05,0,.07h-.02l.02-.06"/><path class="cls-12" d="M27.71,71.66s.02,.05,0,.07h-.02l.02-.06"/><path class="cls-12" d="M26.9,71.14s.02,.05,0,.07h-.02l.02-.06"/><path class="cls-12" d="M27.26,71.61s.04-.04,.06-.04v.02h-.05"/><path class="cls-12" d="M27.37,71.18s.04-.04,.06-.04v.02h-.05"/><path class="cls-12" d="M26.47,70.71s.03,.09,0,.12l-.03-.02,.04-.08"/><path class="cls-12" d="M26.23,70.56s.03,.09,0,.12l-.03-.02,.04-.08"/><path class="cls-12" d="M26.15,70.23s.02,.05,0,.07h-.02l.02-.06"/><path class="cls-12" d="M26.38,70.64s.02,.05,0,.07h-.02l.02-.06"/><path class="cls-12" d="M25.93,70.59s.04-.04,.06-.04v.02h-.05"/><path class="cls-12" d="M26.04,70.16s.04-.04,.06-.04v.02h-.05"/><path class="cls-12" d="M26.9,70.88s.04-.04,.06-.04v.02h-.05"/><path class="cls-12" d="M26.32,70.51s.04-.04,.06-.04v.02h-.05"/><path class="cls-4" d="M31.09,69.95s.05,.09,.07,.14c.05,.15,.11,.29,.17,.44l.08,.2c.09,.24,.19,.47,.31,.69,.03,.06,.07,.11,.12,.16,.05,.04,.12,.1,.1,.16-.08,.02-.16,.02-.24,0-.1-.03-.2-.08-.28-.14l-1.04-.67c-.12-.07-.22-.15-.32-.25-.08-.09-.15-.19-.21-.29-.21-.28-.51-.5-.68-.81,0,0,0-.01,0-.02,0-.02,.03-.03,.05-.02,.53,.05,1.02,.24,1.55,.32,.12,.02,.28-.02,.36,.08Z"/><path class="cls-12" d="M30.99,70.12s.03,.09,0,.12l-.03-.02,.04-.08"/><path class="cls-12" d="M30.88,70.55s.03,.09,0,.12l-.03-.02,.04-.08"/><path class="cls-12" d="M31.55,71.31s.03,.09,0,.12l-.03-.02,.04-.08"/><path class="cls-12" d="M31.32,71.16s.03,.09,0,.12l-.03-.02,.04-.08"/><path class="cls-12" d="M30.03,70.34s.03,.09,0,.12l-.03-.02,.04-.08"/><path class="cls-12" d="M30.46,70.44s.03,.09,0,.12l-.03-.02,.04-.08"/><path class="cls-12" d="M30.61,70.21s.03,.09,0,.12l-.03-.02,.04-.08"/><path class="cls-12" d="M31.23,70.83s.02,.05,0,.07h-.02l.02-.06"/><path class="cls-12" d="M31.47,71.24s.02,.05,0,.07h-.02l.02-.06"/><path class="cls-12" d="M30.65,70.72s.02,.05,0,.07h-.02l.02-.06"/><path class="cls-12" d="M31.01,71.19s.04-.04,.06-.04v.02h-.05"/><path class="cls-12" d="M31.12,70.76s.04-.04,.06-.04v.02h-.05"/><path class="cls-12" d="M30.22,70.29s.03,.09,0,.12l-.03-.02,.04-.08"/><path class="cls-12" d="M29.99,70.14s.03,.09,0,.12l-.03-.02,.04-.08"/><path class="cls-12" d="M29.91,69.82s.02,.05,0,.07h-.02l.02-.06"/><path class="cls-12" d="M30.14,70.23s.02,.05,0,.07h-.02l.02-.06"/><path class="cls-12" d="M29.68,70.17s.04-.04,.06-.04v.02h-.05"/><path class="cls-12" d="M29.79,69.75s.04-.04,.06-.04v.02h-.05"/><path class="cls-12" d="M30.65,70.46s.04-.04,.06-.04v.02h-.05"/><path class="cls-12" d="M30.07,70.09s.04-.04,.06-.04v.02h-.05"/><path class="cls-4" d="M28.31,66.9s.05,.09,.07,.14c.05,.15,.11,.29,.17,.44l.08,.2c.09,.24,.19,.47,.31,.69,.03,.06,.07,.11,.12,.16,.05,.04,.12,.1,.1,.16-.08,.02-.16,.01-.24,0-.1-.03-.2-.08-.28-.14l-1.03-.66c-.12-.07-.22-.15-.32-.25-.08-.09-.15-.19-.21-.29-.21-.28-.51-.5-.68-.81v-.02s.02-.03,.04-.03c.53,.05,1.02,.25,1.55,.32,.11,.02,.28-.02,.35,.08Z"/><path class="cls-12" d="M28.21,67.07s.03,.09,0,.12l-.03-.02,.04-.08"/><path class="cls-12" d="M28.1,67.49s.03,.09,0,.12l-.03-.02,.04-.08"/><path class="cls-12" d="M28.77,68.25s.03,.09,0,.12l-.03-.02,.04-.08"/><path class="cls-12" d="M28.54,68.1s.03,.09,0,.12l-.03-.02,.04-.08"/><path class="cls-12" d="M27.25,67.28s.03,.09,0,.12l-.03-.02,.04-.08"/><path class="cls-12" d="M27.68,67.39s.03,.09,0,.12l-.03-.02,.04-.08"/><path class="cls-12" d="M27.83,67.15s.03,.09,0,.12l-.03-.02,.04-.08"/><path class="cls-12" d="M28.46,67.77s.02,.05,0,.07h-.02l.02-.06"/><path class="cls-12" d="M28.69,68.19s.02,.05,0,.07h-.02l.02-.05"/><path class="cls-12" d="M27.87,67.66s.02,.05,0,.07h-.02l.02-.06"/><path class="cls-12" d="M28.24,68.13s.04-.04,.06-.04v.02h-.05"/><path class="cls-12" d="M28.34,67.71s.04-.04,.06-.04v.02h-.05"/><path class="cls-12" d="M27.44,67.24s.03,.09,0,.12l-.03-.02,.04-.08"/><path class="cls-12" d="M27.21,67.09s.03,.09,0,.12l-.03-.02,.04-.08"/><path class="cls-12" d="M27.13,66.76s.02,.05,0,.07h-.02l.02-.06"/><path class="cls-12" d="M27.36,67.17s.02,.05,0,.07h-.02l.02-.06"/><path class="cls-12" d="M26.9,67.12s.04-.04,.06-.04v.02h-.05"/><path class="cls-12" d="M27.01,66.69s.04-.04,.06-.04v.02h-.05"/><path class="cls-12" d="M27.87,67.41s.04-.04,.06-.04v.02h-.05"/><path class="cls-12" d="M27.29,67.03s.04-.04,.06-.04v.02h-.05"/><path class="cls-4" d="M32.06,66.62s.05,.09,.07,.14c.05,.15,.11,.29,.17,.44l.08,.2c.09,.24,.19,.47,.31,.69,.03,.06,.07,.11,.12,.16,.05,.04,.12,.1,.1,.16-.08,.02-.16,.01-.24,0-.1-.03-.2-.08-.29-.14l-1.03-.66c-.12-.07-.22-.15-.32-.25-.08-.09-.15-.19-.21-.29-.21-.29-.51-.5-.68-.81,0,0,0-.01,0-.02,0-.02,.03-.03,.05-.03,.53,.05,1.02,.25,1.55,.32,.11,.01,.28-.03,.36,.07Z"/><path class="cls-12" d="M31.96,66.79s.03,.09,0,.12l-.03-.02,.04-.08"/><path class="cls-12" d="M31.85,67.21s.03,.09,0,.12l-.03-.02,.04-.08"/><path class="cls-12" d="M32.52,67.97s.03,.09,0,.12l-.03-.02,.04-.08"/><path class="cls-12" d="M32.29,67.82s.03,.09,0,.12l-.03-.02,.04-.08"/><path class="cls-12" d="M31,67s.03,.09,0,.12l-.03-.02,.04-.08"/><path class="cls-12" d="M31.43,67.11s.03,.09,0,.12l-.03-.02,.04-.08"/><path class="cls-12" d="M31.58,66.87s.03,.09,0,.12l-.03-.02,.04-.08"/><path class="cls-12" d="M32.21,67.5s.02,.05,0,.07h-.02l.02-.06"/><path class="cls-12" d="M32.44,67.91s.02,.05,0,.07h-.02l.02-.06"/><path class="cls-12" d="M31.62,67.38s.02,.05,0,.07h-.02l.02-.06"/><path class="cls-12" d="M31.99,67.85s.04-.04,.06-.04v.02h-.05"/><path class="cls-12" d="M32.09,67.43s.04-.04,.06-.04v.02h-.05"/><path class="cls-12" d="M31.2,66.96s.03,.09,0,.12l-.03-.02,.04-.08"/><path class="cls-12" d="M30.96,66.81s.03,.09,0,.12l-.03-.02,.04-.08"/><path class="cls-12" d="M30.88,66.48s.02,.05,0,.07h-.02l.02-.06"/><path class="cls-12" d="M31.11,66.89s.02,.05,0,.07h-.02l.02-.06"/><path class="cls-12" d="M30.66,66.84s.04-.04,.06-.04v.02h-.05"/><path class="cls-12" d="M30.76,66.41s.04-.04,.06-.04v.02h-.05"/><path class="cls-12" d="M31.63,67.13s.04-.04,.06-.04v.02h-.05"/><path class="cls-12" d="M31.04,66.75s.04-.04,.06-.04v.02h-.05"/><path class="cls-4" d="M33.73,70.65s.05,.09,.07,.14c.05,.15,.11,.29,.16,.44l.08,.2c.08,.24,.19,.47,.3,.69,.03,.06,.07,.11,.12,.16,.05,.04,.12,.1,.1,.16-.08,.02-.16,.02-.24,0-.1-.03-.2-.08-.28-.14l-1.03-.66c-.12-.07-.22-.15-.32-.25-.08-.09-.15-.19-.21-.29-.21-.28-.51-.5-.68-.81,0,0,0-.01,0-.02,0-.02,.03-.03,.05-.03,.53,.05,1.02,.25,1.55,.32,.11,.01,.28-.03,.35,.07Z"/><path class="cls-12" d="M33.63,70.82s.03,.09,0,.12l-.03-.02,.04-.08"/><path class="cls-12" d="M33.52,71.25s.03,.09,0,.12l-.03-.02,.04-.08"/><path class="cls-12" d="M34.19,72s.03,.09,0,.12l-.03-.02,.04-.08"/><path class="cls-12" d="M33.96,71.85s.03,.09,0,.12l-.03-.02,.04-.08"/><path class="cls-12" d="M32.67,71.03s.03,.09,0,.12l-.03-.02,.04-.08"/><path class="cls-12" d="M33.1,71.14s.03,.09,0,.12l-.03-.02,.04-.08"/><path class="cls-12" d="M33.25,70.9s.03,.09,0,.12l-.03-.02,.04-.08"/><path class="cls-12" d="M33.87,71.53s.02,.05,0,.07h-.02l.02-.06"/><path class="cls-12" d="M34.11,71.94s.02,.05,0,.07h-.02l.02-.05"/><path class="cls-12" d="M33.29,71.41s.02,.05,0,.07h-.02l.02-.06"/><path class="cls-12" d="M33.65,71.88s.04-.04,.06-.04v.02h-.05"/><path class="cls-12" d="M33.76,71.46s.04-.04,.06-.04v.02h-.05"/><path class="cls-12" d="M32.86,70.98s.03,.09,0,.12l-.03-.02,.04-.08"/><path class="cls-12" d="M32.63,70.84s.03,.09,0,.12l-.03-.02,.04-.08"/><path class="cls-12" d="M32.55,70.51s.02,.05,0,.07h-.02l.02-.06"/><path class="cls-12" d="M32.78,70.92s.02,.05,0,.07h-.02l.02-.06"/><path class="cls-12" d="M32.32,70.87s.04-.04,.06-.04v.02h-.05"/><path class="cls-12" d="M32.43,70.44s.04-.04,.06-.04v.02h-.05"/><path class="cls-12" d="M33.29,71.16s.04-.04,.06-.04v.02h-.05"/><path class="cls-12" d="M32.71,70.78s.04-.04,.06-.04v.02h-.05"/><path class="cls-4" d="M32.9,71.06s.05,.09,.07,.14c.05,.15,.11,.29,.17,.44l.08,.2c.09,.24,.19,.47,.31,.69,.03,.06,.07,.11,.12,.16,.05,.04,.12,.1,.1,.16-.08,.02-.16,.02-.24,0-.1-.03-.2-.08-.28-.14l-1.03-.67c-.12-.07-.22-.15-.32-.24-.08-.09-.15-.19-.21-.29-.21-.28-.51-.5-.68-.81,0,0,0-.01,0-.02,0-.02,.03-.03,.05-.02,.53,.05,1.02,.24,1.55,.32,.11,.02,.28-.02,.35,.08Z"/><path class="cls-12" d="M32.8,71.24s.03,.09,0,.12l-.03-.02,.04-.08"/><path class="cls-12" d="M32.69,71.66s.03,.09,0,.12l-.03-.02,.04-.08"/><path class="cls-12" d="M33.36,72.42s.03,.09,0,.12l-.03-.02,.04-.08"/><path class="cls-12" d="M33.12,72.27s.03,.09,0,.12l-.03-.02,.04-.08"/><path class="cls-12" d="M31.84,71.45s.03,.09,0,.12l-.03-.02,.04-.08"/><path class="cls-12" d="M32.26,71.55s.03,.09,0,.12l-.03-.02,.04-.08"/><path class="cls-12" d="M32.41,71.32s.03,.09,0,.12l-.03-.02,.04-.08"/><path class="cls-12" d="M33.04,71.94s.02,.05,0,.07h-.02l.02-.06"/><path class="cls-12" d="M33.27,72.35s.02,.05,0,.07h-.02l.02-.06"/><path class="cls-12" d="M32.45,71.83s.02,.05,0,.07h-.02l.02-.06"/><path class="cls-12" d="M32.82,72.3s.04-.04,.06-.04v.02h-.05"/><path class="cls-12" d="M32.93,71.87s.04-.04,.06-.04v.02h-.05"/><path class="cls-12" d="M32.03,71.41s.03,.09,0,.12l-.03-.02,.04-.08"/><path class="cls-12" d="M31.79,71.26s.03,.09,0,.12l-.03-.02,.04-.08"/><path class="cls-12" d="M31.71,70.93s.02,.05,0,.07h-.02l.02-.06"/><path class="cls-12" d="M31.94,71.34s.02,.05,0,.07h-.02l.02-.06"/><path class="cls-12" d="M31.49,71.28s.04-.04,.06-.04v.02h-.05"/><path class="cls-12" d="M31.6,70.86s.04-.04,.06-.04v.02h-.05"/><path class="cls-12" d="M32.46,71.57s.04-.04,.06-.04v.02h-.05"/><path class="cls-12" d="M31.87,71.2s.04-.04,.06-.04v.02h-.05"/><path class="cls-4" d="M35.18,71.49c-.02,.05-.04,.1-.07,.14-.08,.13-.16,.27-.24,.4l-.11,.19c-.13,.21-.25,.44-.35,.67-.03,.06-.04,.12-.05,.19,0,.07,0,.15-.06,.18-.06-.05-.11-.12-.15-.19-.04-.1-.06-.2-.06-.31l-.12-1.22c-.02-.13-.02-.27,0-.4,.03-.12,.06-.24,.1-.35,.09-.34,.08-.71,.21-1.04,0,0,0-.01,0-.02,.02-.01,.04,0,.05,.02,.28,.45,.44,.96,.71,1.41,.04,.1,.18,.21,.15,.33Z"/><path class="cls-9" d="M35.18,71.49c-.02,.05-.04,.1-.07,.14-.08,.13-.16,.27-.24,.4l-.11,.19c-.13,.21-.25,.44-.35,.67-.03,.06-.04,.12-.05,.19,0,.07,0,.15-.06,.18-.06-.05-.11-.12-.15-.19-.04-.1-.06-.2-.06-.31l-.12-1.22c-.02-.13-.02-.27,0-.4,.03-.12,.06-.24,.1-.35,.09-.34,.08-.71,.21-1.04,0,0,0-.01,0-.02,.02-.01,.04,0,.05,.02,.28,.45,.44,.96,.71,1.41,.04,.1,.18,.21,.15,.33Z"/><path class="cls-12" d="M34.98,71.52s-.05,.08-.09,.08v-.04l.08-.02"/><path class="cls-12" d="M34.58,71.7s-.05,.08-.09,.08v-.04l.08-.02"/><path class="cls-12" d="M34.4,72.7s-.05,.08-.09,.08v-.04l.08-.02"/><path class="cls-12" d="M34.38,72.42s-.05,.08-.1,.07v-.04l.08-.02"/><path class="cls-12" d="M34.22,70.9s-.05,.08-.09,.07v-.04l.08-.02"/><path class="cls-12" d="M34.4,71.3s-.05,.08-.09,.07v-.04l.08-.02"/><path class="cls-12" d="M34.68,71.27s-.05,.08-.09,.08v-.04l.08-.02"/><path class="cls-12" d="M34.58,72.15s-.03,.05-.05,.05v-.02h.05"/><path class="cls-12" d="M34.4,72.59s-.03,.05-.05,.05v-.02h.05"/><path class="cls-12" d="M34.31,71.62s-.03,.05-.05,.05v-.02h.05"/><path class="cls-12" d="M34.17,72.2s.06,0,.07,.02h-.02l-.03-.02"/><path class="cls-12" d="M34.57,72.02s.06,0,.07,.02h-.02l-.03-.02"/><path class="cls-12" d="M34.38,71.02s-.05,.08-.09,.08v-.04l.08-.02"/><path class="cls-12" d="M34.35,70.75s-.05,.08-.09,.07v-.04l.08-.02"/><path class="cls-12" d="M34.56,70.48s-.03,.05-.05,.05v-.02h.05"/><path class="cls-12" d="M34.38,70.91s-.03,.05-.05,.05v-.02h.05"/><path class="cls-12" d="M34.13,70.53s.06,0,.07,.02h-.02l-.03-.02"/><path class="cls-12" d="M34.54,70.35s.06,0,.07,.02h-.02l-.03-.02"/><path class="cls-12" d="M34.51,71.47s.06,0,.07,.02h-.02l-.03-.02"/><path class="cls-12" d="M34.44,70.77s.06,0,.07,.02h-.02l-.03-.02"/><path class="cls-4" d="M26.57,71.49c-.02,.05-.04,.1-.07,.14-.08,.13-.16,.27-.24,.4l-.11,.19c-.13,.21-.25,.44-.35,.67-.03,.06-.05,.12-.05,.19,0,.07,0,.15-.06,.18-.06-.05-.11-.12-.15-.19-.04-.1-.06-.2-.06-.31l-.12-1.22c-.02-.13-.02-.27,0-.4,.03-.12,.06-.24,.1-.35,.09-.34,.08-.71,.21-1.04,0,0,0-.01,0-.02,.02-.01,.04,0,.05,.02,.28,.45,.44,.96,.71,1.41,.06,.1,.19,.21,.16,.33Z"/><path class="cls-12" d="M26.37,71.52s-.05,.08-.1,.08v-.04l.08-.02"/><path class="cls-12" d="M25.97,71.7s-.05,.08-.1,.08v-.04l.08-.02"/><path class="cls-12" d="M25.79,72.7s-.05,.08-.09,.08v-.04l.08-.02"/><path class="cls-12" d="M25.76,72.42s-.05,.08-.09,.07v-.04l.08-.02"/><path class="cls-12" d="M25.61,70.9s-.05,.08-.1,.07v-.04l.08-.02"/><path class="cls-12" d="M25.79,71.3s-.05,.08-.09,.07v-.04l.08-.02"/><path class="cls-12" d="M26.07,71.27s-.05,.08-.1,.08v-.04l.08-.02"/><path class="cls-12" d="M25.97,72.15s-.03,.05-.05,.05v-.02h.05"/><path class="cls-12" d="M25.79,72.59s-.03,.05-.05,.05v-.02h.05"/><path class="cls-12" d="M25.69,71.62s-.03,.05-.05,.05v-.02h.05"/><path class="cls-12" d="M25.55,72.2s.06,0,.07,.02h-.02l-.03-.02"/><path class="cls-12" d="M25.95,72.02s.06,0,.07,.02h-.02l-.03-.02"/><path class="cls-12" d="M25.76,71.02s-.05,.08-.1,.08v-.04l.08-.02"/><path class="cls-12" d="M25.73,70.75s-.05,.08-.09,.07v-.04l.08-.02"/><path class="cls-12" d="M25.94,70.48s-.03,.05-.05,.05v-.02h.05"/><path class="cls-12" d="M25.76,70.91s-.03,.05-.05,.05v-.02h.05"/><path class="cls-12" d="M25.53,70.53s.06,0,.07,.02h-.02l-.03-.02"/><path class="cls-12" d="M25.92,70.35s.06,0,.07,.02h-.02l-.03-.02"/><path class="cls-12" d="M25.9,71.47s.06,0,.07,.02h-.02l-.03-.02"/><path class="cls-12" d="M25.83,70.77s.06,0,.07,.02h-.02l-.03-.02"/><path class="cls-4" d="M35.56,72.13s-.07,.08-.12,.11c-.12,.09-.25,.19-.37,.29l-.17,.14c-.2,.15-.39,.32-.57,.5-.05,.05-.09,.1-.12,.16-.03,.06-.06,.14-.12,.14-.04-.07-.06-.15-.07-.24,0-.11,.02-.21,.05-.31l.32-1.18c.03-.13,.08-.26,.14-.38,.07-.1,.14-.2,.21-.29,.21-.28,.32-.64,.56-.89,0,0,0,0,.01-.01s.04,.02,.04,.04c.11,.52,.07,1.05,.15,1.57,.02,.11,.1,.26,.03,.36Z"/><path class="cls-12" d="M35.36,72.08s-.08,.06-.12,.04v-.04h.09"/><path class="cls-12" d="M34.93,72.11s-.08,.06-.12,.04v-.04h.09"/><path class="cls-12" d="M34.4,72.98s-.08,.06-.12,.04v-.04h.09"/><path class="cls-12" d="M34.48,72.71s-.08,.06-.12,.04v-.04h.09"/><path class="cls-12" d="M34.88,71.23s-.08,.06-.12,.04v-.04h.09"/><path class="cls-12" d="M34.9,71.67s-.08,.06-.12,.04v-.04h.09"/><path class="cls-12" d="M35.17,71.74s-.08,.06-.12,.04v-.04h.09"/><path class="cls-12" d="M34.76,72.53s-.04,.04-.07,.03v-.02h.05"/><path class="cls-12" d="M34.44,72.87s-.04,.04-.06,.02v-.02h.05"/><path class="cls-12" d="M34.7,71.93s-.04,.04-.06,.03v-.02h.05"/><path class="cls-12" d="M34.36,72.43s.05,.02,.05,.05h-.02l-.02-.04"/><path class="cls-12" d="M34.79,72.4s.05,.02,.05,.05h-.02l-.02-.04"/><path class="cls-12" d="M34.97,71.4s-.08,.06-.12,.04v-.04h.09"/><path class="cls-12" d="M35.05,71.13s-.08,.06-.12,.04v-.04h.09"/><path class="cls-12" d="M35.33,70.96s-.04,.04-.07,.03v-.02h.05"/><path class="cls-12" d="M35.01,71.3s-.04,.04-.06,.02v-.02h.05"/><path class="cls-12" d="M34.93,70.85s.05,.02,.05,.04h-.02l-.02-.04"/><path class="cls-12" d="M35.37,70.83s.05,.02,.05,.05h-.02l-.02-.04"/><path class="cls-12" d="M34.94,71.86s.05,.02,.05,.05h-.02l-.02-.04"/><path class="cls-12" d="M35.12,71.19s.05,.02,.05,.04h-.02l-.02-.04"/><path class="cls-4" d="M34.43,70.93s.05,.09,.07,.14c.05,.15,.11,.29,.16,.44l.08,.2c.09,.24,.19,.47,.31,.69,.03,.06,.07,.11,.12,.16,.05,.04,.12,.1,.1,.16-.08,.02-.16,.02-.24,0-.1-.03-.2-.08-.28-.14l-1.03-.66c-.12-.07-.22-.15-.32-.24-.08-.09-.15-.19-.21-.29-.21-.28-.51-.5-.69-.81,0,0,0-.01,0-.02,0-.02,.03-.03,.05-.02,.53,.05,1.02,.24,1.55,.32,.1,.01,.27-.03,.35,.07Z"/><path class="cls-9" d="M34.43,70.93s.05,.09,.07,.14c.05,.15,.11,.29,.16,.44l.08,.2c.09,.24,.19,.47,.31,.69,.03,.06,.07,.11,.12,.16,.05,.04,.12,.1,.1,.16-.08,.02-.16,.02-.24,0-.1-.03-.2-.08-.28-.14l-1.03-.66c-.12-.07-.22-.15-.32-.24-.08-.09-.15-.19-.21-.29-.21-.28-.51-.5-.69-.81,0,0,0-.01,0-.02,0-.02,.03-.03,.05-.02,.53,.05,1.02,.24,1.55,.32,.1,.01,.27-.03,.35,.07Z"/><path class="cls-12" d="M34.32,71.1s.03,.09,0,.12l-.03-.02,.04-.08"/><path class="cls-12" d="M34.22,71.52s.03,.09,0,.12l-.03-.02,.04-.08"/><path class="cls-12" d="M34.89,72.28s.03,.09,0,.12l-.03-.02,.04-.08"/><path class="cls-12" d="M34.65,72.13s.03,.09,0,.12l-.03-.02,.04-.08"/><path class="cls-12" d="M33.36,71.31s.03,.09,0,.12l-.03-.02,.04-.08"/><path class="cls-12" d="M33.79,71.42s.03,.09,0,.12l-.03-.02,.04-.08"/><path class="cls-12" d="M33.94,71.18s.03,.09,0,.12l-.03-.02,.04-.08"/><path class="cls-12" d="M34.57,71.81s.02,.05,0,.07h-.02l.02-.06"/><path class="cls-12" d="M34.8,72.22s.02,.05,0,.07h-.02l.02-.06"/><path class="cls-12" d="M33.98,71.69s.02,.05,0,.07h-.02l.02-.05"/><path class="cls-12" d="M34.35,72.16s.04-.04,.06-.04v.02h-.05"/><path class="cls-12" d="M34.46,71.74s.04-.04,.06-.04v.02h-.05"/><path class="cls-12" d="M33.56,71.27s.03,.09,0,.12l-.03-.02,.04-.08"/><path class="cls-12" d="M33.32,71.12s.03,.09,0,.12l-.03-.02,.04-.08"/><path class="cls-12" d="M33.24,70.79s.02,.05,0,.07h-.02l.02-.06"/><path class="cls-12" d="M33.47,71.2s.02,.05,0,.07h-.02l.02-.06"/><path class="cls-12" d="M33.02,71.15s.04-.04,.06-.04v.02h-.05"/><path class="cls-12" d="M33.13,70.72s.04-.04,.06-.04v.02h-.05"/><path class="cls-12" d="M33.99,71.44s.04-.04,.06-.04v.02h-.05"/><path class="cls-12" d="M33.4,71.06s.04-.04,.06-.04v.02h-.05"/><path class="cls-4" d="M32.48,69.67s.05,.09,.07,.14c.05,.15,.11,.29,.16,.44l.08,.2c.09,.24,.19,.47,.31,.69,.03,.06,.07,.11,.12,.16,.05,.04,.12,.1,.1,.16-.08,.02-.16,.01-.24,0-.1-.03-.2-.08-.28-.14l-1.03-.66c-.12-.07-.22-.15-.32-.25-.08-.09-.15-.19-.21-.29-.21-.28-.51-.5-.69-.81v-.02s.02-.03,.04-.03c.53,.05,1.02,.25,1.55,.32,.1,.02,.27-.02,.35,.08Z"/><path class="cls-12" d="M32.38,69.85s.03,.09,0,.12l-.03-.02,.04-.08"/><path class="cls-12" d="M32.27,70.28s.03,.09,0,.12l-.03-.02,.04-.08"/><path class="cls-12" d="M32.94,71.03s.03,.09,0,.12l-.03-.02,.04-.08"/><path class="cls-12" d="M32.71,70.88s.03,.09,0,.12l-.03-.02,.04-.08"/><path class="cls-12" d="M31.42,70.06s.03,.09,0,.12l-.03-.02,.04-.08"/><path class="cls-12" d="M31.85,70.17s.03,.09,0,.12l-.03-.02,.04-.08"/><path class="cls-12" d="M32,69.93s.03,.09,0,.12l-.03-.02,.04-.08"/><path class="cls-12" d="M32.62,70.55s.02,.05,0,.07h-.02l.02-.06"/><path class="cls-12" d="M32.86,70.96s.02,.05,0,.07h-.02l.02-.05"/><path class="cls-12" d="M32.04,70.44s.02,.05,0,.07h-.02l.02-.06"/><path class="cls-12" d="M32.4,70.91s.04-.04,.06-.04v.02h-.05"/><path class="cls-12" d="M32.51,70.49s.04-.04,.06-.04v.02h-.05"/><path class="cls-12" d="M31.61,70.02s.03,.09,0,.12l-.03-.02,.04-.08"/><path class="cls-12" d="M31.38,69.87s.03,.09,0,.12l-.03-.02,.04-.08"/><path class="cls-12" d="M31.29,69.54s.02,.05,0,.07h-.02l.02-.06"/><path class="cls-12" d="M31.53,69.95s.02,.05,0,.07h-.02l.02-.06"/><path class="cls-12" d="M31.07,69.9s.04-.04,.06-.04v.02h-.05"/><path class="cls-12" d="M31.18,69.47s.04-.04,.06-.04v.02h-.05"/><path class="cls-12" d="M32.04,70.19s.04-.04,.06-.04v.02h-.05"/><path class="cls-12" d="M31.46,69.81s.04-.04,.06-.04v.02h-.05"/><path class="cls-7" d="M34.89,74.29h-8.87c-.17,0-.32-.12-.36-.28l-.51-2.04c-.05-.2,.07-.4,.27-.45,.03,0,.06-.01,.09-.01h9.89c.21,0,.37,.17,.37,.37,0,.03,0,.06-.01,.09l-.51,2.04c-.04,.17-.19,.28-.36,.28Z"/><path class="cls-7" d="M23.22,53.18c-.34-.42-.3-1.09-.14-1.64s.44-1.05,.51-1.62c.09-.66-.07-1.41,.27-1.96,.21-.35,.59-.52,.94-.61s.74-.13,1.08-.29c.46-.22,.81-.65,1.23-.97,.46-.35,1.04-.55,1.56-.35,.49,.18,.85,.66,1.3,.96,.23,.13,.47,.26,.71,.37,.43,.24,.84,.53,1.22,.84,.28,.22,.58,.46,.71,.83,.15,.41,.04,.89-.1,1.3-.09,.19-.14,.4-.14,.61,.02,.26,.17,.48,.31,.68,.33,.49,.59,1.07,.58,1.69,0,.28-.06,.56-.03,.83,.03,.12,.04,.25,.04,.38-.01,.13-.09,.26-.2,.26-.06-.01-.12-.04-.17-.09-.35-.29-.83-.55-1.19-.28-.04,.04-.09,.06-.14,.07-.04,0-.08-.03-.11-.06-.56-.54-.63-1.68-1.32-1.99-.3-.14-.64-.06-.97-.1-.39-.06-.74-.3-1.12-.39-.7-.18-1.48,.18-1.89,.87-.19,.31-.3,.68-.44,1.02-.18,.44-.8,1.41-1.3,.9-.16-.17-.18-.44-.37-.62-.26-.24-.6-.32-.83-.62Z"/><path class="cls-3" d="M29.28,76.34c-2.42-.9-5.17-1.24-7.55-.24-.41,.17-.85,.46-.89,.9-.02,.2,.05,.4,.09,.6,.13,.63-.05,1.28-.09,1.93s.12,1.39,.69,1.7c.3,2.55,.89,4.96,1.99,7.28,.19,.35,.33,.72,.43,1.1,.08,.39,.07,.79,.08,1.19,.05,1.21,.42,2.38,.79,3.54,.07,.25,.17,.5,.28,.73,.26,.5,.71,.87,1.02,1.33s.49,1.11,.18,1.57c-.19,.27,.47,.44,.8,.45,1.44,.03,2.88-.03,4.32-.17,.24,.02,.45-.16,.47-.4h0c.14-.51,.28-1.05,.12-1.54-.09-.26-.26-.51-.25-.78,0-.24,.15-.46,.2-.69,.17-.72-.44-1.36-.89-1.95-.94-1.23-1.32-2.8-1.66-4.32-.45-1.98-.88-3.96-1.31-5.95,.37,.29,.33,.77,.68,1.07,.42,.35,1.11,.13,1.42-.32s.33-1.04,.32-1.58c-.04-1.82-.6-3.74-1.23-5.45Z"/><path class="cls-3" d="M32.49,77.01c.58-1.43,1.95-2.56,3.49-2.69,1.54-.13,3.15,.84,3.61,2.32,.1,.35,.16,.72,.19,1.08,.41,3.66,.41,7.41-.5,10.98-.19,.74-.41,1.47-.48,2.22s.04,1.56,.48,2.18c.12,.17,.27,.34,.33,.54,.07,.24,0,.48-.05,.72l-.76,2.97c-.03,.19-.11,.37-.24,.52-.22,.24-.59,.25-.92,.21-.87-.09-1.71-.33-2.49-.73-.71-.36-1.43-.99-1.39-1.78,.01-.2,.07-.41,0-.59-.07-.13-.16-.25-.28-.35-.41-.46-.51-1.14-.4-1.74s.41-1.16,.7-1.71-.06-1.26-.16-1.85c-.32-2.05,.34-4.21-.24-6.21-.42,.37-1.09,.62-1.52,.26-.39-.32-.34-.91-.26-1.41,.27-1.65,.26-3.39,.89-4.94Z"/><path class="cls-6" d="M11.31,48.86c-.24-.02-.32-.34-.22-.55s.29-.35,.43-.54c.39-.51,.26-1.23,.22-1.87-.05-.97,.15-1.93,.34-2.88,.1-.48,.21-.97,.47-1.38,.31-.49,.82-.83,1.39-.93,.06-.43,.36-.78,.76-.92,.42-.11,.87-.1,1.28,.05,.06,.02,.12,.03,.18,.02,.07-.02,.12-.07,.17-.12,.4-.38,1.01-.43,1.47-.12,.39-2.4,.81-4.77,1.25-7.15,.07-.4,.21-.82,.47-1.12,.21-.25,.51-.47,.84-.46,.13,0,.27,.04,.39,.09,.29,.09,.59,.21,.76,.46,.1,.16,.16,.33,.19,.52,.09,.46,.12,.93,.08,1.4-.06,.75-.12,1.48-.12,2.23-.02,1.32-.35,2.61-.56,3.92-.24,1.54-.27,3.14-.83,4.6-.5,1.35-1.42,2.54-1.71,3.95-.14,.69-.07,1.5,.47,1.94-.02,.2-.29,.2-.49,.2h-1.06c-.48,0-.97-.02-1.45-.07-1.65-.21-3.11-1.14-4.76-1.26Z"/><path class="cls-14" d="M12.12,48.73c-.19,0-.26-.3-.17-.5s.26-.34,.38-.52c.34-.49,.25-1.15,.25-1.75-.02-.9,.18-1.8,.38-2.69,.1-.45,.2-.91,.44-1.3,.26-.45,.7-.78,1.21-.91,.06-.39,.31-.72,.67-.88,.35-.12,.73-.12,1.08,0,.05,.02,.1,.03,.15,.02,.06-.03,.11-.07,.15-.12,.33-.37,.89-.44,1.25-.15,.4-2.25,.83-4.47,1.28-6.71,.06-.38,.21-.74,.43-1.06,.19-.24,.45-.46,.73-.46,.11,0,.22,.03,.33,.07,.24,.08,.49,.18,.63,.4,.08,.15,.13,.31,.15,.47,.06,.43,.07,.87,.02,1.31-.08,.7-.14,1.38-.17,2.08-.06,1.23-.38,2.45-.59,3.67-.25,1.45-.33,2.94-.84,4.32-.47,1.27-1.28,2.41-1.56,3.74-.14,.64-.11,1.4,.34,1.79-.02,.19-.25,.2-.42,.2l-.9,.03c-.41,.02-.82,.01-1.22-.02-1.38-.14-2.58-.97-3.98-1.03Z"/><path class="cls-14" d="M20.43,34.2l.35,.12c-.27,1.55-.5,3.11-.68,4.68,.14,.03,.28,.1,.39,.19-.12,.32-.2,.66-.24,1.01-.48-.18-.97-.32-1.47-.42l.16-.6s.03-.08,.06-.11c.04-.02,.09-.02,.13-.02,.24-.01,.31-.32,.32-.56,.05-.87,.26-1.72,.47-2.57-.14-.11-.34-.1-.46,.04,.07-.09,0-.55,0-.68,0-.19-.02-.37,.14-.48,.13-.09,.35-.07,.5-.17,.15-.11,.27-.26,.32-.44Z"/><path class="cls-7" d="M32.75,64.89c-.17,.09-.34,.17-.51,.23-.06,.02-.1,.08-.09,.14h0l.71,2.63c.05,.19,.05,.39,0,.58-.1,.31-.06,.64,.1,.92l1.76,4.22s.21,.57,.64,.39c.54-.15,1.07-.37,1.56-.65,0,0,.32-.21,.1-.73l-1.73-4.15c-.07-.32-.27-.58-.56-.74-.17-.1-.31-.23-.41-.4l-1.4-2.39c-.03-.06-.1-.08-.16-.05h0Z"/><rect class="cls-6" x="33.75" y="68.83" width="2.27" height="3.85" rx=".96" ry=".96" transform="translate(-24.56 18.89) rotate(-22.65)"/><rect class="cls-13" x="33.75" y="68.83" width="2.27" height="3.85" rx=".96" ry=".96" transform="translate(-24.56 18.89) rotate(-22.65)"/><path class="cls-2" d="M40.54,72.2c.1,.57,.16,1.16,0,1.71s-.6,1.06-1.17,1.16c-.39,.07-.79-.05-1.14-.21s-.69-.38-1.06-.51c-.79-.29-1.68-.19-2.48,.08-.25,.1-.51,.18-.78,.24-.23,.04-.46,.06-.7,.06-.87,.03-1.76,.07-2.62-.13-.24-.04-.47-.15-.67-.3-.19-.19-.33-.43-.4-.69-.21-.64-.24-1.39,.14-1.95,.27-.41,.72-.68,1.19-.83,.48-.12,.97-.19,1.46-.2,.46-.09,.93,.07,1.23,.43l.6,.54c.12,.12,.25,.21,.4,.28,.13,.05,.26,.07,.4,.08,.44,.05,.89,.06,1.33,.05,.04-.27-.12-.54-.1-.81,.03-.28,.18-.52,.42-.66,.24-.14,.5-.23,.77-.26,.6-.11,1.24-.14,1.82,.05,.91,.3,1.21,.99,1.37,1.86Z"/><path class="cls-6" d="M40.17,67.18c.1,.38,.17,.77,.21,1.16,.02,.27,.01,.53,.03,.8,.08,.99,.58,1.93,.53,2.92-.3-.14-.64-.19-.97-.14,.09-.3-.13-.63-.42-.77s-.62-.13-.93-.1c-.88,.06-1.77,.21-2.58,.58-.03,.02-.08,.03-.12,.02-.05-.02-.05-.1-.05-.15,0-.48-.5-.81-.62-1.28-.09-.34,.04-.69,.13-1.02,.35-1.26,.22-2.59,.32-3.9,.06-.74,.24-1.53,.81-2,.54-.41,1.26-.48,1.87-.17,1.36,.68,1.49,2.78,1.79,4.07Z"/></g></svg>