<?xml version="1.0" encoding="UTF-8"?><svg id="Layer_2" xmlns="http://www.w3.org/2000/svg" viewBox="0 0 234.82 367.21"><defs><style>.cls-1{fill:#ffb6b6;}.cls-2{fill:#2f2e41;}.cls-3{fill:#3f3d56;}.cls-4{fill:#e6e6e6;}.cls-5{fill:#a0616a;}.cls-6{fill:#e05896;}.cls-7{fill:#f2f2f2;}</style></defs><g id="Layer_1-2"><path class="cls-1" d="M144.62,112.81l-15.01,3.39c-1.74,9.89-1.42,50.05-1.42,50.05l-1.29,38.43c-2.15,3.08-1.4,7.31,1.68,9.46,3.08,2.15,7.31,1.4,9.46-1.68,1.39-2,1.61-4.59,.57-6.79l1.95-47.39,4.06-45.47Z"/><path class="cls-6" d="M127.27,74.16h0c8.77-1.88,17.4,3.71,19.28,12.48,.21,.98,.33,1.98,.35,2.99l.25,9.71s3.8,49.51,.31,59.18l-4.96,27.92-15.92,2.03-.78-29.38s4.7-32.43-.4-37.69c-3.13-3.22-8.11-16.57-10.62-28.02-1.87-8.75,3.71-17.35,12.46-19.22h.03Z"/><ellipse class="cls-3" cx="168.97" cy="350.47" rx="1.44" ry="9.46" transform="translate(-187.82 505.65) rotate(-87.77)"/><ellipse class="cls-4" cx="83.93" cy="362.08" rx="1.29" ry="4.2" transform="translate(-278.56 444.27) rotate(-89.72)"/><ellipse class="cls-4" cx="125.79" cy="354.94" rx="1.29" ry="4.2" transform="translate(-229.76 479.01) rotate(-89.72)"/><ellipse class="cls-3" cx="109.49" cy="362.33" rx="1.29" ry="4.2" transform="translate(-253.36 470.08) rotate(-89.72)"/><path class="cls-5" d="M141.58,132.28l3.26-50.58c.3-4.46,4.12-7.85,8.58-7.62h0c4.51,.23,7.98,4.08,7.75,8.59,0,.14-.02,.29-.03,.43l-5,52.43-1.7,31.99c3.55,1.72,5.02,6,3.3,9.54s-6,5.02-9.54,3.3c-3.55-1.72-5.02-6-3.3-9.54,.18-.38,.4-.74,.65-1.08l-3.97-37.46Z"/><path class="cls-7" d="M140.82,93h0c-.73-.8-.84-1.99-.26-2.91,.34-.56,.49-1.21,.44-1.86-.01-.13-.03-.25-.06-.37-.37-1.5,0-3.08,1.02-4.24,1.67-1.86,2.54-4.74,2.97-7.32,.3-2.85,.95-5.65,1.92-8.34,1.63-3.79,5.32-7.09,10.12-5.28,2.03,.8,3.72,2.28,4.79,4.19,2.29,3.96,2.14,8.63,1.97,13.11l.94-1.74c-.28,4.88,.43,9.77,2.08,14.38-1.08-.25-1.9,1.18-1.58,2.24,.45,1.01,1.16,1.89,2.06,2.54,1.01,.96,1.95,2.36,.92,3.72-.52,.65-1.28,1.05-2.11,1.11-7.72,.72-15.5-.16-22.86-2.59-1.63-.54-3.38-1.27-4.19-2.79s.11-3.93,1.83-3.84Z"/><polygon class="cls-5" points="208.29 350.96 217.21 350.96 221.45 316.56 208.29 316.56 208.29 350.96"/><path class="cls-2" d="M205.38,344.85l14.25-.85v6.1l13.54,9.35c1.73,1.2,2.17,3.57,.97,5.3-.71,1.03-1.88,1.65-3.14,1.65h-16.96l-2.92-6.04-1.14,6.04h-6.39l1.8-21.56Z"/><polygon class="cls-5" points="160.36 343.1 168.66 346.35 185.13 315.86 172.88 311.07 160.36 343.1"/><path class="cls-2" d="M159.87,336.36l13.58,4.39-2.22,5.68,9.21,13.64c1.18,1.74,.72,4.11-1.03,5.29-1.04,.7-2.35,.85-3.52,.39l-15.8-6.17-.52-6.69-3.26,5.21-5.96-2.33,9.52-19.42Z"/><path class="cls-2" d="M165.96,128.61h41.6s15.67,111.88,15.71,112.08-8.84,3.43-4.8,7.47l4.04,4.04c3.23,3.23-2.4,14.27-2.4,14.27l6.44,65.7h-26.59l-13-135.71,17.58,65.06-22.9,70.65-16.49-9.69-3.23-8.89,6.42-6.42s1.66-9.65,1.66-15.35-4.85-.85,0-5.7c2.1-2.1,8-27.83,8-27.83l-19.31-61.84-4.6-27.6c-1.18-7.12-.12-14.42,3.05-20.91,2.56-5.25,5.78-12.12,8.83-19.35Z"/><path class="cls-7" d="M163.54,59.94l2.76-8.29c1.26-3.78,4.68-6.41,8.65-6.65l2.46-.15c4.5-.28,8.6,2.56,9.93,6.86h0c1.16,3.79,4.5,6.49,8.44,6.84,7.18,.61,17.84,2.78,17.84,10.28,0,11.31-12.12,41.2-9.69,43.62s8.08,12.41,4.85,15.35c-.84,.77-.16,4.45,.11,7.09,.49,4.78-33.23-5.78-42.92-3.05-9.69,2.74-4.85-17.77-6.46-19.39-1.52-1.85-2.87-3.83-4.04-5.91-.57-.96-.98-2.01-1.19-3.11l-2.78-14.08c-.05-.23-.08-.46-.11-.7-.37-3.01-2.52-23.29,5.7-26.28,8.89-3.23,6.46-2.42,6.46-2.42Z"/><path class="cls-5" d="M201.19,134.32l-1.27-50.67c-.1-4.47,3.4-8.19,7.87-8.36h0c4.51-.17,8.31,3.35,8.49,7.86,0,.14,0,.29,0,.43l-.29,52.67,1.17,32.01c3.69,1.4,5.54,5.52,4.14,9.21-1.4,3.69-5.52,5.54-9.21,4.14-3.69-1.4-5.54-5.52-4.14-9.21,.15-.39,.33-.78,.55-1.14l-7.31-36.96Z"/><path class="cls-7" d="M195.52,94.09h0c-.8-.73-1.02-1.91-.52-2.88,.28-.59,.38-1.25,.27-1.89-.02-.12-.05-.25-.09-.37-.51-1.46-.27-3.07,.63-4.32,1.49-2,2.11-4.95,2.31-7.56,.05-2.86,.44-5.71,1.17-8.48,1.28-3.92,4.66-7.54,9.61-6.16,2.1,.62,3.91,1.94,5.15,3.74,2.63,3.74,2.91,8.41,3.13,12.88l.78-1.81c.16,4.89,1.3,9.7,3.36,14.13-1.09-.15-1.78,1.34-1.38,2.37,.54,.97,1.33,1.78,2.28,2.35,1.09,.86,2.15,2.17,1.25,3.63-.46,.69-1.18,1.16-2,1.29-7.62,1.41-15.45,1.23-23-.53-1.68-.39-3.48-.97-4.42-2.41s-.24-3.92,1.48-3.99Z"/><circle class="cls-5" cx="174.67" cy="28.44" r="17.77"/><path class="cls-2" d="M157.88,55.44c0-2.08,2.74-3.17,4.72-2.52,1.97,.66,3.39,2.33,4.98,3.67,1.59,1.35,3.8,2.42,5.7,1.58,1.8-.8,2.53-2.93,3.88-4.37,1.63-1.52,3.76-2.39,5.99-2.44-.04-.2-.09-.41-.12-.61-.18-1.07-.23-2.16-.13-3.24,.45,.93,1.05,1.78,1.77,2.52,.45,.47,.95,.89,1.49,1.26,2.23,.17,4.48,0,6.67-.5,2.61-.77,5.05-3.08,4.85-5.8-.33-2.03-1.62-3.78-3.46-4.7-1.75-1.01,4.39-5.51,2.56-6.37-3.56-1.57-6.32-4.52-7.65-8.18-1.08-3.26-.54-6.84,1.47-9.62,1.62-.2-4.79,.56-3.25,0-.18-1.07-.26,.73-.16-.35,.45,.93,1.08-1.11,1.8-.37,1.37-.69,2.44-1.87,3.01-3.29,1.17-3.12-.82-3.74-3.4-5.86-6.83-5.6-16.9-4.6-22.5,2.23-1.09,1.32-1.95,2.81-2.56,4.41-3.91-1.96-8.94-.11-11.68,3.31-2.73,3.42-3.55,8-3.58,12.37-.05,9.81,3.35,19.32,9.6,26.87Z"/><polygon class="cls-1" points="93.37 358.52 85.05 358.52 81.09 326.41 93.37 326.41 93.37 358.52"/><path class="cls-2" d="M93.67,367.21h-25.6v-.32c0-5.5,4.46-9.96,9.96-9.96h0l4.68-3.55,8.72,3.55h2.23v10.29Z"/><polygon class="cls-1" points="131.21 358.52 122.88 358.52 118.92 326.41 131.21 326.41 131.21 358.52"/><path class="cls-2" d="M131.5,367.21h-25.6v-.32c0-5.5,4.46-9.96,9.96-9.96h0l4.68-3.55,8.72,3.55h2.23v10.29Z"/><path class="cls-2" d="M73.14,152.37s-13.45,16.69-10.84,21.01,6.81,2.83,2.61,7.36-5.89,4.59-2.94,7.92,5.5,76.26,5.5,76.26l13.42,75.89,14.77,1.33s2.75-9.27,2.82-12.87,.07-.46,.07-7.91-2.66-1.68-.07-8.77,5.82-27.98,0-38.13-1.25-1.25-1.25-1.25l4.51-68.82,8.58,70.84s0,24.38,4.2,42.04l.7,24.87,18.12-.69s4.73-7.36,3.05-15.77,5.04-12.61,5.04-16.82-.35-44.41-.35-44.41l-3.93-83.71s3.44-19.01-4.12-26.58-59.87-1.8-59.87-1.8Z"/><path class="cls-6" d="M89.25,63.59l11.61-13.07,18.35,2.04,11.75,16.44h0c12.98,2.99,15.38,13.6,13.1,26.73-4.56,26.25-15.81,44.59-10.7,57.54,7.76,19.66,4,34.78-14.59,32.03s-61.41-20.96-49.34-33.03,8.38-27.49,8.38-27.49l1.37-37.06c-2.17-11.77-1.84-22.89,10.07-24.12h0Z"/><path class="cls-1" d="M83.67,108.48l-12.93-8.34c-8.28,5.68-36.73,34.03-36.73,34.03l-28.34,25.98c-3.7,.62-6.2,4.12-5.58,7.83,.62,3.7,4.12,6.2,7.83,5.58,2.4-.4,4.4-2.06,5.25-4.34l35.2-31.79,35.3-28.94Z"/><path class="cls-6" d="M99.12,69.03h0c7.48,4.95,9.54,15.02,4.59,22.5-.55,.84-1.19,1.62-1.88,2.35l-6.76,6.98s-32.69,37.38-42.04,41.66l-23.4,16.01-12.6-9.94,20.42-21.13s26.45-19.35,26.63-26.68c.11-4.49,6.15-17.39,12.57-27.2,4.94-7.46,14.99-9.51,22.45-4.57l.03,.02Z"/><circle id="a4725208-37e7-4bba-8b44-e2dd7653a02c" class="cls-1" cx="113.35" cy="27.16" r="18.96"/><path class="cls-2" d="M103.53,5.54c.8-1.39,1.89-2.58,3.21-3.49,2.49-1.45,5.68-.62,7.14,1.87,.1,.17,.19,.34,.26,.52,.01-.91,.24-1.81,.66-2.61,1.08,1.09,2.33,2,3.7,2.7L116.52,.09c7.54-.57,12.87,1.5,15.26,7.08,.68,1.6,3.26,1.57,4.02,3.23,.75,1.66-.12,4.33-1.88,4.48,3.38-.06,2.34,2.79,3.33,6.22,.99,3.43,.43,7.28-.68,10.82-1.44,4.59-5.49,7.59-9.44,9.94-2.58,1.53-7.73,3.86-7.75,3.88-14.21,7.46-23.26-7.75-19.88-22.77,.76-3.39,3.53-7.07,1.55-9.61-1.55-1.98-4.47-1.61-6.93-1.09,.96-3.29,7.56-3.86,9.41-6.73Z"/></g></svg>