<?xml version="1.0" encoding="UTF-8"?><svg id="Layer_2" xmlns="http://www.w3.org/2000/svg" viewBox="0 0 91.09 107.82"><defs><style>.cls-1{fill:#ffb6b6;}.cls-2{fill:#9e616a;}.cls-3{fill:#e05896;}.cls-4{fill:#3f3d56;}.cls-5{fill:#2f2e41;}.cls-6,.cls-7{opacity:.2;}.cls-8{fill:#453de0;opacity:.08;}.cls-8,.cls-7{isolation:isolate;}</style></defs><g id="idk"><circle class="cls-8" cx="45.54" cy="45.54" r="45.54"/><polygon class="cls-2" points="21.6 106.17 23.29 106.17 24.1 99.64 21.6 99.64 21.6 106.17"/><path class="cls-5" d="M21.16,105.62h.48l1.86-.76,1,.76h0c1.17,0,2.13,.95,2.13,2.13v.07h-5.46v-2.2Z"/><polygon class="cls-2" points="29.47 106.17 31.16 106.17 31.97 99.64 29.47 99.64 29.47 106.17"/><path class="cls-5" d="M29.04,105.62h.48l1.86-.76,1,.76h0c1.17,0,2.13,.95,2.13,2.13v.07h-5.46v-2.2Z"/><path class="cls-5" d="M30.82,70.41l-13.31,.35,.23,6.48s-.23,1.74,.23,2.2,.69,.46,.46,1.27,.99,2.13,.84,2.28-.5,.96-.5,.96l1.16,6.6s.81,11.46,1.04,11.69,.46,0,.23,.58-.46,.35-.23,.58c.21,.22,.4,.45,.58,.69h2.8s.21-1.16,.21-1.27,.23-.81,.23-.93-.2-.32-.2-.32c-.07-.24-.12-.48-.14-.72,0-.23-.69-9.14-.69-9.14l1.39-11.58,3.36,11.34s0,9.95,.23,10.19,.23,.12,.12,.58-.58,.35-.23,.69,.46-.23,.35,.35l-.12,.58,3.47,.05s.46-.98,.23-1.32-.22-.25,.06-.82,.4-.68,.28-.8-.12-.73-.12-.73l-.58-11.08s-.12-11.69-.12-12.04c0-.18,.02-.36,.1-.52v-.47l-.44-1.67-.93-4.05Z"/><path class="cls-2" d="M45.89,45.16c-.24,.67-.98,1.02-1.65,.78-.07-.03-.14-.06-.21-.1l-5.78,4.84-.31-2.37,5.65-4.33c.4-.6,1.21-.76,1.8-.36,.5,.33,.71,.97,.5,1.53h0Z"/><circle class="cls-2" cx="20.41" cy="43.57" r="3.59"/><path class="cls-5" d="M23.32,40c-.33-.8-1.77-1.27-4.03-1.2s-2.66,2.77-2.66,2.77c-1.25,1.16,.77,4.79,1.12,4.29,.35-.5,.94-.03,.94-.03l-.56-3.15c.59,.23,1.23,.38,1.78,.12l-.92-.49,2.29,.28-.94-.73,.07-.02c.38,.16,.78,.26,1.2,.27,.48,0,.99-.23,1.19-.67,.05-.12,.08-.25,.09-.38,.66,.22,1.01,.99,1.01,.99-.13-.71-.31-1.4-.56-2.07Z"/><path class="cls-3" d="M23.28,47.32c-.8,0-1.32,.11-2.56,.32-2.3,.39-.92,2.57-.92,2.57,0,0,.1-.05-.18,0s-1.24,.88-1.24,.88l-1.72,1.53c-2.59,2.03-2.01,5.21-2.01,5.21l3.78,3.8-1.66,7.63s.7,1.13,.34,1.64,3.21,.36,3.21,.36c2.46,1.1,11.14,.17,11.14,.17-.12-.31-1.28-2.75-1.28-2.75,.5-.87,.02-2.13,.02-2.13,0,0-.5-5.96-.82-6.78s.82-5.29,1.57-5.24,5.6-2.42,5.6-2.42c0,0-.12-.19,1.48-.85,.92-.36,1.76-.89,2.48-1.57l.66-1.31c-.32,.12-1.38-1.89-1.38-1.89l-.46,.18-.27-.08s-2.1,.6-2.53,1.03-.57,.31-.96,.41-.44,.37-.56,.34-.34,.34-.51,.29-.53,.15-.78,.19-1.96,.78-1.96,.78c-1.06-.54-3.95-.32-3.95-.32,0,0-.94-.56-1.21,0-.15,.32-.47,.53-.82,.53l-1.15-.49c-.07,.24-1.32-2.3-1.33-2.05Z"/><path class="cls-2" d="M17.79,77.19c-.47-.53-.43-1.35,.11-1.82,.06-.05,.12-.1,.18-.14l-1.63-6.41,2.23,.85,1.24,6.05c.33,.64,.09,1.42-.54,1.76-.53,.28-1.19,.16-1.58-.29Z"/><path class="cls-3" d="M14.79,56.62l-.2,2.56s-.25,2.81-.18,3.33,.19,3.7,.19,3.7l2.12,4.2,2.4-.64-.14-1.97,.14,1.81,.32-1.6-.8-2.72,.48-.96-.24-3.23-4.08-4.46Z"/><path class="cls-5" d="M71.7,50.64l.79,.17c0-.33,.05-.66,.12-.99,.07,.4,.22,.77,.45,1.11l4.55,.97,4.37-4.61c0-2.31-1.27-4.06-3.57-4.06-.14,0-.28,0-.43,.02-2.58-.43-5.04,1.26-5.56,3.82-1.63,1.6-1.04,2.54-.73,3.57Z"/><polygon class="cls-1" points="69.47 104.57 67.81 104.57 67.03 98.2 69.47 98.2 69.47 104.57"/><path class="cls-5" d="M70.2,107.71h-1.17l-.21-1.11-.54,1.11h-3.11c-.39,0-.7-.31-.7-.7,0-.23,.11-.44,.3-.57l2.48-1.71v-1.12l2.61,.16,.33,3.95Z"/><polygon class="cls-1" points="88.81 102.78 87.37 103.59 83.55 98.44 85.67 97.24 88.81 102.78"/><path class="cls-5" d="M91,105.14l-1.02,.58-.73-.86,.08,1.23-2.7,1.53c-.34,.19-.76,.07-.95-.26-.11-.2-.12-.44-.02-.65l1.31-2.72-.55-.97,2.35-1.15,2.24,3.27Z"/><path class="cls-1" d="M63.36,51.75c.8,.12,1.35,.86,1.24,1.66-.01,.09-.03,.17-.06,.25l2.53,2.19-.95,1.86-3.52-3.14c-.75-.31-1.11-1.16-.81-1.92,.26-.63,.91-1,1.58-.9Z"/><path class="cls-5" d="M65.55,58.56l-1.69-2.69,1.88-1.92,1.33,1.62,1.65,.74,2.27,1.38c.45-.53,3.93-4.52,5.48-3.37,.38,.26,.62,.67,.67,1.12,.11,1.07-.85,2.16-.88,2.2l-2.05,2.76c-.06,.17-.74,1.96-1.8,2.45-.3,.15-.65,.16-.97,.03-2.8-1.09-4.69-2.33-5.54-3.6-.15-.22-.27-.46-.36-.71Z"/><path class="cls-5" d="M71.8,64.17s-4.85,7.73-3.98,8.61,2.25,1.11,2.25,1.11l3.03-3.93-1.3-5.8Z"/><path class="cls-5" d="M76.09,53.61l-2.29,1.55c-2.19,1.48-3.12,4.23-2.3,6.73l.64,1.96,3.94-10.24Z"/><polygon class="cls-5" points="80.14 74.72 80.44 75.78 81.49 88.63 86.7 98.35 84.21 100.13 77.1 90.88 74.29 81.7 69.87 102.03 66.55 101.79 68.86 73.61 73.23 65.68 80.14 74.72"/><path class="cls-3" d="M76.48,54l-3.18,2.6c-.7,.57-1.2,1.35-1.44,2.22h0c-.11,.4-.16,.8-.15,1.21l.09,5.65-2.92,7.8s7.92,2.99,8.97,.35-1.37-19.84-1.37-19.84Z"/><path class="cls-5" d="M72.05,71.2l-.53-2.11,.13-5.25c.01-.31,1.64-5.06,3.69-10.1l1.76-1.76,.95-.62,2.09,1.93s-.27,5.29-.18,10.7c.02,1.5-.24,3.25-.35,4.57l.96,4.27v2.38h-.06c-.06,.03-1.03,0-4.98,0-3.28,0-1.1-2.32-3.48-4.01Z"/><polygon class="cls-7" points="79.26 58 79.74 61 76.48 62.34 79.26 58"/><circle class="cls-1" cx="75.98" cy="47.6" r="3.19"/><path class="cls-7" d="M81.32,63.77h0c-1.74,2.02-4.63,2.6-7.03,1.42l-.69-.34,7.72-1.08Z"/><path class="cls-1" d="M70.23,63.04c.54-.6,1.46-.66,2.06-.12,.06,.06,.12,.12,.18,.19l3.22-.9,1.03,1.82-4.56,1.21c-.67,.46-1.58,.29-2.04-.38-.38-.56-.33-1.31,.12-1.82h0Z"/><path class="cls-5" d="M77.11,64.97l-3.17-.07-.57-2.63,2.09-.22,1.53-.97,2.4-1.13c-.19-.67-1.61-5.77,.2-6.43,.42-.17,.9-.15,1.3,.06,.95,.5,1.33,1.9,1.35,1.95l1.18,3.23c.11,.15,1.23,1.7,1.05,2.85-.05,.33-.23,.63-.51,.82-2.46,1.74-4.53,2.63-6.06,2.63-.27,0-.53-.03-.79-.09Z"/><path class="cls-5" d="M72.16,45.51c.26,.33,1.13,.63,2.18,.86,0-.02,0-.04,0-.07,0-.33,.05-.66,.12-.99,.07,.4,.22,.77,.45,1.11,.02,.03,.03,.05,.05,.08,.9,.18,1.84,.31,2.58,.41-.51,1.84-2.47,3.34-2.25,4.46l5.73,1.17c-.04-.46,0-.93,.11-1.38,.11,.6,.4,1.15,.83,1.58l.49,.1,.15-.72c1.26-3.02-.5-6.11-3.37-7.71-.51-.77-1.31-1.3-2.21-1.48l-.72-.15c-1.9-.39-3.75,.84-4.14,2.73h0Z"/><path class="cls-4" d="M58.64,37.79c.4,1.74,.58,3.72-.47,5.28-.45,.67-1.11,1.17-1.87,1.42-.77,.23-1.59,.28-2.39,.15-1.8-.25-3.41-1.19-5.18-1.55-.78-.16-1.61-.21-2.37,.1-.56,.23-1.16,.7-1.16,1.36,0,.68,.59,1.14,1.18,1.35,.79,.28,1.61,.17,2.42,.14,.88-.04,1.78,.04,2.51,.58,.63,.49,1.11,1.14,1.39,1.89,.37,.89,.52,1.85,.75,2.78,.21,.84,.51,1.65,.89,2.42,.74,1.52,1.79,2.87,3.07,3.98,.63,.54,1.4,1.1,2.26,1.15,.67,.04,1.47-.24,1.73-.91,.2-.6-.06-1.25-.61-1.56-.57-.29-1.19,.12-1.37,.69-.1,.26-.06,.56,.09,.79,.17,.26-.24,.5-.42,.24-.4-.59-.19-1.39,.3-1.87,.49-.5,1.28-.56,1.84-.14,.58,.44,.84,1.18,.67,1.88-.21,.74-.93,1.21-1.66,1.33-.9,.14-1.76-.21-2.48-.72-.73-.52-1.39-1.13-1.97-1.82-1.18-1.36-2.07-2.94-2.6-4.66-.53-1.7-.57-3.94-2.14-5.08-.81-.59-1.8-.52-2.75-.47-.84,.05-1.65,.04-2.42-.34-.63-.31-1.15-.89-1.16-1.63-.01-.74,.52-1.34,1.14-1.68,1.64-.89,3.61-.17,5.23,.42,1.62,.6,3.48,1.31,5.2,.67,.8-.31,1.44-.92,1.78-1.7,.42-.89,.48-1.89,.38-2.85-.06-.51-.15-1.01-.26-1.51-.07-.3,.39-.43,.46-.13h0Z"/><path class="cls-3" d="M55.69,32.91c.48,1.59,1.19,3.09,2.13,4.46,.23,.34,.47,.66,.73,.98,.2-.36,.44-.69,.71-1,.97-1.07,2.27-1.76,3.53-2.46,1.26-.7,2.54-1.45,3.43-2.58,.4-.51,.69-1.1,.84-1.73,.2-.85,.13-1.75-.37-2.46-.72-1.04-2.17-1.4-3.4-1.1-1.23,.3-2.26,1.15-3.06,2.13,.26-1.21-1.01-2.37-2.24-2.26-1.23,.11-2.21,1.18-2.54,2.37-.33,1.19-.12,2.46,.24,3.64Z"/><g class="cls-6"><path d="M57.82,37.37c.23,.34,.47,.66,.73,.98,.2-.36,.44-.69,.71-1,.97-1.07,2.27-1.76,3.53-2.46,1.26-.7,2.54-1.45,3.43-2.58,.4-.51,.69-1.1,.84-1.73-2.84,.39-5.44,1.78-7.36,3.9-.77,.86-1.4,1.84-1.89,2.88Z"/></g></g></svg>