<?xml version="1.0" encoding="utf-8"?>
<!-- Generator: Adobe Illustrator 26.3.1, SVG Export Plug-In . SVG Version: 6.00 Build 0)  -->
<svg version="1.1" id="Layer_2_00000000904346607103180410000014875958805156156830_"
	 xmlns="http://www.w3.org/2000/svg" xmlns:xlink="http://www.w3.org/1999/xlink" x="0px" y="0px" viewBox="0 0 91.1 107.8"
	 style="enable-background:new 0 0 91.1 107.8;" xml:space="preserve">
<style type="text/css">
	.st0{opacity:8.000000e-02;fill:#453DE0;enable-background:new    ;}
	.st1{fill:#9E616A;}
	.st2{fill:#2F2E41;}
	.st3{fill:#E05896;}
	.st4{fill:#FFB6B6;}
	.st5{opacity:0.2;enable-background:new    ;}
	.st6{fill:#3F3D56;}
	.st7{opacity:0.1;enable-background:new    ;}
	.st8{fill:#F50057;}
</style>
<g id="idk">
	<circle class="st0" cx="45.5" cy="45.5" r="45.5"/>
	<polygon class="st1" points="21.6,106.2 23.3,106.2 24.1,99.6 21.6,99.6 	"/>
	<path class="st2" d="M21.2,105.6h0.5l1.9-0.8l1,0.8l0,0c1.2,0,2.1,0.9,2.1,2.1v0.1h-5.5L21.2,105.6L21.2,105.6z"/>
	<polygon class="st1" points="29.5,106.2 31.2,106.2 32,99.6 29.5,99.6 	"/>
	<path class="st2" d="M29,105.6h0.5l1.9-0.8l1,0.8l0,0c1.2,0,2.1,0.9,2.1,2.1v0.1h-5.5L29,105.6L29,105.6z"/>
	<path class="st2" d="M30.8,70.4l-13.3,0.3l0.2,6.5c0,0-0.2,1.7,0.2,2.2s0.7,0.5,0.5,1.3s1,2.1,0.8,2.3s-0.5,1-0.5,1l1.2,6.6
		c0,0,0.8,11.5,1,11.7s0.5,0,0.2,0.6s-0.5,0.3-0.2,0.6c0.2,0.2,0.4,0.4,0.6,0.7h2.8c0,0,0.2-1.2,0.2-1.3s0.2-0.8,0.2-0.9
		s-0.2-0.3-0.2-0.3c-0.1-0.2-0.1-0.5-0.1-0.7c0-0.2-0.7-9.1-0.7-9.1l1.4-11.6l3.4,11.3c0,0,0,9.9,0.2,10.2s0.2,0.1,0.1,0.6
		s-0.6,0.3-0.2,0.7s0.5-0.2,0.4,0.3l-0.1,0.6l3.5,0.1c0,0,0.5-1,0.2-1.3s-0.2-0.2,0.1-0.8s0.4-0.7,0.3-0.8s-0.1-0.7-0.1-0.7
		l-0.6-11.1c0,0-0.1-11.7-0.1-12c0-0.2,0-0.4,0.1-0.5v-0.5l-0.4-1.7L30.8,70.4L30.8,70.4z"/>
	<path class="st1" d="M44.7,54c-0.2,0.7-1,1-1.7,0.8c-0.1,0-0.1-0.1-0.2-0.1l-5.8,4.8l-0.3-2.4l5.7-4.3c0.4-0.6,1.2-0.8,1.8-0.4
		C44.7,52.8,44.9,53.5,44.7,54L44.7,54L44.7,54z"/>
	<circle class="st1" cx="20.4" cy="43.6" r="3.6"/>
	<path class="st2" d="M23.3,40c-0.3-0.8-1.8-1.3-4-1.2s-2.7,2.8-2.7,2.8c-1.2,1.2,0.8,4.8,1.1,4.3s0.9,0,0.9,0l-0.6-3.2
		c0.6,0.2,1.2,0.4,1.8,0.1L19,42.3l2.3,0.3l-0.9-0.7l0.1,0c0.4,0.2,0.8,0.3,1.2,0.3c0.5,0,1-0.2,1.2-0.7c0-0.1,0.1-0.2,0.1-0.4
		c0.7,0.2,1,1,1,1C23.8,41.3,23.6,40.6,23.3,40L23.3,40z"/>
	<path class="st3" d="M23.3,47.3c-0.8,0-1.3,0.1-2.6,0.3c-2.3,0.4-0.9,2.6-0.9,2.6s0.1,0-0.2,0s-1.2,0.9-1.2,0.9l-1.7,1.5
		c-2.6,2-2,5.2-2,5.2l3.8,3.8l-1.7,7.6c0,0,0.7,1.1,0.3,1.6s3.2,0.4,3.2,0.4c2.5,1.1,11.1,0.2,11.1,0.2c-0.1-0.3-1.3-2.8-1.3-2.8
		c0.5-0.9,0-2.1,0-2.1s-0.5-6-0.8-6.8s1.3,0.3,2,0.3c0.8,0.1,3.5,0.6,3.5,0.6s0.4,0.1,2-0.6c0.9-0.4,1.8-0.9,2.5-1.6l0.7-1.3
		c-0.3,0.1-1.4-1.9-1.4-1.9l-0.5,0.2l-0.3-0.1c0,0-2.1,0.6-2.5,1s-2-1.1-2.4-1s-2.1-1.3-2.2-1.4s-0.7-0.8-0.8-1
		c-0.2-0.4-0.6-1.1-0.7-1.3C29,51.4,28.5,51,28.5,51c-0.4-0.4-0.4-0.4-0.4-0.4s-0.5-0.6-1.3-0.8c-0.5-0.1-0.7,0-1,0l-1.1-0.5
		C24.5,49.2,23.3,47,23.3,47.3L23.3,47.3z"/>
	<path class="st1" d="M17.8,77.2c-0.5-0.5-0.4-1.3,0.1-1.8c0.1-0.1,0.1-0.1,0.2-0.1l-1.6-6.4l2.2,0.8l1.2,6.1
		c0.3,0.6,0.1,1.4-0.5,1.8C18.9,77.8,18.2,77.6,17.8,77.2L17.8,77.2z"/>
	<path class="st3" d="M14.8,56.6l-0.2,2.6c0,0-0.2,2.8-0.2,3.3s0.2,3.7,0.2,3.7l2.1,4.2l2.4-0.6l-0.1-2l0.1,1.8l0.3-1.6l-0.8-2.7
		l0.5-1l-0.2-3.2L14.8,56.6L14.8,56.6z"/>
	<path class="st2" d="M64.6,61.2l0.6,0.1c0-0.3,0-0.5,0.1-0.8c0.1,0.3,0.2,0.6,0.4,0.9l3.7,0.8l3.6-3.8c0-1.9-1-3.3-2.9-3.3
		c-0.1,0-0.2,0-0.4,0c-2.1-0.4-4.1,1-4.5,3.1C63.8,59.6,64.3,60.3,64.6,61.2L64.6,61.2z"/>
	<polygon class="st4" points="62.8,105.2 61.4,105.2 60.8,100 62.8,100 	"/>
	<path class="st2" d="M63.3,107.7h-1l-0.2-0.9l-0.4,0.9h-2.5c-0.3,0-0.6-0.3-0.6-0.6c0-0.2,0.1-0.4,0.2-0.5l2-1.4v-0.9l2.1,0.1
		L63.3,107.7L63.3,107.7z"/>
	<polygon class="st4" points="78.5,103.7 77.3,104.4 74.2,100.2 76,99.2 	"/>
	<path class="st2" d="M80.3,105.6l-0.8,0.5l-0.6-0.7l0.1,1l-2.2,1.2c-0.3,0.2-0.6,0.1-0.8-0.2c-0.1-0.2-0.1-0.4,0-0.5l1.1-2.2
		l-0.4-0.8l1.9-0.9L80.3,105.6L80.3,105.6z"/>
	<path class="st4" d="M57.8,62.1c0.7,0.1,1.1,0.7,1,1.4c0,0.1,0,0.1,0,0.2l2.1,1.8L60,67l-2.9-2.6c-0.6-0.3-0.9-0.9-0.7-1.6
		C56.7,62.3,57.2,62,57.8,62.1L57.8,62.1z"/>
	<path class="st2" d="M59.6,67.6l-1.4-2.2l1.5-1.6l1.1,1.3l1.3,0.6l1.9,1.1c0.4-0.4,3.2-3.7,4.5-2.7c0.3,0.2,0.5,0.5,0.5,0.9
		c0.1,0.9-0.7,1.8-0.7,1.8l-1.7,2.2c0,0.1-0.6,1.6-1.5,2c-0.2,0.1-0.5,0.1-0.8,0c-2.3-0.9-3.8-1.9-4.5-2.9
		C59.7,68.1,59.6,67.9,59.6,67.6L59.6,67.6z"/>
	<path class="st2" d="M64.7,72.2c0,0-4,6.3-3.2,7c0.7,0.7,1.8,0.9,1.8,0.9l2.5-3.2L64.7,72.2L64.7,72.2z"/>
	<path class="st2" d="M68.2,63.6l-1.9,1.3c-1.8,1.2-2.5,3.4-1.9,5.5l0.5,1.6L68.2,63.6L68.2,63.6z"/>
	<polygon class="st2" points="71.5,80.8 71.7,81.7 72.6,92.2 76.8,100.1 74.8,101.5 69,94 66.7,86.5 63.1,103.1 60.4,102.9 
		62.3,79.9 65.8,73.4 	"/>
	<path class="st3" d="M68.5,63.9L65.9,66c-0.6,0.5-1,1.1-1.2,1.8l0,0c-0.1,0.3-0.1,0.7-0.1,1l0.1,4.6l-2.4,6.4c0,0,6.5,2.4,7.3,0.3
		C70.4,77.9,68.5,63.9,68.5,63.9L68.5,63.9z"/>
	<path class="st2" d="M64.9,77.9l-0.4-1.7l0.1-4.3c0-0.3,1.3-4.1,3-8.2l1.4-1.4l0.8-0.5l1.7,1.6c0,0-0.2,4.3-0.1,8.7
		c0,1.2-0.2,2.6-0.3,3.7l0.8,3.5v1.9h0c0,0-0.8,0-4.1,0C65,81.2,66.8,79.3,64.9,77.9z"/>
	<polygon class="st5" points="70.7,67.2 71.1,69.6 68.5,70.7 	"/>
	<circle class="st4" cx="68.1" cy="58.7" r="2.6"/>
	<path class="st5" d="M72.4,71.9L72.4,71.9C71,73.5,68.6,74,66.7,73l-0.6-0.3C66.1,72.8,72.4,71.9,72.4,71.9z"/>
	<path class="st4" d="M63.4,71.3c0.4-0.5,1.2-0.5,1.7-0.1c0,0,0.1,0.1,0.1,0.2l2.6-0.7l0.8,1.5l-3.7,1c-0.5,0.4-1.3,0.2-1.7-0.3
		C63,72.3,63,71.7,63.4,71.3L63.4,71.3L63.4,71.3z"/>
	<path class="st2" d="M69,72.9l-2.6-0.1l-0.5-2.1l1.7-0.2l1.2-0.8l2-0.9c-0.2-0.5-1.3-4.7,0.2-5.2c0.3-0.1,0.7-0.1,1.1,0
		c0.8,0.4,1.1,1.5,1.1,1.6l1,2.6c0.1,0.1,1,1.4,0.9,2.3c0,0.3-0.2,0.5-0.4,0.7c-2,1.4-3.7,2.1-4.9,2.1C69.4,72.9,69.2,72.9,69,72.9z
		"/>
	<path class="st2" d="M64.9,57c0.2,0.3,0.9,0.5,1.8,0.7c0,0,0,0,0-0.1c0-0.3,0-0.5,0.1-0.8c0.1,0.3,0.2,0.6,0.4,0.9c0,0,0,0,0,0.1
		c0.7,0.1,1.5,0.3,2.1,0.3c-0.4,1.5-2,2.7-1.8,3.6l4.7,1c0-0.4,0-0.8,0.1-1.1c0.1,0.5,0.3,0.9,0.7,1.3l0.4,0.1l0.1-0.6
		c1-2.5-0.4-5-2.7-6.3c-0.4-0.6-1.1-1.1-1.8-1.2l-0.6-0.1C66.8,54.5,65.3,55.5,64.9,57C64.9,57,64.9,57,64.9,57z"/>
</g>
<path class="st6" d="M46,49.3c0,0-0.1,0.4-0.3,1c-0.1,0.2-0.1,0.4-0.2,0.6c-0.1,0.3-0.2,0.6-0.4,0.9c-0.1,0.2-0.2,0.4-0.2,0.6
	c-0.4,1-0.9,1.9-1.2,1.9c-0.7,0-2.1-4.5-2.3-5c0,0,0,0,0,0H46z"/>
<path class="st7" d="M45.7,50.2c-0.1,0.2-0.1,0.4-0.2,0.6l-1.8-1.6h0.9L45.7,50.2z"/>
<path class="st7" d="M45.1,51.8c-0.1,0.2-0.2,0.4-0.2,0.6l-3.5-3.1c0,0,0,0,0,0h0.9L45.1,51.8z"/>
<path class="st8" d="M43.8,45.3c-0.2,0.2-0.5,0.1-0.8,0.3c-0.1,0.1-0.2,0.3-0.1,0.5s0.1,0.3,0.2,0.5c0.1,0.1,0.1,0.2,0.2,0.3
	c0.1,0.1,0.3,0.2,0.5,0.2c0.4,0.1,0.8,0.1,1.2,0.2c0.2,0,0.4,0,0.5-0.1c0.1-0.1,0.1-0.2,0.1-0.3c0-0.2,0-0.3,0-0.5
	c-0.1-0.1-0.2-0.2-0.3-0.3c-0.3-0.2-0.7-0.5-0.9-0.8c-0.1-0.1-0.1-0.3-0.2-0.4c-0.2-0.1-0.5-0.2-0.7-0.1
	C43.6,44.8,43.9,45.2,43.8,45.3z"/>
<path class="st8" d="M42,46.9c-0.1,0.2-0.1,0.4-0.1,0.7c0.1,0.3,0.3,0.5,0.6,0.6c0.3,0.1,0.6,0.1,0.9,0.1l1.6,0.1
	c0.2,0,0.4,0,0.6,0.1c0.2,0.1,0.3,0.1,0.5,0c0.1,0,0.1-0.1,0.1-0.2c0.1-0.2,0.1-0.5,0-0.7c-0.1-0.3-0.4-0.4-0.6-0.5
	c-0.3-0.1-0.5-0.1-0.8-0.1c-0.3,0-0.5-0.1-0.8-0.2c-0.2-0.1-0.4-0.1-0.6-0.3c-0.1-0.1-0.2-0.2-0.2-0.3C42.6,45.7,42.1,46.5,42,46.9z
	"/>
<path class="st8" d="M41.7,47.9c-0.5,0.2-0.7,0.8-0.5,1.3c0.1,0.1,0.2,0.3,0.3,0.4c0.2,0.2,0.5,0.3,0.9,0.3c0.3,0,0.6,0,0.9,0
	l2.6-0.1c0.2,0,0.3,0,0.4-0.1c0.1-0.1,0.1-0.2,0.1-0.3c-0.1-0.4-0.4-0.8-0.8-0.9c-0.1,0-0.3-0.1-0.5-0.1L44,48.2
	c-0.2,0-0.3,0-0.4-0.1c-0.4-0.1-0.8-0.5-1.3-0.4c-0.3,0-0.6,0.3-0.8,0.5"/>
<path class="st7" d="M43.1,46.2c0,0,0.4,0.7,2.2,0.9"/>
<path class="st7" d="M42.1,47.9c0,0,0.7,0.7,3.5,0.7"/>
<ellipse class="st6" cx="43.7" cy="45.8" rx="0.2" ry="0.1"/>
<ellipse class="st6" cx="44.3" cy="46.2" rx="0.2" ry="0.1"/>
<ellipse class="st6" cx="45" cy="46.6" rx="0.2" ry="0.1"/>
<ellipse class="st6" cx="44.1" cy="47.3" rx="0.2" ry="0.1"/>
<ellipse class="st6" cx="43.6" cy="48.7" rx="0.2" ry="0.1"/>
<ellipse class="st8" cx="44.3" cy="49.8" rx="0.2" ry="0.4"/>
<ellipse class="st8" cx="44.5" cy="49.9" rx="0.2" ry="0.4"/>
<path class="st6" d="M44,53.7c0,0,0.3-0.5-0.3-1.1L44,53.7z"/>
<path class="st6" d="M59.5,61.1c0,0-0.2,0.2-0.4,0.5c-0.1,0.1-0.2,0.2-0.3,0.3c-0.1,0.2-0.3,0.3-0.4,0.5c-0.1,0.1-0.2,0.2-0.3,0.3
	c-0.5,0.5-1,1-1.1,0.9c-0.4-0.1-0.3-3.2-0.3-3.5c0,0,0,0,0,0L59.5,61.1z"/>
<path class="st7" d="M59.1,61.6c-0.1,0.1-0.2,0.2-0.3,0.3l-0.7-1.3l0.5,0.2L59.1,61.6z"/>
<path class="st7" d="M58.4,62.4c-0.1,0.1-0.2,0.2-0.3,0.3l-1.4-2.6c0,0,0,0,0,0l0.5,0.2L58.4,62.4z"/>
<path class="st8" d="M59.1,58.2c-0.2,0.1-0.4-0.1-0.5,0c-0.1,0-0.2,0.2-0.2,0.3c0,0.1,0,0.2,0,0.4c0,0.1,0,0.2,0.1,0.2
	c0.1,0.1,0.2,0.2,0.2,0.2c0.2,0.1,0.4,0.3,0.7,0.4c0.1,0,0.2,0.1,0.3,0c0.1,0,0.1-0.1,0.1-0.1c0.1-0.1,0.1-0.2,0.1-0.3
	c0-0.1,0-0.2-0.1-0.2c-0.1-0.2-0.3-0.4-0.4-0.7c0-0.1,0-0.2-0.1-0.3c-0.1-0.1-0.3-0.2-0.4-0.2C59,57.8,59.2,58.1,59.1,58.2z"/>
<path class="st8" d="M57.6,58.8c-0.1,0.1-0.2,0.2-0.2,0.4c0,0.2,0.1,0.4,0.2,0.5s0.3,0.2,0.5,0.3l0.9,0.4c0.1,0,0.2,0.1,0.3,0.2
	c0.1,0.1,0.2,0.2,0.3,0.1c0,0,0.1-0.1,0.1-0.1c0.1-0.1,0.2-0.3,0.2-0.4c0-0.2-0.1-0.3-0.3-0.4c-0.1-0.1-0.3-0.2-0.5-0.2
	c-0.2-0.1-0.3-0.2-0.5-0.3c-0.1-0.1-0.2-0.2-0.3-0.3c0-0.1-0.1-0.2-0.1-0.2C58.2,58.2,57.8,58.6,57.6,58.8z"/>
<path class="st8" d="M57.2,59.3c-0.3,0-0.6,0.3-0.6,0.7c0,0.1,0,0.2,0.1,0.3c0.1,0.2,0.3,0.3,0.5,0.4c0.2,0.1,0.4,0.1,0.5,0.2
	l1.6,0.5c0.1,0,0.2,0.1,0.3,0c0.1,0,0.1-0.1,0.1-0.2c0.1-0.3-0.1-0.5-0.3-0.7c-0.1-0.1-0.2-0.1-0.3-0.1L58.5,60
	c-0.1,0-0.2-0.1-0.3-0.1c-0.2-0.2-0.4-0.5-0.7-0.5c-0.2,0-0.4,0-0.6,0.1"/>
<path class="st7" d="M58.5,58.6c0,0,0.1,0.5,1.1,1.1"/>
<path class="st7" d="M57.5,59.4c0,0,0.3,0.6,2,1.2"/>
<ellipse transform="matrix(0.3412 -0.94 0.94 0.3412 -16.1579 93.8488)" class="st6" cx="58.9" cy="58.5" rx="0" ry="0.1"/>
<ellipse transform="matrix(0.3412 -0.94 0.94 0.3412 -16.3195 94.3477)" class="st6" cx="59.1" cy="58.8" rx="0" ry="0.1"/>
<ellipse transform="matrix(0.3412 -0.94 0.94 0.3412 -16.4852 94.9161)" class="st6" cx="59.5" cy="59.2" rx="0" ry="0.1"/>
<ellipse transform="matrix(0.3412 -0.94 0.94 0.3412 -17.1818 94.4433)" class="st6" cx="58.8" cy="59.5" rx="0" ry="0.1"/>
<ellipse transform="matrix(0.3412 -0.94 0.94 0.3412 -18.2401 94.3185)" class="st6" cx="58.2" cy="60.2" rx="0" ry="0.1"/>
<ellipse transform="matrix(0.3412 -0.94 0.94 0.3412 -18.8806 95.0261)" class="st8" cx="58.4" cy="61" rx="0.3" ry="0.1"/>
<ellipse transform="matrix(0.3412 -0.94 0.94 0.3412 -18.941 95.2246)" class="st8" cx="58.5" cy="61.1" rx="0.3" ry="0.1"/>
<path class="st6" d="M57.3,63.3c0,0,0.3-0.2,0.1-0.7L57.3,63.3z"/>
</svg>
