<?xml version="1.0" encoding="UTF-8"?><svg id="Layer_2" xmlns="http://www.w3.org/2000/svg" viewBox="0 0 663.81 399.76"><defs><style>.cls-1{fill:#ffb6b6;}.cls-2{fill:#2f2e41;}.cls-3{fill:#3f3d56;}.cls-4{fill:#e6e6e6;}.cls-5{fill:#ccc;}.cls-6{fill:#f50057;}</style></defs><g id="Layer_1-2"><path class="cls-4" d="M0,258.76c8.69,10.3,18.09,84.56,28.12,93.54l470.58,1c10.03-8.98,19.43-83.24,28.12-93.54L0,258.76h0Z"/><path class="cls-3" d="M146.69,171.54v102.56h71.85v-102.56c0-1.51-.98-2.85-2.43-3.3-.33-.11-.68-.16-1.03-.16h-64.92c-1.91,0-3.47,1.54-3.47,3.46h0Zm28.04,35.24c.04-4.24,3.5-7.64,7.74-7.6,4.18,.04,7.56,3.42,7.6,7.6v11.9c-.02,4.24-3.47,7.65-7.71,7.63-4.21-.02-7.61-3.43-7.63-7.63v-11.9Z"/><path class="cls-3" d="M33.66,17.02V204.28c0,4.97,4.03,9,9,9H320.16c4.97,0,9-4.03,9-9V17.02c-.01-4.96-4.04-8.98-9-8.99H42.66c-4.96,0-8.99,4.03-9,8.99Z"/><path class="cls-6" d="M40.17,19.35V201.97c0,2.65,2.16,4.81,4.81,4.81H317.85c2.65,0,4.81-2.16,4.81-4.81V19.35c0-2.66-2.15-4.81-4.81-4.82H44.98c-2.66,0-4.81,2.16-4.81,4.82Z"/><path class="cls-3" d="M95.81,284.98c.56,.71,1.42,1.11,2.32,1.11h162.34c1.65,0,2.99-1.34,2.98-2.99,0-.2-.02-.41-.06-.61l-2.52-11.97c-.21-.99-.91-1.81-1.86-2.17-.34-.13-.7-.2-1.06-.2H100.64c-.36,0-.72,.07-1.06,.2-.95,.36-1.65,1.18-1.86,2.17l-2.52,11.97c-.18,.88,.04,1.79,.61,2.49Z"/><path class="cls-3" d="M53.75,39.69h255.32c.56-.01,1.01-.48,.99-1.04-.01-.54-.45-.98-.99-.99H53.75c-.56,.01-1.01,.48-.99,1.04,.01,.54,.45,.98,.99,.99Z"/><path class="cls-5" d="M626.03,238.09s-.03-.09-.05-.13c-.39-1.04-.84-2.06-1.35-3.04-2.91-5.47,.17-13.87-3.11-23.15-5.3-15.04-11.76-23.91-21.23-31.86-.28-.24-.56-.47-.85-.71h-.01c-6.32-5.2-13.94-10.05-23.4-16.09-1.97-1.26-8.78,2.38-8.62-3.86,.18-6.93,.37-14.11-3.03-18.59l-.22-.29-.35-.09c-11.66-2.31-23.55-3.22-35.42-2.73h-.01c-5.04,.19-10.05,.92-14.93,2.19-.36,.1-.72,.2-1.07,.32-.27,.07-.54,.16-.81,.25l-.22,.08-.17,.16c-3.29,3.29-4.05,9.19-4.41,15.34h0c-.07,1.13-.13,2.25-.18,3.37-.28,5.98-14.71,10.81-20.21,13.52-10.33,5.1-8.77,16.98-8.89,16.98,0,0-17.37,35.66-17.58,71.77-.01,2.01-.02,4.03-.04,6.06-.12,16.82-.44,33.93-1.7,49.52-.55,6.7-1.26,13.11-2.21,19.1-4.62,29.17-25.55,4.95-35.56,24.36,.33,1.91,.88,3.77,1.65,5.55,1.15,.68,2.33,1.34,3.5,2,5.19,2.89,10.48,5.59,15.86,8.09,.3,.14,.6,.28,.9,.41,9.87,4.57,20.05,8.45,30.46,11.62,2.03,.62,4.06,1.21,6.11,1.77,18.13,5.01,36.81,7.8,55.61,8.33,.08,0,.15-.01,.23-.01,22.24-.61,44.33-3.8,65.84-9.49,.3-.08,.6-.16,.9-.24,1.41-.38,2.81-.76,4.21-1.16,12.38-3.52,24.51-7.87,36.3-13.02,.01,.44,.06,.88,.13,1.31,.01,.14,.03,.28,.06,.42,.02-.16,.04-.32,.05-.48,.06-.47,.11-.95,.16-1.43,6.12-59.68-6.59-110.35-16.34-136.15Z"/><circle class="cls-1" cx="537.51" cy="74.3" r="58.07"/><path class="cls-2" d="M541.81,133.41c8.85-1.58,17.56-3.92,26.01-6.98,8.3-3.44,24.88-21.38,28.61-30.96h0c2.77-7.12,3.4-17.51,3.45-24.98,.19-19.99-8.11-39.13-22.84-52.65-2.85-2.84-6.41-4.85-10.31-5.82-.34-.06-.69-.11-1.04-.14-5.47-.36-10.72-2.34-15.06-5.7-.85-.68-1.74-1.31-2.68-1.86-4.67-2.6-9.89-4.07-15.24-4.27-8.68-.6-20.2,3.92-34.23,13.44-7.05,4.78-15.69,5.23-22.43,5.09-.77,0-1.47,.41-1.86,1.07-2.25,3.12-5.59,5.27-9.36,6.03-2.29,.55-4.09,4.23-6.21,8.97-.48,1.08-1.04,2.33-1.47,3.12l-.33-1.28-1.03,1.7c-5.28,8.73-2.49,20.08,6.23,25.36,2.35,1.42,4.98,2.3,7.7,2.58,2.45,.17,4.9,.08,7.33-.25,1.48-.15,3.01-.31,4.5-.34,9.79,.09,18.82,5.33,23.76,13.78,2.06,3.46,6.52,4.59,9.98,2.54,.54-.32,1.04-.72,1.48-1.17,2.59-2.97,6.46-4.48,10.38-4.06,1.74,.57,3.24,1.72,4.23,3.26,1.18,1.7,2.83,3.01,4.76,3.77,6.45,1.88,9.46,15.18,9.53,26.75,.07,11.15-2.43,19.71-6.06,20.81-2.8,.85-3.09,1.12-3.2,1.66l-.1,.49,.4,.36c1.69,.26,3.42,.16,5.06-.3Z"/><ellipse class="cls-3" cx="336.28" cy="306.52" rx="20.13" ry="6.43"/><ellipse class="cls-3" cx="336.28" cy="302.24" rx="20.13" ry="6.43"/><path class="cls-3" d="M332.74,306.55l3-.04-.83-56.02c-.24-18.6,9.42-35.93,25.37-45.5l57.26-34.23-1.54-2.58-57.26,34.23c-16.87,10.12-27.09,28.45-26.83,48.12l.83,56.02Z"/><path class="cls-6" d="M416.06,196.01h0c-4.02,0-7.28-3.26-7.28-7.28v-45.4c0-4.02,3.26-7.28,7.28-7.28h0c4.02,0,7.28,3.26,7.28,7.28v45.4c0,4.02-3.26,7.28-7.28,7.28Z"/><path class="cls-1" d="M320.83,230.45c2.52,9.23,12.05,14.67,21.28,12.14,.98-.27,1.94-.62,2.86-1.06l43.18,43.88,6.68-31.29-42.03-36.87c-4.69-8.4-15.3-11.4-23.7-6.71-7.03,3.93-10.45,12.16-8.27,19.91h0Z"/><path class="cls-5" d="M546.39,184.63l-.27-.15-31.49-10.83c-8.09-2.78-16.98-1.96-24.41,2.27-1.71,.97-3.31,2.1-4.79,3.39h0c-4.93,4.26-8.33,10.03-9.68,16.41l-16.54,78.52-33.25-17.92-13.55-3.24-12.33-12.38-30.8-12.54-1.71,2.04-15.5,18.52-1.22,1.46,34.12,49.37,15.3,1.66,4.29,7.62,.3,.14,12.54,5.65,53.48,24.1,25.9-19.82,4.05-3.11c33.51-31.04,49.17-56.01,55.71-75.03,3.46-10.05,4.37-18.42,4.03-25.17-1.06-20.86-13.63-30.56-14.17-30.95Z"/><path class="cls-3" d="M575.99,203.76h-15c-43.35,0-78.5,35.15-78.5,78.5h0c-13.99,17.3-13.14,39.03,0,64.42l-43-17.92c-6.12-2.54-13.14,.37-15.68,6.49-2.53,6.1,.35,13.1,6.44,15.66l52.23,21.77v4.05c0,12.72,10.31,23.02,23.02,23.02h125.95c12.72,0,23.02-10.31,23.02-23.02,9.34-34.26,15.18-67.48,0-94.48,0-43.35-35.15-78.5-78.5-78.5Z"/><ellipse class="cls-3" cx="64.81" cy="26.2" rx="4.52" ry="4.62"/><ellipse class="cls-3" cx="80.42" cy="26.2" rx="4.52" ry="4.62"/><ellipse class="cls-3" cx="96.03" cy="26.2" rx="4.52" ry="4.62"/><path class="cls-3" d="M113.83,29.85c-.14,0-.28-.05-.38-.16l-3.05-3.12c-.2-.21-.2-.54,0-.75l3.05-3.12c.21-.21,.55-.21,.76,0,.21,.21,.21,.54,0,.76l-2.68,2.74,2.68,2.74c.21,.21,.2,.55,0,.76-.1,.1-.24,.15-.37,.15h0Z"/><path class="cls-3" d="M118.95,29.85c-.13,0-.27-.05-.37-.15-.21-.21-.21-.54,0-.76l2.68-2.74-2.68-2.74c-.21-.21-.2-.55,0-.76,.21-.21,.55-.2,.76,0l3.05,3.12c.2,.21,.2,.54,0,.75l-3.05,3.12c-.1,.11-.24,.16-.38,.16h0Z"/><path class="cls-3" d="M288.4,22.11h-5.67c-.65,0-1.17,.52-1.17,1.17v5.67c0,.65,.52,1.17,1.17,1.17h5.67c.65,0,1.18-.52,1.18-1.17v-5.67c0-.65-.53-1.17-1.18-1.17Z"/><path class="cls-3" d="M274.51,22.11h-5.67c-.65,0-1.17,.52-1.17,1.17v5.67c0,.65,.52,1.17,1.17,1.17h5.67c.65,0,1.18-.52,1.18-1.17v-5.67c0-.65-.53-1.17-1.18-1.17Z"/><path class="cls-3" d="M301.49,22.38h-5.67c-.65,0-1.17,.52-1.17,1.17v5.67c0,.65,.52,1.17,1.17,1.17h5.67c.65,0,1.18-.52,1.18-1.17v-5.67c0-.65-.53-1.17-1.18-1.17Z"/><path class="cls-3" d="M207.31,24.54h-49.93c-.79,0-1.43,.64-1.43,1.43s.64,1.43,1.43,1.43h49.93c.79,0,1.43-.64,1.43-1.43s-.64-1.43-1.43-1.43Z"/></g></svg>