<?xml version="1.0" encoding="UTF-8"?><svg id="Layer_2" xmlns="http://www.w3.org/2000/svg" viewBox="0 0 71.64 79.07"><defs><style>.cls-1{fill:none;}.cls-2{fill:#ffb8b8;}.cls-3{fill:#e05896;}.cls-4{fill:#2f2e41;}.cls-5{fill:#453de0;opacity:.08;}.cls-5,.cls-6{isolation:isolate;}.cls-6{opacity:.2;}.cls-7{fill:#fff;opacity:.49;}</style></defs><g id="idk"><circle class="cls-5" cx="35.82" cy="41.41" r="35.82"/><path class="cls-1" d="M50.2,78.24c.48-.61,1.12,.6,1.76,.15h-3.53c.72,.4,1.28-.81,1.77-.15Z"/><path class="cls-1" d="M61.81,78.39h-.61c.13,.09,.26,.18,.39,.28,.07-.1,.15-.19,.22-.28Z"/><path class="cls-2" d="M29.97,27.92s-5.97-1.86-5.05,1.2,5.94,1.51,5.94,1.51l-.89-2.71Z"/><path class="cls-4" d="M52.78,16.44s-3.06-4.18-6.03,.16c-2.98,4.35-5.75,7.92-5.75,7.92l-7.4,2.41-4.28,.38,1.18,3.8,12.44-1.8s13.85-8.23,9.83-12.87Z"/><path class="cls-2" d="M39.13,39.59s-4.65,3.25-4.34,6.2c.31,2.94,2.32,11,2.32,11l4.18-.62s.46-6.2-1.08-8.52l7.44-4.18-8.52-3.87Z"/><path class="cls-2" d="M49.43,47.25s-.31,5.73,.46,8.05c.77,2.32,1.55,11,1.55,11h4.34s2.01-7.59-.46-11c0,0-.77-4.49,1.39-6.66l-7.28-1.39Z"/><path class="cls-4" d="M48.42,31.38s-10.07,6.35-10.07,8.36l8.05,6.66,2.79-3.1-.31,4.65,8.67,1.7s3.1-11.77,2.94-12.24-.62-7.28-.62-7.28l-11.46,1.24Z"/><path class="cls-3" d="M41.3,55.39l-4.49,.93,.8,3.28c.39,1.61,.44,3.3,.13,4.93h0s4.65,1.24,4.65,.62-1.08-3.1-.77-4.8c.31-1.7-.31-4.96-.31-4.96Z"/><path class="cls-4" d="M43.62,67c-.15-.62-1.44-3.43-1.5-2.95s-2.53,1.25-3.46,.32c0,0-1.24-1.08-1.7,0s-1.39,2.94-1.39,2.94c0,0-4.18,2.01-3.56,3.1,.13,.22,.47,.31,.95,.32-.01,.03-.02,.06-.02,.09v.11c0,.14,.11,.25,.25,.25h.11c.14,0,.25-.11,.25-.25v-.11s0-.08-.03-.11c.13-.01,.26-.03,.39-.04-.04,.04-.06,.1-.06,.16v.11c0,.14,.11,.25,.25,.25h.11c.14,0,.25-.11,.25-.25v-.11c0-.09-.05-.18-.13-.22,.36-.06,.73-.14,1.1-.22-.02,.04-.04,.08-.04,.13v.11c0,.14,.11,.25,.25,.25h.11c.14,0,.25-.11,.25-.25v-.11c0-.1-.06-.19-.15-.23,.28-.07,.55-.14,.81-.21-.02,.04-.04,.08-.04,.13v.11c0,.14,.11,.25,.25,.25h.11c.14,0,.25-.11,.25-.25v-.11c0-.11-.07-.21-.18-.24,.91-.26,1.57-.48,1.57-.48,0,0,.77-.28,1.7-.66v.09c0,.14,.11,.25,.25,.25h.11c.14,0,.25-.11,.25-.25v-.11c0-.08-.04-.15-.1-.2,.19-.08,.38-.16,.56-.24v.09c0,.14,.11,.25,.25,.25h.11c.14,0,.25-.11,.25-.25v-.11c0-.08-.04-.16-.11-.21,.2-.09,.4-.19,.58-.28,0,0,0,.02,0,.02v.11c0,.14,.11,.25,.25,.25h.11c.14,0,.25-.11,.25-.25v-.11c0-.12-.09-.23-.2-.25,.43-.25,.71-.47,.67-.62Z"/><path class="cls-3" d="M56.09,65.61l-4.91-.31s.3,5.11-.3,6.82c-.59,1.7-.3,2.32-.3,2.32l4.31,.31,1.19-9.14Z"/><path class="cls-4" d="M56.15,76.91c-.02-.64-.7-3.65-.85-3.2s-2.74,.69-3.45-.41c0,0-.99-1.32-1.67-.36s-1.98,2.59-1.98,2.59c0,0-4.51,1.1-4.13,2.29,.08,.24,.4,.4,.86,.51-.02,.03-.03,.05-.04,.08l-.02,.11c-.03,.14,.06,.27,.2,.3l.11,.02c.14,.03,.27-.06,.3-.2l.02-.11s0-.08,0-.12c.13,.02,.26,.03,.39,.04-.04,.04-.08,.09-.09,.14l-.02,.11c-.03,.14,.06,.27,.2,.3l.11,.02c.14,.03,.27-.06,.3-.2l.02-.11c.02-.09-.01-.18-.08-.24,.36,.02,.74,.02,1.12,.01-.03,.03-.05,.08-.06,.12l-.02,.11c-.03,.14,.06,.27,.2,.3l.11,.02c.14,.03,.27-.06,.3-.2l.02-.11c.02-.1-.02-.2-.1-.26,.29,0,.57-.02,.83-.03-.03,.03-.05,.08-.06,.12l-.02,.11c-.03,.14,.06,.27,.2,.3l.11,.02c.14,.03,.27-.06,.3-.2l.02-.11c.02-.11-.03-.22-.12-.27,.94-.06,1.64-.14,1.64-.14,0,0,.81-.11,1.8-.29l-.02,.09c-.03,.14,.06,.27,.2,.3l.11,.02c.14,.03,.27-.06,.3-.2l.02-.11c.02-.08,0-.16-.05-.22,.2-.04,.4-.08,.6-.12l-.02,.09c-.03,.14,.06,.27,.2,.3l.11,.02c.14,.03,.27-.06,.3-.2l.02-.11c.02-.08,0-.17-.06-.23,.22-.05,.43-.1,.62-.15,0,0,0,.02,0,.02l-.02,.11c-.03,.14,.06,.27,.2,.3l.11,.02c.14,.03,.27-.06,.3-.2l.02-.11c.03-.12-.04-.24-.15-.29,.48-.16,.79-.32,.78-.47Z"/><circle class="cls-2" cx="48.42" cy="6.75" r="4.49"/><path class="cls-2" d="M52.45,6.28s2.48,3.1,3.72,2.94l-5.42,4.18s-.62-2.63-1.39-2.94,3.1-4.18,3.1-4.18Z"/><path class="cls-4" d="M62.13,29.29s0-17.09-2.87-18.57c-2.87-1.47-4.76-2.31-4.76-2.31h0c-.09,1.13-.65,2.18-1.55,2.88-.95,.73-1.9,1.34-2.43,1.34l-.02-.07-.06-.18-1.56,2.43s-1.39,.31-1.86,1.24c-.25,.5,.93,5.56,.23,10.15-.6,3.89-3.1,7.4-3.18,7.82-.12,.72,2.93-1.17,4.3-2.05,.02,.02,.03,.04,.03,.04,0,0-.77,.31,.77-.15,.88-.26,2.1-.28,3-.24,0,.27,0,.48,.02,.63,.15,1.55,7.9,3.72,8.98,3.25s.93-6.2,.93-6.2Z"/><path class="cls-2" d="M56.71,35.17s-4.65,4.18-1.55,4.96c3.1,.77,4.34-4.34,4.34-4.34l-2.79-.62Z"/><path class="cls-3" d="M51.29,46.02s2.17-2.01,3.41-.93,2.01,1.86,2.01,1.86c0,0-3.56-2.17-5.42-.93Z"/><path class="cls-4" d="M51.85,70.11s1.22-1.13,1.92-.52,1.14,1.05,1.14,1.05c0,0-2.01-1.22-3.06-.52Z"/><path class="cls-4" d="M38.16,59.55s.84-1.44,1.69-1.06,1.39,.67,1.39,.67c0,0-2.28-.58-3.08,.39Z"/><path class="cls-4" d="M60.96,12.85c-1.54-3.09-6.21-1.4-5.45,1.96,.01,.05,.02,.1,.04,.15,.8,3.18,2.11,6.22,3.87,8.98l-1.7,7.59-1.86,3.87,3.87,.93,4.8-11.62s-1.32-7.35-3.57-11.87Z"/><polygon class="cls-6" points="58.72 24.17 55.78 35.33 58.26 30.06 58.72 24.17"/><path class="cls-4" d="M51.24,1.51s-2.48-2.61-4.98-.97-3.69,3.25-3.44,4.36,.97,2.66,.97,2.66c0,0-.45-2.31,1.62-2.48s4.93-1.54,4.93-1.54l1.93,4.13s.27-.96,1.03-.68,.17-5.18-2.06-5.48Z"/><path class="cls-3" d="M35.33,60.58c0,.39-.03,.78-.1,1.17h0c-.65,3.8-4.25,6.35-8.05,5.7-.55-.09-1.08-.25-1.59-.47h0c-.29-.12-.56-.27-.83-.43-1.67-1.01-2.85-2.68-3.23-4.59-.09-.45-.13-.91-.13-1.38,0-.21,0-.42,.03-.63h0c.35-3.84,3.74-6.66,7.57-6.32,3.56,.32,6.29,3.28,6.34,6.85h0s0,.06,0,.1Z"/><path class="cls-7" d="M30.08,58.25h-3.12l-1.56-2.7,1.06-1.84,.06-.02c1.34-.36,2.76-.32,4.07,.11l.06,.02,.99,1.72-1.56,2.7Zm-2.94-.31h2.76l1.38-2.39-.84-1.46c-1.22-.39-2.53-.43-3.78-.11l-.91,1.57,1.38,2.39Z"/><path class="cls-7" d="M29.92,63.82h-3.12l-1.56-2.7,1.56-2.7h3.12l1.56,2.7-1.56,2.7Zm-2.94-.31h2.76l1.38-2.39-1.38-2.39h-2.76l-1.38,2.39,1.38,2.39Z"/><path class="cls-7" d="M28.36,67.7c-.97,0-1.94-.2-2.83-.59l-.16-.07,1.58-2.74h3.12l1.52,2.63-.15,.07c-.96,.46-2.01,.7-3.08,.7Zm-2.55-.8c1.72,.69,3.65,.65,5.34-.11l-1.26-2.18h-2.76l-1.32,2.29Z"/><path class="cls-7" d="M35.19,61.04h-3.12l-1.56-2.7,1.56-2.7h1.42l.05,.05c1.23,1.3,1.93,3.01,1.95,4.8v.04l-.3,.51Zm-2.94-.31h2.76l.16-.29c-.03-1.67-.68-3.28-1.82-4.5h-1.11l-1.38,2.39,1.38,2.39Z"/><path class="cls-7" d="M32.03,66.69l-1.52-2.63,1.56-2.7h3.12l.2,.35v.07c-.34,1.99-1.52,3.75-3.23,4.83l-.14,.09Zm-1.16-2.63l1.27,2.19c1.55-1.03,2.61-2.65,2.94-4.48l-.06-.11h-2.76l-1.38,2.39Z"/><path class="cls-7" d="M24.82,66.76l-.14-.08c-1.71-1.03-2.91-2.74-3.31-4.69v-.06l.31-.56h3.12l1.56,2.7-1.56,2.69Zm-3.13-4.78c.38,1.8,1.47,3.36,3.02,4.35l1.31-2.26-1.38-2.39h-2.76l-.18,.31Z"/><path class="cls-7" d="M24.81,60.73h-3.12l-.42-.73v-.04c.15-1.76,.95-3.39,2.24-4.59l.04-.04h1.26l1.56,2.7-1.56,2.7Zm-2.94-.31h2.76l1.38-2.39-1.38-2.39h-.96c-1.2,1.13-1.94,2.65-2.1,4.29l.29,.5Z"/></g></svg>