<?xml version="1.0" encoding="UTF-8"?><svg id="Layer_2" xmlns="http://www.w3.org/2000/svg" viewBox="0 0 122.8 129.22"><defs><style>.cls-1{fill:#050505;}.cls-2,.cls-3{fill:#f3c095;}.cls-4,.cls-5{fill:#f1eada;}.cls-6{fill:#4a2b30;}.cls-5{stroke:#050505;}.cls-5,.cls-3{stroke-miterlimit:10;}.cls-3{stroke:#000;}</style></defs><g id="Layer_2-2"><rect class="cls-3" x="61.63" y="43.16" width="41.14" height="33.52"/><rect class="cls-5" x="93.68" y="87.54" width="13.05" height="28.01"/><g><path class="cls-4" d="M79.04,67.45c-.6,.41-1.45,.2-2-.27s-.85-1.16-1.14-1.82l-4.33-9.82-2.47-7.29-23.03-1.9-1.22,1.67c-11.14,15.56-15.83,35.6-12.75,54.49,1.09,6.71,3.28,13.52,8,18.4,5.64,5.83,14.19,8.07,22.29,7.77,8.1-.29,15.43-2.67,23.14-5.19"/><path class="cls-1" d="M78.78,67.02c-1.09,.63-1.91-.73-2.3-1.55-.49-1.06-.95-2.14-1.42-3.22-.99-2.24-2.04-4.47-2.97-6.74-.69-1.7-1.2-3.5-1.79-5.24l-.73-2.16c-.08-.23-.25-.35-.48-.37l-16.47-1.36-4.34-.36c-.7-.06-1.46-.2-2.16-.18-.46,.02-.68,.49-.93,.83-.55,.75-1.1,1.5-1.63,2.27-1.76,2.57-3.35,5.26-4.77,8.04-5.6,11.02-8.43,23.43-8.12,35.79,.29,11.63,2.83,25.43,13.51,32.04,11.11,6.88,24.79,4.39,36.52,.74,1.65-.51,3.3-1.05,4.95-1.59,.61-.2,.35-1.16-.27-.96-8.68,2.84-17.66,5.73-26.91,5.11-7.94-.53-15.84-3.78-20.44-10.53-2.34-3.43-3.78-7.38-4.72-11.4s-1.45-8.29-1.61-12.47c-.32-8.38,.83-16.79,3.32-24.79s5.96-14.83,10.67-21.25l.79-1.08-.43,.25,7.79,.64,12.41,1.02,2.84,.23-.48-.37,1.94,5.7c1.14,3.36,2.73,6.56,4.16,9.81,.5,1.14,.91,2.5,1.77,3.43,.72,.78,1.86,1.1,2.81,.55,.56-.32,.05-1.19-.5-.86h0Z"/></g><g><path class="cls-6" d="M68.84,49.53l-11.97-.3c-3.35-.08-6.78-.18-9.92-1.35-2.82-1.05-5.29-2.92-8.15-3.83-4.07-1.29-8.73-.58-12.45-2.67-4.53-2.53-6.17-8.3-10.1-11.69-2.42-2.09-5.53-3.13-8.41-4.5s-5.77-3.32-6.88-6.31c-1.3-3.51,.31-7.61,3.12-10.08s6.57-3.57,10.28-4.09,7.47-.53,11.16-1.19c6.81-1.22,13.86-4.61,20.32-2.13,3.57,1.37,6.29,4.36,9.73,6.03,5.76,2.81,12.64,1.57,18.9,2.96,6.34,1.41,11.74,5.42,16.92,9.34,5.05,3.82,10.38,8.01,12.34,14.02,1.27,3.89,.92,8.28-.94,11.93l-4.22,4.83-29.71-.98Z"/><path d="M68.84,49.03c-4.37-.11-8.75-.2-13.12-.33-2.05-.06-4.11-.17-6.12-.59s-3.74-1.19-5.51-2.12c-1.65-.88-3.28-1.81-5.06-2.39s-3.55-.76-5.34-.95-3.61-.37-5.34-.94c-1.6-.52-2.98-1.43-4.14-2.63-2.18-2.23-3.59-5.07-5.51-7.51-1.01-1.29-2.18-2.42-3.54-3.33-1.57-1.05-3.3-1.8-5.02-2.56-3.12-1.37-6.63-2.95-8.31-6.11s-.61-6.83,1.56-9.36c2.38-2.78,6-4.1,9.5-4.76,4.14-.79,8.38-.7,12.53-1.42,3.92-.67,7.7-2.03,11.62-2.7,1.91-.33,3.89-.48,5.81-.21s3.65,.97,5.28,1.97c3.1,1.91,5.74,4.42,9.26,5.59s7.31,1.22,10.99,1.44c3.88,.24,7.59,.86,11.14,2.5s6.59,3.77,9.62,6.03c5.47,4.06,11.95,8.5,14.12,15.31,1.18,3.71,.78,7.53-.73,11.06-.24,.57-.76,1.02-1.17,1.49l-2.07,2.37-1.09,1.25,.35-.15-10.06-.33-15.97-.53-3.68-.12c-.64-.02-.64,.98,0,1l10.72,.35,16.24,.54,2.13,.07c.34,.01,.71,.09,.99-.15s.5-.57,.73-.84l1.36-1.55c.69-.79,1.46-1.56,2.1-2.4,.59-.79,.92-1.95,1.19-2.89,.35-1.19,.56-2.43,.63-3.67,.15-2.49-.3-4.98-1.27-7.27-1.86-4.36-5.41-7.71-9.05-10.62-3.93-3.14-7.99-6.3-12.41-8.72-2.21-1.21-4.55-2.22-7-2.83s-5.12-.81-7.7-.96-5.26-.25-7.84-.81-4.74-1.63-6.85-3.1-3.92-2.99-6.18-3.99S41.72-.14,39.17,.07c-5.47,.45-10.62,2.66-16.07,3.3s-10.83,.48-15.79,2.77C3.23,8.02-.25,11.98,.01,16.72s4.78,7.67,8.83,9.48c2.37,1.06,4.87,2.03,6.89,3.71,1.66,1.38,2.89,3.17,4.07,4.95s2.31,3.56,3.81,5.06c1.62,1.62,3.61,2.64,5.84,3.14,2.44,.54,4.95,.56,7.4,1.03,2.59,.5,4.8,1.76,7.11,2.97s4.84,2.04,7.52,2.37c2.85,.34,5.75,.32,8.62,.39l8.73,.22c.64,.02,.64-.98,0-1Z"/></g><g><path class="cls-4" d="M104.43,109.62c-.97,1.05-2.85,.59-3.72-.55s-1.01-2.64-1.12-4.07l-2.58-34.17-15.61-.41c-.73-.02-1.51-.02-2.1,.4-.76,.55-2.05,12.32-2.57,17.22-.59,5.57-1.18,11.2-.59,16.77,.59,5.57,2.46,11.17,6.22,15.32,3.31,3.65,8.04,6,12.95,6.33s9.95-1.43,13.52-4.83c3.33-3.17,5.26-7.51,6.83-11.83,3.44-9.42,5.59-19.32,6.38-29.31,.5-6.3,.42-12.84-2.03-18.66s-7.72-10.81-14.02-11.33l-12.75,20.01"/><path class="cls-1" d="M104.07,109.27c-.72,.72-1.89,.46-2.61-.13-.92-.76-1.17-2.08-1.29-3.2-.3-2.77-.43-5.57-.64-8.35l-1.29-17.09-.73-9.66c-.02-.28-.21-.49-.5-.5l-11.15-.29-2.73-.07c-.87-.02-1.77-.11-2.64-.03-.8,.07-1.57,.3-1.86,1.07-.52,1.38-.66,2.96-.88,4.4-.33,2.22-.61,4.45-.87,6.68-.67,5.73-1.44,11.52-1.49,17.3-.06,6.35,.99,12.96,4.52,18.38,3.26,5.01,8.63,8.47,14.6,9.12s12.07-1.71,15.96-6.26c2.01-2.35,3.44-5.11,4.61-7.95,1.31-3.16,2.39-6.43,3.34-9.72,1.96-6.72,3.27-13.62,3.94-20.58s.84-13.7-1.63-20.05c-1.95-5.03-5.78-9.53-10.91-11.46-1.24-.47-2.53-.74-3.84-.86-.18-.02-.34,.11-.43,.25l-4.29,6.74-6.88,10.81-1.57,2.47c-.35,.54,.52,1.05,.86,.5l4.29-6.74,6.88-10.81,1.57-2.47-.43,.25c5.35,.48,9.83,4.24,12.44,8.76,3.16,5.47,3.58,12.07,3.28,18.24-.33,6.69-1.37,13.37-2.95,19.88-.78,3.22-1.71,6.41-2.78,9.55-.99,2.92-2.06,5.84-3.54,8.55s-3.27,5.02-5.72,6.75-5.11,2.74-7.97,3.11c-5.75,.75-11.62-1.49-15.62-5.63-4.21-4.36-6.1-10.46-6.58-16.39s.28-12.26,.95-18.33c.45-4.06,.86-8.15,1.6-12.17,.11-.61,.22-1.23,.41-1.82,.06-.19,.05-.26,.15-.36-.13,.14,.38-.13,.48-.16,.41-.1,.84-.08,1.26-.07,3.47,.07,6.94,.18,10.41,.27l5.2,.14-.5-.5,1.42,18.82,.71,9.41,.36,4.7c.1,1.33,.12,2.72,.51,4,.36,1.16,1.05,2.18,2.2,2.66,1.04,.44,2.24,.36,3.07-.46,.46-.45-.25-1.16-.71-.71h0Z"/></g><path d="M53.92,81.72c-.07,3.77-.35,7.52-.5,11.29-.07,1.88-.11,3.76-.06,5.64,.04,1.68,.02,3.51,.47,5.15,.32,1.14,.95,2.12,1.79,2.95,.73,.72,1.61,1.64,2.65,1.86,2.69,.59,5.66-.64,8.07-1.7,3.05-1.34,6.14-3.12,9.56-3.14,.64,0,.64-1,0-1-2.8,.01-5.4,1.15-7.9,2.29s-5.18,2.52-8.01,2.64c-.54,.02-1.16,.06-1.69-.12s-.92-.59-1.32-.94c-.84-.74-1.62-1.55-2.02-2.62-.57-1.52-.53-3.29-.58-4.89-.06-1.8-.04-3.59,.02-5.39,.13-4.01,.45-8.01,.52-12.02,.01-.64-.99-.64-1,0h0Z"/><g><path class="cls-2" d="M99.63,100.29c1.75-.26,3.56,.42,4.88,1.6s2.18,2.8,2.68,4.5c.17,.57,.3,1.16,.22,1.75s-.38,1.17-.9,1.45c-.75,.41-1.72,.07-2.37-.49s-1.12-1.3-1.75-1.88-1.54-1-2.34-.69"/><path d="M99.63,100.79c2.79-.38,5.14,1.49,6.35,3.87,.3,.59,.54,1.22,.73,1.86,.2,.68,.38,1.48,.03,2.14s-1.03,.72-1.66,.44-1.08-.83-1.51-1.35c-.89-1.06-2.13-2.22-3.64-1.71-.61,.2-.35,1.17,.27,.96,1.62-.54,2.64,1.66,3.66,2.5,1.1,.9,2.82,1.15,3.68-.21s.2-3.12-.37-4.44c-.6-1.4-1.49-2.7-2.7-3.64-1.36-1.06-3.11-1.65-4.84-1.41-.63,.08-.64,1.09,0,1h0Z"/></g><g><path class="cls-4" d="M101.42,100.25l.05,6.07h-1.75l-.38-6.08,2.08,.02Z"/><path class="cls-1" d="M100.92,100.25l.05,6.07,.5-.5h-1.75l.5,.5-.33-5.32-.05-.77-.5,.5,2.08,.02c.64,0,.64-.99,0-1l-2.08-.02c-.26,0-.52,.23-.5,.5l.33,5.32,.05,.77c.02,.27,.22,.5,.5,.5h1.75c.27,0,.5-.23,.5-.5l-.05-6.07c0-.64-1-.64-1,0Z"/></g><g><path class="cls-2" d="M99.34,48.15c-8.7-3.3-16.59-10.8-19.62-19.6-5.08,1.31-9.17,5.57-10.71,10.58s-.66,10.62,1.95,15.17c1.28,2.23,3.01,4.28,5.28,5.51s5.1,1.57,7.43,.47l15.68-12.13Z"/><path d="M99.47,47.66c-6.8-2.6-12.82-7.55-16.64-13.75-1.07-1.74-1.96-3.58-2.63-5.51-.09-.26-.34-.42-.62-.35-5.7,1.51-10.09,6.45-11.39,12.15-1.41,6.21,.53,13.49,5.09,18,2.2,2.18,5.24,3.58,8.38,3.16,.81-.11,1.78-.3,2.44-.81,.27-.21,.55-.42,.82-.63l8.05-6.23,6.71-5.19c.51-.39-.2-1.1-.71-.71l-13.37,10.35c-.71,.55-1.41,1.21-2.18,1.69-.64,.4-1.55,.54-2.3,.6-1.61,.12-3.24-.28-4.65-1.05-2.69-1.47-4.59-4.1-5.87-6.82-1.36-2.89-2.02-6.13-1.84-9.32,.37-6.45,4.71-12.51,11.08-14.21l-.62-.35c2.49,7.16,7.83,13.18,14.23,17.12,1.82,1.12,3.74,2.07,5.74,2.83,.6,.23,.86-.74,.27-.96Z"/></g><path d="M78.35,40.53l-1.1,1.79c-.34,.56-.74,1.11-1.01,1.7-.25,.56-.32,1.15-.1,1.74s.62,1.09,1.03,1.56,1.13-.22,.71-.71c-.31-.36-.65-.75-.8-1.21-.16-.49,.03-.91,.28-1.33,.6-1.02,1.24-2.03,1.86-3.04,.34-.55-.53-1.05-.86-.5h0Z"/><path d="M74.01,40.68s.05,.03,.08,.05l-.1-.08s.06,.05,.09,.09l-.08-.1s.05,.07,.07,.11l-.05-.12s.03,.1,.04,.15l-.02-.13c0,.05,0,.1,0,.15l.02-.13s-.02,.09-.04,.14l.05-.12s-.03,.07-.06,.1l.08-.1s-.05,.06-.08,.08l.1-.08s-.06,.04-.1,.06l.12-.05s-.08,.03-.13,.03l.13-.02c-.05,0-.1,0-.15,0l.13,.02c-.05,0-.1-.02-.15-.04l.12,.05s-.08-.04-.11-.07l.1,.08s-.06-.05-.09-.08l.08,.1s-.04-.06-.06-.1l.05,.12s-.03-.08-.03-.12l.02,.13s0-.08,0-.12l-.02,.13c0-.05,.02-.1,.04-.15l-.05,.12s.04-.08,.07-.12l-.08,.1s.06-.07,.1-.1l-.1,.08s.07-.05,.11-.07l-.12,.05s.07-.03,.11-.03l-.13,.02s.03,0,.04,0c.13,0,.26-.05,.35-.15,.09-.09,.15-.23,.15-.35s-.05-.26-.15-.35-.22-.15-.35-.15c-.09,0-.19,.02-.28,.05-.11,.04-.2,.09-.29,.16s-.16,.14-.23,.24c-.06,.08-.09,.16-.13,.25-.07,.18-.07,.37-.03,.55,0,.03,.01,.05,.02,.07,.02,.06,.05,.13,.08,.18,.03,.05,.07,.1,.11,.15,.02,.02,.03,.04,.05,.05,.07,.06,.14,.12,.22,.15s.17,.08,.26,.1,.18,.03,.27,.03,.18-.01,.27-.04c.2-.06,.36-.17,.48-.33,.07-.09,.11-.17,.15-.28,.03-.09,.04-.18,.05-.27,.02-.19-.04-.39-.12-.56-.04-.08-.1-.16-.17-.23-.05-.05-.1-.09-.15-.13-.02-.02-.05-.03-.08-.05-.06-.04-.12-.06-.19-.06-.07-.01-.13-.01-.2,0-.12,.03-.24,.12-.3,.23-.06,.12-.09,.26-.05,.39,.04,.12,.11,.24,.23,.3h0Z"/><path d="M86.27,42.97c-.12-.13-.28-.22-.45-.27-.18-.05-.36-.05-.54-.01s-.33,.13-.47,.24c-.07,.06-.12,.13-.17,.21s-.08,.16-.11,.24c-.1,.36,.02,.74,.26,1.01,.06,.07,.13,.12,.21,.17s.16,.09,.25,.11c.06,.02,.13,.02,.2,.03,.03,0,.06,0,.09,0,.1,0,.2-.02,.29-.05,.12-.05,.21-.1,.31-.17s.17-.16,.25-.27c.06-.08,.1-.18,.13-.27,.02-.07,.03-.15,.04-.22,0-.03,0-.07,0-.1,0-.07-.01-.13-.04-.19-.02-.06-.05-.12-.1-.16-.09-.09-.23-.15-.35-.15s-.26,.05-.35,.15c-.08,.09-.16,.22-.15,.35,0,.04,0,.07,0,.11l.02-.13s-.02,.09-.03,.13l.05-.12s-.04,.09-.07,.13l.08-.1s-.07,.07-.1,.11l.1-.08s-.09,.06-.14,.08l.12-.05s-.08,.03-.13,.04l.13-.02s-.08,0-.12,0l.13,.02s-.08-.02-.12-.03l.12,.05s-.07-.04-.1-.06l.1,.08s-.07-.06-.1-.1l.08,.1s-.06-.09-.08-.13l.05,.12s-.03-.1-.04-.15l.02,.13s0-.09,0-.14l-.02,.13s.02-.09,.03-.13l-.05,.12s.04-.07,.06-.1l-.08,.1s.05-.06,.08-.08l-.1,.08s.07-.05,.11-.06l-.12,.05c.05-.02,.1-.04,.16-.04l-.13,.02c.05,0,.1,0,.15,0l-.13-.02c.05,0,.1,.02,.15,.04l-.12-.05s.07,.04,.1,.06l-.1-.08s.05,.04,.07,.06c.08,.09,.23,.15,.35,.15s.27-.05,.35-.15,.15-.22,.15-.35-.06-.25-.15-.35h0Z"/><path d="M85.07,50.63c-2.56,1.66-5.95,1.74-8.58,.2-.56-.33-1.06,.54-.5,.86,2.93,1.71,6.74,1.64,9.59-.2,.54-.35,.04-1.21-.5-.86h0Z"/><g><path class="cls-2" d="M103.42,46.55c.65-.45,1.62-.06,2.02,.61s.39,1.53,.28,2.31c-.55,4.04-2.98,7.55-5.54,10.71s-5.38,6.56-6.93,10.33h-13.4c-.54-1.77-.42-3.75,.35-5.44,.8-1.77,2.24-3.17,3.64-4.52l9.98-9.61c.49-.48,1.06-.98,1.74-.99,1.01-.01,1.71,1.13,1.63,2.13s-.71,1.87-1.33,2.67-1.26,1.64-1.39,2.64"/><path d="M103.67,46.98c.86-.52,1.53,.56,1.6,1.3,.09,.9-.13,1.84-.36,2.7-.47,1.79-1.3,3.45-2.29,5.01-1.98,3.15-4.57,5.85-6.72,8.88-1.23,1.73-2.31,3.55-3.13,5.51l.48-.37h-13.4l.48,.37c-.65-2.22-.23-4.5,1.07-6.4s3.13-3.39,4.75-4.95l5.34-5.15c.91-.88,1.82-1.77,2.74-2.64,.71-.67,1.71-1.21,2.28-.07s-.27,2.24-.9,3.09c-.69,.92-1.43,1.83-1.62,3-.1,.63,.86,.9,.96,.27,.37-2.26,3.24-3.7,2.67-6.21-.2-.87-.86-1.69-1.77-1.83-1.14-.18-2,.74-2.74,1.45l-6.32,6.09c-1.95,1.88-4.11,3.67-5.78,5.81-1.75,2.24-2.44,5.04-1.64,7.81,.06,.21,.26,.37,.48,.37h13.4c.24,0,.4-.16,.48-.37,1.69-4.05,4.64-7.36,7.33-10.77,2.46-3.11,4.8-6.65,5.2-10.7,.09-.95-.02-2.05-.77-2.74-.63-.59-1.57-.78-2.32-.32-.55,.33-.05,1.19,.5,.86h0Z"/></g><g><path class="cls-2" d="M100.44,47.79c.09-.49,.19-.99,.46-1.41s.76-.73,1.25-.65c.42,.07,.75,.42,.92,.82s.18,.83,.18,1.26c-.02,3.23-1.08,6.45-2.98,9.06"/><path d="M100.92,47.92c.1-.52,.19-1.16,.62-1.51,.61-.5,1.07,.15,1.16,.73,.17,1.08-.03,2.31-.23,3.37-.43,2.21-1.34,4.28-2.65,6.11-.38,.52,.49,1.02,.86,.5,1.76-2.45,2.81-5.36,3.02-8.37,.08-1.18,.16-3.02-1.27-3.47-1.52-.47-2.25,1.2-2.48,2.37-.12,.63,.84,.9,.96,.27h0Z"/></g><g><path class="cls-2" d="M97.68,56.86c1.32-1.72,2.35-3.66,3.04-5.72,.16-.48,.3-.97,.29-1.47s-.2-1.02-.6-1.32c-.58-.44-1.45-.3-2.05,.13s-.81,2.98-1.17,3.62l-1.07,2.16-1.05,1.65-.56,1.32"/><path d="M98.11,57.11c1.43-1.88,2.67-4.1,3.26-6.4,.25-1.01,.17-2.27-.82-2.87-.77-.46-1.99-.31-2.62,.35-.46,.48-.6,1.31-.74,1.93-.13,.57-.22,1.24-.45,1.73-.36,.78-.72,1.61-1.18,2.33-.31,.48-.67,.96-.94,1.46-.22,.42-.38,.89-.56,1.32-.25,.59,.61,1.1,.86,.5,.17-.41,.33-.83,.52-1.23,.16-.32,.37-.61,.57-.91,.46-.71,.82-1.42,1.2-2.18,.18-.35,.38-.71,.52-1.08,.23-.6,.32-1.26,.46-1.89,.11-.46,.19-1.19,.63-1.42,.36-.19,.85-.29,1.22-.06,.42,.27,.5,.84,.45,1.3-.07,.64-.34,1.28-.57,1.88-.21,.54-.44,1.06-.7,1.58-.56,1.11-1.22,2.16-1.97,3.15-.39,.51,.48,1.01,.86,.5h0Z"/></g></g></svg>