<?xml version="1.0" encoding="UTF-8"?><svg id="Layer_2" xmlns="http://www.w3.org/2000/svg" viewBox="0 0 330.54 314.09"><defs><style>.cls-1{fill:#f1f1f1;}.cls-2{fill:#ffb7b7;}.cls-3{fill:#e5e5e5;}.cls-4{fill:#e05896;}.cls-5{fill:#cbcbcb;}.cls-6{fill:#3f3d56;}.cls-7{fill:#2f2e41;}.cls-8{isolation:isolate;opacity:.2;}</style></defs><g id="text"><path class="cls-6" d="M293.54,284.44s.25-5.29,5.43-4.68"/><circle class="cls-4" cx="292.08" cy="276.81" r="2.59"/><rect class="cls-6" x="291.65" y="281.17" width=".73" height="5.12"/><path class="cls-3" d="M117.55,128.8c0,1.3-.04,2.58-.13,3.86-.47,7.35-2.33,14.55-5.47,21.21-.02,.06-.05,.11-.08,.16-.15,.31-.3,.62-.45,.92-.94,1.88-1.97,3.72-3.11,5.49-10.53,16.51-28.61,26.68-48.18,27.12l.58,33.42,7.58-3.99,1.35,2.57-8.88,4.67,1.09,62.07v.83l-5.85,1.3v-.83l1.86-100.05c-15.67-.22-30.6-6.72-41.45-18.04-.37-.38-.74-.78-1.09-1.17-.02-.02-.03-.03-.04-.04-4.47-4.88-8.09-10.48-10.7-16.57,.06,.07,.12,.13,.17,.19-12.25-28.64-.02-61.87,27.87-75.75,.2-.1,.41-.2,.61-.3,27.56-13.27,60.69-3.22,76.21,23.14,.36,.6,.7,1.22,1.04,1.83,4.65,8.58,7.08,18.18,7.07,27.94Z"/><circle class="cls-4" cx="109.64" cy="77.03" r="77.03"/><path class="cls-8" d="M52.76,25.58c-16.72,39.12,1.43,84.39,40.55,101.12,30.44,13.01,65.78,5.13,87.8-19.59-16.72,39.12-61.99,57.28-101.11,40.56-39.12-16.72-57.28-61.99-40.56-101.11,3.28-7.66,7.77-14.75,13.32-20.97Z"/><polygon class="cls-6" points="113.81 291.62 105.94 289.41 105.96 288.57 108.31 160.44 108.43 154.05 108.44 153.86 108.85 131.48 109.44 99.03 109.44 99.02 109.85 77.03 110.07 77.03 110.48 100.86 111.02 131.87 111.41 153.88 111.41 154.04 111.42 154.95 111.42 154.95 112.17 197.85 112.25 202.11 113.79 290.77 113.81 291.62"/><rect class="cls-6" x="109.43" y="195.75" width="14.39" height="3.81" transform="translate(-78.65 77.09) rotate(-27.77)"/><path class="cls-1" d="M261.82,277.31v-23.64s9.21,16.76,0,23.64Z"/><path class="cls-1" d="M262.39,277.3l-17.42-15.99s18.58,4.55,17.42,15.99Z"/><path class="cls-1" d="M81.79,283v-23.64s9.21,16.76,0,23.64Z"/><path class="cls-1" d="M82.36,282.99l-17.42-15.99s18.58,4.55,17.42,15.99Z"/><path class="cls-1" d="M144.37,300.06v-29.4s11.46,20.84,0,29.4Z"/><path class="cls-1" d="M145.08,300.06l-21.66-19.88s23.1,5.66,21.66,19.88Z"/><polygon class="cls-5" points="330.54 296.47 330.32 297.25 262.11 277.83 210.73 289.15 145.02 300.38 144.93 300.35 113.81 291.62 105.94 289.41 81.91 282.67 61.87 287.13 56.01 288.44 43.27 291.28 43.09 290.49 56.02 287.6 61.85 286.3 81.93 281.83 82.03 281.85 105.96 288.57 113.79 290.77 145.06 299.54 210.57 288.36 262.14 276.99 262.24 277.01 330.54 296.47"/><path class="cls-6" d="M208.52,49.35l5.2-4.16c-4.04-.45-5.7,1.76-6.38,3.5-3.16-1.31-6.59,.41-6.59,.41l10.4,3.78c-.52-1.4-1.44-2.63-2.63-3.53Z"/><path class="cls-6" d="M17.51,47.73l5.2-4.16c-4.04-.45-5.7,1.76-6.38,3.5-3.16-1.31-6.59,.41-6.59,.41l10.4,3.78c-.52-1.4-1.44-2.63-2.63-3.53Z"/><path class="cls-6" d="M197.14,126.98l5.2-4.16c-4.04-.45-5.7,1.76-6.38,3.5-3.16-1.31-6.59,.41-6.59,.41l10.4,3.78c-.52-1.4-1.44-2.63-2.63-3.53Z"/><polygon class="cls-2" points="161.82 305.85 165.8 307.33 173.38 292.7 167.52 290.52 161.82 305.85"/><path class="cls-7" d="M161.29,304.18l7.83,2.91h0c2.75,1.02,4.16,4.09,3.13,6.84l-.06,.16-12.81-4.76,1.91-5.15Z"/><polygon class="cls-2" points="200.93 309.98 205.17 309.98 207.19 293.62 200.93 293.62 200.93 309.98"/><path class="cls-7" d="M200.2,308.59h8.35c2.94,0,5.32,2.38,5.32,5.32v.17h-13.67v-5.49Z"/><path class="cls-7" d="M181.52,196.56l1.38-2.77,11.76,5.88-.35,2.42,2.25,2.94s3.8,2.07,3.11,8.99l-.69,6.57-.86,8.47,6.05,20.92,3.11,27.67,2.25,22.31-10.89-.52-10.03-36.31-17.64,39.08-12.1-3.11,16.6-38.73,2.07-16.25s-1.38-8.65,5.19-14.52l-1.04-3.11v-3.84l-3.46-18.3,3.29-7.78Z"/><rect class="cls-8" x="184.61" y="235.63" width=".41" height="28.03" transform="translate(-60.83 59.54) rotate(-15.75)"/><rect class="cls-6" x="181.87" y="229.07" width="16.95" height="1.73"/><ellipse class="cls-6" cx="198.81" cy="230.11" rx=".69" ry="1.73"/><circle class="cls-2" cx="191.17" cy="184" r="9.22" transform="translate(-61.98 263.49) rotate(-61.34)"/><circle class="cls-7" cx="177.07" cy="172.56" r="8.15"/><path class="cls-7" d="M166.72,171.68c-1.29,4.32,1.17,8.86,5.49,10.14s8.86-1.17,10.14-5.49c.13-.43,.22-.87,.28-1.31-1.29,4.32-5.83,6.77-10.14,5.49-3.82-1.14-6.26-4.87-5.76-8.83Z"/><path class="cls-7" d="M198.94,181.44c.6,5.29-3.2,10.07-8.49,10.67-5.29,.6-10.07-3.2-10.67-8.49-.6-5.29,3.2-10.07,8.49-10.67,1.67-.19,3.37,.06,4.91,.73,1.61-1.3,3.61-.9,5.23,.47,1.84,1.55,2.38,2.61,3.8,5.16-1.4,.2-1.88,1.93-3.28,2.12Z"/><path class="cls-4" d="M165.05,209.16c.1,2.73,.31,8.11,.31,8.38,0,.29,4.08,8.73,5.84,12.36h0c.13,.26,.24,.49,.34,.69,.28,.58,.87,.94,1.5,.92l7.7-.14c.88-.01,1.59-.72,1.61-1.6l.86-33.86c.01-.46-.35-.85-.82-.86h-9.95c-.86,0-1.64,.49-2.01,1.26l-4.76,9.86c-.45,.93-.66,1.95-.62,2.97h0Z"/><path class="cls-4" d="M182.48,227.47c1.97-1.2,3.75-2.7,5.26-4.44,3.51-3.94,5.64-8.92,6.08-14.18,.39-4.5-.5-7.84-2.65-9.94-2.74-2.67-6.46-2.28-6.62-2.26l-.17,.02-2.52,2.13,.71,.84,2.26-1.91c.69-.03,3.51-.04,5.57,1.97,1.9,1.86,2.68,4.9,2.32,9.05-.42,5.01-2.44,9.75-5.77,13.51-1.44,1.66-3.12,3.09-4.99,4.24l.53,.97Z"/><rect class="cls-6" x="174.66" y="209.3" width=".37" height="13.73" transform="translate(-72.08 343.95) rotate(-78.39)"/><rect class="cls-6" x="166.06" y="205.59" width="21.42" height=".37" transform="translate(-36.04 374) rotate(-87.66)"/><path class="cls-6" d="M165.05,209.16c.1,2.73,.31,8.11,.31,8.38,0,.29,4.08,8.73,5.84,12.36l-3.28-19.06c-.26-1.49-1.3-2.73-2.73-3.24-.11,.51-.16,1.03-.13,1.55Z"/><path class="cls-2" d="M185.22,249.11c-1.1-1.41-.84-3.45,.57-4.55,.15-.12,.31-.22,.48-.31l-.67-7.38,4.39-1.5,.8,10.44c.73,1.65-.01,3.57-1.66,4.3-1.38,.61-2.99,.2-3.91-1h0Z"/><path class="cls-5" d="M182.35,204.57c-.18-2.31,1.23-4.44,3.42-5.18,.94-.31,1.95-.31,2.89,0,2.06,.7,3.44,2.64,3.43,4.82l.33,37.48-7.77,.28-2.3-37.4Z"/></g></svg>