<?xml version="1.0" encoding="UTF-8"?><svg id="Layer_2" xmlns="http://www.w3.org/2000/svg" viewBox="0 0 268.55 151.34"><defs><style>.cls-1{fill:#fff;}.cls-2{fill:#f9e9e3;}.cls-3{fill:#fbefea;}</style></defs><g id="clouds"><g><path class="cls-2" d="M28.41,121.92c5.37,6.33,13.34,10.36,22.13,10.66-.67-.86-1.3-1.74-1.88-2.67-7.75-.1-14.89-3.09-20.26-7.98Z"/><path class="cls-2" d="M266.55,59.83c-.62-3.72-1.83-7.21-3.29-10.41-.73-1.6-1.53-3.12-2.36-4.56-.94-1.45-2.07-2.81-3.22-4.08,.4,.6,.78,1.22,1.15,1.85,.69,1.07,1.34,2.18,1.92,3.33,.56,1.15,.98,2.33,1.42,3.55,.85,2.44,1.53,5.03,1.91,7.75,.64,4.6,.34,9.15-1.19,13.33-1.49,4.16-4.07,8.05-7.39,11.23,1.39,2.71,2.29,5.69,2.55,8.85,.3,3.6-.26,7.1-1.58,10.35-1.32,3.25-3.42,6.25-6,8.77-2.61,2.54-5.81,4.67-9.33,6.18-3.56,1.53-7.46,2.45-11.59,2.63-4.78,.22-9.29-.6-13.33-2.18-3.63,2.97-8.46,4.89-13.78,5.05-6.69,.22-12.72-2.35-16.73-6.5-1.05,1.12-2.34,2.05-3.8,2.75-2.86,11.94-14.64,21.07-29.39,21.22-1.78,.01-3.52-.1-5.22-.33-.82-.11-1.74-.26-2.62-.44-.88-.18-1.75-.38-2.6-.61-5.35,2.82-11.91,4.3-18.19,4.06-.56-.02-1.12-.06-1.66-.1-3.23,2.24-6.79,3.99-10.33,5.17-3.57,1.17-7.02,1.82-10.76,1.75-5.88-.07-11.43-1.81-16.26-4.78-2.58,.79-5.31,1.27-8.14,1.35-9.17,.3-17.61-3.39-23.69-9.53,6.06,7.78,15.53,12.62,25.9,12.34,2.82-.07,5.53-.55,8.09-1.32,4.79,2.97,10.28,4.75,16.09,4.85,1.85,.04,3.63-.11,5.43-.4,1.81-.29,3.62-.73,5.45-1.31,3.64-1.17,7.3-2.92,10.61-5.16,.56,.05,1.13,.08,1.71,.1,3.23,.11,6.51-.21,9.67-.91,1.58-.36,3.13-.81,4.63-1.35,1.47-.55,2.85-1.18,4.17-1.88,1.77,.46,3.34,.8,5.07,1.03,1.71,.23,3.46,.34,5.18,.32,14.72-.17,26.51-9.32,29.36-21.25,1.46-.69,2.75-1.63,3.8-2.75,4.02,4.15,10.06,6.71,16.76,6.49,5.34-.18,10.16-2.07,13.81-5.07,4.05,1.58,8.57,2.4,13.38,2.16,4.12-.18,8.09-1.14,11.64-2.65,3.55-1.52,6.8-3.67,9.39-6.2,5.38-5.15,8.28-11.96,7.65-19.18-.28-3.16-1.26-6.1-2.66-8.82,1.67-1.61,3.19-3.42,4.43-5.31,.62-.95,1.19-1.92,1.68-2.92,.51-1.01,.95-2.06,1.31-3.12,1.46-4.23,1.7-8.73,.93-13.32Z"/><path class="cls-2" d="M84.58,27.2l.49-.35c-.63-.78-1.31-1.53-2.06-2.23,.16,.26,.32,.52,.47,.79,.4,.58,.77,1.17,1.1,1.79Z"/><path class="cls-3" d="M23.69,52.39c.12-6.42,5.76-12.03,13.33-12.95-.08-.48-.15-.97-.19-1.47-.49-5.87,1.88-11.38,6.2-15.58,4.32-4.17,10.59-6.97,17.68-7.31,9.72-.48,18.35,3.8,22.78,10.32-.15-.27-.31-.53-.47-.79-4.31-6.86-13.2-11.44-23.25-10.93-7.11,.36-13.39,3.15-17.71,7.34-4.33,4.19-6.69,9.72-6.2,15.59,.04,.5,.11,.98,.19,1.47-3.78,.47-7.1,2.09-9.47,4.43-2.37,2.32-3.8,5.32-3.87,8.54-7.51,2.47-13.72,7.18-17.7,12.99-3.99,5.85-5.75,12.8-4.68,19.93,.77,5.15,2.91,9.8,5.94,13.71-2.51-3.63-4.27-7.82-4.95-12.41-1.05-7.12,.7-14.09,4.69-19.92,3.98-5.82,10.17-10.49,17.67-12.97Z"/><path class="cls-3" d="M217.87,23.42c2.87,.93,5.48,2.4,7.65,4.27,.88-.1,1.77-.19,2.67-.23,13.25-.61,24.64,5.57,30.64,15.17-.37-.63-.75-1.25-1.15-1.85-6.09-9.34-17.3-15.31-30.33-14.72-.9,.04-1.79,.13-2.67,.23-1.73-1.5-3.76-2.74-5.96-3.65-.45-.19-.9-.36-1.37-.52,.18,.43,.35,.86,.51,1.29Z"/><path class="cls-3" d="M85.31,28.72c2.38-1.85,5.57-2.98,9.09-2.99,2.89-.02,5.6,.78,7.79,2.07,4.44-3.22,10.62-5.09,16.75-4.84,3.32,.13,6.3,.83,8.91,1.98,1.06-.47,2.13-.87,3.23-1.19,2.73-4.39,6.46-8.02,10.47-10.62,3.99-2.61,9.3-4.15,15.15-4.23,1.66-.02,3.33,.08,4.95,.3,5.91-4.66,13.56-7.58,21.94-7.78,13.37-.33,25.13,6.2,31.4,16.2-.36-.64-.74-1.27-1.14-1.88C207.53,6.02,195.95-.31,182.8,.01c-8.39,.2-16.02,3.11-21.93,7.77-1.63-.21-3.28-.32-4.94-.3-1.45,.02-2.88,.13-4.27,.33-1.36,.19-2.68,.47-3.97,.83-.64,.18-1.3,.39-1.89,.6-.57,.22-1.14,.45-1.69,.71-1.11,.51-2.2,1.1-3.19,1.74-4.03,2.59-7.77,6.22-10.52,10.6-1.1,.32-2.19,.72-3.25,1.19-2.63-1.16-5.65-1.86-8.98-1.99-3.08-.11-6.18,.28-9.07,1.13-2.88,.85-5.52,2.1-7.75,3.74-2.21-1.29-4.92-2.08-7.81-2.06-3.23,0-6.17,.96-8.47,2.54l-.49,.35c.27,.5,.51,1.01,.73,1.53Z"/><path class="cls-1" d="M76.76,145c2.84-.09,5.56-.56,8.14-1.35,4.82,2.97,10.38,4.71,16.26,4.78,3.74,.07,7.19-.58,10.76-1.75,3.53-1.18,7.1-2.93,10.33-5.17,.53,.05,1.1,.08,1.66,.1,6.27,.24,12.84-1.24,18.19-4.06,.85,.23,1.72,.43,2.6,.61,.88,.18,1.8,.33,2.62,.44,1.7,.23,3.44,.34,5.22,.33,14.76-.15,26.53-9.28,29.39-21.22,1.46-.7,2.75-1.63,3.8-2.75,4.01,4.15,10.04,6.72,16.73,6.5,5.32-.15,10.15-2.07,13.78-5.05,4.04,1.58,8.55,2.41,13.33,2.18,4.12-.19,8.03-1.1,11.59-2.63,3.52-1.5,6.72-3.63,9.33-6.18,2.58-2.53,4.68-5.53,6-8.77,1.32-3.25,1.88-6.74,1.58-10.35-.26-3.16-1.17-6.13-2.55-8.85,3.32-3.19,5.9-7.08,7.39-11.23,1.53-4.18,1.83-8.73,1.19-13.33-.38-2.71-1.06-5.3-1.91-7.75-.44-1.22-.87-2.4-1.42-3.55-.59-1.15-1.23-2.26-1.92-3.33-6-9.6-17.39-15.78-30.64-15.17-.9,.04-1.79,.13-2.67,.23-2.17-1.87-4.78-3.34-7.65-4.27-.16-.43-.33-.86-.51-1.29-.66-1.57-1.45-3.07-2.35-4.51-6.27-9.99-18.03-16.52-31.4-16.2-8.39,.2-16.04,3.12-21.94,7.78-1.62-.22-3.29-.31-4.95-.3-5.85,.08-11.16,1.62-15.15,4.23-4.01,2.6-7.74,6.23-10.47,10.62-1.1,.32-2.18,.72-3.23,1.19-2.61-1.15-5.6-1.86-8.91-1.98-6.12-.25-12.3,1.62-16.75,4.84-2.2-1.28-4.9-2.08-7.79-2.07-3.52,0-6.71,1.13-9.09,2.99-.22-.52-.46-1.03-.73-1.53-.33-.61-.7-1.21-1.1-1.79-4.43-6.52-13.06-10.8-22.78-10.32-7.1,.34-13.37,3.14-17.68,7.31-4.32,4.19-6.69,9.71-6.2,15.58,.04,.5,.11,.98,.19,1.47-7.57,.92-13.21,6.53-13.33,12.95-7.5,2.48-13.7,7.15-17.67,12.97-3.99,5.83-5.75,12.8-4.69,19.92,.68,4.59,2.44,8.78,4.95,12.41,1.6,2.31,3.49,4.39,5.63,6.23,2.34,2,4.97,3.65,7.81,4.97l.57,.27c.75,2.47,1.84,4.79,3.19,6.91,1.38,2.15,3.04,4.14,4.93,5.85,5.37,4.89,12.5,7.88,20.26,7.98,.58,.93,1.21,1.82,1.88,2.67,.78,1.01,1.63,1.97,2.53,2.89,6.08,6.14,14.52,9.83,23.69,9.53Z"/></g></g></svg>