<?xml version="1.0" encoding="UTF-8"?><svg id="Layer_2" xmlns="http://www.w3.org/2000/svg" viewBox="0 0 476.31 310.33"><defs><style>.cls-1{fill:#fff;}.cls-2{fill:#f9e9e3;}.cls-3{fill:#fbefea;}</style></defs><g id="clouds"><g><path class="cls-2" d="M37.61,230.21c1.58,3.52,3.4,6.79,5.42,9.76,.51,.74,1.02,1.46,1.55,2.16,.56,.72,1.14,1.43,1.73,2.11,1.18,1.37,2.41,2.65,3.69,3.85,1.28,1.19,2.61,2.3,3.98,3.31,1.41,1.03,2.96,2.01,4.5,2.86,3.14,1.72,6.33,2.98,10.1,3.94-.81-1.92-1.56-3.87-2.2-5.89-6.25-1.37-11.99-4.21-16.65-7.91-4.88-3.84-8.76-8.53-12.12-14.17Z"/><path class="cls-2" d="M473.14,166.48c1.23-3.53,2.12-7.11,2.63-10.7,.53-3.59,.62-7.23,.49-10.78-.35-7.16-1.9-14.15-4.57-20.73,.33,1.43,.6,2.88,.82,4.33,2.05,10.07,1.61,20.72-1.84,31.03-2.94,8.76-7.62,16.46-13.35,22.95-5.74,6.49-12.57,11.76-20.07,15.58,.26,5.91-.51,11.99-2.37,18-4.26,13.71-13.31,24.5-24.4,31.01-11.1,6.51-24.28,8.75-37.01,5.28-7.37-2.01-13.77-5.7-19.04-10.6-7.17,4.02-15.37,5.54-23.15,3.79-4.84-1.06-9.1-3.36-12.44-6.44-.83-.77-1.69-1.63-2.4-2.49-.36-.43-.72-.88-1.06-1.35l-.51-.7c-.12-.23-.21-.46-.31-.69-.43-.95-.68-1.9-.99-2.91-.29-1.01-.57-2.08-.83-3.2-1.18,1.98-2.44,3.66-3.69,4.79-1.15,5.84-2.5,11.17-3.79,16.09-1.12,4.11-2.29,8.44-3.52,13-1.02,3.76-1.94,6.91-2.67,9l-.11,.38s-.08,.07-.15,.11l-.21,.12-.43,.23c-.56,.3-1.17,.6-1.79,.88-1.24,.57-2.5,1.07-3.8,1.52-2.71,.92-5.5,1.61-8.62,2.06-5.83,.85-11.93,.74-18.12-.25-4.11,3.4-9.12,6.29-14.78,8.49-5.77,2.18-12.15,3.7-19.32,4.25-1.27,.1-2.5,.18-3.78,.21-6.95,5.2-15.81,9.41-25.39,12.08-2.41,.69-4.88,1.29-7.41,1.82-1.28,.28-2.5,.47-3.73,.66-1.24,.19-2.49,.35-3.74,.49-2.52,.29-5.08,.48-7.67,.59-1.3,.05-2.6,.08-3.92,.09-1.32,.01-2.53-.06-3.81-.12-3.98-.21-7.88-.66-11.67-1.31-.94-.16-1.9-.33-2.81-.53-.89-.2-1.77-.42-2.64-.65-1.75-.46-3.46-.96-5.15-1.52-1.68-.55-3.34-1.15-4.95-1.79-1.6-.64-3.24-1.32-4.66-2.07-2.92-1.49-5.7-3.15-8.32-4.95-1.55,.21-3.12,.37-4.71,.48-1.58,.11-3.04,.16-4.59,.18-3.06,.02-6.16-.16-9.29-.54-.63-.08-1.28-.16-1.87-.26l-1.76-.3c-1.17-.22-2.32-.46-3.46-.74-2.28-.55-4.51-1.22-6.67-2-.54-.19-1.09-.4-1.6-.6-.5-.21-1-.43-1.49-.64-.99-.44-1.96-.9-2.91-1.39-1.91-.98-3.75-2.06-5.53-3.23-.87-.58-1.79-1.2-2.58-1.82-.8-.62-1.58-1.27-2.34-1.93-1.53-1.33-2.98-2.75-4.36-4.25-1.38-1.5-2.7-3.08-3.91-4.72-1.15-1.62-2.22-3.32-3.22-5.08,.92,2.16,1.94,4.25,3.07,6.25,1.2,2.02,2.53,3.97,3.95,5.81,1.42,1.85,2.95,3.6,4.56,5.25,.82,.83,1.62,1.62,2.52,2.4,.92,.78,1.86,1.54,2.83,2.26,1.93,1.45,3.96,2.78,6.07,3.99,1.07,.6,2.11,1.17,3.25,1.72,1.17,.55,2.37,1.06,3.59,1.53,2.43,.96,4.95,1.77,7.54,2.44,.65,.17,1.3,.32,1.96,.47,.69,.15,1.4,.29,2.1,.41,1.41,.26,2.85,.47,4.29,.65,3.17,.38,6.21,.56,9.39,.53,3.25-.04,6.44-.28,9.57-.69,1.32,.9,2.69,1.76,4.09,2.59,1.38,.83,2.98,1.58,4.52,2.31,3.12,1.45,6.4,2.74,9.8,3.84,.85,.28,1.71,.54,2.58,.79,.89,.24,1.83,.46,2.76,.68,1.86,.42,3.75,.8,5.67,1.12s3.86,.59,5.83,.81c.98,.11,1.97,.2,2.97,.28,1,.08,2.08,.11,3.13,.14,5.37,.14,10.63-.09,15.71-.68,5.29-.72,10.42-1.8,15.28-3.19,4.83-1.35,9.56-3.22,13.81-5.3,2.11-1.06,4.14-2.18,6.08-3.37,1.92-1.19,3.7-2.46,5.43-3.78,1.25-.05,2.56-.12,3.78-.24,14.03-1.3,25.43-6.15,33.4-12.94,6.03,.98,11.95,1.11,17.61,.29,1.46-.21,2.9-.49,4.31-.83,1.36-.33,2.66-.72,3.95-1.17,.64-.22,1.29-.47,1.87-.71,.29-.12,.62-.25,.87-.38l.07-.29c.06-.41,.3-.88,.45-1.39,.67-2.15,1.42-5.21,2.39-8.89,1.21-4.51,2.36-8.78,3.45-12.85,1.3-4.87,2.72-10.21,3.98-16,1.2-1.16,2.4-2.74,3.58-4.78,.09,.55,.23,1.1,.37,1.64,.17,.54,.22,1.05,.55,1.6,.55,1.07,1.14,2.09,1.77,3.07,1.35,2,2.82,3.76,4.53,5.34,1.74,1.6,3.59,2.91,5.71,4.05,1.05,.56,2.14,1.04,3.26,1.46,1.15,.43,2.34,.79,3.56,1.07,7.8,1.79,16.01,.31,23.18-3.69,5.24,4.91,11.64,8.64,18.98,10.66,25.36,6.97,52.62-8.81,61.29-36.18,1.88-6,2.68-12.07,2.45-17.99,7.48-3.81,14.28-9.07,20.03-15.53,5.72-6.47,10.54-14.08,13.61-22.81Z"/><path class="cls-2" d="M159.43,61.99c.25-.21,.51-.4,.76-.6-.7-1.65-1.48-3.24-2.34-4.75,.16,.54,.32,1.09,.46,1.63,.41,1.21,.8,2.45,1.11,3.72Z"/><path class="cls-3" d="M49.94,92.47c.57-3.14,1.77-6.06,3.49-8.68,.86-1.31,1.85-2.54,2.96-3.68,1.1-1.14,2.28-2.15,3.58-3.08,5.13-3.69,12.02-5.79,18.89-5.28,.03-.97,.09-1.95,.19-2.93,.62-5.8,2.49-11.19,5.41-15.96,1.46-2.38,3.18-4.61,5.13-6.66,1.88-2.03,3.97-3.89,6.24-5.53,2.27-1.65,4.73-3.09,7.33-4.29,.65-.3,1.31-.59,1.98-.86,.65-.27,1.29-.53,1.94-.77,1.31-.48,2.64-.91,4-1.27,2.72-.72,5.54-1.18,8.43-1.37,2.74-.2,5.53-.12,8.35,.26,.97,.13,1.92,.29,2.86,.49,.94,.2,1.88,.43,2.72,.67,1.72,.5,3.39,1.12,4.99,1.85,1.61,.73,3.15,1.58,4.63,2.53,.75,.48,1.45,.97,2.1,1.48,.66,.51,1.31,1.05,1.94,1.61,2.52,2.25,4.77,4.88,6.69,7.8,1.89,2.91,3.34,6.07,4.51,9.49-.15-.55-.3-1.1-.46-1.63-4.31-14.26-15.08-25.15-30.98-27.3-1.41-.19-2.81-.3-4.21-.35-1.4-.04-2.74,0-4.22,.08-2.89,.19-5.71,.65-8.44,1.37-1.36,.36-2.7,.78-4,1.27-1.35,.48-2.71,1.03-4,1.64-2.61,1.21-5.06,2.65-7.34,4.29-4.48,3.28-8.55,7.44-11.44,12.21-2.92,4.77-4.78,10.16-5.39,15.96-.1,.98-.16,1.96-.19,2.94-1.75-.12-3.47-.08-5.14,.09-1.73,.2-3.42,.54-5.05,1-3.25,.93-6.23,2.36-8.82,4.21-5.25,3.75-8.98,9.22-10.08,15.49-7.35,1.14-14.55,3.82-20.75,7.28-3.12,1.75-6.11,3.89-8.79,6.14-2.69,2.27-5.12,4.73-7.28,7.37C3,121.23-.86,134.64,.33,148.88c.84,10.31,4.08,19.88,8.46,28.19-3.58-7.65-6.17-16.24-6.87-25.42-.54-7.13,.13-14.04,2.05-20.54,1.91-6.47,5.1-12.63,9.41-17.97,2.14-2.63,4.57-5.1,7.25-7.36,2.67-2.25,5.64-4.39,8.72-6.08,3.1-1.74,6.41-3.25,9.89-4.5,1.76-.65,3.49-1.15,5.27-1.59,1.78-.45,3.6-.82,5.44-1.13Z"/><path class="cls-3" d="M409.3,65.61c4.83,3.41,8.78,7.7,11.66,12.55,1.69,.33,3.37,.71,5.06,1.17,24.69,6.81,41.84,26.5,46.48,49.27-.22-1.45-.49-2.9-.82-4.33-4.99-22.24-22.01-41.39-46.35-48.07-1.69-.46-3.37-.84-5.07-1.17-2.31-3.88-5.32-7.39-8.92-10.39-.73-.61-1.48-1.2-2.27-1.76,.09,.91,.17,1.83,.22,2.74Z"/><path class="cls-3" d="M160.11,65.13c3.86-3.16,8.2-5.05,12.83-4.65,.94,.07,1.91,.27,2.75,.49,.85,.22,1.68,.53,2.48,.92,1.6,.78,3.08,1.86,4.41,3.21,.74-.77,1.5-1.5,2.27-2.19,.78-.68,1.51-1.39,2.28-2.01,1.54-1.26,3.14-2.33,4.79-3.19,.83-.43,1.66-.81,2.51-1.13,.86-.32,1.63-.67,2.46-.91,1.64-.51,3.33-.78,5.06-.8,1.88,.02,3.67,.17,5.44,.66,.9,.22,1.83,.5,2.72,.85,.9,.35,1.79,.76,2.72,1.2,1.3-1.13,2.59-2.07,4.07-2.95,2.73-9.16,7.09-17.14,13.44-23.25,6.39-6.11,15.06-10.46,26.45-12.1,1.67-.24,3.32-.41,4.97-.52,.89-.05,1.78-.09,2.67-.14,1.44-.11,2.89-.2,4.29-.26,2.41-1.46,4.94-2.88,7.59-4.23,2.65-1.35,5.42-2.66,8.31-3.78,1.44-.57,2.91-1.12,4.41-1.66,.75-.26,1.51-.52,2.26-.78l.57-.19,.14-.05,.07-.02h.04l.02-.02s0-.09,.02,.08l.29-.09,1.16-.35c1.55-.46,3.12-.92,4.72-1.32,1.6-.36,3.22-.7,4.86-1.01,13.14-2.46,27.65-2.4,42.49-.09,1.48,.23,2.94,.48,4.4,.74l2.18,.41,2.01,.43,1,.22,.81,.19,1.5,.38c.98,.26,2,.53,2.93,.82,3.68,1.14,7.32,2.47,10.52,3.97,6.58,3,12.12,6.68,16.98,10.86,9.62,8.38,16.05,18.82,19.2,30.1-.32-1.42-.68-2.83-1.1-4.23-3.36-11.04-9.89-21.23-19.56-29.41-1.21-1.02-2.47-2.01-3.76-2.97-1.31-.96-2.7-1.88-4.11-2.77-2.78-1.78-5.9-3.4-9.14-4.87-1.58-.73-3.37-1.42-5.12-2.07-1.79-.65-3.49-1.25-5.48-1.81-.97-.28-1.94-.54-2.93-.8l-1.95-.46c-.66-.15-1.3-.29-2.04-.44-2.86-.58-5.76-1.09-8.69-1.53-3.75-.57-7.48-.95-11.17-1.24C328.48,.09,324.83,0,321.23,0c-7.2,.13-14.16,.75-20.79,2.09-3.31,.55-6.52,1.64-9.65,2.41-3.11,.99-6.13,2.08-9.03,3.23-2.9,1.2-5.69,2.52-8.36,3.88-2.69,1.37-5.17,2.78-7.7,4.27l-2.05,.11-1.28,.03c-.87,.03-1.66,.06-2.5,.12-1.64,.11-3.34,.28-4.95,.52-2.77,.4-5.51,.99-7.94,1.71-2.54,.74-4.78,1.61-6.99,2.64-1.12,.52-2.09,1.05-3.11,1.63-.99,.57-2.02,1.2-2.91,1.83-1.79,1.27-3.61,2.71-5.12,4.21-6.26,6.09-10.48,14.02-13.23,23.2-1.4,.83-2.71,1.8-3.99,2.93-.88-.46-1.75-.88-2.64-1.22-.89-.34-1.79-.62-2.65-.87-.87-.24-1.75-.4-2.64-.5-.9-.13-1.82-.2-2.74-.19-1.71,.02-3.37,.3-4.99,.81-.79,.27-1.64,.54-2.49,.86-.84,.32-1.67,.7-2.49,1.13-1.64,.86-3.22,1.94-4.75,3.2-1.53,1.26-3.14,2.59-4.59,4.15-1.32-1.34-2.78-2.43-4.36-3.2-1.54-.74-3.35-1.29-5.25-1.45-2.1-.18-4.15,.11-6.11,.8-.96,.36-1.96,.77-2.93,1.27-.97,.5-1.9,1.1-2.79,1.77-.26,.19-.51,.39-.76,.6,.26,1.03,.49,2.08,.68,3.14Z"/><path class="cls-1" d="M113.5,291.66c3.13,.38,6.23,.56,9.29,.54,1.55-.01,3.01-.06,4.59-.18,1.59-.11,3.16-.28,4.71-.48,2.62,1.8,5.4,3.46,8.32,4.95,1.42,.76,3.06,1.43,4.66,2.07,1.62,.64,3.27,1.24,4.95,1.79,1.68,.55,3.4,1.06,5.15,1.52,.87,.23,1.75,.45,2.64,.65,.92,.19,1.87,.37,2.81,.53,3.79,.65,7.69,1.09,11.67,1.31,1.28,.06,2.49,.13,3.81,.12,1.31,0,2.62-.04,3.92-.09,2.59-.11,5.16-.31,7.67-.59,1.26-.14,2.51-.31,3.74-.49,1.24-.19,2.45-.38,3.73-.66,2.53-.52,5-1.13,7.41-1.82,9.58-2.67,18.44-6.88,25.39-12.08,1.29-.03,2.51-.11,3.78-.21,7.16-.55,13.54-2.07,19.32-4.25,5.65-2.2,10.67-5.09,14.78-8.49,6.2,.99,12.29,1.1,18.12,.25,3.12-.46,5.91-1.14,8.62-2.06,1.29-.45,2.56-.96,3.8-1.52,.62-.28,1.23-.58,1.79-.88l.43-.23,.21-.12c.07-.04,.17-.08,.15-.11l.11-.38c.73-2.09,1.65-5.24,2.67-9,1.24-4.56,2.41-8.88,3.52-13,1.28-4.92,2.64-10.25,3.79-16.09,1.25-1.12,2.5-2.81,3.69-4.79,.26,1.12,.54,2.18,.83,3.2,.3,1.01,.56,1.96,.99,2.91,.1,.23,.19,.46,.31,.69l.51,.7c.35,.46,.7,.91,1.06,1.35,.71,.86,1.56,1.72,2.4,2.49,3.34,3.08,7.6,5.38,12.44,6.44,7.78,1.74,15.98,.22,23.15-3.79,5.27,4.9,11.67,8.59,19.04,10.6,12.73,3.47,25.9,1.22,37.01-5.28,11.09-6.51,20.14-17.3,24.4-31.01,1.86-6.01,2.63-12.09,2.37-18,7.5-3.82,14.33-9.09,20.07-15.58,5.73-6.49,10.41-14.19,13.35-22.95,3.45-10.31,3.89-20.96,1.84-31.03-4.64-22.76-21.8-42.46-46.48-49.27-1.68-.46-3.37-.84-5.06-1.17-2.88-4.85-6.83-9.14-11.66-12.55-.05-.92-.13-1.83-.22-2.74-.34-3.36-.97-6.67-1.87-9.91-3.15-11.28-9.58-21.72-19.2-30.1-4.86-4.19-10.4-7.87-16.98-10.86-3.2-1.5-6.83-2.83-10.52-3.97-.93-.28-1.95-.56-2.93-.82l-1.5-.38-.81-.19-1-.22-2.01-.43-2.18-.41c-1.46-.27-2.93-.51-4.4-.74-14.84-2.31-29.36-2.37-42.49,.09-1.64,.31-3.26,.65-4.86,1.01-1.6,.4-3.17,.86-4.72,1.32l-1.16,.35-.29,.09c-.01-.17-.01-.04-.02-.08h-.02l-.04,.02-.07,.02-.14,.05-.57,.19c-.76,.26-1.51,.52-2.26,.78-1.5,.53-2.96,1.08-4.41,1.66-2.88,1.12-5.65,2.43-8.31,3.78-2.65,1.35-5.18,2.77-7.59,4.23-1.4,.06-2.85,.16-4.29,.26-.89,.04-1.78,.09-2.67,.14-1.65,.11-3.31,.28-4.97,.52-11.39,1.64-20.06,5.98-26.45,12.1-6.35,6.11-10.71,14.09-13.44,23.25-1.48,.87-2.77,1.82-4.07,2.95-.93-.44-1.82-.85-2.72-1.2-.9-.35-1.82-.62-2.72-.85-1.78-.49-3.56-.64-5.44-.66-1.73,.02-3.41,.29-5.06,.8-.83,.24-1.6,.59-2.46,.91-.85,.32-1.69,.7-2.51,1.13-1.65,.86-3.25,1.93-4.79,3.19-.78,.62-1.5,1.32-2.28,2.01-.78,.69-1.54,1.42-2.27,2.19-1.34-1.34-2.82-2.43-4.41-3.21-.8-.39-1.62-.7-2.48-.92-.85-.22-1.81-.42-2.75-.49-4.63-.4-8.97,1.49-12.83,4.65-.19-1.06-.42-2.11-.68-3.14-.32-1.27-.7-2.5-1.11-3.72-1.18-3.42-2.63-6.58-4.51-9.49-1.93-2.93-4.17-5.56-6.69-7.8-.63-.56-1.28-1.1-1.94-1.61-.65-.51-1.34-1-2.1-1.48-1.48-.95-3.02-1.8-4.63-2.53-1.61-.73-3.27-1.35-4.99-1.85-.84-.24-1.77-.47-2.72-.67-.94-.2-1.89-.36-2.86-.49-2.82-.38-5.62-.46-8.35-.26-2.88,.19-5.71,.65-8.43,1.37-1.36,.36-2.69,.78-4,1.27-.66,.24-1.29,.5-1.94,.77-.67,.27-1.33,.56-1.98,.86-2.6,1.21-5.06,2.65-7.33,4.29-2.27,1.65-4.36,3.5-6.24,5.53-1.95,2.05-3.67,4.28-5.13,6.66-2.92,4.77-4.79,10.16-5.41,15.96-.11,.98-.16,1.96-.19,2.93-6.87-.51-13.76,1.59-18.89,5.28-1.3,.93-2.47,1.95-3.58,3.08-1.11,1.14-2.1,2.37-2.96,3.68-1.72,2.62-2.92,5.54-3.49,8.68-1.85,.31-3.66,.69-5.44,1.13-1.78,.45-3.52,.95-5.27,1.59-3.48,1.25-6.79,2.76-9.89,4.5-3.08,1.69-6.05,3.83-8.72,6.08-2.68,2.27-5.1,4.73-7.25,7.36-4.31,5.34-7.5,11.5-9.41,17.97-1.92,6.5-2.59,13.41-2.05,20.54,.7,9.18,3.29,17.78,6.87,25.42,1.14,2.43,2.38,4.77,3.7,6.99,.66,1.11,1.34,2.19,2.05,3.25,.72,1.09,1.46,2.15,2.22,3.18,1.66,2.25,3.41,4.35,5.24,6.29,1.83,1.94,3.71,3.68,5.76,5.41,.27,.23,.54,.46,.82,.7,.6,5.07,1.73,9.92,3.23,14.46,1.55,4.63,3.4,8.86,5.79,12.86,3.36,5.64,7.24,10.33,12.12,14.17,4.67,3.7,10.41,6.54,16.65,7.91,.63,2.02,1.39,3.98,2.2,5.89,.95,2.26,2.03,4.43,3.21,6.52,1,1.76,2.07,3.46,3.22,5.08,1.22,1.64,2.53,3.22,3.91,4.72,1.38,1.5,2.84,2.92,4.36,4.25,.76,.67,1.54,1.31,2.34,1.93,.8,.62,1.71,1.24,2.58,1.82,1.77,1.17,3.62,2.25,5.53,3.23,.95,.49,1.92,.95,2.91,1.39,.49,.21,.99,.42,1.49,.64,.51,.21,1.06,.41,1.6,.6,2.16,.78,4.39,1.45,6.67,2,1.14,.28,2.3,.52,3.46,.74l1.76,.3c.6,.09,1.25,.18,1.87,.26Z"/></g></g></svg>