<?xml version="1.0" encoding="UTF-8"?><svg id="Layer_2" xmlns="http://www.w3.org/2000/svg" viewBox="0 0 388.06 182.85"><defs><style>.cls-1{fill:#fff;}.cls-2{fill:#f9e9e3;}.cls-3{fill:#fbefea;}</style></defs><g id="clouds"><g><path d="M.12,88.19c32.44-7.67,67.83-15.6,104.78-13.63,32.29,1.72,59.34,10.71,89.3,16.05,62.09,11.06,139.44,4.92,187.57-14.89"/><g><path class="cls-2" d="M385.15,83.96c-3.84-9.24-10.55-16.54-17.77-21.55,.64,.62,1.28,1.26,1.9,1.93,4.71,4.58,8.87,10.28,11.52,16.99,2.48,6.28,3.31,12.8,2.36,19.22-.95,6.51-3.64,12.48-7.88,17.96,.34,.86,.66,1.73,.93,2.62,.84,2.72,1.34,5.49,1.49,8.26,.08,1.39,.07,2.77-.03,4.16-.09,1.37-.26,2.73-.51,4.08-1.02,5.41-3.38,10.68-6.94,15.52-1.78,2.41-3.78,4.57-6.08,6.64-2.29,2.04-4.86,3.99-7.61,5.63-2.73,1.6-5.68,3-8.8,4.17-1.56,.57-3.18,1.13-4.8,1.53-1.62,.41-3.29,.75-4.98,1.02-1.94,.31-3.86,.52-5.77,.63-.95,.06-1.9,.09-2.84,.09-.94,0-1.86-.06-2.78-.12-5.06,3.07-11.15,5.35-17.68,5.89-8.81,.93-17.08-1.13-23.68-4.89-3.21,1.16-6.71,1.81-10.38,1.95-4.48,.2-8.76-.63-12.59-2.08-1.54,.87-3.16,1.64-4.85,2.32-.85,.34-1.71,.65-2.59,.94-.88,.27-1.78,.5-2.69,.72-3.65,.85-7.53,1.25-11.53,1.14-3.28-.12-6.47-.67-9.49-1.45-3.02-.82-5.86-1.84-8.52-3.29-5.31-2.84-9.7-6.6-12.88-11.09-.55-.04-1.11-.09-1.66-.16-3.52-.42-6.84-1.33-9.86-2.63-3.02-1.3-5.79-3.16-8.12-5.21-2.77,.81-5.79,1.36-8.8,1.49-3,.12-6.12-.09-9.11-.71-5.47-1.09-10.05-3.29-13.82-6.21-5.2,1.81-10.9,2.37-16.11,1.6-2.53,2.41-5.07,4.59-7.87,6.38-1.36,.91-2.71,1.76-4.11,2.5-1.42,.73-2.78,1.42-4.15,2-5.54,2.33-10.83,3.33-15.58,2.72-5.36-.68-9.43-3.39-13.45-7.63-.31,.03-.61,.03-.93,.05-4.19,5.69-9.11,9.26-15.23,9.75-.65,.05-1.28,.05-1.93,.03-.66,0-1.32-.05-1.97-.14-1.32-.16-2.59-.51-3.93-.9-1.05,.47-2.12,.86-3.21,1.17-1.12,.33-2.29,.6-3.47,.77-10.05,1.47-21.43-2.62-30.89-10.76,4.84,5.22,10.59,9.16,16.37,11.67,5.81,2.49,11.71,3.49,17.23,2.74,1.19-.19,2.26-.39,3.35-.7,1.07-.3,2.16-.73,3.13-1.14,1.26,.45,2.53,.77,3.81,.93,1.24,.21,2.48,.27,3.74,.17,5.89-.41,10.6-3.9,14.68-9.52,.3,0,.6-.02,.9-.05,3.8,4.3,7.79,7.04,13.16,7.79,4.76,.67,10.14-.28,15.76-2.56,5.64-2.27,11.47-5.9,16.47-10.75,5.43,.83,11.05,.26,16.47-1.53,3.78,2.93,8.64,5.13,14.15,6.22,1.56,.3,3.14,.5,4.69,.61,.78,.06,1.55,.09,2.32,.1,.79,0,1.57-.02,2.35-.07,3.1-.18,6.09-.69,8.9-1.52,1.19,1.03,2.49,2.02,3.86,2.87,1.37,.83,2.82,1.58,4.35,2.23,3.05,1.29,6.42,2.23,9.96,2.61,.56,.05,1.11,.09,1.66,.11,3.22,4.41,7.71,8.27,13.06,11.02,2.66,1.34,5.55,2.43,8.6,3.22,1.52,.4,3.09,.72,4.69,.97,1.59,.22,3.21,.34,4.86,.38,4.03,.09,7.95-.28,11.61-1.18,3.66-.94,7.08-2.32,10.17-4.05,3.88,1.49,8.19,2.12,12.7,1.97,3.7-.12,7.23-.8,10.46-2.05,3.34,1.88,7.1,3.31,11.13,4.19,4.04,.78,8.36,1,12.79,.57,.83-.08,1.64-.18,2.45-.3,.81-.14,1.62-.31,2.41-.49,1.59-.37,3.13-.81,4.63-1.33,3-1.05,5.78-2.32,8.35-3.94,3.74,.14,7.61-.08,11.52-.71,1.7-.26,3.4-.65,5.06-1.12,1.66-.46,3.28-.99,4.86-1.57,3.16-1.19,6.09-2.53,8.92-4.29,5.61-3.45,10.23-7.56,13.85-12.5,1.79-2.43,3.27-4.96,4.43-7.56,.58-1.3,1.08-2.62,1.49-3.95,.43-1.35,.78-2.74,1.04-4.11,1.04-5.52,.68-11.11-1.07-16.53-.29-.89-.62-1.76-.97-2.61,2.14-2.75,3.87-5.59,5.2-8.66,1.34-3.1,2.25-6.29,2.71-9.49,.92-6.42,.03-12.91-2.55-19.15Z"/><path class="cls-3" d="M40.31,64.83c8.39-1.47,16.74-.22,23.84,3.14,.66-7.03,3.91-13.57,9.25-18.3,2.64-2.42,5.84-4.27,9.38-5.67,3.57-1.28,7.48-2.1,11.62-2.04,1.37,0,2.71,.1,4.03,.24,1.52-1.47,3.24-2.78,5.13-3.92,1.89-1.15,3.95-2.11,6.14-2.8,2.19-.71,4.53-1.24,6.9-1.45,2.38-.23,4.87-.25,7.33,.07,1.18,.14,2.33,.34,3.47,.58,3.8-4.21,8.97-7.41,14.8-9.18,5.78-1.76,12.27-2.12,18.4-.81,2.01,.42,3.82,.99,5.59,1.69,1.79,.7,3.39,1.53,4.92,2.48,4.39-1.71,9.05-2.34,13.62-1.7,2.24-2.58,4.67-4.88,7.34-6.8,1.29-.98,2.62-1.87,3.98-2.67,.68-.4,1.38-.77,2.06-1.13,.67-.36,1.35-.7,2.04-1.01,2.78-1.23,5.48-2.14,8.2-2.61,2.66-.55,5.34-.64,8.03-.2,2.11,.32,4.22,.83,6.19,1.67,1.97,.83,3.84,1.96,5.68,3.19,1.48-.59,3-1.02,4.55-1.27,3.64-4.36,7.93-8.1,12.48-10.48,2.28-1.19,4.7-2.25,7.15-2.88,1.23-.32,2.48-.56,3.75-.7,1.27-.17,2.57-.29,3.88-.3,6.19,.04,12.04,1.86,17.38,5.3,1.03-.19,2.07-.33,3.13-.4,2.03-.14,4.03-.01,5.99,.3,1.95,.26,3.86,.74,5.74,1.42,3.78,1.42,7.3,3.43,10.61,6.15,1.47-.08,2.96,.02,4.39,.16,1.42,.13,2.84,.38,4.24,.74,2.81,.73,5.58,1.93,8.15,3.37,2.6,1.48,5.13,3.36,7.52,5.57,2.34,2.15,4.54,4.63,6.56,7.41-.51-.78-1.04-1.52-1.58-2.26-.99-1.35-2.03-2.63-3.11-3.84-1.07-1.2-2.18-2.33-3.37-3.42-2.35-2.15-4.82-3.98-7.37-5.42-.64-.36-1.28-.7-1.92-1.01-.66-.33-1.33-.64-2-.92-1.34-.57-2.7-1.03-4.08-1.38-1.37-.36-2.75-.59-4.16-.73-1.43-.18-2.86-.24-4.31-.17-1.64-1.36-3.34-2.56-5.09-3.56-1.76-1.03-3.6-1.95-5.46-2.62-1.87-.69-3.76-1.15-5.7-1.44-1.96-.33-3.94-.44-5.96-.31-1.05,.07-2.09,.21-3.11,.4-2.65-1.73-5.44-3.09-8.32-3.95-.72-.22-1.45-.4-2.18-.57-.73-.19-1.47-.34-2.22-.47-1.49-.25-3.01-.37-4.55-.36-10.36-.04-19.77,5.48-27.11,14.29-1.54,.25-3.05,.68-4.52,1.27-.91-.62-1.82-1.22-2.75-1.77-.93-.55-1.88-1.03-2.86-1.44s-1.98-.76-3.01-1.03c-.51-.14-1.03-.25-1.56-.35-.51-.12-1.02-.22-1.54-.31-2.68-.44-5.31-.32-7.98,.2-1.37,.23-2.72,.57-4.07,1.02-1.39,.43-2.79,.94-4.15,1.57-5.53,2.47-11,6.41-15.5,11.56-1.15-.16-2.3-.25-3.43-.25-1.14,0-2.34,.06-3.48,.2-2.27,.29-4.58,.87-6.77,1.73-1.51-.94-3.19-1.78-4.97-2.48-.88-.35-1.79-.67-2.72-.95-.96-.28-1.93-.53-2.93-.74-3.07-.66-6.32-.89-9.4-.75-3.19,.17-6.19,.67-9.16,1.58-2.94,.9-5.68,2.12-8.21,3.69-2.52,1.56-4.74,3.39-6.68,5.53-1.14-.24-2.3-.44-3.49-.58-5.01-.57-9.94-.02-14.35,1.43-2.2,.69-4.27,1.71-6.17,2.83-1.9,1.15-3.63,2.43-5.14,3.95-1.33-.15-2.68-.24-4.06-.24-8.33,.01-15.79,2.99-21.1,7.8-1.33,1.2-2.55,2.49-3.62,3.87-1.06,1.4-1.99,2.89-2.77,4.45-1.56,3.11-2.54,6.48-2.86,10.01-7.15-3.32-15.53-4.55-23.95-3.05-12.08,2.14-21.73,9.28-27.5,18.68-5.79,9.41-7.88,21.1-5.12,32.79,1.69,7.15,5.01,13.47,9.4,18.68-3.69-4.85-6.49-10.57-7.99-16.95-2.76-11.69-.67-23.38,5.12-32.78,5.77-9.39,15.41-16.5,27.45-18.62Z"/><path class="cls-1" d="M66.32,167.76c1.19-.17,2.36-.44,3.47-.77,1.1-.31,2.17-.7,3.21-1.17,1.34,.39,2.62,.74,3.93,.9,.66,.08,1.31,.13,1.97,.14,.64,.03,1.28,.02,1.93-.03,6.12-.49,11.04-4.06,15.23-9.75,.32-.02,.62-.02,.93-.05,4.03,4.24,8.1,6.95,13.45,7.63,4.75,.62,10.04-.38,15.58-2.72,1.37-.59,2.73-1.27,4.15-2,1.4-.74,2.75-1.59,4.11-2.5,2.8-1.79,5.35-3.97,7.87-6.38,5.21,.78,10.91,.22,16.11-1.6,3.77,2.92,8.35,5.12,13.82,6.21,2.99,.62,6.1,.83,9.11,.71,3.01-.13,6.03-.68,8.8-1.49,2.33,2.05,5.1,3.91,8.12,5.21,3.02,1.3,6.34,2.21,9.86,2.63,.56,.07,1.11,.12,1.66,.16,3.18,4.5,7.57,8.25,12.88,11.09,2.66,1.45,5.5,2.47,8.52,3.29,3.02,.79,6.21,1.33,9.49,1.45,4,.11,7.88-.3,11.53-1.14,.91-.21,1.81-.45,2.69-.72,.88-.29,1.74-.6,2.59-.94,1.69-.68,3.31-1.45,4.85-2.32,3.84,1.45,8.12,2.27,12.59,2.08,3.67-.13,7.17-.79,10.38-1.95,6.6,3.76,14.87,5.82,23.68,4.89,6.54-.55,12.63-2.82,17.68-5.89,.92,.06,1.84,.11,2.78,.12,.94,0,1.89-.04,2.84-.09,1.9-.11,3.83-.32,5.77-.63,1.69-.27,3.36-.61,4.98-1.02,1.63-.41,3.25-.96,4.8-1.53,3.13-1.16,6.07-2.56,8.8-4.17,2.75-1.65,5.32-3.59,7.61-5.63,2.3-2.08,4.3-4.23,6.08-6.64,3.56-4.84,5.92-10.11,6.94-15.52,.25-1.35,.43-2.71,.51-4.08,.1-1.39,.11-2.78,.03-4.16-.15-2.77-.65-5.53-1.49-8.26-.27-.89-.59-1.76-.93-2.62,4.24-5.48,6.93-11.45,7.88-17.96,.95-6.42,.12-12.94-2.36-19.22-2.65-6.72-6.81-12.42-11.52-16.99-.96-.93-1.95-1.82-2.96-2.66-1.02-.86-2.08-1.69-3.15-2.46-2.14-1.54-4.34-2.88-6.58-3.99-1.13-.57-2.22-1.03-3.4-1.52-1.17-.48-2.34-.91-3.52-1.27-2.37-.74-4.72-1.18-7.14-1.43l-.14-.64-.27-.98c-1.79-6.55-4.77-12.41-8.36-17.36-2.02-2.78-4.22-5.26-6.56-7.41-2.4-2.21-4.92-4.09-7.52-5.57-2.57-1.44-5.34-2.64-8.15-3.37-1.4-.36-2.82-.61-4.24-.74-1.43-.14-2.92-.23-4.39-.16-3.31-2.72-6.83-4.73-10.61-6.15-1.88-.68-3.79-1.16-5.74-1.42-1.96-.31-3.97-.43-5.99-.3-1.06,.07-2.1,.21-3.13,.4-5.34-3.44-11.2-5.26-17.38-5.3-1.31,0-2.6,.12-3.88,.3-1.27,.14-2.52,.38-3.75,.7-2.46,.62-4.88,1.68-7.15,2.88-4.55,2.39-8.84,6.13-12.48,10.48-1.55,.25-3.06,.68-4.55,1.27-1.84-1.23-3.7-2.36-5.68-3.19-1.96-.85-4.07-1.36-6.19-1.67-2.69-.44-5.37-.35-8.03,.2-2.72,.47-5.42,1.38-8.2,2.61-.68,.31-1.36,.65-2.04,1.01-.69,.36-1.38,.73-2.06,1.13-1.36,.8-2.69,1.69-3.98,2.67-2.66,1.92-5.1,4.22-7.34,6.8-4.57-.65-9.24,0-13.62,1.7-1.53-.94-3.14-1.77-4.92-2.48-1.77-.7-3.58-1.27-5.59-1.69-6.13-1.32-12.62-.96-18.4,.81-5.83,1.77-11,4.98-14.8,9.18-1.13-.24-2.29-.44-3.47-.58-2.46-.32-4.95-.3-7.33-.07-2.38,.21-4.71,.74-6.9,1.45-2.19,.69-4.25,1.65-6.14,2.8-1.89,1.14-3.61,2.44-5.13,3.92-1.32-.15-2.66-.24-4.03-.24-4.14-.07-8.05,.75-11.62,2.04-3.53,1.39-6.73,3.25-9.38,5.67-5.34,4.73-8.58,11.27-9.25,18.3-7.1-3.36-15.44-4.61-23.84-3.14-12.03,2.12-21.68,9.23-27.45,18.62-5.79,9.4-7.88,21.09-5.12,32.78,1.5,6.37,4.3,12.1,7.99,16.95,1.92,2.5,4.03,4.79,6.34,6.81l.86,.75c1.34,2.8,2.96,5.4,4.73,7.84,2.29,3.16,4.94,5.97,7.77,8.42,9.45,8.14,20.83,12.22,30.89,10.76Z"/></g></g></g></svg>