<?xml version="1.0" encoding="UTF-8"?><svg id="Layer_2" xmlns="http://www.w3.org/2000/svg" viewBox="0 0 469.86 237.09"><defs><style>.cls-1{fill:#fff;}.cls-2{fill:#f9e9e3;}.cls-3{fill:#fbefea;}</style></defs><g id="clouds"><g><path class="cls-2" d="M468.94,117.51c-2.33-12.03-8.54-22.28-16.61-29.89,.68,.89,1.33,1.81,1.96,2.75,4.88,6.52,8.53,14.3,10.15,22.99,1.51,8.12,1.04,16.15-1.25,23.61-1.14,3.72-2.74,7.27-4.74,10.62-2.01,3.37-4.43,6.48-7.21,9.29,.25,1.1,.47,2.21,.64,3.34,1.04,6.89,.55,13.68-1.35,20.08-1.9,6.39-5.19,12.3-9.67,17.51-8.92,10.33-22.61,17.52-38.26,18.67-4.47,.36-8.85,.12-13.06-.5-6.1,3.33-13.24,5.37-20.88,5.59-5.12,.2-10.07-.53-14.67-1.83-4.6-1.36-8.84-3.38-12.59-5.93-3.83,1.19-7.98,1.85-12.3,1.77-5.27-.12-10.24-1.23-14.69-3.23-7.45,3.96-16.24,5.92-25.23,5.35-14.69-.98-26.36-8.54-32.98-19.2-.57-.02-1.14-.05-1.72-.1-7.23-.61-13.51-3.58-18.31-8.08-2.67,1.32-5.52,2.29-8.39,2.91-1.44,.3-2.93,.5-4.41,.61-1.47,.11-2.96,.12-4.46,.02-5.4-.36-10.26-2.03-14.54-4.73-2.51,1.66-5.14,3.02-7.9,3.97-1.36,.5-2.74,.89-4.15,1.19-.71,.15-1.42,.27-2.14,.36-.7,.11-1.41,.19-2.13,.25-4.13,7.13-9.32,12.91-15.25,17.23-1.48,1.06-3.01,2.01-4.58,2.84-1.57,.86-3.18,1.64-4.83,2.26-1.65,.63-3.34,1.13-5.07,1.5-1.73,.35-3.48,.69-5.28,.81-2.01,.15-4,.12-5.97-.09-1.96-.19-3.89-.48-5.8-.98-1.91-.49-3.79-1.15-5.64-1.96-1.84-.76-3.64-1.66-5.4-2.72-.47,.11-.95,.2-1.44,.28-1.32,1.96-2.79,3.7-4.32,5.35-1.53,1.65-3.17,3.12-4.91,4.38-3.52,2.45-7.24,4.34-11.42,5.09-3.48,.68-6.86,.71-10.31-.02-2.42,1.43-4.95,2.55-7.7,3.21-11.41,2.99-22.32-1.27-32.65-10.11,11.3,11.45,23.54,17.47,36.34,14.25,2.69-.66,5.15-1.79,7.67-3.12,3.37,.71,6.7,.71,10.21,.12,2.06-.37,4-1.04,5.89-1.88,1.91-.81,3.73-1.86,5.45-3.12,3.41-2.57,6.57-5.73,9.2-9.65,.48-.08,.95-.17,1.42-.28,1.73,1.03,3.52,1.99,5.35,2.81,1.82,.81,3.68,1.47,5.56,1.96,1.88,.46,3.8,.86,5.74,1.07,1.94,.21,3.91,.24,5.9,.09,3.55-.25,6.97-.93,10.24-2.22,3.27-1.27,6.38-2.87,9.32-5.02,2.95-2.17,5.7-4.61,8.24-7.48,2.55-2.86,4.86-6.14,6.96-9.65,2.89-.15,5.68-.78,8.44-1.71,1.37-.48,2.71-1.06,4.03-1.72,1.33-.65,2.63-1.39,3.89-2.22,4.24,2.7,9.15,4.42,14.55,4.79,2.99,.2,6.02,0,8.9-.61,2.95-.59,5.74-1.57,8.46-2.88,4.86,4.52,11.13,7.49,18.46,8.1,.58,.05,1.15,.08,1.72,.1,6.74,10.67,18.49,18.24,33.45,19.16,9.06,.59,18.07-1.5,25.5-5.44,4.47,1.92,9.49,3.08,14.79,3.14,4.34,.03,8.51-.57,12.36-1.84,3.78,2.54,8.06,4.58,12.69,5.87,2.32,.65,4.72,1.16,7.19,1.46,2.47,.29,5,.39,7.58,.31,7.69-.28,14.86-2.33,20.99-5.71,4.24,.64,8.65,.77,13.15,.43,15.76-1.23,29.52-8.52,38.46-18.93,2.24-2.61,4.19-5.39,5.81-8.33,1.62-2.96,2.92-6.05,3.86-9.25,1.89-6.39,2.35-13.18,1.27-20.06-.18-1.13-.41-2.24-.66-3.34,5.6-5.73,9.7-12.55,11.97-20.04,2.27-7.47,2.71-15.48,1.15-23.6Z"/><path class="cls-3" d="M44.33,110.62c10.18-2.99,20.5-2.65,29.56,.53-.08-4.33,.64-8.57,2.09-12.56,.73-1.99,1.63-3.93,2.71-5.78,1.08-1.85,2.33-3.54,3.74-5.17,2.82-3.21,6.26-6.09,10.2-8.22,3.93-2.09,8.35-3.64,13.09-4.32,1.56-.2,3.12-.31,4.66-.34,5.8-8.26,15.54-14.1,26.96-15,1.36-.1,2.7-.14,4.03-.11,1.65-2.98,3.73-5.8,6.18-8.27,2.45-2.45,5.27-4.62,8.39-6.45,3.12-1.83,6.54-3.32,10.19-4.26,3.65-.98,7.51-1.55,11.51-1.62,5.12,.02,10.04,.83,14.57,2.29,2.61-1.57,5.44-2.79,8.47-3.68,3.01-.88,6.17-1.36,9.45-1.47,2.44-3.56,5.39-6.8,8.78-9.63,3.33-2.8,7.14-5.22,11.15-7.12,8.11-3.81,17.2-5.59,26.38-4.84,7.17,.59,13.56,2.65,19.17,5.83,2.18-.69,4.44-1.2,6.75-1.48,10.73-10.77,24.7-16.97,38.22-16.45,8.07,.36,15.63,2.98,22.35,7.51,1.36-.16,2.73-.25,4.12-.26,10.64-.06,20.49,4.17,28.64,11.36,7.81,.14,15.22,2.63,21.82,6.82,3.31,2.11,6.42,4.67,9.25,7.58,2.84,2.92,5.42,6.27,7.64,9.88-.55-1.01-1.14-1.98-1.74-2.94-4.46-7.13-10.2-12.93-16.7-17.06-3.24-2.02-6.7-3.72-10.28-4.81-3.59-1.16-7.32-1.78-11.15-1.87-8.11-7.18-17.91-11.46-28.51-11.41-1.38,0-2.75,.11-4.11,.25-6.69-4.53-14.2-7.17-22.23-7.54-6.83-.29-13.58,1.14-20.16,3.95-3.25,1.42-6.49,3.17-9.5,5.27-3.09,2.07-5.93,4.49-8.63,7.18-2.31,.28-4.55,.79-6.75,1.48-5.64-3.18-12.03-5.24-19.24-5.83-9.21-.75-18.38,1.04-26.49,4.85-8.13,3.81-15.11,9.63-20.02,16.78-6.56,.19-12.76,2.03-18.01,5.19-4.55-1.45-9.49-2.3-14.63-2.26-8.03,.17-15.53,2.21-21.78,5.93-3.13,1.83-5.96,3.98-8.41,6.46-2.45,2.51-4.54,5.3-6.19,8.29-1.33-.03-2.68,0-4.05,.11-1.43,.11-2.84,.28-4.21,.55-1.38,.28-2.72,.63-4.03,1.04-2.62,.82-5.1,1.9-7.4,3.19-2.3,1.27-4.43,2.85-6.34,4.59-1.91,1.74-3.61,3.65-5.07,5.71-1.55,.03-3.11,.13-4.68,.35-4.75,.74-9.19,2.25-13.14,4.36-3.95,2.2-7.41,5.03-10.24,8.26-2.83,3.2-5.02,7.02-6.47,10.99-1.45,3.99-2.17,8.22-2.09,12.56-2.29-.82-4.64-1.39-7.05-1.8-2.41-.41-4.89-.66-7.4-.73-2.52-.11-5.05,.14-7.61,.48-2.56,.37-5.13,.88-7.69,1.67-14.66,4.41-25.89,15.41-30.49,28.24-1.15,3.22-1.96,6.46-2.31,9.84-.34,3.4-.28,6.8,.17,10.18,.88,6.76,3.31,13.39,6.98,19.75,4.49,7.78,10.24,14.32,15.95,19.67-4.99-5.05-9.93-11.03-13.88-17.99-3.63-6.39-6.03-13.04-6.91-19.8-.43-3.37-.52-6.8-.16-10.15,.38-3.31,1.15-6.59,2.3-9.79,.58-1.59,1.24-3.2,2.01-4.72,.78-1.5,1.65-2.97,2.61-4.4,1.92-2.84,4.16-5.67,6.77-8,2.6-2.36,5.49-4.62,8.66-6.42,3.18-1.77,6.6-3.29,10.23-4.43Z"/><path class="cls-1" d="M90.12,232.09c2.74-.66,5.27-1.78,7.7-3.21,3.45,.73,6.82,.7,10.31,.02,4.18-.74,7.9-2.63,11.42-5.09,1.74-1.26,3.38-2.73,4.91-4.38,1.53-1.65,3-3.39,4.32-5.35,.48-.08,.96-.17,1.44-.28,1.77,1.05,3.57,1.95,5.4,2.72,1.85,.81,3.74,1.47,5.64,1.96,1.91,.5,3.84,.8,5.8,.98,1.97,.21,3.96,.25,5.97,.09,1.8-.12,3.55-.46,5.28-.81,1.73-.36,3.42-.87,5.07-1.5,1.65-.63,3.26-1.4,4.83-2.26,1.57-.83,3.09-1.78,4.58-2.84,5.93-4.33,11.13-10.11,15.25-17.23,.71-.06,1.42-.14,2.13-.25,.72-.09,1.43-.21,2.14-.36,1.41-.29,2.8-.69,4.15-1.19,2.76-.95,5.39-2.31,7.9-3.97,4.28,2.7,9.14,4.37,14.54,4.73,1.5,.1,2.99,.09,4.46-.02,1.48-.11,2.96-.31,4.41-.61,2.87-.61,5.72-1.59,8.39-2.91,4.8,4.5,11.08,7.47,18.31,8.08,.57,.05,1.15,.08,1.72,.1,6.62,10.67,18.29,18.22,32.98,19.2,8.99,.58,17.78-1.38,25.23-5.35,4.44,2,9.42,3.1,14.69,3.23,4.32,.08,8.46-.58,12.3-1.77,3.74,2.55,7.99,4.58,12.59,5.93,4.6,1.3,9.54,2.03,14.67,1.83,7.64-.22,14.78-2.26,20.88-5.59,4.21,.61,8.59,.85,13.06,.5,15.65-1.14,29.34-8.34,38.26-18.67,4.48-5.22,7.77-11.12,9.67-17.51,1.9-6.39,2.4-13.18,1.35-20.08-.17-1.13-.39-2.24-.64-3.34,2.79-2.81,5.21-5.93,7.21-9.29,2.01-3.35,3.6-6.9,4.74-10.62,2.29-7.47,2.76-15.49,1.25-23.61-1.62-8.69-5.27-16.47-10.15-22.99-8.03-10.72-19.24-18.12-31.59-20.73l-.08-.79-.18-1.23c-1.2-8.21-4.08-15.73-8.04-22.19-2.22-3.61-4.81-6.96-7.64-9.88-2.83-2.91-5.94-5.47-9.25-7.58-6.61-4.19-14.02-6.68-21.82-6.82-8.15-7.19-18-11.42-28.64-11.36-1.39,0-2.76,.1-4.12,.26-6.72-4.52-14.28-7.15-22.35-7.51-13.52-.52-27.49,5.68-38.22,16.45-2.31,.28-4.56,.79-6.75,1.48-5.61-3.18-12-5.24-19.17-5.83-9.18-.75-18.27,1.03-26.38,4.84-4.01,1.89-7.83,4.31-11.15,7.12-3.39,2.83-6.34,6.07-8.78,9.63-3.28,.1-6.43,.59-9.45,1.47-3.03,.89-5.86,2.11-8.47,3.68-4.53-1.46-9.45-2.27-14.57-2.29-4,.07-7.86,.64-11.51,1.62-3.65,.95-7.07,2.43-10.19,4.26-3.12,1.82-5.94,3.99-8.39,6.45-2.45,2.47-4.53,5.29-6.18,8.27-1.33-.03-2.67,0-4.03,.11-11.41,.9-21.16,6.74-26.96,15-1.54,.03-3.09,.13-4.66,.34-4.73,.68-9.15,2.23-13.09,4.32-3.94,2.13-7.38,5-10.2,8.22-1.41,1.63-2.66,3.32-3.74,5.17-1.08,1.85-1.99,3.78-2.71,5.78-1.45,3.99-2.17,8.22-2.09,12.56-9.06-3.19-19.38-3.52-29.56-.53-3.63,1.14-7.05,2.66-10.23,4.43-3.17,1.8-6.06,4.05-8.66,6.42-2.61,2.33-4.85,5.16-6.77,8-.96,1.43-1.83,2.9-2.61,4.4-.77,1.52-1.43,3.13-2.01,4.72-1.15,3.2-1.92,6.48-2.3,9.79-.36,3.35-.27,6.79,.16,10.15,.88,6.76,3.28,13.41,6.91,19.8,3.95,6.96,8.89,12.95,13.88,17.99,2.6,2.6,5.11,4.92,7.9,7.04l1.01,.78c2.14,3.09,4.4,5.96,6.67,8.62,1.48,1.72,2.96,3.35,4.45,4.88,1.58,1.55,3.16,3,4.73,4.33,10.33,8.85,21.24,13.1,32.65,10.11Z"/></g></g></svg>