<?xml version="1.0" encoding="UTF-8"?><svg id="Layer_2" xmlns="http://www.w3.org/2000/svg" viewBox="0 0 425.3 235.15"><defs><style>.cls-1{fill:#fff;}.cls-2{fill:#f9e9e3;}.cls-3{fill:#fbefea;}</style></defs><g id="clouds"><g><path d="M425.28,117.34c-90.87,3.38-186.65,6.64-277.62-1.39C98.6,111.61,47.58,103.97,.03,106.94"/><g><path class="cls-2" d="M385.06,50.3c-8.2-10.68-21.3-17.87-36.08-18.97,1.05,1.42,2.05,2.88,2.93,4.4,6.51,.37,12.71,1.9,18.31,4.41,5.62,2.5,10.66,5.95,14.84,10.16Z"/><path class="cls-2" d="M1.19,125.59c.38,5.99,1.8,11.69,3.94,16.95,2.16,5.28,4.97,10.02,8.39,14.36-.57-1-1.1-2.03-1.61-3.07-3.88-7.08-6.46-15.12-6.92-23.84-.38-7.4,.88-14.52,3.75-21.03,1.43-3.23,3.25-6.28,5.44-9.13,1.09-1.43,2.28-2.8,3.55-4.13,1.27-1.3,2.62-2.53,4.05-3.71-1.88-4.48-2.98-9.31-3.02-14.36-.05-5.76,1.28-11.24,3.86-16.23,1.29-2.49,2.89-4.86,4.77-7.08,1.86-2.19,3.99-4.21,6.37-6.05,9.48-7.35,22.73-11.43,36.43-10.39,7.91,.6,15.14,2.8,21.26,6.17,3.21-1.97,6.91-3.46,10.74-4.33,1.93-.44,3.93-.73,5.97-.85,2.03-.13,4.07-.09,6.16,.13,10.46,1.07,19.05,6.31,24.26,13.62,1.79-1.57,3.9-2.81,6.21-3.64,3.19-9.21,9.55-16.85,17.39-22.15,7.86-5.22,17.46-8.11,27.71-7.49,4.87,.25,9.5,1.29,13.82,2.97,6.99-4.26,15.16-6.5,24.03-6.3,.79,.02,1.57,.07,2.34,.13,2.3-1.82,4.74-3.43,7.33-4.87,2.6-1.44,5.33-2.67,8.17-3.66,5.66-1.96,11.83-3.05,18.26-3.01,5.04,.06,9.97,.74,14.63,2.05,4.65,1.31,9.05,3.22,13.12,5.6,4.4-1.23,9.01-1.89,13.84-1.97,7.8-.12,15.21,1.44,21.94,4.24,6.7,2.83,12.7,6.96,17.59,12.04-9.64-12.76-25.5-21.04-43.21-20.8-4.79,.04-9.41,.73-13.8,1.95C279.87,2.88,270.38,.11,260.31,0c-6.43-.02-12.53,1-18.2,2.98-5.69,2.01-10.86,4.85-15.45,8.49-.77-.06-1.55-.11-2.34-.13-4.42-.1-8.63,.36-12.65,1.44-4.01,1.06-7.82,2.73-11.26,4.78-4.29-1.68-8.92-2.69-13.75-2.98-5.09-.34-10.03,.22-14.69,1.54-4.62,1.25-8.96,3.25-12.9,5.89-7.88,5.26-14.23,12.9-17.5,22.08-2.31,.83-4.4,2.07-6.21,3.64-5.28-7.34-13.83-12.57-24.41-13.65-4.18-.43-8.35-.15-12.22,.73-3.94,.89-7.57,2.36-10.83,4.35-6.22-3.34-13.49-5.55-21.53-6.1-13.88-.98-27.24,3.14-36.82,10.58-4.78,3.7-8.64,8.24-11.18,13.21-2.57,5.01-3.89,10.55-3.78,16.29,.09,5.04,1.26,9.85,3.21,14.29-5.77,4.82-10.21,10.6-13.04,17.15-2.83,6.51-4.04,13.62-3.58,21.02Z"/><path class="cls-2" d="M290.29,197.64c-.24,.19-.5,.37-.75,.55,.94,1.25,1.96,2.44,3.08,3.57-.24-.41-.47-.83-.7-1.26-.59-.93-1.15-1.88-1.64-2.86Z"/><path class="cls-3" d="M384.65,161.24c-.88,10.19-9.93,18.45-21.47,19.25,.08,.78,.15,1.56,.17,2.35,.57,18.7-16.02,34.41-37.35,34.82-7.28,.14-14.17-1.55-20.01-4.55-5.87-3.03-10.74-7.4-14.06-12.61,.22,.42,.46,.84,.7,1.26,3.22,5.49,8.13,10.12,14.13,13.32,5.97,3.18,13.07,5,20.59,4.83,21.34-.41,37.93-16.13,37.35-34.83-.02-.79-.09-1.58-.17-2.35,11.55-.8,20.59-9.07,21.47-19.26,23.42-6.17,40.03-26.08,39.18-49-.31-8.29-2.89-16-7.15-22.7,3.45,6.16,5.53,13.08,5.8,20.47,.85,22.91-15.76,42.83-39.18,48.99Z"/><path class="cls-3" d="M69.92,190.55c-4.17-2.05-7.67-4.8-10.6-8.2-1.34,0-2.64-.01-3.98-.11-9.8-.68-18.42-3.85-25.69-8.76-3.69-2.51-6.94-5.35-9.95-8.7-2.97-3.3-5.56-6.94-7.78-10.97,.51,1.05,1.05,2.07,1.61,3.07,2.21,3.92,4.75,7.43,7.72,10.69,1.47,1.61,3.02,3.12,4.64,4.52,1.63,1.41,3.38,2.75,5.16,3.94,7.19,4.81,15.61,7.85,25.26,8.56,1.32,.08,2.65,.11,3.99,.12,2.34,2.72,5.02,5,8.18,6.89,.64,.38,1.29,.74,1.96,1.08-.18-.71-.36-1.42-.51-2.14Z"/><path class="cls-3" d="M289.21,195.21c-3.64,2.92-8.49,4.66-13.82,4.68-4.38,.01-8.44-1.19-11.8-3.25-3.37,2.59-7.29,4.66-11.59,6.08-4.3,1.4-9.01,2.1-13.9,2.02-5.28-.07-10.34-1.15-14.89-2.96-1.81,.76-3.71,1.4-5.67,1.92-4.81,7.03-11.84,12.67-20.25,16.56-4.2,1.94-8.8,3.32-13.62,4.21-2.41,.44-4.89,.74-7.41,.9-2.53,.14-5.12,.11-7.74-.05-3.01-.2-5.95-.6-8.8-1.17-11.14,6.49-25.73,9.71-40.04,8.27-11.4-1.13-21.22-4.95-29.1-10.58-3.88-2.8-7.39-6.08-10.3-9.7-2.9-3.61-5.38-7.62-7.21-11.87,.41,1.08,.84,2.14,1.33,3.2,7.58,16.57,23.82,29.09,46.4,31.35,14.39,1.43,29.02-1.78,40.15-8.3,2.86,.57,5.8,.97,8.82,1.17,5.26,.37,10.33,.01,15.16-.87,4.83-.89,9.43-2.27,13.63-4.23,8.42-3.87,15.45-9.55,20.26-16.57,1.96-.52,3.86-1.16,5.67-1.92,2.28,.9,4.68,1.62,7.18,2.13,2.49,.5,5.07,.76,7.72,.81,9.83,.2,18.76-2.93,25.51-8.11,3.36,2.06,7.42,3.24,11.81,3.23,4.87-.01,9.35-1.48,12.85-3.98,.25-.18,.51-.36,.75-.55-.4-.8-.76-1.61-1.09-2.44Z"/><path class="cls-1" d="M305.41,10.28c-4.83,.08-9.44,.74-13.84,1.97-4.08-2.38-8.47-4.29-13.12-5.6-4.65-1.31-9.58-1.99-14.63-2.05-6.44-.04-12.6,1.05-18.26,3.01-2.84,.99-5.57,2.22-8.17,3.66-2.59,1.43-5.03,3.04-7.33,4.87-.78-.06-1.56-.11-2.34-.13-8.87-.2-17.04,2.04-24.03,6.3-4.31-1.68-8.95-2.72-13.82-2.97-10.26-.61-19.86,2.27-27.71,7.49-7.84,5.3-14.19,12.94-17.39,22.15-2.31,.83-4.41,2.07-6.21,3.64-5.21-7.31-13.8-12.55-24.26-13.62-2.09-.21-4.13-.25-6.16-.13-2.04,.13-4.04,.42-5.97,.85-3.84,.87-7.53,2.36-10.74,4.33-6.13-3.37-13.36-5.57-21.26-6.17-13.7-1.04-26.95,3.04-36.43,10.39-2.38,1.84-4.5,3.86-6.37,6.05-1.88,2.22-3.48,4.58-4.77,7.08-2.58,4.99-3.91,10.47-3.86,16.23,.04,5.04,1.14,9.88,3.02,14.36-1.43,1.18-2.78,2.4-4.05,3.71-1.27,1.32-2.45,2.7-3.55,4.13-2.19,2.86-4.01,5.9-5.44,9.13-2.86,6.51-4.13,13.63-3.75,21.03,.46,8.72,3.05,16.76,6.92,23.84,2.22,4.03,4.81,7.67,7.78,10.97,3.01,3.34,6.27,6.18,9.95,8.7,7.27,4.91,15.89,8.07,25.69,8.76,1.34,.1,2.64,.1,3.98,.11,2.93,3.4,6.43,6.15,10.6,8.2,.16,.72,.33,1.43,.51,2.14,.68,2.61,1.56,5.14,2.62,7.58,1.83,4.24,4.31,8.25,7.21,11.87,2.91,3.62,6.42,6.9,10.3,9.7,7.88,5.63,17.71,9.45,29.1,10.58,14.31,1.45,28.91-1.77,40.04-8.27,2.85,.57,5.79,.97,8.8,1.17,2.62,.17,5.2,.2,7.74,.05,2.52-.16,5-.46,7.41-.9,4.82-.89,9.42-2.26,13.62-4.21,8.41-3.88,15.44-9.53,20.25-16.56,1.96-.52,3.85-1.16,5.67-1.92,4.55,1.8,9.61,2.89,14.89,2.96,4.89,.08,9.6-.62,13.9-2.02,4.3-1.42,8.22-3.49,11.59-6.08,3.36,2.06,7.42,3.26,11.8,3.25,5.32-.01,10.18-1.76,13.82-4.68,.33,.83,.69,1.64,1.09,2.44,.49,.98,1.05,1.93,1.64,2.86,3.31,5.21,8.18,9.58,14.06,12.61,5.85,3,12.73,4.69,20.01,4.55,21.33-.41,37.92-16.12,37.35-34.82-.02-.79-.09-1.58-.17-2.35,11.54-.8,20.59-9.06,21.47-19.25,23.42-6.17,40.03-26.08,39.18-48.99-.27-7.38-2.35-14.31-5.8-20.47-2.2-3.92-4.94-7.54-8.16-10.74-3.53-3.5-7.6-6.53-12.09-8.98l-.91-.51c-.89-4.02-2.37-7.83-4.35-11.37-2.01-3.6-4.53-6.92-7.47-9.87-4.18-4.2-9.22-7.66-14.84-10.16-5.6-2.51-11.8-4.04-18.31-4.41-.89-1.52-1.88-2.98-2.93-4.4-1.24-1.67-2.58-3.26-4.03-4.77-4.89-5.08-10.89-9.21-17.59-12.04-6.73-2.81-14.13-4.36-21.94-4.24Z"/></g></g></g></svg>