<?xml version="1.0" encoding="UTF-8"?><svg id="Layer_2" xmlns="http://www.w3.org/2000/svg" viewBox="0 0 656.72 319.39"><defs><style>.cls-1{fill:#fff;}.cls-2{fill:#f9e9e3;}.cls-3{fill:#fbefea;}</style></defs><g id="clouds"><g><path class="cls-2" d="M656.72,195.92c-.01-8.54-1.42-16.73-4.1-24.32-2.66-7.59-6.6-14.57-11.35-20.72,.74,1.38,1.42,2.78,2.09,4.21,5.32,10.11,8.41,21.69,8.48,34.02,.04,5.76-.56,11.37-1.71,16.76-1.15,5.38-2.85,10.54-5.1,15.4-1.1,2.43-2.37,4.78-3.77,7.05-1.38,2.27-2.93,4.45-4.63,6.54-3.37,4.18-7.43,7.95-12.24,11.2,.1,1.57,.16,3.15,.13,4.75-.1,6.83-1.34,13.41-3.72,19.61-1.15,3.11-2.76,6.08-4.59,8.95-.94,1.43-1.89,2.84-3.03,4.2-.56,.68-1.15,1.35-1.75,2.01-.58,.66-1.34,1.31-2.04,1.95-5.7,5.08-12.7,9.5-20.98,12.77-2.07,.84-4.2,1.58-6.41,2.25-2.21,.68-4.49,1.29-6.82,1.78-4.69,1.06-9.59,1.65-14.73,2.04-1.75,.9-3.5,1.65-5.25,2.25-1.74,.6-3.44,1.17-5.15,1.51-.86,.18-1.69,.31-2.57,.4-.92,.11-1.85,.18-2.77,.21-.92,.03-1.85,0-2.77-.05-.46-.03-.92-.07-1.39-.13-.49-.05-.99-.1-1.48-.17-1.9-.25-3.75-.67-5.56-1.25-1.84-.56-3.75-1.23-5.55-2.06-6.12,3.46-13.11,5.2-20.53,4.6-10.07-.75-19.48-5.55-27.28-13.03-2.07,.76-4.26,1.33-6.52,1.7-2.25,.36-4.56,.51-6.9,.42-5.83-.19-11.28-1.78-16.34-4.42-8.32,5.63-18.35,8.85-29.23,8.64-17.89-.32-34.15-9.7-44.09-23.97-.78,.03-1.56,.04-2.34,.02-9.92-.19-19.02-3.77-26.27-9.65-7.43,4.1-15.94,6.36-24.96,6.16-8.1-.18-15.72-2.32-22.44-5.97-7.68,4.77-16.56,7.66-26.04,8.06-13.85,19.52-36.53,31.94-61.92,31.12-14.21-.45-27.41-5.02-38.48-12.53-.85,.03-1.71,.05-2.57,.04-11.43,9.37-26.16,14.75-42.19,13.99-6.74-.3-13.25-1.71-19.3-3.98-5.35,.88-10.99,1.16-16.68,.85-24.26-1.37-46.29-13.88-60.86-32.45,1.71,2.79,3.62,5.5,5.73,8.09,2.06,2.58,4.19,5.01,6.54,7.34,1.17,1.16,2.38,2.29,3.63,3.39,1.26,1.1,2.54,2.16,3.81,3.17,2.56,2.03,5.27,3.92,8.11,5.65,2.87,1.74,5.72,3.28,8.73,4.66,2.99,1.38,6.15,2.6,9.29,3.61,6.3,2,13.01,3.29,19.82,3.65,2.86,.16,5.7,.17,8.48,.02,2.77-.16,5.5-.46,8.19-.89,6.08,2.28,12.53,3.64,19.3,3.95,16.01,.72,30.77-4.64,42.17-14.04,.86,0,1.72,0,2.57-.04,11.09,7.51,24.27,12.04,38.5,12.5,25.4,.81,48.07-11.62,61.92-31.15,9.49-.4,18.37-3.29,26.05-8.07,6.73,3.64,14.34,5.78,22.45,5.96,9.02,.2,17.53-2.06,24.96-6.17,7.26,5.88,16.36,9.46,26.28,9.64,.78,.01,1.56,0,2.34-.02,9.95,14.27,26.21,23.64,43.93,23.97,10.88,.2,20.66-2.97,29.01-8.61,2.49,1.33,5.06,2.4,7.77,3.15,2.73,.75,5.5,1.2,8.33,1.32,2.32,.1,4.65-.06,6.85-.41,2.2-.35,4.34-.91,6.42-1.67,.95,.94,1.94,1.83,2.95,2.68,.99,.86,2.01,1.67,3.05,2.43,2.08,1.52,4.28,2.85,6.55,3.96,4.41,2.27,9.28,3.63,14.1,4.06,7.34,.59,13.96-1.06,20-4.54,.87,.38,1.74,.76,2.63,1.14,.86,.36,1.73,.67,2.62,.95,1.76,.56,3.62,.96,5.3,1.25,1.49,.24,2.98,.36,4.48,.35,1.44,0,2.75-.07,4.14-.28,2.72-.48,5.58-1.16,8.42-2.34,5.86-.08,11.48-.47,16.86-1.36,5.38-.88,10.48-2.17,15.24-3.79,4.77-1.64,9.19-3.58,13.23-5.82,1.01-.56,2-1.12,2.96-1.71,.98-.59,1.94-1.2,2.88-1.82l.69-.47,.61-.48c.4-.32,.8-.64,1.19-.96,.8-.65,1.53-1.31,2.22-2,2.79-2.72,5.28-5.61,7.22-8.67,2-3.05,3.68-6.24,4.91-9.56,2.53-6.63,3.84-13.69,3.84-21.03,0-1.6-.07-3.17-.18-4.74,9.17-6.63,15.44-15.2,19.84-24.9,4.36-9.71,6.78-20.6,6.79-32.14Z"/><path class="cls-3" d="M87.2,127.91c13.52,.86,25.96,5.65,36.42,13.21,5.85-23.43,26.46-40.3,50.26-39.36,1.97,.08,3.9,.3,5.8,.6,8.96-9.99,21.72-16.04,35.74-15.58,1.67,.05,3.31,.2,4.93,.44,9.69-15.64,26.59-25.79,45.56-25.27,6.06,.17,11.85,1.42,17.22,3.56,6.29-4.31,13.69-6.97,21.62-7.41,11.66-20.25,32.9-33.6,56.94-33.12,9.36,.18,18.21,2.47,26.19,6.38,2.97-1.16,6.06-2.06,9.26-2.66,14.08-15.9,34.27-25.81,58.17-25.2,14.05,.35,27.66,4.39,39.47,11.2,2.45-.1,4.93-.1,7.44,.02,19.35,1,37.64,8.85,51.27,20.98,3.11,.52,6.18,1.19,9.16,1.99,1.49,.4,2.96,.83,4.42,1.31,1.49,.5,2.96,1.03,4.41,1.59,2.89,1.12,5.68,2.36,8.38,3.73,2.77,1.42,5.43,2.96,7.97,4.59,1.27,.82,2.51,1.66,3.71,2.53,1.21,.87,2.45,1.82,3.62,2.76,2.36,1.9,4.57,3.88,6.63,5.94,4.12,4.13,7.52,8.71,10.32,13.41,.13,3.27,.25,6.76,.35,10.4,0-1.46-.02-2.96-.03-4.46-.01-1.17-.02-2.36-.04-3.57v-.87c.32-.22,.77-.42,1.16-.61l.15-.07s.13-.04,.06-.09l-.2-.26-.4-.51-.83-1.02c-1.35-2.52-2.89-4.98-4.6-7.38-1.72-2.39-3.58-4.76-5.69-6.94-4.15-4.38-9.16-8.57-14.34-12.02-2.62-1.75-5.42-3.42-8.27-4.91-2.8-1.46-5.72-2.79-8.75-3.99-3.06-1.22-6.09-2.21-9.22-3.07-1.57-.43-3.15-.82-4.76-1.17-1.62-.36-3.23-.67-4.82-.9-13.72-12.12-32.01-19.92-51.33-20.88-2.51-.12-5-.12-7.46-.02C481.32,4.41,467.67,.36,453.64,.02c-23.84-.58-44,9.32-58.08,25.22-3.19,.6-6.28,1.5-9.25,2.66-7.98-3.91-16.82-6.19-26.18-6.38-24.04-.48-45.26,12.87-56.93,33.11-7.93,.44-15.32,3.09-21.61,7.4-5.37-2.14-11.15-3.4-17.22-3.57-18.96-.53-35.86,9.62-45.54,25.26-1.62-.23-3.26-.38-4.93-.44-14.01-.46-26.77,5.59-35.72,15.58-1.9-.31-3.83-.53-5.79-.6-23.78-.94-44.36,15.91-50.23,39.35-10.45-7.57-22.86-12.35-36.35-13.23-19.33-1.28-37,5.56-51.16,17.36-3.55,2.95-6.91,6.16-10.08,9.72-3.18,3.48-6.23,7.23-9.03,11.25-5.87,7.84-11.38,16.55-14.02,26.46-1.61,6.06-2.01,12.23-.87,18.46,.57,3.11,1.52,6.24,2.89,9.35l.53,1.17c.09,.19,.2,.39,.27,.58l.19,.55c.26,.74,.55,1.47,.84,2.21,.6,1.47,1.27,2.92,2.01,4.36-1.15-2.61-2.06-5.26-2.75-7.92-.96-2.75-1.78-5.56-2.19-8.33-.88-5.56-.54-11.07,.78-16.5,1.21-4.98,3.18-9.66,5.56-14.08,1.19-2.21,2.49-4.35,3.86-6.43,.34-.52,.68-1.03,1.03-1.55,.33-.52,.65-1.04,.98-1.57,.66-1.04,1.35-2.06,2.04-3.07,5.66-8,12-15.15,19.14-21.07,14.24-11.83,31.97-18.69,51.35-17.42Z"/><path class="cls-1" d="M93.87,309.14c5.69,.31,11.33,.03,16.68-.85,6.05,2.27,12.56,3.67,19.3,3.98,16.04,.76,30.77-4.62,42.19-13.99,.86,0,1.72,0,2.57-.04,11.07,7.51,24.27,12.07,38.48,12.53,25.39,.83,48.07-11.59,61.92-31.12,9.48-.4,18.36-3.29,26.04-8.06,6.72,3.64,14.34,5.79,22.44,5.97,9.02,.2,17.53-2.05,24.96-6.16,7.25,5.89,16.35,9.47,26.27,9.65,.79,.01,1.57,0,2.34-.02,9.94,14.27,26.2,23.65,44.09,23.97,10.87,.21,20.9-3.01,29.23-8.64,5.07,2.63,10.52,4.23,16.34,4.42,2.35,.09,4.65-.05,6.9-.42,2.26-.37,4.45-.94,6.52-1.7,7.8,7.48,17.21,12.28,27.28,13.03,7.42,.6,14.41-1.14,20.53-4.6,1.8,.83,3.71,1.5,5.55,2.06,1.8,.57,3.65,.99,5.56,1.25,.49,.07,.99,.12,1.48,.17,.46,.05,.92,.1,1.39,.13,.92,.06,1.85,.08,2.77,.05,.92-.03,1.85-.1,2.77-.21,.87-.1,1.71-.23,2.57-.4,1.71-.34,3.41-.9,5.15-1.51,1.75-.6,3.5-1.35,5.25-2.25,5.14-.4,10.05-.98,14.73-2.04,2.34-.5,4.61-1.1,6.82-1.78,2.21-.67,4.34-1.41,6.41-2.25,8.28-3.27,15.28-7.69,20.98-12.77,.7-.64,1.46-1.28,2.04-1.95,.6-.66,1.19-1.33,1.75-2.01,1.14-1.35,2.09-2.77,3.03-4.2,1.83-2.87,3.44-5.84,4.59-8.95,2.38-6.2,3.62-12.78,3.72-19.61,.02-1.6-.04-3.18-.13-4.75,4.81-3.25,8.87-7.03,12.24-11.2,1.7-2.09,3.25-4.27,4.63-6.54,1.4-2.27,2.67-4.62,3.77-7.05,2.24-4.86,3.95-10.02,5.1-15.4,1.15-5.38,1.75-10.99,1.71-16.76-.07-12.33-3.16-23.91-8.48-34.02-4.3-8.27-10.1-15.53-16.05-21.57-2.9-3.03-6.02-5.75-8.64-8.16-2.44-2.41-4.98-4.45-7.5-6.24,.05-.37,.11-.73,.16-1.1,.07-.58,.14-1.15,.2-1.73,.68-5.74,.96-11.37,1.06-16.8,.05-2.71,.05-5.36,.02-7.95-.03-2.61-.08-5.14-.15-7.59-.1-3.65-.22-7.14-.35-10.4-2.81-4.7-6.2-9.28-10.32-13.41-2.06-2.06-4.28-4.04-6.63-5.94-1.17-.94-2.41-1.89-3.62-2.76-1.2-.87-2.44-1.71-3.71-2.53-2.54-1.64-5.2-3.17-7.97-4.59-2.7-1.37-5.49-2.61-8.38-3.73-1.45-.56-2.91-1.09-4.41-1.59-1.46-.48-2.92-.91-4.42-1.31-2.98-.8-6.05-1.48-9.16-1.99-13.63-12.12-31.93-19.98-51.27-20.98-2.5-.12-4.98-.12-7.44-.02-11.81-6.81-25.42-10.86-39.47-11.2-23.9-.6-44.09,9.31-58.17,25.2-3.19,.6-6.28,1.5-9.26,2.66-7.98-3.91-16.83-6.19-26.19-6.38-24.04-.48-45.28,12.87-56.94,33.12-7.93,.43-15.32,3.09-21.62,7.41-5.37-2.14-11.16-3.4-17.22-3.56-18.97-.52-35.87,9.63-45.56,25.27-1.62-.23-3.26-.38-4.93-.44-14.02-.46-26.78,5.6-35.74,15.58-1.9-.31-3.83-.52-5.8-.6-23.8-.94-44.4,15.93-50.26,39.36-10.46-7.56-22.9-12.35-36.42-13.21-19.37-1.27-37.11,5.59-51.35,17.42-7.14,5.92-13.48,13.07-19.14,21.07-.7,1.01-1.38,2.03-2.04,3.07-.33,.53-.66,1.05-.98,1.57-.34,.52-.69,1.04-1.03,1.55-1.37,2.08-2.67,4.22-3.86,6.43-2.38,4.42-4.35,9.1-5.56,14.08-1.32,5.43-1.66,10.94-.78,16.5,.41,2.77,1.24,5.58,2.19,8.33,.69,2.67,1.61,5.31,2.75,7.92,1.18,2.69,2.61,5.35,4.29,7.96,1.38,2.52,2.94,4.97,4.7,7.36,.44,.59,.87,1.19,1.33,1.78,.45,2.67,1.08,5.31,1.9,7.92,.76,2.59,1.6,5.12,2.63,7.61,2.63,6.46,6.56,12.66,10.77,18.19,14.57,18.57,36.6,31.07,60.86,32.45Z"/></g></g></svg>