<?xml version="1.0" encoding="UTF-8"?><svg id="Layer_2" xmlns="http://www.w3.org/2000/svg" viewBox="0 0 474.66 314.59"><defs><style>.cls-1{fill:#fff;}.cls-2{fill:#f9e9e3;}.cls-3{fill:#fbefea;}</style></defs><g id="clouds"><g><path class="cls-2" d="M51.57,246.14c2.09,3.39,4.39,6.49,6.82,9.23,2.51,2.81,5.2,5.28,8,7.35,2.75,2.03,5.86,3.82,8.99,5.1,1.59,.65,3.15,1.16,4.82,1.6,1.69,.45,3.4,.78,5.14,.98-1-1.86-1.95-3.78-2.81-5.78-3.14-.31-6-.89-8.84-1.86-1.42-.48-2.81-1.05-4.19-1.71-1.37-.65-2.64-1.33-3.94-2.13-2.57-1.57-5.06-3.47-7.43-5.63-2.3-2.11-4.5-4.5-6.57-7.15Z"/><path class="cls-2" d="M471.07,126.92c-1.13-7.76-3.37-15.07-6.27-21.76-1.45-3.35-3.07-6.54-4.82-9.55-.87-1.51-1.78-2.97-2.71-4.38-.93-1.41-1.86-2.77-2.97-4.12,.75,1.27,1.46,2.56,2.08,3.87,4.77,8.87,8.54,19.21,10.04,30.5,1.27,9.6,.72,18.94-1.75,27.63-.62,2.17-1.35,4.3-2.2,6.38-.85,2.05-1.81,4.04-2.87,5.98-2.13,3.87-4.67,7.51-7.6,10.86,2.57,5.64,4.3,11.82,4.89,18.38,.67,7.49-.22,14.76-2.56,21.52-1.19,3.39-2.63,6.58-4.41,9.61-1.77,3.03-3.86,5.88-6.22,8.51-2.34,2.62-5.05,5.07-7.84,7.18-2.8,2.11-5.83,3.95-9.06,5.5-6.5,3.13-13.53,4.91-21.02,5.2-4.35,.19-8.52-.21-12.53-1.06-4.01-.85-7.86-2.16-11.48-3.87-6.56,6.07-15.27,9.86-24.79,10.01-5.97,.08-11.65-1.25-16.7-3.71-5.03-2.48-9.45-6.07-12.95-10.47-1.9,2.28-4.22,4.18-6.84,5.57-5.38,24.7-26.85,43.2-52.35,43.03-6.03-.02-11.78-1.13-17.16-3.06-8.32,5.82-18.37,9.16-29.13,9.02-.96-.01-1.91-.06-2.86-.12-2.77,2.42-5.74,4.59-8.87,6.48-1.57,.95-3.18,1.82-4.83,2.63-.83,.4-1.66,.78-2.51,1.15l-1.27,.53-1.39,.5c-3.74,1.28-7.64,2.25-11.66,2.88-3.97,.62-7.91,.87-12.01,.75-3.26-.09-6.22-.42-9.2-.96-2.94-.54-5.91-1.29-8.58-2.24-2.7-.95-5.31-2.09-7.82-3.42-1.25-.66-2.5-1.37-3.67-2.12-1.16-.75-2.3-1.53-3.41-2.36-2.5,.69-5.05,1.21-7.66,1.53-2.57,.33-5.09,.48-7.7,.41-16.77-.46-30.02-9.16-39.3-22.65,9.14,16.88,23.78,28.14,43.04,28.72,2.55,.06,5.22-.06,7.82-.38,2.6-.32,5.15-.84,7.65-1.53,2.3,1.66,4.71,3.17,7.22,4.49,2.53,1.32,5.07,2.47,7.92,3.42,2.8,.95,5.69,1.7,8.66,2.24,1.46,.27,3.02,.49,4.6,.64,1.58,.16,3.17,.26,4.78,.31,2.04,.06,4.07,.02,6.07-.1,2.06-.14,4.12-.37,6.13-.68,2.02-.31,4.01-.71,5.96-1.2,.96-.24,1.98-.5,2.86-.79,.88-.29,1.75-.59,2.62-.92,6.9-2.61,13.25-6.46,18.79-11.3,.95,.07,1.9,.11,2.86,.12,10.78,.13,20.84-3.21,29.17-9.04,5.38,1.94,11.16,3.02,17.19,3.04,25.55,.13,47.03-18.36,52.41-43.09,2.62-1.39,4.94-3.29,6.84-5.57,7.01,8.82,17.77,14.32,29.74,14.15,4.8-.1,9.37-1.09,13.56-2.81,2.1-.86,4.1-1.91,5.99-3.12,1.9-1.22,3.69-2.61,5.35-4.14,7.27,3.42,15.41,5.26,24.15,4.88,3.77-.16,7.38-.65,10.94-1.56,3.58-.91,7-2.16,10.24-3.71,6.39-3.05,12.37-7.51,17.08-12.77,2.39-2.64,4.41-5.46,6.26-8.53,1.85-3.08,3.37-6.32,4.53-9.7,2.31-6.75,3.17-14.03,2.44-21.51-.64-6.56-2.44-12.74-5.07-18.37,2.94-3.36,5.48-6.96,7.62-10.88,2.16-3.96,3.85-8.13,5.06-12.47,2.42-8.68,2.89-18.01,1.5-27.59Z"/><path class="cls-2" d="M154.53,55.45c.28-.24,.57-.46,.86-.68-.98-1.67-2.05-3.28-3.24-4.8,.25,.55,.48,1.11,.71,1.68,.61,1.24,1.18,2.5,1.67,3.8Z"/><path class="cls-3" d="M42.12,101.56c.08-3.34,.82-6.56,2.13-9.55,1.31-2.98,3.15-5.66,5.48-8,2.32-2.33,5.12-4.3,8.25-5.78,3.1-1.43,6.5-2.34,10.12-2.66-.12-1.01-.21-2.03-.26-3.07-.26-6.11,.84-11.98,3.13-17.39,2.29-5.4,5.65-10.22,9.99-14.34,2.15-2.04,4.61-3.95,7.12-5.55,2.53-1.61,5.24-3,8.12-4.14,1.44-.57,2.91-1.08,4.42-1.52,1.5-.43,2.98-.78,4.51-1.07,3.06-.57,6.22-.85,9.46-.83,17.54,.25,31.49,10.04,38.25,23.96-.23-.56-.46-1.12-.71-1.68-6.51-14.64-20.87-25.05-39.09-25.28-3.25-.03-6.42,.26-9.49,.83-.77,.14-1.52,.3-2.28,.48-.77,.18-1.54,.39-2.29,.61-1.51,.44-2.99,.95-4.43,1.52-2.88,1.14-5.6,2.53-8.14,4.14-2.6,1.65-5.01,3.52-7.18,5.58-8.64,8.18-13.74,19.58-13.15,31.77,.05,1.03,.14,2.06,.26,3.07-3.65,.34-7.03,1.19-10.2,2.7-3.15,1.48-5.95,3.45-8.28,5.79-2.33,2.33-4.2,5.03-5.52,8.04-1.31,2.99-2.05,6.21-2.12,9.55-3.62,1.26-7.05,2.69-10.32,4.54-3.28,1.85-6.34,3.94-9.16,6.23-2.81,2.25-5.41,4.91-7.71,7.65-2.31,2.75-4.33,5.67-6.05,8.73C.09,138.39-1.71,152.87,1.62,167.46c2.4,10.57,7.08,20.02,12.75,27.99-4.76-7.4-8.66-15.93-10.75-25.36-1.62-7.31-2-14.57-1.09-21.58,.45-3.5,1.23-6.94,2.32-10.29,1.09-3.33,2.51-6.64,4.22-9.66,1.71-3.05,3.73-5.97,6.02-8.72,1.15-1.38,2.36-2.71,3.65-4,1.28-1.26,2.61-2.44,4.02-3.59,2.8-2.29,5.85-4.37,9.11-6.22,3.23-1.75,6.66-3.25,10.25-4.48Z"/><path class="cls-3" d="M385.75,49.98c4.94,2.03,9.42,5.18,13.13,9.13,1.51-.19,3.04-.34,4.58-.4,2.83-.12,5.65,.02,8.36,.33,2.68,.3,5.32,.81,7.91,1.52,2.58,.71,5.13,1.62,7.57,2.71,2.37,1.06,4.69,2.3,6.94,3.71,2.25,1.42,4.43,3,6.52,4.75,2.08,1.74,3.92,3.58,5.77,5.6,1.83,2.01,3.59,4.17,5.25,6.45,.83,1.14,1.64,2.32,2.42,3.52,.78,1.21,1.55,2.45,2.2,3.69-.62-1.3-1.33-2.6-2.08-3.87-2.89-4.92-6.2-9.38-9.8-13.27-.9-.97-1.82-1.91-2.76-2.81-.97-.91-2-1.8-3.03-2.64-2.06-1.69-4.2-3.22-6.41-4.59-2.23-1.38-4.43-2.55-6.86-3.61-2.42-1.06-4.9-1.94-7.44-2.62-2.54-.69-5.11-1.17-7.78-1.47-2.7-.32-5.44-.43-8.22-.32-1.54,.06-3.06,.21-4.57,.4-2.96-3.16-6.44-5.81-10.23-7.78-.77-.4-1.55-.78-2.35-1.12,.31,.89,.6,1.79,.87,2.7Z"/><path class="cls-3" d="M155.61,58.68c4.07-3.63,9.44-5.75,15.08-5.56,4.59,.15,8.86,1.85,12.22,4.59,3.53-3.32,7.62-5.94,11.95-7.73,2.14-.9,4.36-1.59,6.65-2.04,1.14-.22,2.3-.39,3.48-.49,1.18-.1,2.5-.15,3.77-.13,5.55,.09,10.81,1.38,15.58,3.63,1.88-1.03,3.85-1.91,5.88-2.63,9.83-18.51,28.25-30.88,49.12-30.81,3.01,.02,5.95,.29,8.82,.79,10.66-9.49,24.17-15.21,38.76-15.32,11.65-.07,22.43,3.38,31.7,9.52,9.19,6.08,16.97,14.89,22.25,25.34-.61-1.34-1.25-2.66-1.93-3.95-5.34-10.18-13.08-18.75-22.14-24.64C347.63,3.27,337.03-.06,325.57,0c-14.6,.11-28.1,5.82-38.76,15.31-2.86-.5-5.81-.78-8.82-.8-20.87-.08-39.28,12.3-49.11,30.8-2.03,.72-4,1.6-5.88,2.63-4.77-2.25-10.03-3.55-15.58-3.63-.64,0-1.29,0-1.91,.02-.59,.02-1.18,.06-1.77,.11-1.17,.1-2.33,.27-3.47,.49-2.28,.45-4.49,1.14-6.64,2.04-4.39,1.77-8.44,4.4-11.98,7.72-3.43-2.75-7.65-4.45-12.25-4.6-5.23-.17-10.1,1.6-14.04,4.68-.29,.22-.58,.44-.86,.68,.4,1.06,.76,2.13,1.08,3.23Z"/><path class="cls-1" d="M128.42,299.32c2.61,.07,5.13-.08,7.7-.41,2.6-.32,5.16-.84,7.66-1.53,1.11,.83,2.25,1.62,3.41,2.36,1.17,.75,2.43,1.45,3.67,2.12,2.51,1.32,5.12,2.47,7.82,3.42,2.68,.95,5.65,1.7,8.58,2.24,2.98,.54,5.94,.88,9.2,.96,4.1,.11,8.04-.14,12.01-.75,4.02-.63,7.92-1.6,11.66-2.88l1.39-.5,1.27-.53c.84-.36,1.68-.75,2.51-1.15,1.65-.8,3.26-1.68,4.83-2.63,3.14-1.89,6.1-4.06,8.87-6.48,.95,.07,1.9,.11,2.86,.12,10.76,.14,20.81-3.2,29.13-9.02,5.38,1.93,11.13,3.04,17.16,3.06,25.5,.17,46.97-18.33,52.35-43.03,2.62-1.39,4.93-3.29,6.84-5.57,3.5,4.4,7.92,7.99,12.95,10.47,5.05,2.46,10.73,3.79,16.7,3.71,9.53-.14,18.23-3.94,24.79-10.01,3.62,1.71,7.47,3.02,11.48,3.87,4.01,.85,8.18,1.25,12.53,1.06,7.49-.3,14.52-2.07,21.02-5.2,3.22-1.55,6.25-3.39,9.06-5.5,2.8-2.1,5.5-4.56,7.84-7.18,2.36-2.63,4.45-5.48,6.22-8.51,1.78-3.03,3.22-6.22,4.41-9.61,2.34-6.75,3.23-14.03,2.56-21.52-.59-6.56-2.32-12.75-4.89-18.38,2.92-3.35,5.47-6.98,7.6-10.86,1.06-1.94,2.02-3.93,2.87-5.98,.85-2.07,1.58-4.21,2.2-6.38,2.47-8.68,3.02-18.03,1.75-27.63-1.5-11.29-5.26-21.63-10.04-30.5-.65-1.24-1.41-2.48-2.2-3.69-.78-1.21-1.59-2.38-2.42-3.52-1.66-2.29-3.41-4.44-5.25-6.45-1.86-2.02-3.69-3.86-5.77-5.6-2.1-1.74-4.28-3.33-6.52-4.75-2.25-1.42-4.56-2.66-6.94-3.71-2.44-1.08-4.99-2-7.57-2.71-2.58-.71-5.22-1.22-7.91-1.52-2.72-.31-5.54-.44-8.36-.33-1.55,.06-3.07,.21-4.58,.4-3.71-3.95-8.19-7.1-13.13-9.13-.27-.91-.56-1.81-.87-2.7-1.12-3.28-2.46-6.44-3.99-9.45-5.28-10.45-13.06-19.27-22.25-25.34-9.28-6.13-20.05-9.58-31.7-9.52-14.6,.12-28.11,5.83-38.76,15.32-2.87-.51-5.8-.77-8.82-.79-20.88-.07-39.29,12.3-49.12,30.81-2.03,.72-4,1.6-5.88,2.63-4.77-2.25-10.03-3.54-15.58-3.63-1.27-.02-2.59,.03-3.77,.13-1.17,.1-2.33,.27-3.48,.49-2.29,.45-4.51,1.14-6.65,2.04-4.33,1.79-8.43,4.41-11.95,7.73-3.36-2.74-7.64-4.44-12.22-4.59-5.65-.19-11.01,1.94-15.08,5.56-.32-1.09-.68-2.17-1.08-3.23-.49-1.3-1.06-2.56-1.67-3.8-6.76-13.92-20.71-23.71-38.25-23.96-3.24-.03-6.41,.26-9.46,.83-1.54,.29-3.01,.63-4.51,1.07-1.51,.44-2.98,.95-4.42,1.52-2.87,1.14-5.59,2.53-8.12,4.14-2.51,1.6-4.97,3.5-7.12,5.55-4.34,4.12-7.7,8.95-9.99,14.34-2.29,5.4-3.39,11.28-3.13,17.39,.04,1.03,.14,2.06,.26,3.07-3.62,.32-7.03,1.22-10.12,2.66-3.14,1.48-5.93,3.45-8.25,5.78-2.33,2.34-4.17,5.02-5.48,8-1.31,2.99-2.05,6.21-2.13,9.55-3.6,1.23-7.03,2.73-10.25,4.48-3.26,1.85-6.31,3.93-9.11,6.22-1.4,1.15-2.74,2.33-4.02,3.59-1.28,1.29-2.5,2.62-3.65,4-2.29,2.75-4.31,5.67-6.02,8.72-1.71,3.02-3.13,6.32-4.22,9.66-1.09,3.35-1.87,6.79-2.32,10.29-.91,7.01-.53,14.27,1.09,21.58,2.09,9.42,5.98,17.95,10.75,25.36,3.05,4.72,6.39,8.91,10.1,12.75,2.01,2.08,4.1,3.98,6.24,5.71,1.07,.87,2.15,1.67,3.25,2.46,1.12,.81,2.25,1.57,3.39,2.28l.93,.6c1.4,5.16,3.28,10,5.49,14.46,1.13,2.27,2.33,4.43,3.63,6.5,1.32,2.09,2.71,4.08,4.17,5.93,2.08,2.65,4.28,5.04,6.57,7.15,2.36,2.16,4.86,4.07,7.43,5.63,1.29,.79,2.57,1.47,3.94,2.13,1.38,.66,2.77,1.23,4.19,1.71,2.84,.97,5.7,1.54,8.84,1.86,.86,2,1.81,3.91,2.81,5.78,1.17,2.2,2.44,4.29,3.78,6.27,9.29,13.49,22.53,22.19,39.3,22.65Z"/></g></g></svg>