<?xml version="1.0" encoding="UTF-8"?><svg id="Layer_2" xmlns="http://www.w3.org/2000/svg" viewBox="0 0 241.21 62.29"><defs><style>.cls-1{fill:#fff;}.cls-2{fill:#f9e9e3;}.cls-3{fill:#fbefea;}</style></defs><g id="clouds"><g><path class="cls-2" d="M218.01,9.76c-2.33-1.23-5.33-2.16-8.78-2.74-3.46-.64-7.37-.92-11.52-.78,.6,.34,1.17,.68,1.67,1.05,3.65-.16,7.13,.03,10.28,.47,3.15,.4,5.98,1.08,8.35,2Z"/><path class="cls-2" d="M.07,26.62c-.5,3.14,1.61,6.42,5.6,9.36-.31-.32-.61-.64-.88-.96-2.12-2.24-3.14-4.6-2.78-6.88,.61-3.88,5.05-6.8,11.57-8.35-.84-1.33-1.21-2.68-1.01-4,.91-6.02,12.9-9.24,26.84-7.67,4.04,.44,7.81,1.34,11.14,2.36,3.33-.89,7.57-1.22,12.13-.79,5.73,.44,10.76,1.98,14.02,4.03,.96-.4,2.12-.72,3.41-.92,1.51-2.42,4.9-4.41,9.41-5.7,4.52-1.28,10.18-2.05,16.3-1.77,2.89,.1,5.67,.36,8.26,.81,2.01-.55,4.22-.97,6.57-1.24,2.36-.29,4.86-.46,7.45-.44l1.38,.03c5.28-1.91,12.09-3.22,19.56-3.31,5.87-.12,11.36,.43,16.05,1.6,2.51-.43,5.15-.73,7.9-.85,2.22-.1,4.38-.09,6.47,.02,2.09,.08,4.09,.25,6,.53,3.81,.53,7.2,1.48,9.97,2.65-2.73-1.52-6.35-2.75-10.55-3.48-4.19-.7-8.96-1.06-14.01-.83-2.74,.11-5.38,.46-7.89,.82-2.34-.58-4.88-1.01-7.56-1.28C152.73,.09,149.89-.01,146.96,0c-3.73,.04-7.3,.38-10.59,.97-3.29,.55-6.32,1.31-8.95,2.3l-1.38-.03c-5.18,0-9.99,.53-14.01,1.64-2.59-.45-5.35-.7-8.24-.85-12.21-.43-22.65,2.57-25.7,7.43-1.29,.21-2.44,.49-3.41,.88-3.24-2.07-8.27-3.56-13.99-4.06-4.55-.43-8.78-.1-12.11,.79-3.32-1.08-7.08-1.95-11.12-2.4-3.49-.37-6.84-.5-9.93-.35-3.09,.16-5.92,.61-8.35,1.3-4.85,1.34-8.09,3.62-8.54,6.65-.2,1.32,.17,2.67,1,4C5.13,19.82,.69,22.74,.07,26.62Z"/><path class="cls-2" d="M165.45,51.95l-.42,.16c.54,.32,1.12,.62,1.75,.9l-.4-.32c-.34-.24-.66-.48-.94-.73Z"/><path class="cls-3" d="M218.61,39.23c-.42,2.74-5.52,5.42-12.07,6.04,.05,.2,.09,.41,.11,.62,.21,2.47-2.02,4.91-5.82,6.85-3.79,1.98-9.17,3.26-15.18,3.66-4.11,.3-7.99-.07-11.3-.71-3.31-.67-6.07-1.7-7.96-3.02l.4,.32c1.84,1.38,4.62,2.49,8,3.2,3.38,.7,7.38,1.07,11.63,.76,12.05-.7,21.45-5.6,21.01-10.53-.02-.21-.06-.41-.11-.62,6.56-.62,11.65-3.33,12.08-6.06,3.31-.7,6.39-1.57,9.11-2.66,2.72-1.1,5.09-2.35,7.02-3.69,3.86-2.69,5.96-5.75,5.57-8.76-.28-2.18-1.83-4.08-4.28-5.62,2,1.44,3.26,3.16,3.5,5.1,.38,3.02-1.71,6.08-5.57,8.76-1.93,1.34-4.3,2.59-7.02,3.69-2.72,1.07-5.79,1.95-9.1,2.64Z"/><path class="cls-3" d="M41.84,49c-2.62-.74-4.93-1.67-6.81-2.72-.84-.07-1.68-.15-2.54-.24-3.13-.33-6.12-.9-8.93-1.62-2.81-.71-5.44-1.56-7.82-2.52-4.77-1.91-8.55-4.37-10.94-6.88,.27,.32,.56,.64,.88,.96,4.87,4.99,15.17,9.32,27.47,10.74,.85,.1,1.7,.17,2.54,.24,1.51,.84,3.29,1.6,5.29,2.25,.42,.13,.83,.26,1.24,.38-.13-.2-.26-.4-.37-.6Z"/><path class="cls-3" d="M164.82,51.31c-2.03,.82-4.73,1.37-7.71,1.45-2.45,.06-4.73-.16-6.62-.68-3.72,1.43-8.66,2.33-14.1,2.39-2.93,0-5.73-.28-8.27-.74-.99,.21-2.03,.39-3.1,.53-1.28,.94-2.86,1.8-4.68,2.55-1.82,.73-3.89,1.35-6.15,1.85-4.52,1-9.81,1.54-15.45,1.27-1.62-.07-3.21-.19-4.75-.36-1.46,.42-3.02,.79-4.66,1.1-1.64,.29-3.37,.51-5.16,.67-3.59,.31-7.45,.39-11.46,.13-6.37-.51-12.28-1.64-17.21-3.39-4.93-1.75-8.9-3.95-11.46-6.36,.29,.3,.6,.61,.93,.9,2.61,2.36,6.57,4.5,11.46,6.21,4.89,1.68,10.71,2.8,16.98,3.29,8.03,.46,15.46-.18,21.29-1.92,1.55,.17,3.14,.29,4.76,.36,5.64,.28,10.94-.29,15.46-1.28,2.26-.51,4.33-1.12,6.15-1.86,1.82-.76,3.4-1.62,4.68-2.55,1.07-.14,2.11-.32,3.1-.53,2.54,.45,5.34,.74,8.27,.72,5.43-.06,10.38-.96,14.1-2.39,1.89,.49,4.17,.73,6.62,.67,2.73-.08,5.21-.55,7.17-1.25l.42-.16c-.23-.21-.44-.42-.63-.63Z"/><path class="cls-1" d="M172.98,1.93c-2.75,.13-5.39,.42-7.9,.85-4.68-1.16-10.17-1.72-16.05-1.6-7.47,.08-14.28,1.4-19.56,3.31l-1.38-.03c-2.59-.02-5.1,.15-7.45,.44-2.36,.27-4.57,.69-6.57,1.24-2.59-.45-5.36-.71-8.26-.81-6.12-.28-11.78,.49-16.3,1.77-4.52,1.29-7.9,3.28-9.41,5.7-1.29,.2-2.45,.52-3.41,.92-3.26-2.05-8.28-3.59-14.02-4.03-4.56-.42-8.79-.1-12.13,.79-3.33-1.02-7.1-1.92-11.14-2.36-13.94-1.57-25.93,1.65-26.84,7.67-.19,1.32,.17,2.67,1.01,4-6.52,1.54-10.96,4.46-11.57,8.35-.36,2.28,.67,4.64,2.78,6.88,2.39,2.51,6.17,4.97,10.94,6.88,2.38,.95,5.01,1.8,7.82,2.52,2.81,.72,5.81,1.29,8.93,1.62,.85,.1,1.7,.17,2.54,.24,1.88,1.05,4.19,1.98,6.81,2.72,.11,.2,.24,.4,.37,.6,.49,.73,1.11,1.46,1.85,2.15,2.56,2.41,6.53,4.61,11.46,6.36,4.93,1.75,10.84,2.88,17.21,3.39,4.01,.27,7.87,.19,11.46-.13,1.79-.16,3.52-.38,5.16-.67,1.64-.31,3.2-.68,4.66-1.1,1.55,.17,3.13,.29,4.75,.36,5.63,.27,10.93-.27,15.45-1.27,2.26-.5,4.33-1.13,6.15-1.85,1.82-.75,3.4-1.62,4.68-2.55,1.07-.14,2.11-.32,3.1-.53,2.54,.46,5.33,.73,8.27,.74,5.43-.06,10.38-.96,14.1-2.39,1.88,.51,4.16,.74,6.62,.68,2.98-.09,5.68-.63,7.71-1.45,.19,.21,.4,.42,.63,.63,.28,.25,.6,.5,.94,.73,1.89,1.32,4.65,2.35,7.96,3.02,3.31,.64,7.19,1.01,11.3,.71,6.01-.41,11.39-1.69,15.18-3.66,3.8-1.94,6.02-4.38,5.82-6.85-.02-.21-.06-.41-.11-.62,6.55-.62,11.65-3.31,12.07-6.04,3.31-.69,6.38-1.58,9.1-2.64,2.72-1.1,5.09-2.35,7.02-3.69,3.86-2.69,5.96-5.75,5.57-8.76-.25-1.94-1.5-3.66-3.5-5.1-1.27-.92-2.85-1.72-4.68-2.39-2-.73-4.31-1.31-6.83-1.71l-.51-.09c-.53-1.03-1.39-1.97-2.52-2.82-1.15-.86-2.58-1.63-4.24-2.27-2.37-.92-5.2-1.6-8.35-2-3.15-.44-6.63-.63-10.28-.47-.51-.37-1.07-.72-1.67-1.05-.7-.39-1.47-.76-2.29-1.11-2.77-1.17-6.17-2.11-9.97-2.65-1.9-.27-3.91-.45-6-.53-2.09-.11-4.25-.12-6.47-.02Z"/></g></g></svg>