<?xml version="1.0" encoding="UTF-8"?><svg id="Layer_2" xmlns="http://www.w3.org/2000/svg" viewBox="0 0 89.03 23.97"><defs><style>.cls-1{fill:#fff;}.cls-2{fill:#f9e9e3;}.cls-3{fill:#fbefea;}</style></defs><g id="clouds"><g><path class="cls-2" d="M8.21,20.13c1.7,.96,4.45,1.57,7.61,1.57-.22-.13-.43-.26-.62-.4-2.77,.01-5.25-.43-6.99-1.18Z"/><path class="cls-2" d="M88.95,8.49c-.05-1.13-1.04-2.13-2.67-2.89,.13,.09,.26,.18,.38,.28,.91,.64,1.45,1.39,1.48,2.22,.06,1.4-1.34,2.72-3.61,3.7,.4,.41,.62,.85,.64,1.33,.09,2.17-4.14,4.11-9.44,4.34-1.53,.06-2.99-.02-4.29-.23-1.2,.48-2.77,.81-4.5,.88-2.17,.09-4.13-.23-5.43-.82-.35,.18-.77,.33-1.24,.45-.94,1.82-4.79,3.32-9.46,3.52-1.1,.05-2.16,.02-3.16-.08-1.5,.49-3.33,.82-5.3,.9-.18,0-.35,.01-.53,.02-1.98,.79-4.58,1.33-7.44,1.46-2.25,.1-4.36-.08-6.15-.47-.96,.15-1.97,.26-3.02,.3-3.4,.14-6.46-.35-8.53-1.25,2.04,1.14,5.47,1.81,9.34,1.65,1.05-.04,2.06-.15,3.02-.3,1.79,.38,3.9,.56,6.15,.47,2.86-.12,5.46-.66,7.44-1.46,.17,0,.35,0,.53-.02,1.98-.08,3.8-.41,5.31-.9,1,.09,2.06,.13,3.16,.08,4.67-.2,8.52-1.69,9.46-3.52,.48-.12,.9-.27,1.24-.45,1.3,.58,3.26,.91,5.43,.82,1.73-.07,3.3-.4,4.5-.88,1.3,.21,2.75,.29,4.29,.23,5.31-.22,9.54-2.17,9.44-4.34-.02-.48-.25-.92-.64-1.33,2.28-.98,3.67-2.3,3.61-3.7Z"/><path class="cls-2" d="M28.03,5.58s.1-.04,.15-.06c-.19-.11-.4-.22-.63-.31,.05,.04,.1,.08,.14,.11,.12,.08,.24,.17,.34,.26Z"/><path class="cls-3" d="M8.63,9.64c.21-.97,2.11-1.8,4.49-1.94-.02-.07-.03-.15-.03-.22-.07-1.76,3.36-3.34,7.68-3.53,2.95-.12,5.55,.44,6.92,1.37-.05-.04-.09-.08-.14-.11-1.33-.99-4-1.59-7.04-1.46-4.31,.18-7.75,1.76-7.68,3.53,0,.07,.01,.15,.03,.22-2.38,.14-4.28,.98-4.49,1.94C3.48,10.15-.07,12.12,.02,14.29c.03,.78,.54,1.5,1.41,2.11-.7-.56-1.11-1.21-1.14-1.9-.09-2.16,3.46-4.13,8.34-4.85Z"/><path class="cls-3" d="M72.58,3.21c.97,.12,1.85,.32,2.58,.58,.3-.02,.61-.04,.92-.05,4.54-.19,8.52,.68,10.58,2.13-.12-.09-.25-.19-.38-.28-2.09-1.4-6.01-2.25-10.47-2.06-.31,.01-.61,.03-.92,.05-.58-.21-1.26-.38-2.01-.5-.15-.02-.31-.05-.46-.07,.06,.06,.11,.13,.16,.19Z"/><path class="cls-3" d="M28.26,5.8c.73-.3,1.7-.51,2.77-.56,.88-.04,1.71,.04,2.39,.2,1.33-.55,3.1-.93,5.05-1.01,1.06-.04,2.06,0,2.99,.12,.35-.09,.72-.17,1.11-.24,1.77-1.42,5.24-2.48,9.27-2.65,.58-.02,1.15-.03,1.7-.02,2.02-.77,4.63-1.3,7.49-1.42,4.55-.19,8.55,.68,10.62,2.13-.12-.09-.24-.18-.38-.27C69.18,.68,65.23-.16,60.76,.03c-2.86,.12-5.47,.64-7.49,1.42-.56-.01-1.12,0-1.7,.02-4.03,.17-7.5,1.23-9.27,2.65-.38,.07-.75,.15-1.11,.24-.92-.12-1.93-.16-2.99-.12-1.95,.08-3.72,.46-5.05,1.01-.68-.16-1.51-.24-2.39-.2-.98,.04-1.87,.22-2.58,.48-.05,.02-.1,.04-.15,.06,.08,.07,.16,.15,.23,.22Z"/><path class="cls-1" d="M25.21,23.38c1.05-.04,2.06-.15,3.02-.3,1.79,.38,3.9,.56,6.15,.47,2.86-.12,5.46-.66,7.44-1.46,.17,0,.35,0,.53-.02,1.98-.08,3.8-.41,5.3-.9,1,.09,2.06,.13,3.16,.08,4.67-.2,8.52-1.69,9.46-3.52,.48-.12,.9-.27,1.24-.45,1.3,.58,3.26,.91,5.43,.82,1.73-.07,3.3-.4,4.5-.88,1.3,.21,2.75,.29,4.29,.23,5.31-.22,9.54-2.17,9.44-4.34-.02-.48-.25-.92-.64-1.33,2.28-.98,3.67-2.3,3.61-3.7-.03-.82-.57-1.57-1.48-2.22-2.06-1.45-6.04-2.32-10.58-2.13-.31,.01-.61,.03-.92,.05-.73-.27-1.6-.47-2.58-.58-.05-.06-.11-.13-.16-.19-.21-.23-.47-.45-.77-.66C69.58,.92,65.58,.04,61.03,.23c-2.86,.12-5.47,.64-7.49,1.42-.56-.01-1.12,0-1.7,.02-4.03,.17-7.5,1.23-9.27,2.65-.38,.07-.75,.15-1.11,.24-.92-.12-1.93-.16-2.99-.12-1.95,.08-3.72,.46-5.05,1.01-.68-.16-1.51-.24-2.39-.2-1.07,.05-2.04,.25-2.77,.56-.07-.08-.14-.15-.23-.22-.1-.09-.22-.17-.34-.26-1.37-.93-3.96-1.5-6.92-1.37-4.31,.18-7.75,1.76-7.68,3.53,0,.07,.01,.15,.03,.22-2.38,.14-4.28,.98-4.49,1.94C3.75,10.36,.2,12.33,.29,14.49c.03,.7,.44,1.34,1.14,1.9,.45,.36,1.01,.69,1.67,.97,.73,.31,1.57,.58,2.5,.78,.06,.01,.12,.03,.19,.04,.17,.38,.47,.73,.87,1.05,.41,.33,.93,.63,1.54,.89,1.74,.75,4.22,1.19,6.99,1.18,.19,.14,.4,.27,.62,.4,.26,.15,.55,.29,.85,.42,2.08,.9,5.14,1.4,8.53,1.25Z"/></g></g></svg>