<?xml version="1.0" encoding="UTF-8"?><svg id="Layer_2" xmlns="http://www.w3.org/2000/svg" viewBox="0 0 250.8 52.63"><defs><style>.cls-1{fill:#fff;}.cls-2{fill:#f9e9e3;}.cls-3{fill:#fbefea;}</style></defs><g id="clouds"><g><path class="cls-2" d="M250.63,30.09c.18-2.69-1.85-5.28-5.47-7.44,.28,.23,.53,.47,.77,.71,1.95,1.71,2.98,3.6,2.86,5.55-.25,3.65-4.36,6.62-10.58,8.48,.03,.25,.04,.5,.03,.75-.13,3.07-3.13,5.75-7.83,7.6-4.71,1.86-11.21,2.96-18.36,2.81-2.05-.03-4.04-.17-5.95-.4-2.9,.62-6.18,.92-9.69,.88-4.7-.05-9.02-.76-12.49-1.93-1.77,.25-3.69,.39-5.68,.38-2.43-.01-4.74-.25-6.83-.66-3.37,.91-7.37,1.41-11.68,1.41-7.04,0-13.28-1.47-17.23-3.68-.3,0-.6,0-.9,.01-3.82,0-7.34-.52-10.18-1.42-2.82,.68-6.07,1.06-9.54,1.09-3.11,.02-6.06-.28-8.68-.82-2.9,.8-6.28,1.3-9.9,1.44-5.09,3.19-13.59,5.29-23.23,5.42-5.4,.07-10.45-.53-14.76-1.57l-.97,.04c-4.15,1.62-9.59,2.63-15.53,2.75-2.51,.05-4.93-.07-7.21-.33-1.95,.22-3.99,.35-6.07,.41-4.41,.11-8.6-.2-12.35-.87-3.73-.64-7.03-1.63-9.7-2.88,2.63,1.57,6.11,2.81,10.2,3.64,4.11,.85,8.79,1.27,13.77,1.15,2.09-.04,4.12-.18,6.07-.4,2.28,.26,4.7,.38,7.21,.33,5.95-.11,11.39-1.13,15.54-2.75l.97-.04c4.3,1.05,9.36,1.65,14.76,1.58,9.64-.12,18.13-2.22,23.23-5.42,3.63-.13,7-.63,9.9-1.43,2.62,.54,5.56,.83,8.67,.82,3.46-.02,6.72-.4,9.54-1.08,2.84,.9,6.36,1.43,10.18,1.42,.3,0,.6,0,.9-.01,3.94,2.23,10.19,3.68,17.22,3.69,4.3,0,8.3-.5,11.67-1.41,2.09,.41,4.39,.64,6.82,.66,2,0,3.9-.11,5.68-.37,3.46,1.16,7.79,1.88,12.48,1.93,3.49,.05,6.78-.26,9.68-.87,1.91,.22,3.9,.36,5.95,.4,14.29,.29,25.85-4.23,26.15-10.38,.01-.25,0-.5-.03-.75,6.16-1.79,10.31-4.81,10.56-8.44Z"/><path class="cls-3" d="M28.17,23.24c5.35-.15,10.35,.38,14.6,1.41,1.73-3.78,9.5-6.77,18.89-6.91,.78-.01,1.54,0,2.29,.02,3.34-1.69,8.28-2.78,13.79-2.85,.66,0,1.3,0,1.94,.02,3.58-2.57,10.1-4.33,17.58-4.38,2.39-.02,4.68,.13,6.81,.43,2.43-.73,5.3-1.19,8.41-1.31,4.37-3.26,12.62-5.51,22.09-5.51,3.69,0,7.19,.32,10.35,.91,1.16-.19,2.37-.34,3.62-.44,5.42-2.54,13.29-4.16,22.07-4.1,5.19,.04,10.05,.61,14.29,1.65,.86-.02,1.72-.03,2.6-.03,6.72,.07,12.86,1.14,17.65,2.91,9.65,.38,17.94,3,22.15,6.51-.25-.24-.53-.48-.82-.71-4.27-3.44-12.45-5.97-21.96-6.35-4.79-1.77-10.93-2.83-17.65-2.9-.88,0-1.74,0-2.6,.03C180.03,.61,175.16,.04,169.97,0c-8.78-.07-16.65,1.56-22.07,4.1-1.25,.1-2.46,.25-3.62,.44-3.16-.59-6.66-.92-10.35-.91-9.47,0-17.72,2.26-22.1,5.51-3.11,.12-5.99,.58-8.42,1.31-2.13-.3-4.43-.45-6.81-.43-7.47,.05-14,1.82-17.58,4.38-.64-.02-1.29-.03-1.94-.02-5.52,.06-10.45,1.16-13.79,2.85-.75-.03-1.52-.03-2.29-.02-9.38,.13-17.16,3.13-18.89,6.91-4.25-1.04-9.26-1.55-14.6-1.41-3.82,.09-7.46,.53-10.75,1.24-3.29,.71-6.24,1.64-8.7,2.83C3.14,29.14,.23,32.21,.41,35.44c.11,1.98,1.36,3.79,3.44,5.33-1.69-1.43-2.69-3.06-2.78-4.82-.18-3.24,2.73-6.31,7.65-8.66,4.91-2.3,11.81-3.88,19.45-4.06Z"/><path class="cls-1" d="M35.56,51.57c2.08-.06,4.11-.18,6.07-.41,2.28,.26,4.7,.38,7.21,.33,5.95-.13,11.39-1.13,15.53-2.75l.97-.04c4.3,1.04,9.36,1.64,14.76,1.57,9.64-.13,18.14-2.23,23.23-5.42,3.63-.14,7-.64,9.9-1.44,2.62,.54,5.56,.83,8.68,.82,3.47-.02,6.72-.41,9.54-1.09,2.84,.9,6.36,1.43,10.18,1.42,.3,0,.6,0,.9-.01,3.94,2.21,10.19,3.68,17.23,3.68,4.31,0,8.31-.5,11.68-1.41,2.09,.41,4.39,.64,6.83,.66,1.99,.01,3.91-.13,5.68-.38,3.47,1.16,7.79,1.88,12.49,1.93,3.51,.03,6.79-.27,9.69-.88,1.91,.22,3.9,.36,5.95,.4,7.15,.15,13.65-.95,18.36-2.81,4.7-1.85,7.7-4.53,7.83-7.6,.01-.25,0-.5-.03-.75,6.22-1.85,10.33-4.82,10.58-8.48,.12-1.94-.91-3.84-2.86-5.55-3.2-2.84-8.82-5.04-15.66-6.18l.02-.18v-.27c-.06-1.83-1.13-3.6-3-5.15-4.21-3.51-12.5-6.12-22.15-6.51-4.78-1.77-10.93-2.84-17.65-2.91-.88,0-1.74,0-2.6,.03-4.24-1.04-9.1-1.61-14.29-1.65-8.78-.07-16.65,1.56-22.07,4.1-1.25,.1-2.46,.25-3.62,.44-3.16-.59-6.66-.92-10.35-.91-9.47,0-17.72,2.25-22.09,5.51-3.11,.12-5.99,.57-8.41,1.31-2.13-.3-4.43-.45-6.81-.43-7.47,.06-14,1.81-17.58,4.38-.64-.02-1.29-.03-1.94-.02-5.52,.06-10.45,1.16-13.79,2.85-.75-.03-1.52-.03-2.29-.02-9.38,.13-17.16,3.13-18.89,6.91-4.25-1.04-9.25-1.56-14.6-1.41-7.64,.18-14.54,1.76-19.45,4.06-4.92,2.35-7.83,5.42-7.65,8.66,.1,1.76,1.09,3.39,2.78,4.82,.87,.74,1.93,1.42,3.14,2.03l.45,.23c.49,.8,1.17,1.55,2,2.26,1.07,.91,2.46,1.77,4.06,2.52,2.67,1.26,5.97,2.24,9.7,2.88,3.76,.67,7.94,.99,12.35,.87Z"/></g></g></svg>