<?xml version="1.0" encoding="UTF-8"?><svg id="Layer_2" xmlns="http://www.w3.org/2000/svg" viewBox="0 0 285.4 72.11"><defs><style>.cls-1{fill:#fff;}.cls-2{fill:#f9e9e3;}.cls-3{fill:#fbefea;}</style></defs><g id="clouds"><g><path class="cls-2" d="M259.63,16.73c-2.65-1.67-6.14-3.07-10.21-4.09-4.07-1.05-8.72-1.73-13.7-1.92,.69,.45,1.34,.91,1.91,1.39,4.38,.13,8.52,.65,12.24,1.45,3.72,.78,7.03,1.86,9.76,3.17Z"/><path class="cls-2" d="M.04,32.2c-.41,3.74,2.26,7.5,7.08,10.76-.38-.36-.74-.73-1.08-1.09-2.59-2.54-3.92-5.27-3.63-7.98,.5-4.62,5.57-8.3,13.23-10.46-1.06-1.52-1.56-3.1-1.4-4.67,.76-7.17,14.92-11.57,31.66-10.11,4.85,.41,9.38,1.33,13.38,2.5,3.96-1.12,9.02-1.58,14.48-1.16,6.87,.48,12.9,2.26,16.79,4.66,1.15-.47,2.53-.84,4.07-1.08,1.8-2.86,5.85-5.2,11.28-6.71,5.43-1.51,12.24-2.3,19.59-1.9,3.47,.17,6.8,.55,9.9,1.15,4.85-1.19,10.66-1.77,16.9-1.57l1.65,.08c6.41-2.1,14.67-3.33,23.67-3.09,7.08,.15,13.66,1.14,19.22,2.76,3.04-.34,6.24-.52,9.55-.49,2.67,.02,5.28,.18,7.78,.45,2.5,.25,4.9,.61,7.16,1.08,4.53,.93,8.53,2.28,11.75,3.9-6.29-4.09-16.98-6.73-29.16-6.88-3.31-.04-6.5,.16-9.54,.47-5.55-1.64-12.13-2.59-19.2-2.78-4.5-.12-8.81,.12-12.8,.67-3.99,.52-7.66,1.33-10.86,2.4-.55-.03-1.1-.05-1.65-.08-6.23-.19-12.04,.34-16.89,1.55-3.1-.59-6.42-.97-9.89-1.17-14.68-.72-27.24,2.86-30.86,8.59-1.54,.24-2.92,.59-4.07,1.06-3.89-2.41-9.92-4.16-16.78-4.68-5.46-.43-10.51,.04-14.48,1.15-3.99-1.2-8.52-2.11-13.37-2.52-8.37-.71-16.07-.05-21.81,1.8-5.72,1.8-9.46,4.68-9.84,8.27-.16,1.57,.33,3.15,1.39,4.67C5.62,23.9,.55,27.58,.04,32.2Z"/><path class="cls-2" d="M194.31,62.37l-.5,.16c.61,.4,1.27,.79,1.99,1.16-.16-.13-.3-.27-.45-.4-.38-.3-.74-.6-1.05-.92Z"/><path class="cls-3" d="M257.45,51.53c-.76,3.19-6.97,5.82-14.67,6.01,.04,.24,.07,.49,.07,.74,.07,5.86-11.26,10.75-25.3,10.71-9.61-.03-17.93-2.37-22.18-5.7,.14,.14,.29,.27,.45,.4,4.12,3.49,12.67,6,22.59,6.01,14.05,.05,25.37-4.86,25.31-10.72,0-.25-.03-.49-.07-.74,7.71-.18,13.91-2.83,14.67-6.02,7.89-.95,14.72-3.06,19.54-5.81,4.82-2.74,7.63-6.12,7.52-9.72-.08-2.6-1.69-5.01-4.42-7.08,2.21,1.91,3.49,4.07,3.56,6.39,.11,3.59-2.7,6.97-7.52,9.72-2.41,1.37-5.32,2.58-8.62,3.58-3.3,.98-6.98,1.73-10.92,2.22Z"/><path class="cls-3" d="M49.91,56.89c-3.07-.79-5.8-1.82-8.03-3-.98-.05-1.97-.12-2.97-.21-14.65-1.31-27.02-6.06-32.87-11.81,.33,.37,.69,.73,1.08,1.09,5.97,5.62,18.17,10.23,32.58,11.51,1,.09,1.99,.15,2.97,.21,1.78,.95,3.89,1.79,6.23,2.5,.48,.14,.96,.28,1.46,.41-.16-.23-.31-.46-.45-.7Z"/><path class="cls-3" d="M193.62,61.59c-2.42,.86-5.59,1.36-9.08,1.3-2.86-.05-5.51-.46-7.69-1.15-4.41,1.52-10.22,2.37-16.55,2.2-3.42-.11-6.67-.52-9.62-1.15-1.16,.21-2.38,.39-3.64,.52-3.05,2.14-7.45,3.84-12.74,4.92-5.28,1.08-11.45,1.59-18,1.22-1.88-.1-3.73-.26-5.52-.47-6.8,1.96-15.43,2.76-24.74,2.19-7.4-.53-14.27-1.84-20.03-3.81-5.76-1.96-10.42-4.48-13.46-7.28,.34,.35,.71,.7,1.1,1.05,3.09,2.73,7.74,5.19,13.45,7.1,5.7,1.9,12.46,3.19,19.75,3.7,9.31,.56,17.94-.24,24.74-2.2,1.8,.21,3.64,.38,5.53,.47,6.55,.37,12.72-.15,18-1.23,5.29-1.07,9.69-2.79,12.74-4.92,1.26-.14,2.47-.31,3.64-.52,2.95,.62,6.2,1.05,9.62,1.14,6.34,.17,12.14-.68,16.56-2.2,2.18,.68,4.82,1.09,7.69,1.15,3.19,.06,6.11-.36,8.43-1.09l.5-.16c-.25-.26-.49-.51-.69-.78Z"/><path class="cls-1" d="M206.38,3.8c-3.31-.03-6.51,.14-9.55,.49-5.56-1.63-12.14-2.61-19.22-2.76-9-.24-17.26,.99-23.67,3.09l-1.65-.08c-6.24-.2-12.05,.38-16.9,1.57-3.1-.59-6.43-.98-9.9-1.15-7.35-.4-14.16,.39-19.59,1.9-5.43,1.52-9.48,3.86-11.28,6.71-1.54,.24-2.92,.61-4.07,1.08-3.9-2.4-9.93-4.18-16.79-4.66-5.46-.42-10.52,.04-14.48,1.16-4-1.17-8.53-2.09-13.38-2.5-16.74-1.46-30.9,2.94-31.66,10.11-.16,1.57,.34,3.15,1.4,4.67-7.65,2.16-12.73,5.83-13.23,10.46-.29,2.72,1.04,5.44,3.63,7.98,5.85,5.75,18.22,10.51,32.87,11.81,1,.09,1.99,.15,2.97,.21,2.23,1.18,4.96,2.21,8.03,3,.14,.23,.29,.46,.45,.7,.59,.85,1.33,1.69,2.2,2.49,3.04,2.8,7.7,5.31,13.46,7.28,5.76,1.96,12.62,3.28,20.03,3.81,9.31,.57,17.93-.23,24.74-2.19,1.8,.21,3.64,.38,5.52,.47,6.55,.37,12.71-.14,18-1.22,5.28-1.07,9.69-2.78,12.74-4.92,1.26-.14,2.47-.31,3.64-.52,2.95,.63,6.2,1.04,9.62,1.15,6.34,.17,12.14-.68,16.55-2.2,2.18,.69,4.82,1.1,7.69,1.15,3.48,.06,6.66-.44,9.08-1.3,.21,.26,.44,.52,.69,.78,.31,.31,.67,.62,1.05,.92,4.26,3.32,12.58,5.67,22.18,5.7,14.04,.05,25.37-4.84,25.3-10.71,0-.25-.03-.49-.07-.74,7.7-.19,13.91-2.82,14.67-6.01,3.94-.49,7.62-1.24,10.92-2.22,3.3-1,6.21-2.21,8.62-3.58,4.82-2.74,7.63-6.12,7.52-9.72-.07-2.32-1.35-4.48-3.56-6.39-1.4-1.22-3.18-2.34-5.27-3.33-2.29-1.08-4.97-2-7.92-2.75l-.6-.16c-.53-1.26-1.45-2.46-2.71-3.57-1.28-1.13-2.9-2.17-4.82-3.09-2.73-1.31-6.04-2.39-9.76-3.17-3.72-.8-7.86-1.31-12.24-1.45-.57-.48-1.22-.94-1.91-1.39-.81-.53-1.69-1.03-2.65-1.51-3.22-1.61-7.22-2.97-11.75-3.9-2.26-.47-4.66-.83-7.16-1.08-2.5-.27-5.1-.42-7.78-.45Z"/></g></g></svg>