<?xml version="1.0" encoding="UTF-8"?><svg id="Layer_2" xmlns="http://www.w3.org/2000/svg" viewBox="0 0 208.56 39.05"><defs><style>.cls-1{fill:#fff;}.cls-2{fill:#f9e9e3;}.cls-3{fill:#fbefea;}</style></defs><g id="clouds"><g><path class="cls-2" d="M189.73,8.99c-1.94-.9-4.5-1.64-7.48-2.17-2.98-.56-6.4-.91-10.05-.99,.5,.24,.98,.49,1.4,.75,3.21,.05,6.25,.31,8.98,.73,2.73,.4,5.16,.97,7.15,1.67Z"/><path class="cls-2" d="M.02,15.64c-.23,2.05,1.79,4.17,5.35,6.07-.29-.21-.55-.41-.8-.62-1.94-1.45-2.95-2.98-2.79-4.47,.28-2.53,3.91-4.46,9.45-5.49-.8-.86-1.19-1.74-1.1-2.6,.42-3.93,10.69-6.07,22.96-4.99,3.55,.31,6.88,.89,9.83,1.59,2.88-.56,6.58-.74,10.58-.43,5.03,.35,9.47,1.4,12.35,2.77,.84-.25,1.84-.44,2.97-.55,2.57-3.1,11.74-4.95,22.52-4.43,2.55,.12,4.99,.35,7.27,.7,3.54-.62,7.8-.9,12.38-.77l1.21,.05c4.69-1.12,10.74-1.77,17.35-1.61,5.2,.1,10.03,.64,14.12,1.54,2.23-.19,4.58-.29,7-.28,7.85,.07,14.86,1.13,19.59,2.91-4.62-2.22-12.47-3.63-21.41-3.71-2.43-.02-4.77,.1-7,.26-4.08-.91-8.91-1.42-14.11-1.55-3.3-.08-6.47,.04-9.39,.33-2.92,.27-5.61,.69-7.95,1.27-.4-.02-.81-.03-1.21-.05-4.57-.13-8.83,.11-12.37,.75-2.28-.35-4.72-.57-7.26-.72-10.78-.51-19.94,1.31-22.52,4.42-1.13,.12-2.13,.29-2.97,.53-2.88-1.37-7.31-2.41-12.34-2.79-4-.31-7.7-.13-10.58,.42-2.94-.72-6.27-1.3-9.82-1.6C19.07,1.49,8.8,3.62,8.37,7.55c-.09,.86,.3,1.74,1.1,2.6C3.93,11.18,.3,13.1,.02,15.64Z"/><path class="cls-2" d="M142.07,34.25l-.36,.09c.45,.22,.93,.44,1.46,.64l-.33-.22c-.28-.16-.54-.33-.77-.5Z"/><path class="cls-3" d="M188.12,28.1c-.56,1.75-5.09,3.25-10.71,3.38,.03,.13,.05,.27,.05,.4,.05,3.22-8.2,5.96-18.43,5.97-7,0-13.08-1.28-16.2-3.1l.33,.22c3.02,1.9,9.26,3.28,16.49,3.27,10.24,0,18.49-2.76,18.44-5.97,0-.14-.02-.27-.06-.4,5.62-.13,10.15-1.64,10.71-3.39,5.76-.57,10.75-1.79,14.28-3.34,3.53-1.55,5.59-3.43,5.51-5.4-.05-1.43-1.22-2.73-3.22-3.85,1.61,1.03,2.54,2.21,2.59,3.48,.07,1.97-1.99,3.85-5.52,5.4-3.52,1.56-8.51,2.76-14.27,3.33Z"/><path class="cls-3" d="M36.75,30.12c-2.25-.48-4.25-1.09-5.89-1.78l-2.17-.16c-10.69-.96-19.77-3.81-24.13-7.1,.25,.21,.52,.42,.8,.62,4.45,3.22,13.4,5.99,23.91,6.92,.73,.05,1.45,.11,2.17,.16,1.31,.55,2.86,1.05,4.57,1.47l1.07,.25c-.12-.13-.23-.26-.34-.39Z"/><path class="cls-3" d="M141.56,33.82c-1.76,.47-4.07,.74-6.61,.7-2.09-.03-4.02-.26-5.61-.64-3.21,.82-7.44,1.27-12.06,1.16-2.5-.08-4.87-.32-7.02-.68-.85,.11-1.73,.2-2.65,.27-2.21,1.16-5.4,2.07-9.24,2.62-3.84,.56-8.33,.8-13.1,.54-1.37-.07-2.72-.17-4.03-.31-4.93,1.03-11.2,1.36-17.98,.95-10.8-.72-20.02-3.36-24.52-6.53,.25,.2,.53,.4,.82,.59,2.29,1.55,5.71,2.96,9.88,4.09,4.17,1.12,9.11,1.91,14.42,2.28,6.79,.4,13.05,.06,17.99-.97,1.31,.13,2.66,.24,4.03,.31,4.77,.26,9.26,0,13.1-.55,3.84-.55,7.04-1.47,9.24-2.63,.92-.07,1.8-.16,2.65-.27,2.15,.36,4.53,.61,7.02,.67,4.62,.11,8.85-.34,12.06-1.16,1.59,.37,3.52,.61,5.61,.64,2.32,.03,4.45-.19,6.15-.59l.36-.09c-.19-.14-.36-.28-.51-.43Z"/><path class="cls-1" d="M150.66,2.11c-2.43-.01-4.78,.09-7,.28-4.09-.9-8.92-1.44-14.12-1.54-6.61-.16-12.66,.5-17.35,1.61l-1.21-.05c-4.58-.14-8.83,.15-12.38,.77-2.28-.35-4.72-.58-7.27-.7-10.78-.52-19.95,1.34-22.52,4.43-1.13,.11-2.13,.3-2.97,.55-2.88-1.37-7.32-2.42-12.35-2.77-4-.31-7.7-.13-10.58,.43-2.94-.7-6.27-1.28-9.83-1.59-12.27-1.08-22.54,1.06-22.96,4.99-.09,.86,.3,1.74,1.1,2.6-5.55,1.03-9.17,2.96-9.45,5.49-.16,1.49,.86,3.02,2.79,4.47,4.36,3.29,13.44,6.14,24.13,7.1l2.17,.16c1.64,.69,3.64,1.3,5.89,1.78,.1,.13,.22,.26,.34,.39,.44,.48,.99,.95,1.64,1.4,4.5,3.17,13.72,5.82,24.52,6.53,6.78,.41,13.05,.07,17.98-.95,1.31,.13,2.65,.24,4.03,.31,4.77,.26,9.26,.02,13.1-.54,3.84-.55,7.04-1.46,9.24-2.62,.92-.07,1.8-.16,2.65-.27,2.15,.36,4.53,.6,7.02,.68,4.62,.11,8.85-.34,12.06-1.16,1.59,.39,3.52,.61,5.61,.64,2.54,.04,4.85-.23,6.61-.7,.15,.14,.32,.29,.51,.43,.23,.17,.49,.34,.77,.5,3.12,1.82,9.19,3.11,16.2,3.1,10.23,0,18.49-2.75,18.43-5.97,0-.14-.02-.27-.05-.4,5.62-.13,10.15-1.63,10.71-3.38,5.76-.57,10.75-1.78,14.27-3.33,3.52-1.55,5.59-3.43,5.52-5.4-.04-1.27-.98-2.44-2.59-3.48-1.02-.66-2.32-1.25-3.85-1.78-1.68-.57-3.63-1.06-5.79-1.44l-.44-.08c-.38-.69-1.06-1.34-1.98-1.94-.94-.61-2.13-1.17-3.53-1.66-2-.7-4.42-1.27-7.15-1.67-2.73-.42-5.76-.68-8.98-.73-.42-.26-.9-.51-1.4-.75-.59-.29-1.24-.56-1.94-.81-4.73-1.78-11.74-2.84-19.59-2.91Z"/></g></g></svg>